G04 #@! TF.FileFunction,Copper,L2,Inr,Plane*
%FSLAX46Y46*%
G04 Gerber Fmt 4.6, Leading zero omitted, Abs format (unit mm)*
G04 Created by KiCad (PCBNEW 4.0.2-stable) date 3/8/2017 2:36:32 PM*
%MOMM*%
G01*
G04 APERTURE LIST*
%ADD10C,0.100000*%
%ADD11C,1.600000*%
%ADD12C,2.000000*%
%ADD13C,0.600000*%
%ADD14C,0.254000*%
G04 APERTURE END LIST*
D10*
D11*
X37000000Y-81800000D03*
X34460000Y-81800000D03*
X31920000Y-81800000D03*
X29380000Y-81800000D03*
X26840000Y-81800000D03*
X24300000Y-81800000D03*
X17000000Y-47800000D03*
X17000000Y-45260000D03*
X17000000Y-42720000D03*
X17000000Y-40180000D03*
X17000000Y-37640000D03*
X17000000Y-35100000D03*
X17000000Y-66100000D03*
X17000000Y-63560000D03*
X17000000Y-61020000D03*
X17000000Y-58480000D03*
X17000000Y-55940000D03*
X17000000Y-53400000D03*
X17000000Y-83400000D03*
X17000000Y-80860000D03*
X17000000Y-78320000D03*
X17000000Y-75780000D03*
X17000000Y-73240000D03*
X17000000Y-70700000D03*
X73700000Y-78080000D03*
X73700000Y-80620000D03*
X73700000Y-83160000D03*
X73700000Y-60300000D03*
X73700000Y-62840000D03*
X73700000Y-65380000D03*
X73700000Y-67920000D03*
X73700000Y-70460000D03*
X73700000Y-73000000D03*
X73700000Y-75540000D03*
D12*
X72136000Y-46132000D03*
X67436000Y-43132000D03*
X72136000Y-40132000D03*
D13*
X56850000Y-47500000D03*
X46000000Y-40050000D03*
X60150000Y-71250000D03*
X54600000Y-71250000D03*
X58750000Y-53700000D03*
X39850000Y-44250000D03*
X40600000Y-62000000D03*
X43600000Y-54500000D03*
X63100000Y-66750000D03*
X51650000Y-47650000D03*
X47250000Y-64550000D03*
X36350000Y-46500000D03*
X65750000Y-45850000D03*
X66500000Y-51550000D03*
X36600000Y-66800000D03*
X66600000Y-68750000D03*
X59436000Y-70104000D03*
X53300000Y-54500000D03*
X47100000Y-66250000D03*
X61100000Y-54600000D03*
X44600000Y-53500000D03*
X30350000Y-44750000D03*
X43350000Y-63950000D03*
X45750000Y-66900000D03*
X42150000Y-61850000D03*
X49500000Y-67050000D03*
X40750000Y-67500000D03*
X38500000Y-60450000D03*
X36050000Y-55350000D03*
X36650000Y-53950000D03*
X71120000Y-76708000D03*
X68580000Y-75692000D03*
X62484000Y-74168000D03*
X62350000Y-79250000D03*
X71850000Y-73500000D03*
X62484000Y-75184000D03*
X62484000Y-77724000D03*
X47800000Y-51550000D03*
X73800000Y-49850000D03*
X48050000Y-60250000D03*
X63000000Y-72500000D03*
X61900000Y-72700000D03*
X47650000Y-61650000D03*
X49200000Y-55400000D03*
X49850000Y-52050000D03*
X54150000Y-51400000D03*
X50500000Y-54650000D03*
X44900000Y-50000000D03*
X46650000Y-42450000D03*
X65532000Y-78232000D03*
X58928000Y-80772000D03*
D14*
G36*
X67875154Y-41544001D02*
X67762648Y-41497284D01*
X67112205Y-41496716D01*
X66511057Y-41745106D01*
X66050722Y-42204637D01*
X65801284Y-42805352D01*
X65800716Y-43455795D01*
X66049106Y-44056943D01*
X66508637Y-44517278D01*
X67109352Y-44766716D01*
X67759795Y-44767284D01*
X67830794Y-44737948D01*
X67724751Y-52373000D01*
X50728282Y-52373000D01*
X50784838Y-52236799D01*
X50785162Y-51864833D01*
X50669607Y-51585167D01*
X53214838Y-51585167D01*
X53356883Y-51928943D01*
X53619673Y-52192192D01*
X53963201Y-52334838D01*
X54335167Y-52335162D01*
X54678943Y-52193117D01*
X54942192Y-51930327D01*
X55084838Y-51586799D01*
X55085162Y-51214833D01*
X54943117Y-50871057D01*
X54680327Y-50607808D01*
X54336799Y-50465162D01*
X53964833Y-50464838D01*
X53621057Y-50606883D01*
X53357808Y-50869673D01*
X53215162Y-51213201D01*
X53214838Y-51585167D01*
X50669607Y-51585167D01*
X50643117Y-51521057D01*
X50380327Y-51257808D01*
X50036799Y-51115162D01*
X49664833Y-51114838D01*
X49321057Y-51256883D01*
X49057808Y-51519673D01*
X48915162Y-51863201D01*
X48914838Y-52235167D01*
X48971789Y-52373000D01*
X48256620Y-52373000D01*
X48328943Y-52343117D01*
X48592192Y-52080327D01*
X48734838Y-51736799D01*
X48735162Y-51364833D01*
X48593117Y-51021057D01*
X48330327Y-50757808D01*
X47986799Y-50615162D01*
X47614833Y-50614838D01*
X47271057Y-50756883D01*
X47007808Y-51019673D01*
X46865162Y-51363201D01*
X46864838Y-51735167D01*
X47006883Y-52078943D01*
X47269673Y-52342192D01*
X47343867Y-52373000D01*
X45100000Y-52373000D01*
X45050590Y-52383006D01*
X45008965Y-52411447D01*
X44981685Y-52453841D01*
X44973018Y-52502152D01*
X44975413Y-52643482D01*
X44786799Y-52565162D01*
X44414833Y-52564838D01*
X44071057Y-52706883D01*
X43807808Y-52969673D01*
X43665162Y-53313201D01*
X43664943Y-53565056D01*
X43414833Y-53564838D01*
X43071057Y-53706883D01*
X42807808Y-53969673D01*
X42665162Y-54313201D01*
X42664838Y-54685167D01*
X42806883Y-55028943D01*
X43069673Y-55292192D01*
X43413201Y-55434838D01*
X43785167Y-55435162D01*
X44128943Y-55293117D01*
X44392192Y-55030327D01*
X44534838Y-54686799D01*
X44535057Y-54434944D01*
X44785167Y-54435162D01*
X45004247Y-54344640D01*
X45064747Y-57914152D01*
X45075589Y-57963386D01*
X45085000Y-57976670D01*
X45085000Y-59108000D01*
X45085018Y-59110152D01*
X45203897Y-66124013D01*
X44957808Y-66369673D01*
X44815162Y-66713201D01*
X44814838Y-67085167D01*
X44830470Y-67123000D01*
X41605898Y-67123000D01*
X41543117Y-66971057D01*
X41280327Y-66707808D01*
X40936799Y-66565162D01*
X40564833Y-66564838D01*
X40221057Y-66706883D01*
X39957808Y-66969673D01*
X39894141Y-67123000D01*
X34227000Y-67123000D01*
X34227000Y-64135167D01*
X42414838Y-64135167D01*
X42556883Y-64478943D01*
X42819673Y-64742192D01*
X43163201Y-64884838D01*
X43535167Y-64885162D01*
X43878943Y-64743117D01*
X44142192Y-64480327D01*
X44284838Y-64136799D01*
X44285162Y-63764833D01*
X44143117Y-63421057D01*
X43880327Y-63157808D01*
X43536799Y-63015162D01*
X43164833Y-63014838D01*
X42821057Y-63156883D01*
X42557808Y-63419673D01*
X42415162Y-63763201D01*
X42414838Y-64135167D01*
X34227000Y-64135167D01*
X34227000Y-62185167D01*
X39664838Y-62185167D01*
X39806883Y-62528943D01*
X40069673Y-62792192D01*
X40413201Y-62934838D01*
X40785167Y-62935162D01*
X41128943Y-62793117D01*
X41392192Y-62530327D01*
X41426213Y-62448395D01*
X41619673Y-62642192D01*
X41963201Y-62784838D01*
X42335167Y-62785162D01*
X42678943Y-62643117D01*
X42942192Y-62380327D01*
X43084838Y-62036799D01*
X43085162Y-61664833D01*
X42943117Y-61321057D01*
X42680327Y-61057808D01*
X42336799Y-60915162D01*
X41964833Y-60914838D01*
X41621057Y-61056883D01*
X41357808Y-61319673D01*
X41323787Y-61401605D01*
X41130327Y-61207808D01*
X40786799Y-61065162D01*
X40414833Y-61064838D01*
X40071057Y-61206883D01*
X39807808Y-61469673D01*
X39665162Y-61813201D01*
X39664838Y-62185167D01*
X34227000Y-62185167D01*
X34227000Y-60635167D01*
X37564838Y-60635167D01*
X37706883Y-60978943D01*
X37969673Y-61242192D01*
X38313201Y-61384838D01*
X38685167Y-61385162D01*
X39028943Y-61243117D01*
X39292192Y-60980327D01*
X39434838Y-60636799D01*
X39435162Y-60264833D01*
X39293117Y-59921057D01*
X39030327Y-59657808D01*
X38686799Y-59515162D01*
X38314833Y-59514838D01*
X37971057Y-59656883D01*
X37707808Y-59919673D01*
X37565162Y-60263201D01*
X37564838Y-60635167D01*
X34227000Y-60635167D01*
X34227000Y-55535167D01*
X35114838Y-55535167D01*
X35256883Y-55878943D01*
X35519673Y-56142192D01*
X35863201Y-56284838D01*
X36235167Y-56285162D01*
X36578943Y-56143117D01*
X36842192Y-55880327D01*
X36984838Y-55536799D01*
X36985162Y-55164833D01*
X36864583Y-54873008D01*
X37178943Y-54743117D01*
X37442192Y-54480327D01*
X37584838Y-54136799D01*
X37585162Y-53764833D01*
X37443117Y-53421057D01*
X37180327Y-53157808D01*
X36836799Y-53015162D01*
X36464833Y-53014838D01*
X36121057Y-53156883D01*
X35857808Y-53419673D01*
X35715162Y-53763201D01*
X35714838Y-54135167D01*
X35835417Y-54426992D01*
X35521057Y-54556883D01*
X35257808Y-54819673D01*
X35115162Y-55163201D01*
X35114838Y-55535167D01*
X34227000Y-55535167D01*
X34227000Y-52500000D01*
X34216994Y-52450590D01*
X34188553Y-52408965D01*
X34146159Y-52381685D01*
X34100000Y-52373000D01*
X31477000Y-52373000D01*
X31477000Y-50185167D01*
X43964838Y-50185167D01*
X44106883Y-50528943D01*
X44369673Y-50792192D01*
X44713201Y-50934838D01*
X45085167Y-50935162D01*
X45428943Y-50793117D01*
X45692192Y-50530327D01*
X45834838Y-50186799D01*
X45835162Y-49814833D01*
X45693117Y-49471057D01*
X45430327Y-49207808D01*
X45086799Y-49065162D01*
X44714833Y-49064838D01*
X44371057Y-49206883D01*
X44107808Y-49469673D01*
X43965162Y-49813201D01*
X43964838Y-50185167D01*
X31477000Y-50185167D01*
X31477000Y-47835167D01*
X50714838Y-47835167D01*
X50856883Y-48178943D01*
X51119673Y-48442192D01*
X51463201Y-48584838D01*
X51835167Y-48585162D01*
X52178943Y-48443117D01*
X52442192Y-48180327D01*
X52584838Y-47836799D01*
X52584970Y-47685167D01*
X55914838Y-47685167D01*
X56056883Y-48028943D01*
X56319673Y-48292192D01*
X56663201Y-48434838D01*
X57035167Y-48435162D01*
X57378943Y-48293117D01*
X57642192Y-48030327D01*
X57784838Y-47686799D01*
X57785162Y-47314833D01*
X57643117Y-46971057D01*
X57380327Y-46707808D01*
X57036799Y-46565162D01*
X56664833Y-46564838D01*
X56321057Y-46706883D01*
X56057808Y-46969673D01*
X55915162Y-47313201D01*
X55914838Y-47685167D01*
X52584970Y-47685167D01*
X52585162Y-47464833D01*
X52443117Y-47121057D01*
X52180327Y-46857808D01*
X51836799Y-46715162D01*
X51464833Y-46714838D01*
X51121057Y-46856883D01*
X50857808Y-47119673D01*
X50715162Y-47463201D01*
X50714838Y-47835167D01*
X31477000Y-47835167D01*
X31477000Y-44435167D01*
X38914838Y-44435167D01*
X39056883Y-44778943D01*
X39319673Y-45042192D01*
X39663201Y-45184838D01*
X40035167Y-45185162D01*
X40378943Y-45043117D01*
X40642192Y-44780327D01*
X40784838Y-44436799D01*
X40785162Y-44064833D01*
X40643117Y-43721057D01*
X40380327Y-43457808D01*
X40036799Y-43315162D01*
X39664833Y-43314838D01*
X39321057Y-43456883D01*
X39057808Y-43719673D01*
X38915162Y-44063201D01*
X38914838Y-44435167D01*
X31477000Y-44435167D01*
X31477000Y-42635167D01*
X45714838Y-42635167D01*
X45856883Y-42978943D01*
X46119673Y-43242192D01*
X46463201Y-43384838D01*
X46835167Y-43385162D01*
X47178943Y-43243117D01*
X47442192Y-42980327D01*
X47584838Y-42636799D01*
X47585162Y-42264833D01*
X47443117Y-41921057D01*
X47180327Y-41657808D01*
X46836799Y-41515162D01*
X46464833Y-41514838D01*
X46121057Y-41656883D01*
X45857808Y-41919673D01*
X45715162Y-42263201D01*
X45714838Y-42635167D01*
X31477000Y-42635167D01*
X31477000Y-40235167D01*
X45064838Y-40235167D01*
X45206883Y-40578943D01*
X45469673Y-40842192D01*
X45813201Y-40984838D01*
X46185167Y-40985162D01*
X46528943Y-40843117D01*
X46792192Y-40580327D01*
X46934838Y-40236799D01*
X46935162Y-39864833D01*
X46793117Y-39521057D01*
X46530327Y-39257808D01*
X46186799Y-39115162D01*
X45814833Y-39114838D01*
X45471057Y-39256883D01*
X45207808Y-39519673D01*
X45065162Y-39863201D01*
X45064838Y-40235167D01*
X31477000Y-40235167D01*
X31477000Y-34627000D01*
X67971224Y-34627000D01*
X67875154Y-41544001D01*
X67875154Y-41544001D01*
G37*
X67875154Y-41544001D02*
X67762648Y-41497284D01*
X67112205Y-41496716D01*
X66511057Y-41745106D01*
X66050722Y-42204637D01*
X65801284Y-42805352D01*
X65800716Y-43455795D01*
X66049106Y-44056943D01*
X66508637Y-44517278D01*
X67109352Y-44766716D01*
X67759795Y-44767284D01*
X67830794Y-44737948D01*
X67724751Y-52373000D01*
X50728282Y-52373000D01*
X50784838Y-52236799D01*
X50785162Y-51864833D01*
X50669607Y-51585167D01*
X53214838Y-51585167D01*
X53356883Y-51928943D01*
X53619673Y-52192192D01*
X53963201Y-52334838D01*
X54335167Y-52335162D01*
X54678943Y-52193117D01*
X54942192Y-51930327D01*
X55084838Y-51586799D01*
X55085162Y-51214833D01*
X54943117Y-50871057D01*
X54680327Y-50607808D01*
X54336799Y-50465162D01*
X53964833Y-50464838D01*
X53621057Y-50606883D01*
X53357808Y-50869673D01*
X53215162Y-51213201D01*
X53214838Y-51585167D01*
X50669607Y-51585167D01*
X50643117Y-51521057D01*
X50380327Y-51257808D01*
X50036799Y-51115162D01*
X49664833Y-51114838D01*
X49321057Y-51256883D01*
X49057808Y-51519673D01*
X48915162Y-51863201D01*
X48914838Y-52235167D01*
X48971789Y-52373000D01*
X48256620Y-52373000D01*
X48328943Y-52343117D01*
X48592192Y-52080327D01*
X48734838Y-51736799D01*
X48735162Y-51364833D01*
X48593117Y-51021057D01*
X48330327Y-50757808D01*
X47986799Y-50615162D01*
X47614833Y-50614838D01*
X47271057Y-50756883D01*
X47007808Y-51019673D01*
X46865162Y-51363201D01*
X46864838Y-51735167D01*
X47006883Y-52078943D01*
X47269673Y-52342192D01*
X47343867Y-52373000D01*
X45100000Y-52373000D01*
X45050590Y-52383006D01*
X45008965Y-52411447D01*
X44981685Y-52453841D01*
X44973018Y-52502152D01*
X44975413Y-52643482D01*
X44786799Y-52565162D01*
X44414833Y-52564838D01*
X44071057Y-52706883D01*
X43807808Y-52969673D01*
X43665162Y-53313201D01*
X43664943Y-53565056D01*
X43414833Y-53564838D01*
X43071057Y-53706883D01*
X42807808Y-53969673D01*
X42665162Y-54313201D01*
X42664838Y-54685167D01*
X42806883Y-55028943D01*
X43069673Y-55292192D01*
X43413201Y-55434838D01*
X43785167Y-55435162D01*
X44128943Y-55293117D01*
X44392192Y-55030327D01*
X44534838Y-54686799D01*
X44535057Y-54434944D01*
X44785167Y-54435162D01*
X45004247Y-54344640D01*
X45064747Y-57914152D01*
X45075589Y-57963386D01*
X45085000Y-57976670D01*
X45085000Y-59108000D01*
X45085018Y-59110152D01*
X45203897Y-66124013D01*
X44957808Y-66369673D01*
X44815162Y-66713201D01*
X44814838Y-67085167D01*
X44830470Y-67123000D01*
X41605898Y-67123000D01*
X41543117Y-66971057D01*
X41280327Y-66707808D01*
X40936799Y-66565162D01*
X40564833Y-66564838D01*
X40221057Y-66706883D01*
X39957808Y-66969673D01*
X39894141Y-67123000D01*
X34227000Y-67123000D01*
X34227000Y-64135167D01*
X42414838Y-64135167D01*
X42556883Y-64478943D01*
X42819673Y-64742192D01*
X43163201Y-64884838D01*
X43535167Y-64885162D01*
X43878943Y-64743117D01*
X44142192Y-64480327D01*
X44284838Y-64136799D01*
X44285162Y-63764833D01*
X44143117Y-63421057D01*
X43880327Y-63157808D01*
X43536799Y-63015162D01*
X43164833Y-63014838D01*
X42821057Y-63156883D01*
X42557808Y-63419673D01*
X42415162Y-63763201D01*
X42414838Y-64135167D01*
X34227000Y-64135167D01*
X34227000Y-62185167D01*
X39664838Y-62185167D01*
X39806883Y-62528943D01*
X40069673Y-62792192D01*
X40413201Y-62934838D01*
X40785167Y-62935162D01*
X41128943Y-62793117D01*
X41392192Y-62530327D01*
X41426213Y-62448395D01*
X41619673Y-62642192D01*
X41963201Y-62784838D01*
X42335167Y-62785162D01*
X42678943Y-62643117D01*
X42942192Y-62380327D01*
X43084838Y-62036799D01*
X43085162Y-61664833D01*
X42943117Y-61321057D01*
X42680327Y-61057808D01*
X42336799Y-60915162D01*
X41964833Y-60914838D01*
X41621057Y-61056883D01*
X41357808Y-61319673D01*
X41323787Y-61401605D01*
X41130327Y-61207808D01*
X40786799Y-61065162D01*
X40414833Y-61064838D01*
X40071057Y-61206883D01*
X39807808Y-61469673D01*
X39665162Y-61813201D01*
X39664838Y-62185167D01*
X34227000Y-62185167D01*
X34227000Y-60635167D01*
X37564838Y-60635167D01*
X37706883Y-60978943D01*
X37969673Y-61242192D01*
X38313201Y-61384838D01*
X38685167Y-61385162D01*
X39028943Y-61243117D01*
X39292192Y-60980327D01*
X39434838Y-60636799D01*
X39435162Y-60264833D01*
X39293117Y-59921057D01*
X39030327Y-59657808D01*
X38686799Y-59515162D01*
X38314833Y-59514838D01*
X37971057Y-59656883D01*
X37707808Y-59919673D01*
X37565162Y-60263201D01*
X37564838Y-60635167D01*
X34227000Y-60635167D01*
X34227000Y-55535167D01*
X35114838Y-55535167D01*
X35256883Y-55878943D01*
X35519673Y-56142192D01*
X35863201Y-56284838D01*
X36235167Y-56285162D01*
X36578943Y-56143117D01*
X36842192Y-55880327D01*
X36984838Y-55536799D01*
X36985162Y-55164833D01*
X36864583Y-54873008D01*
X37178943Y-54743117D01*
X37442192Y-54480327D01*
X37584838Y-54136799D01*
X37585162Y-53764833D01*
X37443117Y-53421057D01*
X37180327Y-53157808D01*
X36836799Y-53015162D01*
X36464833Y-53014838D01*
X36121057Y-53156883D01*
X35857808Y-53419673D01*
X35715162Y-53763201D01*
X35714838Y-54135167D01*
X35835417Y-54426992D01*
X35521057Y-54556883D01*
X35257808Y-54819673D01*
X35115162Y-55163201D01*
X35114838Y-55535167D01*
X34227000Y-55535167D01*
X34227000Y-52500000D01*
X34216994Y-52450590D01*
X34188553Y-52408965D01*
X34146159Y-52381685D01*
X34100000Y-52373000D01*
X31477000Y-52373000D01*
X31477000Y-50185167D01*
X43964838Y-50185167D01*
X44106883Y-50528943D01*
X44369673Y-50792192D01*
X44713201Y-50934838D01*
X45085167Y-50935162D01*
X45428943Y-50793117D01*
X45692192Y-50530327D01*
X45834838Y-50186799D01*
X45835162Y-49814833D01*
X45693117Y-49471057D01*
X45430327Y-49207808D01*
X45086799Y-49065162D01*
X44714833Y-49064838D01*
X44371057Y-49206883D01*
X44107808Y-49469673D01*
X43965162Y-49813201D01*
X43964838Y-50185167D01*
X31477000Y-50185167D01*
X31477000Y-47835167D01*
X50714838Y-47835167D01*
X50856883Y-48178943D01*
X51119673Y-48442192D01*
X51463201Y-48584838D01*
X51835167Y-48585162D01*
X52178943Y-48443117D01*
X52442192Y-48180327D01*
X52584838Y-47836799D01*
X52584970Y-47685167D01*
X55914838Y-47685167D01*
X56056883Y-48028943D01*
X56319673Y-48292192D01*
X56663201Y-48434838D01*
X57035167Y-48435162D01*
X57378943Y-48293117D01*
X57642192Y-48030327D01*
X57784838Y-47686799D01*
X57785162Y-47314833D01*
X57643117Y-46971057D01*
X57380327Y-46707808D01*
X57036799Y-46565162D01*
X56664833Y-46564838D01*
X56321057Y-46706883D01*
X56057808Y-46969673D01*
X55915162Y-47313201D01*
X55914838Y-47685167D01*
X52584970Y-47685167D01*
X52585162Y-47464833D01*
X52443117Y-47121057D01*
X52180327Y-46857808D01*
X51836799Y-46715162D01*
X51464833Y-46714838D01*
X51121057Y-46856883D01*
X50857808Y-47119673D01*
X50715162Y-47463201D01*
X50714838Y-47835167D01*
X31477000Y-47835167D01*
X31477000Y-44435167D01*
X38914838Y-44435167D01*
X39056883Y-44778943D01*
X39319673Y-45042192D01*
X39663201Y-45184838D01*
X40035167Y-45185162D01*
X40378943Y-45043117D01*
X40642192Y-44780327D01*
X40784838Y-44436799D01*
X40785162Y-44064833D01*
X40643117Y-43721057D01*
X40380327Y-43457808D01*
X40036799Y-43315162D01*
X39664833Y-43314838D01*
X39321057Y-43456883D01*
X39057808Y-43719673D01*
X38915162Y-44063201D01*
X38914838Y-44435167D01*
X31477000Y-44435167D01*
X31477000Y-42635167D01*
X45714838Y-42635167D01*
X45856883Y-42978943D01*
X46119673Y-43242192D01*
X46463201Y-43384838D01*
X46835167Y-43385162D01*
X47178943Y-43243117D01*
X47442192Y-42980327D01*
X47584838Y-42636799D01*
X47585162Y-42264833D01*
X47443117Y-41921057D01*
X47180327Y-41657808D01*
X46836799Y-41515162D01*
X46464833Y-41514838D01*
X46121057Y-41656883D01*
X45857808Y-41919673D01*
X45715162Y-42263201D01*
X45714838Y-42635167D01*
X31477000Y-42635167D01*
X31477000Y-40235167D01*
X45064838Y-40235167D01*
X45206883Y-40578943D01*
X45469673Y-40842192D01*
X45813201Y-40984838D01*
X46185167Y-40985162D01*
X46528943Y-40843117D01*
X46792192Y-40580327D01*
X46934838Y-40236799D01*
X46935162Y-39864833D01*
X46793117Y-39521057D01*
X46530327Y-39257808D01*
X46186799Y-39115162D01*
X45814833Y-39114838D01*
X45471057Y-39256883D01*
X45207808Y-39519673D01*
X45065162Y-39863201D01*
X45064838Y-40235167D01*
X31477000Y-40235167D01*
X31477000Y-34627000D01*
X67971224Y-34627000D01*
X67875154Y-41544001D01*
G36*
X16245995Y-33846136D02*
X16171861Y-34092255D01*
X17000000Y-34920395D01*
X17828139Y-34092255D01*
X17754005Y-33846136D01*
X17361349Y-33705000D01*
X29973000Y-33705000D01*
X29973000Y-43894102D01*
X29821057Y-43956883D01*
X29557808Y-44219673D01*
X29415162Y-44563201D01*
X29414838Y-44935167D01*
X29556883Y-45278943D01*
X29819673Y-45542192D01*
X29973000Y-45605859D01*
X29973000Y-53500000D01*
X29983006Y-53549410D01*
X30011447Y-53591035D01*
X30053841Y-53618315D01*
X30100000Y-53627000D01*
X32973000Y-53627000D01*
X32973000Y-68000000D01*
X32983006Y-68049410D01*
X33011447Y-68091035D01*
X33053841Y-68118315D01*
X33100000Y-68127000D01*
X40054769Y-68127000D01*
X40219673Y-68292192D01*
X40563201Y-68434838D01*
X40935167Y-68435162D01*
X41278943Y-68293117D01*
X41445350Y-68127000D01*
X46600000Y-68127000D01*
X46649410Y-68116994D01*
X46691035Y-68088553D01*
X46718315Y-68046159D01*
X46727000Y-68000000D01*
X46727000Y-67235167D01*
X48564838Y-67235167D01*
X48706883Y-67578943D01*
X48969673Y-67842192D01*
X49313201Y-67984838D01*
X49685167Y-67985162D01*
X50028943Y-67843117D01*
X50292192Y-67580327D01*
X50434838Y-67236799D01*
X50435162Y-66864833D01*
X50293117Y-66521057D01*
X50030327Y-66257808D01*
X49686799Y-66115162D01*
X49314833Y-66114838D01*
X48971057Y-66256883D01*
X48707808Y-66519673D01*
X48565162Y-66863201D01*
X48564838Y-67235167D01*
X46727000Y-67235167D01*
X46727000Y-65345234D01*
X47063201Y-65484838D01*
X47435167Y-65485162D01*
X47778943Y-65343117D01*
X48042192Y-65080327D01*
X48184838Y-64736799D01*
X48185162Y-64364833D01*
X48043117Y-64021057D01*
X47780327Y-63757808D01*
X47436799Y-63615162D01*
X47064833Y-63614838D01*
X46727000Y-63754427D01*
X46727000Y-61864601D01*
X46856883Y-62178943D01*
X47119673Y-62442192D01*
X47463201Y-62584838D01*
X47835167Y-62585162D01*
X48178943Y-62443117D01*
X48442192Y-62180327D01*
X48584838Y-61836799D01*
X48585162Y-61464833D01*
X48443117Y-61121057D01*
X48427697Y-61105610D01*
X48578943Y-61043117D01*
X48842192Y-60780327D01*
X48984838Y-60436799D01*
X48985162Y-60064833D01*
X48843117Y-59721057D01*
X48580327Y-59457808D01*
X48236799Y-59315162D01*
X47864833Y-59314838D01*
X47521057Y-59456883D01*
X47257808Y-59719673D01*
X47115162Y-60063201D01*
X47114838Y-60435167D01*
X47256883Y-60778943D01*
X47272303Y-60794390D01*
X47121057Y-60856883D01*
X46857808Y-61119673D01*
X46727000Y-61434692D01*
X46727000Y-55585167D01*
X48264838Y-55585167D01*
X48406883Y-55928943D01*
X48669673Y-56192192D01*
X49013201Y-56334838D01*
X49385167Y-56335162D01*
X49728943Y-56193117D01*
X49992192Y-55930327D01*
X50134838Y-55586799D01*
X50134904Y-55510802D01*
X50313201Y-55584838D01*
X50685167Y-55585162D01*
X51028943Y-55443117D01*
X51292192Y-55180327D01*
X51434838Y-54836799D01*
X51434882Y-54785167D01*
X60164838Y-54785167D01*
X60306883Y-55128943D01*
X60569673Y-55392192D01*
X60913201Y-55534838D01*
X61285167Y-55535162D01*
X61628943Y-55393117D01*
X61892192Y-55130327D01*
X62034838Y-54786799D01*
X62035162Y-54414833D01*
X61893117Y-54071057D01*
X61630327Y-53807808D01*
X61286799Y-53665162D01*
X60914833Y-53664838D01*
X60571057Y-53806883D01*
X60307808Y-54069673D01*
X60165162Y-54413201D01*
X60164838Y-54785167D01*
X51434882Y-54785167D01*
X51435162Y-54464833D01*
X51293117Y-54121057D01*
X51030327Y-53857808D01*
X50686799Y-53715162D01*
X50314833Y-53714838D01*
X49971057Y-53856883D01*
X49707808Y-54119673D01*
X49565162Y-54463201D01*
X49565096Y-54539198D01*
X49386799Y-54465162D01*
X49014833Y-54464838D01*
X48671057Y-54606883D01*
X48407808Y-54869673D01*
X48265162Y-55213201D01*
X48264838Y-55585167D01*
X46727000Y-55585167D01*
X46727000Y-53627000D01*
X57815063Y-53627000D01*
X57814838Y-53885167D01*
X57956883Y-54228943D01*
X58219673Y-54492192D01*
X58563201Y-54634838D01*
X58935167Y-54635162D01*
X59278943Y-54493117D01*
X59542192Y-54230327D01*
X59684838Y-53886799D01*
X59685064Y-53627000D01*
X67477162Y-53627000D01*
X67676101Y-59595170D01*
X67136401Y-59594699D01*
X66498485Y-59858281D01*
X66009996Y-60345918D01*
X65745301Y-60983373D01*
X65744699Y-61673599D01*
X66008281Y-62311515D01*
X66495918Y-62800004D01*
X67133373Y-63064699D01*
X67791771Y-63065273D01*
X68184389Y-74843792D01*
X68051057Y-74898883D01*
X67787808Y-75161673D01*
X67645162Y-75505201D01*
X67644838Y-75877167D01*
X67786883Y-76220943D01*
X68049673Y-76484192D01*
X68241727Y-76563940D01*
X68468696Y-83373000D01*
X21727000Y-83373000D01*
X21727000Y-82807745D01*
X23471861Y-82807745D01*
X23545995Y-83053864D01*
X24083223Y-83246965D01*
X24653454Y-83219778D01*
X25054005Y-83053864D01*
X25128139Y-82807745D01*
X24300000Y-81979605D01*
X23471861Y-82807745D01*
X21727000Y-82807745D01*
X21727000Y-81583223D01*
X22853035Y-81583223D01*
X22880222Y-82153454D01*
X23046136Y-82554005D01*
X23292255Y-82628139D01*
X24120395Y-81800000D01*
X24479605Y-81800000D01*
X25307745Y-82628139D01*
X25553864Y-82554005D01*
X25574805Y-82495746D01*
X25622757Y-82611800D01*
X26026077Y-83015824D01*
X26553309Y-83234750D01*
X27124187Y-83235248D01*
X27651800Y-83017243D01*
X28055824Y-82613923D01*
X28109862Y-82483785D01*
X28162757Y-82611800D01*
X28566077Y-83015824D01*
X29093309Y-83234750D01*
X29664187Y-83235248D01*
X30191800Y-83017243D01*
X30401663Y-82807745D01*
X31091861Y-82807745D01*
X31165995Y-83053864D01*
X31703223Y-83246965D01*
X32273454Y-83219778D01*
X32674005Y-83053864D01*
X32748139Y-82807745D01*
X31920000Y-81979605D01*
X31091861Y-82807745D01*
X30401663Y-82807745D01*
X30595824Y-82613923D01*
X30643448Y-82499232D01*
X30666136Y-82554005D01*
X30912255Y-82628139D01*
X31740395Y-81800000D01*
X32099605Y-81800000D01*
X32927745Y-82628139D01*
X33173864Y-82554005D01*
X33194805Y-82495746D01*
X33242757Y-82611800D01*
X33646077Y-83015824D01*
X34173309Y-83234750D01*
X34744187Y-83235248D01*
X35271800Y-83017243D01*
X35675824Y-82613923D01*
X35729862Y-82483785D01*
X35782757Y-82611800D01*
X36186077Y-83015824D01*
X36713309Y-83234750D01*
X37284187Y-83235248D01*
X37811800Y-83017243D01*
X38215824Y-82613923D01*
X38434750Y-82086691D01*
X38435248Y-81515813D01*
X38217243Y-80988200D01*
X38186265Y-80957167D01*
X57992838Y-80957167D01*
X58134883Y-81300943D01*
X58397673Y-81564192D01*
X58741201Y-81706838D01*
X59113167Y-81707162D01*
X59456943Y-81565117D01*
X59720192Y-81302327D01*
X59862838Y-80958799D01*
X59863162Y-80586833D01*
X59721117Y-80243057D01*
X59458327Y-79979808D01*
X59114799Y-79837162D01*
X58742833Y-79836838D01*
X58399057Y-79978883D01*
X58135808Y-80241673D01*
X57993162Y-80585201D01*
X57992838Y-80957167D01*
X38186265Y-80957167D01*
X37813923Y-80584176D01*
X37286691Y-80365250D01*
X36715813Y-80364752D01*
X36188200Y-80582757D01*
X35784176Y-80986077D01*
X35730138Y-81116215D01*
X35677243Y-80988200D01*
X35273923Y-80584176D01*
X34746691Y-80365250D01*
X34175813Y-80364752D01*
X33648200Y-80582757D01*
X33244176Y-80986077D01*
X33196552Y-81100768D01*
X33173864Y-81045995D01*
X32927745Y-80971861D01*
X32099605Y-81800000D01*
X31740395Y-81800000D01*
X30912255Y-80971861D01*
X30666136Y-81045995D01*
X30645195Y-81104254D01*
X30597243Y-80988200D01*
X30401640Y-80792255D01*
X31091861Y-80792255D01*
X31920000Y-81620395D01*
X32748139Y-80792255D01*
X32674005Y-80546136D01*
X32136777Y-80353035D01*
X31566546Y-80380222D01*
X31165995Y-80546136D01*
X31091861Y-80792255D01*
X30401640Y-80792255D01*
X30193923Y-80584176D01*
X29666691Y-80365250D01*
X29095813Y-80364752D01*
X28568200Y-80582757D01*
X28164176Y-80986077D01*
X28110138Y-81116215D01*
X28057243Y-80988200D01*
X27653923Y-80584176D01*
X27126691Y-80365250D01*
X26555813Y-80364752D01*
X26028200Y-80582757D01*
X25624176Y-80986077D01*
X25576552Y-81100768D01*
X25553864Y-81045995D01*
X25307745Y-80971861D01*
X24479605Y-81800000D01*
X24120395Y-81800000D01*
X23292255Y-80971861D01*
X23046136Y-81045995D01*
X22853035Y-81583223D01*
X21727000Y-81583223D01*
X21727000Y-80792255D01*
X23471861Y-80792255D01*
X24300000Y-81620395D01*
X25128139Y-80792255D01*
X25054005Y-80546136D01*
X24516777Y-80353035D01*
X23946546Y-80380222D01*
X23545995Y-80546136D01*
X23471861Y-80792255D01*
X21727000Y-80792255D01*
X21727000Y-79435167D01*
X61414838Y-79435167D01*
X61556883Y-79778943D01*
X61819673Y-80042192D01*
X62163201Y-80184838D01*
X62535167Y-80185162D01*
X62878943Y-80043117D01*
X63142192Y-79780327D01*
X63284838Y-79436799D01*
X63285162Y-79064833D01*
X63143117Y-78721057D01*
X62960970Y-78538592D01*
X63012943Y-78517117D01*
X63113067Y-78417167D01*
X64596838Y-78417167D01*
X64738883Y-78760943D01*
X65001673Y-79024192D01*
X65345201Y-79166838D01*
X65717167Y-79167162D01*
X66060943Y-79025117D01*
X66324192Y-78762327D01*
X66466838Y-78418799D01*
X66467162Y-78046833D01*
X66325117Y-77703057D01*
X66062327Y-77439808D01*
X65718799Y-77297162D01*
X65346833Y-77296838D01*
X65003057Y-77438883D01*
X64739808Y-77701673D01*
X64597162Y-78045201D01*
X64596838Y-78417167D01*
X63113067Y-78417167D01*
X63276192Y-78254327D01*
X63418838Y-77910799D01*
X63419162Y-77538833D01*
X63277117Y-77195057D01*
X63014327Y-76931808D01*
X62670799Y-76789162D01*
X62298833Y-76788838D01*
X61955057Y-76930883D01*
X61691808Y-77193673D01*
X61549162Y-77537201D01*
X61548838Y-77909167D01*
X61690883Y-78252943D01*
X61873030Y-78435408D01*
X61821057Y-78456883D01*
X61557808Y-78719673D01*
X61415162Y-79063201D01*
X61414838Y-79435167D01*
X21727000Y-79435167D01*
X21727000Y-72843599D01*
X22114699Y-72843599D01*
X22378281Y-73481515D01*
X22865918Y-73970004D01*
X23503373Y-74234699D01*
X24193599Y-74235301D01*
X24831515Y-73971719D01*
X25320004Y-73484082D01*
X25584699Y-72846627D01*
X25585301Y-72156401D01*
X25321719Y-71518485D01*
X25238547Y-71435167D01*
X53664838Y-71435167D01*
X53806883Y-71778943D01*
X54069673Y-72042192D01*
X54413201Y-72184838D01*
X54785167Y-72185162D01*
X55128943Y-72043117D01*
X55223000Y-71949224D01*
X55223000Y-75000000D01*
X55233006Y-75049410D01*
X55261447Y-75091035D01*
X55303841Y-75118315D01*
X55350000Y-75127000D01*
X56850000Y-75127000D01*
X56899410Y-75116994D01*
X56941035Y-75088553D01*
X56968315Y-75046159D01*
X56977000Y-75000000D01*
X56977000Y-69127000D01*
X60223000Y-69127000D01*
X60223000Y-70315063D01*
X59964833Y-70314838D01*
X59621057Y-70456883D01*
X59357808Y-70719673D01*
X59215162Y-71063201D01*
X59214838Y-71435167D01*
X59356883Y-71778943D01*
X59619673Y-72042192D01*
X59963201Y-72184838D01*
X60223000Y-72185064D01*
X60223000Y-75000000D01*
X60233006Y-75049410D01*
X60261447Y-75091035D01*
X60303841Y-75118315D01*
X60350000Y-75127000D01*
X61549049Y-75127000D01*
X61548838Y-75369167D01*
X61690883Y-75712943D01*
X61953673Y-75976192D01*
X62297201Y-76118838D01*
X62669167Y-76119162D01*
X63012943Y-75977117D01*
X63276192Y-75714327D01*
X63418838Y-75370799D01*
X63419162Y-74998833D01*
X63285617Y-74675629D01*
X63418838Y-74354799D01*
X63419162Y-73982833D01*
X63277117Y-73639057D01*
X63073480Y-73435065D01*
X63185167Y-73435162D01*
X63528943Y-73293117D01*
X63792192Y-73030327D01*
X63934838Y-72686799D01*
X63935162Y-72314833D01*
X63793117Y-71971057D01*
X63530327Y-71707808D01*
X63186799Y-71565162D01*
X62814833Y-71564838D01*
X62471057Y-71706883D01*
X62316944Y-71860727D01*
X62086799Y-71765162D01*
X61977000Y-71765066D01*
X61977000Y-66935167D01*
X62164838Y-66935167D01*
X62306883Y-67278943D01*
X62569673Y-67542192D01*
X62913201Y-67684838D01*
X63285167Y-67685162D01*
X63628943Y-67543117D01*
X63892192Y-67280327D01*
X64034838Y-66936799D01*
X64035162Y-66564833D01*
X63893117Y-66221057D01*
X63630327Y-65957808D01*
X63286799Y-65815162D01*
X62914833Y-65814838D01*
X62571057Y-65956883D01*
X62307808Y-66219673D01*
X62165162Y-66563201D01*
X62164838Y-66935167D01*
X61977000Y-66935167D01*
X61977000Y-64250000D01*
X61966994Y-64200590D01*
X61938553Y-64158965D01*
X61896159Y-64131685D01*
X61850000Y-64123000D01*
X55350000Y-64123000D01*
X55300590Y-64133006D01*
X55258965Y-64161447D01*
X55231685Y-64203841D01*
X55223000Y-64250000D01*
X55223000Y-70550643D01*
X55130327Y-70457808D01*
X54786799Y-70315162D01*
X54414833Y-70314838D01*
X54071057Y-70456883D01*
X53807808Y-70719673D01*
X53665162Y-71063201D01*
X53664838Y-71435167D01*
X25238547Y-71435167D01*
X24834082Y-71029996D01*
X24196627Y-70765301D01*
X23506401Y-70764699D01*
X22868485Y-71028281D01*
X22379996Y-71515918D01*
X22115301Y-72153373D01*
X22114699Y-72843599D01*
X21727000Y-72843599D01*
X21727000Y-50000000D01*
X21716994Y-49950590D01*
X21688553Y-49908965D01*
X21646159Y-49881685D01*
X21600000Y-49873000D01*
X14401000Y-49873000D01*
X14401000Y-45544187D01*
X15564752Y-45544187D01*
X15782757Y-46071800D01*
X16186077Y-46475824D01*
X16316215Y-46529862D01*
X16188200Y-46582757D01*
X15784176Y-46986077D01*
X15565250Y-47513309D01*
X15564752Y-48084187D01*
X15782757Y-48611800D01*
X16186077Y-49015824D01*
X16713309Y-49234750D01*
X17284187Y-49235248D01*
X17811800Y-49017243D01*
X18215824Y-48613923D01*
X18434750Y-48086691D01*
X18435248Y-47515813D01*
X18217243Y-46988200D01*
X17813923Y-46584176D01*
X17683785Y-46530138D01*
X17811800Y-46477243D01*
X18215824Y-46073923D01*
X18434750Y-45546691D01*
X18435248Y-44975813D01*
X18217243Y-44448200D01*
X17813923Y-44044176D01*
X17699232Y-43996552D01*
X17754005Y-43973864D01*
X17760109Y-43953599D01*
X21984699Y-43953599D01*
X22248281Y-44591515D01*
X22735918Y-45080004D01*
X23373373Y-45344699D01*
X24063599Y-45345301D01*
X24701515Y-45081719D01*
X25190004Y-44594082D01*
X25454699Y-43956627D01*
X25455301Y-43266401D01*
X25191719Y-42628485D01*
X24704082Y-42139996D01*
X24066627Y-41875301D01*
X23376401Y-41874699D01*
X22738485Y-42138281D01*
X22249996Y-42625918D01*
X21985301Y-43263373D01*
X21984699Y-43953599D01*
X17760109Y-43953599D01*
X17828139Y-43727745D01*
X17000000Y-42899605D01*
X16171861Y-43727745D01*
X16245995Y-43973864D01*
X16304254Y-43994805D01*
X16188200Y-44042757D01*
X15784176Y-44446077D01*
X15565250Y-44973309D01*
X15564752Y-45544187D01*
X14401000Y-45544187D01*
X14401000Y-42503223D01*
X15553035Y-42503223D01*
X15580222Y-43073454D01*
X15746136Y-43474005D01*
X15992255Y-43548139D01*
X16820395Y-42720000D01*
X17179605Y-42720000D01*
X18007745Y-43548139D01*
X18253864Y-43474005D01*
X18446965Y-42936777D01*
X18419778Y-42366546D01*
X18253864Y-41965995D01*
X18007745Y-41891861D01*
X17179605Y-42720000D01*
X16820395Y-42720000D01*
X15992255Y-41891861D01*
X15746136Y-41965995D01*
X15553035Y-42503223D01*
X14401000Y-42503223D01*
X14401000Y-37924187D01*
X15564752Y-37924187D01*
X15782757Y-38451800D01*
X16186077Y-38855824D01*
X16316215Y-38909862D01*
X16188200Y-38962757D01*
X15784176Y-39366077D01*
X15565250Y-39893309D01*
X15564752Y-40464187D01*
X15782757Y-40991800D01*
X16186077Y-41395824D01*
X16300768Y-41443448D01*
X16245995Y-41466136D01*
X16171861Y-41712255D01*
X17000000Y-42540395D01*
X17828139Y-41712255D01*
X17754005Y-41466136D01*
X17695746Y-41445195D01*
X17811800Y-41397243D01*
X18215824Y-40993923D01*
X18434750Y-40466691D01*
X18435248Y-39895813D01*
X18217243Y-39368200D01*
X17813923Y-38964176D01*
X17683785Y-38910138D01*
X17811800Y-38857243D01*
X18215824Y-38453923D01*
X18434750Y-37926691D01*
X18435248Y-37355813D01*
X18217243Y-36828200D01*
X17813923Y-36424176D01*
X17699232Y-36376552D01*
X17754005Y-36353864D01*
X17828139Y-36107745D01*
X17000000Y-35279605D01*
X16171861Y-36107745D01*
X16245995Y-36353864D01*
X16304254Y-36374805D01*
X16188200Y-36422757D01*
X15784176Y-36826077D01*
X15565250Y-37353309D01*
X15564752Y-37924187D01*
X14401000Y-37924187D01*
X14401000Y-34883223D01*
X15553035Y-34883223D01*
X15580222Y-35453454D01*
X15746136Y-35854005D01*
X15992255Y-35928139D01*
X16820395Y-35100000D01*
X17179605Y-35100000D01*
X18007745Y-35928139D01*
X18253864Y-35854005D01*
X18446965Y-35316777D01*
X18419778Y-34746546D01*
X18253864Y-34345995D01*
X18007745Y-34271861D01*
X17179605Y-35100000D01*
X16820395Y-35100000D01*
X15992255Y-34271861D01*
X15746136Y-34345995D01*
X15553035Y-34883223D01*
X14401000Y-34883223D01*
X14401000Y-33705000D01*
X16586727Y-33705000D01*
X16245995Y-33846136D01*
X16245995Y-33846136D01*
G37*
X16245995Y-33846136D02*
X16171861Y-34092255D01*
X17000000Y-34920395D01*
X17828139Y-34092255D01*
X17754005Y-33846136D01*
X17361349Y-33705000D01*
X29973000Y-33705000D01*
X29973000Y-43894102D01*
X29821057Y-43956883D01*
X29557808Y-44219673D01*
X29415162Y-44563201D01*
X29414838Y-44935167D01*
X29556883Y-45278943D01*
X29819673Y-45542192D01*
X29973000Y-45605859D01*
X29973000Y-53500000D01*
X29983006Y-53549410D01*
X30011447Y-53591035D01*
X30053841Y-53618315D01*
X30100000Y-53627000D01*
X32973000Y-53627000D01*
X32973000Y-68000000D01*
X32983006Y-68049410D01*
X33011447Y-68091035D01*
X33053841Y-68118315D01*
X33100000Y-68127000D01*
X40054769Y-68127000D01*
X40219673Y-68292192D01*
X40563201Y-68434838D01*
X40935167Y-68435162D01*
X41278943Y-68293117D01*
X41445350Y-68127000D01*
X46600000Y-68127000D01*
X46649410Y-68116994D01*
X46691035Y-68088553D01*
X46718315Y-68046159D01*
X46727000Y-68000000D01*
X46727000Y-67235167D01*
X48564838Y-67235167D01*
X48706883Y-67578943D01*
X48969673Y-67842192D01*
X49313201Y-67984838D01*
X49685167Y-67985162D01*
X50028943Y-67843117D01*
X50292192Y-67580327D01*
X50434838Y-67236799D01*
X50435162Y-66864833D01*
X50293117Y-66521057D01*
X50030327Y-66257808D01*
X49686799Y-66115162D01*
X49314833Y-66114838D01*
X48971057Y-66256883D01*
X48707808Y-66519673D01*
X48565162Y-66863201D01*
X48564838Y-67235167D01*
X46727000Y-67235167D01*
X46727000Y-65345234D01*
X47063201Y-65484838D01*
X47435167Y-65485162D01*
X47778943Y-65343117D01*
X48042192Y-65080327D01*
X48184838Y-64736799D01*
X48185162Y-64364833D01*
X48043117Y-64021057D01*
X47780327Y-63757808D01*
X47436799Y-63615162D01*
X47064833Y-63614838D01*
X46727000Y-63754427D01*
X46727000Y-61864601D01*
X46856883Y-62178943D01*
X47119673Y-62442192D01*
X47463201Y-62584838D01*
X47835167Y-62585162D01*
X48178943Y-62443117D01*
X48442192Y-62180327D01*
X48584838Y-61836799D01*
X48585162Y-61464833D01*
X48443117Y-61121057D01*
X48427697Y-61105610D01*
X48578943Y-61043117D01*
X48842192Y-60780327D01*
X48984838Y-60436799D01*
X48985162Y-60064833D01*
X48843117Y-59721057D01*
X48580327Y-59457808D01*
X48236799Y-59315162D01*
X47864833Y-59314838D01*
X47521057Y-59456883D01*
X47257808Y-59719673D01*
X47115162Y-60063201D01*
X47114838Y-60435167D01*
X47256883Y-60778943D01*
X47272303Y-60794390D01*
X47121057Y-60856883D01*
X46857808Y-61119673D01*
X46727000Y-61434692D01*
X46727000Y-55585167D01*
X48264838Y-55585167D01*
X48406883Y-55928943D01*
X48669673Y-56192192D01*
X49013201Y-56334838D01*
X49385167Y-56335162D01*
X49728943Y-56193117D01*
X49992192Y-55930327D01*
X50134838Y-55586799D01*
X50134904Y-55510802D01*
X50313201Y-55584838D01*
X50685167Y-55585162D01*
X51028943Y-55443117D01*
X51292192Y-55180327D01*
X51434838Y-54836799D01*
X51434882Y-54785167D01*
X60164838Y-54785167D01*
X60306883Y-55128943D01*
X60569673Y-55392192D01*
X60913201Y-55534838D01*
X61285167Y-55535162D01*
X61628943Y-55393117D01*
X61892192Y-55130327D01*
X62034838Y-54786799D01*
X62035162Y-54414833D01*
X61893117Y-54071057D01*
X61630327Y-53807808D01*
X61286799Y-53665162D01*
X60914833Y-53664838D01*
X60571057Y-53806883D01*
X60307808Y-54069673D01*
X60165162Y-54413201D01*
X60164838Y-54785167D01*
X51434882Y-54785167D01*
X51435162Y-54464833D01*
X51293117Y-54121057D01*
X51030327Y-53857808D01*
X50686799Y-53715162D01*
X50314833Y-53714838D01*
X49971057Y-53856883D01*
X49707808Y-54119673D01*
X49565162Y-54463201D01*
X49565096Y-54539198D01*
X49386799Y-54465162D01*
X49014833Y-54464838D01*
X48671057Y-54606883D01*
X48407808Y-54869673D01*
X48265162Y-55213201D01*
X48264838Y-55585167D01*
X46727000Y-55585167D01*
X46727000Y-53627000D01*
X57815063Y-53627000D01*
X57814838Y-53885167D01*
X57956883Y-54228943D01*
X58219673Y-54492192D01*
X58563201Y-54634838D01*
X58935167Y-54635162D01*
X59278943Y-54493117D01*
X59542192Y-54230327D01*
X59684838Y-53886799D01*
X59685064Y-53627000D01*
X67477162Y-53627000D01*
X67676101Y-59595170D01*
X67136401Y-59594699D01*
X66498485Y-59858281D01*
X66009996Y-60345918D01*
X65745301Y-60983373D01*
X65744699Y-61673599D01*
X66008281Y-62311515D01*
X66495918Y-62800004D01*
X67133373Y-63064699D01*
X67791771Y-63065273D01*
X68184389Y-74843792D01*
X68051057Y-74898883D01*
X67787808Y-75161673D01*
X67645162Y-75505201D01*
X67644838Y-75877167D01*
X67786883Y-76220943D01*
X68049673Y-76484192D01*
X68241727Y-76563940D01*
X68468696Y-83373000D01*
X21727000Y-83373000D01*
X21727000Y-82807745D01*
X23471861Y-82807745D01*
X23545995Y-83053864D01*
X24083223Y-83246965D01*
X24653454Y-83219778D01*
X25054005Y-83053864D01*
X25128139Y-82807745D01*
X24300000Y-81979605D01*
X23471861Y-82807745D01*
X21727000Y-82807745D01*
X21727000Y-81583223D01*
X22853035Y-81583223D01*
X22880222Y-82153454D01*
X23046136Y-82554005D01*
X23292255Y-82628139D01*
X24120395Y-81800000D01*
X24479605Y-81800000D01*
X25307745Y-82628139D01*
X25553864Y-82554005D01*
X25574805Y-82495746D01*
X25622757Y-82611800D01*
X26026077Y-83015824D01*
X26553309Y-83234750D01*
X27124187Y-83235248D01*
X27651800Y-83017243D01*
X28055824Y-82613923D01*
X28109862Y-82483785D01*
X28162757Y-82611800D01*
X28566077Y-83015824D01*
X29093309Y-83234750D01*
X29664187Y-83235248D01*
X30191800Y-83017243D01*
X30401663Y-82807745D01*
X31091861Y-82807745D01*
X31165995Y-83053864D01*
X31703223Y-83246965D01*
X32273454Y-83219778D01*
X32674005Y-83053864D01*
X32748139Y-82807745D01*
X31920000Y-81979605D01*
X31091861Y-82807745D01*
X30401663Y-82807745D01*
X30595824Y-82613923D01*
X30643448Y-82499232D01*
X30666136Y-82554005D01*
X30912255Y-82628139D01*
X31740395Y-81800000D01*
X32099605Y-81800000D01*
X32927745Y-82628139D01*
X33173864Y-82554005D01*
X33194805Y-82495746D01*
X33242757Y-82611800D01*
X33646077Y-83015824D01*
X34173309Y-83234750D01*
X34744187Y-83235248D01*
X35271800Y-83017243D01*
X35675824Y-82613923D01*
X35729862Y-82483785D01*
X35782757Y-82611800D01*
X36186077Y-83015824D01*
X36713309Y-83234750D01*
X37284187Y-83235248D01*
X37811800Y-83017243D01*
X38215824Y-82613923D01*
X38434750Y-82086691D01*
X38435248Y-81515813D01*
X38217243Y-80988200D01*
X38186265Y-80957167D01*
X57992838Y-80957167D01*
X58134883Y-81300943D01*
X58397673Y-81564192D01*
X58741201Y-81706838D01*
X59113167Y-81707162D01*
X59456943Y-81565117D01*
X59720192Y-81302327D01*
X59862838Y-80958799D01*
X59863162Y-80586833D01*
X59721117Y-80243057D01*
X59458327Y-79979808D01*
X59114799Y-79837162D01*
X58742833Y-79836838D01*
X58399057Y-79978883D01*
X58135808Y-80241673D01*
X57993162Y-80585201D01*
X57992838Y-80957167D01*
X38186265Y-80957167D01*
X37813923Y-80584176D01*
X37286691Y-80365250D01*
X36715813Y-80364752D01*
X36188200Y-80582757D01*
X35784176Y-80986077D01*
X35730138Y-81116215D01*
X35677243Y-80988200D01*
X35273923Y-80584176D01*
X34746691Y-80365250D01*
X34175813Y-80364752D01*
X33648200Y-80582757D01*
X33244176Y-80986077D01*
X33196552Y-81100768D01*
X33173864Y-81045995D01*
X32927745Y-80971861D01*
X32099605Y-81800000D01*
X31740395Y-81800000D01*
X30912255Y-80971861D01*
X30666136Y-81045995D01*
X30645195Y-81104254D01*
X30597243Y-80988200D01*
X30401640Y-80792255D01*
X31091861Y-80792255D01*
X31920000Y-81620395D01*
X32748139Y-80792255D01*
X32674005Y-80546136D01*
X32136777Y-80353035D01*
X31566546Y-80380222D01*
X31165995Y-80546136D01*
X31091861Y-80792255D01*
X30401640Y-80792255D01*
X30193923Y-80584176D01*
X29666691Y-80365250D01*
X29095813Y-80364752D01*
X28568200Y-80582757D01*
X28164176Y-80986077D01*
X28110138Y-81116215D01*
X28057243Y-80988200D01*
X27653923Y-80584176D01*
X27126691Y-80365250D01*
X26555813Y-80364752D01*
X26028200Y-80582757D01*
X25624176Y-80986077D01*
X25576552Y-81100768D01*
X25553864Y-81045995D01*
X25307745Y-80971861D01*
X24479605Y-81800000D01*
X24120395Y-81800000D01*
X23292255Y-80971861D01*
X23046136Y-81045995D01*
X22853035Y-81583223D01*
X21727000Y-81583223D01*
X21727000Y-80792255D01*
X23471861Y-80792255D01*
X24300000Y-81620395D01*
X25128139Y-80792255D01*
X25054005Y-80546136D01*
X24516777Y-80353035D01*
X23946546Y-80380222D01*
X23545995Y-80546136D01*
X23471861Y-80792255D01*
X21727000Y-80792255D01*
X21727000Y-79435167D01*
X61414838Y-79435167D01*
X61556883Y-79778943D01*
X61819673Y-80042192D01*
X62163201Y-80184838D01*
X62535167Y-80185162D01*
X62878943Y-80043117D01*
X63142192Y-79780327D01*
X63284838Y-79436799D01*
X63285162Y-79064833D01*
X63143117Y-78721057D01*
X62960970Y-78538592D01*
X63012943Y-78517117D01*
X63113067Y-78417167D01*
X64596838Y-78417167D01*
X64738883Y-78760943D01*
X65001673Y-79024192D01*
X65345201Y-79166838D01*
X65717167Y-79167162D01*
X66060943Y-79025117D01*
X66324192Y-78762327D01*
X66466838Y-78418799D01*
X66467162Y-78046833D01*
X66325117Y-77703057D01*
X66062327Y-77439808D01*
X65718799Y-77297162D01*
X65346833Y-77296838D01*
X65003057Y-77438883D01*
X64739808Y-77701673D01*
X64597162Y-78045201D01*
X64596838Y-78417167D01*
X63113067Y-78417167D01*
X63276192Y-78254327D01*
X63418838Y-77910799D01*
X63419162Y-77538833D01*
X63277117Y-77195057D01*
X63014327Y-76931808D01*
X62670799Y-76789162D01*
X62298833Y-76788838D01*
X61955057Y-76930883D01*
X61691808Y-77193673D01*
X61549162Y-77537201D01*
X61548838Y-77909167D01*
X61690883Y-78252943D01*
X61873030Y-78435408D01*
X61821057Y-78456883D01*
X61557808Y-78719673D01*
X61415162Y-79063201D01*
X61414838Y-79435167D01*
X21727000Y-79435167D01*
X21727000Y-72843599D01*
X22114699Y-72843599D01*
X22378281Y-73481515D01*
X22865918Y-73970004D01*
X23503373Y-74234699D01*
X24193599Y-74235301D01*
X24831515Y-73971719D01*
X25320004Y-73484082D01*
X25584699Y-72846627D01*
X25585301Y-72156401D01*
X25321719Y-71518485D01*
X25238547Y-71435167D01*
X53664838Y-71435167D01*
X53806883Y-71778943D01*
X54069673Y-72042192D01*
X54413201Y-72184838D01*
X54785167Y-72185162D01*
X55128943Y-72043117D01*
X55223000Y-71949224D01*
X55223000Y-75000000D01*
X55233006Y-75049410D01*
X55261447Y-75091035D01*
X55303841Y-75118315D01*
X55350000Y-75127000D01*
X56850000Y-75127000D01*
X56899410Y-75116994D01*
X56941035Y-75088553D01*
X56968315Y-75046159D01*
X56977000Y-75000000D01*
X56977000Y-69127000D01*
X60223000Y-69127000D01*
X60223000Y-70315063D01*
X59964833Y-70314838D01*
X59621057Y-70456883D01*
X59357808Y-70719673D01*
X59215162Y-71063201D01*
X59214838Y-71435167D01*
X59356883Y-71778943D01*
X59619673Y-72042192D01*
X59963201Y-72184838D01*
X60223000Y-72185064D01*
X60223000Y-75000000D01*
X60233006Y-75049410D01*
X60261447Y-75091035D01*
X60303841Y-75118315D01*
X60350000Y-75127000D01*
X61549049Y-75127000D01*
X61548838Y-75369167D01*
X61690883Y-75712943D01*
X61953673Y-75976192D01*
X62297201Y-76118838D01*
X62669167Y-76119162D01*
X63012943Y-75977117D01*
X63276192Y-75714327D01*
X63418838Y-75370799D01*
X63419162Y-74998833D01*
X63285617Y-74675629D01*
X63418838Y-74354799D01*
X63419162Y-73982833D01*
X63277117Y-73639057D01*
X63073480Y-73435065D01*
X63185167Y-73435162D01*
X63528943Y-73293117D01*
X63792192Y-73030327D01*
X63934838Y-72686799D01*
X63935162Y-72314833D01*
X63793117Y-71971057D01*
X63530327Y-71707808D01*
X63186799Y-71565162D01*
X62814833Y-71564838D01*
X62471057Y-71706883D01*
X62316944Y-71860727D01*
X62086799Y-71765162D01*
X61977000Y-71765066D01*
X61977000Y-66935167D01*
X62164838Y-66935167D01*
X62306883Y-67278943D01*
X62569673Y-67542192D01*
X62913201Y-67684838D01*
X63285167Y-67685162D01*
X63628943Y-67543117D01*
X63892192Y-67280327D01*
X64034838Y-66936799D01*
X64035162Y-66564833D01*
X63893117Y-66221057D01*
X63630327Y-65957808D01*
X63286799Y-65815162D01*
X62914833Y-65814838D01*
X62571057Y-65956883D01*
X62307808Y-66219673D01*
X62165162Y-66563201D01*
X62164838Y-66935167D01*
X61977000Y-66935167D01*
X61977000Y-64250000D01*
X61966994Y-64200590D01*
X61938553Y-64158965D01*
X61896159Y-64131685D01*
X61850000Y-64123000D01*
X55350000Y-64123000D01*
X55300590Y-64133006D01*
X55258965Y-64161447D01*
X55231685Y-64203841D01*
X55223000Y-64250000D01*
X55223000Y-70550643D01*
X55130327Y-70457808D01*
X54786799Y-70315162D01*
X54414833Y-70314838D01*
X54071057Y-70456883D01*
X53807808Y-70719673D01*
X53665162Y-71063201D01*
X53664838Y-71435167D01*
X25238547Y-71435167D01*
X24834082Y-71029996D01*
X24196627Y-70765301D01*
X23506401Y-70764699D01*
X22868485Y-71028281D01*
X22379996Y-71515918D01*
X22115301Y-72153373D01*
X22114699Y-72843599D01*
X21727000Y-72843599D01*
X21727000Y-50000000D01*
X21716994Y-49950590D01*
X21688553Y-49908965D01*
X21646159Y-49881685D01*
X21600000Y-49873000D01*
X14401000Y-49873000D01*
X14401000Y-45544187D01*
X15564752Y-45544187D01*
X15782757Y-46071800D01*
X16186077Y-46475824D01*
X16316215Y-46529862D01*
X16188200Y-46582757D01*
X15784176Y-46986077D01*
X15565250Y-47513309D01*
X15564752Y-48084187D01*
X15782757Y-48611800D01*
X16186077Y-49015824D01*
X16713309Y-49234750D01*
X17284187Y-49235248D01*
X17811800Y-49017243D01*
X18215824Y-48613923D01*
X18434750Y-48086691D01*
X18435248Y-47515813D01*
X18217243Y-46988200D01*
X17813923Y-46584176D01*
X17683785Y-46530138D01*
X17811800Y-46477243D01*
X18215824Y-46073923D01*
X18434750Y-45546691D01*
X18435248Y-44975813D01*
X18217243Y-44448200D01*
X17813923Y-44044176D01*
X17699232Y-43996552D01*
X17754005Y-43973864D01*
X17760109Y-43953599D01*
X21984699Y-43953599D01*
X22248281Y-44591515D01*
X22735918Y-45080004D01*
X23373373Y-45344699D01*
X24063599Y-45345301D01*
X24701515Y-45081719D01*
X25190004Y-44594082D01*
X25454699Y-43956627D01*
X25455301Y-43266401D01*
X25191719Y-42628485D01*
X24704082Y-42139996D01*
X24066627Y-41875301D01*
X23376401Y-41874699D01*
X22738485Y-42138281D01*
X22249996Y-42625918D01*
X21985301Y-43263373D01*
X21984699Y-43953599D01*
X17760109Y-43953599D01*
X17828139Y-43727745D01*
X17000000Y-42899605D01*
X16171861Y-43727745D01*
X16245995Y-43973864D01*
X16304254Y-43994805D01*
X16188200Y-44042757D01*
X15784176Y-44446077D01*
X15565250Y-44973309D01*
X15564752Y-45544187D01*
X14401000Y-45544187D01*
X14401000Y-42503223D01*
X15553035Y-42503223D01*
X15580222Y-43073454D01*
X15746136Y-43474005D01*
X15992255Y-43548139D01*
X16820395Y-42720000D01*
X17179605Y-42720000D01*
X18007745Y-43548139D01*
X18253864Y-43474005D01*
X18446965Y-42936777D01*
X18419778Y-42366546D01*
X18253864Y-41965995D01*
X18007745Y-41891861D01*
X17179605Y-42720000D01*
X16820395Y-42720000D01*
X15992255Y-41891861D01*
X15746136Y-41965995D01*
X15553035Y-42503223D01*
X14401000Y-42503223D01*
X14401000Y-37924187D01*
X15564752Y-37924187D01*
X15782757Y-38451800D01*
X16186077Y-38855824D01*
X16316215Y-38909862D01*
X16188200Y-38962757D01*
X15784176Y-39366077D01*
X15565250Y-39893309D01*
X15564752Y-40464187D01*
X15782757Y-40991800D01*
X16186077Y-41395824D01*
X16300768Y-41443448D01*
X16245995Y-41466136D01*
X16171861Y-41712255D01*
X17000000Y-42540395D01*
X17828139Y-41712255D01*
X17754005Y-41466136D01*
X17695746Y-41445195D01*
X17811800Y-41397243D01*
X18215824Y-40993923D01*
X18434750Y-40466691D01*
X18435248Y-39895813D01*
X18217243Y-39368200D01*
X17813923Y-38964176D01*
X17683785Y-38910138D01*
X17811800Y-38857243D01*
X18215824Y-38453923D01*
X18434750Y-37926691D01*
X18435248Y-37355813D01*
X18217243Y-36828200D01*
X17813923Y-36424176D01*
X17699232Y-36376552D01*
X17754005Y-36353864D01*
X17828139Y-36107745D01*
X17000000Y-35279605D01*
X16171861Y-36107745D01*
X16245995Y-36353864D01*
X16304254Y-36374805D01*
X16188200Y-36422757D01*
X15784176Y-36826077D01*
X15565250Y-37353309D01*
X15564752Y-37924187D01*
X14401000Y-37924187D01*
X14401000Y-34883223D01*
X15553035Y-34883223D01*
X15580222Y-35453454D01*
X15746136Y-35854005D01*
X15992255Y-35928139D01*
X16820395Y-35100000D01*
X17179605Y-35100000D01*
X18007745Y-35928139D01*
X18253864Y-35854005D01*
X18446965Y-35316777D01*
X18419778Y-34746546D01*
X18253864Y-34345995D01*
X18007745Y-34271861D01*
X17179605Y-35100000D01*
X16820395Y-35100000D01*
X15992255Y-34271861D01*
X15746136Y-34345995D01*
X15553035Y-34883223D01*
X14401000Y-34883223D01*
X14401000Y-33705000D01*
X16586727Y-33705000D01*
X16245995Y-33846136D01*
G36*
X75973000Y-64123000D02*
X74414760Y-64123000D01*
X74399232Y-64116552D01*
X74454005Y-64093864D01*
X74528139Y-63847745D01*
X73700000Y-63019605D01*
X72871861Y-63847745D01*
X72945995Y-64093864D01*
X73004254Y-64114805D01*
X72984420Y-64123000D01*
X69727000Y-64123000D01*
X69727000Y-62623223D01*
X72253035Y-62623223D01*
X72280222Y-63193454D01*
X72446136Y-63594005D01*
X72692255Y-63668139D01*
X73520395Y-62840000D01*
X73879605Y-62840000D01*
X74707745Y-63668139D01*
X74953864Y-63594005D01*
X75146965Y-63056777D01*
X75119778Y-62486546D01*
X74953864Y-62085995D01*
X74707745Y-62011861D01*
X73879605Y-62840000D01*
X73520395Y-62840000D01*
X72692255Y-62011861D01*
X72446136Y-62085995D01*
X72253035Y-62623223D01*
X69727000Y-62623223D01*
X69727000Y-60584187D01*
X72264752Y-60584187D01*
X72482757Y-61111800D01*
X72886077Y-61515824D01*
X73000768Y-61563448D01*
X72945995Y-61586136D01*
X72871861Y-61832255D01*
X73700000Y-62660395D01*
X74528139Y-61832255D01*
X74454005Y-61586136D01*
X74395746Y-61565195D01*
X74511800Y-61517243D01*
X74915824Y-61113923D01*
X75134750Y-60586691D01*
X75135248Y-60015813D01*
X74917243Y-59488200D01*
X74513923Y-59084176D01*
X73986691Y-58865250D01*
X73415813Y-58864752D01*
X72888200Y-59082757D01*
X72484176Y-59486077D01*
X72265250Y-60013309D01*
X72264752Y-60584187D01*
X69727000Y-60584187D01*
X69727000Y-50035167D01*
X72864838Y-50035167D01*
X73006883Y-50378943D01*
X73269673Y-50642192D01*
X73613201Y-50784838D01*
X73985167Y-50785162D01*
X74328943Y-50643117D01*
X74592192Y-50380327D01*
X74734838Y-50036799D01*
X74735162Y-49664833D01*
X74593117Y-49321057D01*
X74330327Y-49057808D01*
X73986799Y-48915162D01*
X73614833Y-48914838D01*
X73271057Y-49056883D01*
X73007808Y-49319673D01*
X72865162Y-49663201D01*
X72864838Y-50035167D01*
X69727000Y-50035167D01*
X69727000Y-47284532D01*
X71163073Y-47284532D01*
X71261736Y-47551387D01*
X71871461Y-47777908D01*
X72521460Y-47753856D01*
X73010264Y-47551387D01*
X73108927Y-47284532D01*
X72136000Y-46311605D01*
X71163073Y-47284532D01*
X69727000Y-47284532D01*
X69727000Y-45867461D01*
X70490092Y-45867461D01*
X70514144Y-46517460D01*
X70716613Y-47006264D01*
X70983468Y-47104927D01*
X71956395Y-46132000D01*
X72315605Y-46132000D01*
X73288532Y-47104927D01*
X73555387Y-47006264D01*
X73781908Y-46396539D01*
X73757856Y-45746540D01*
X73555387Y-45257736D01*
X73288532Y-45159073D01*
X72315605Y-46132000D01*
X71956395Y-46132000D01*
X70983468Y-45159073D01*
X70716613Y-45257736D01*
X70490092Y-45867461D01*
X69727000Y-45867461D01*
X69727000Y-44979468D01*
X71163073Y-44979468D01*
X72136000Y-45952395D01*
X73108927Y-44979468D01*
X73010264Y-44712613D01*
X72400539Y-44486092D01*
X71750540Y-44510144D01*
X71261736Y-44712613D01*
X71163073Y-44979468D01*
X69727000Y-44979468D01*
X69727000Y-42627000D01*
X75973000Y-42627000D01*
X75973000Y-64123000D01*
X75973000Y-64123000D01*
G37*
X75973000Y-64123000D02*
X74414760Y-64123000D01*
X74399232Y-64116552D01*
X74454005Y-64093864D01*
X74528139Y-63847745D01*
X73700000Y-63019605D01*
X72871861Y-63847745D01*
X72945995Y-64093864D01*
X73004254Y-64114805D01*
X72984420Y-64123000D01*
X69727000Y-64123000D01*
X69727000Y-62623223D01*
X72253035Y-62623223D01*
X72280222Y-63193454D01*
X72446136Y-63594005D01*
X72692255Y-63668139D01*
X73520395Y-62840000D01*
X73879605Y-62840000D01*
X74707745Y-63668139D01*
X74953864Y-63594005D01*
X75146965Y-63056777D01*
X75119778Y-62486546D01*
X74953864Y-62085995D01*
X74707745Y-62011861D01*
X73879605Y-62840000D01*
X73520395Y-62840000D01*
X72692255Y-62011861D01*
X72446136Y-62085995D01*
X72253035Y-62623223D01*
X69727000Y-62623223D01*
X69727000Y-60584187D01*
X72264752Y-60584187D01*
X72482757Y-61111800D01*
X72886077Y-61515824D01*
X73000768Y-61563448D01*
X72945995Y-61586136D01*
X72871861Y-61832255D01*
X73700000Y-62660395D01*
X74528139Y-61832255D01*
X74454005Y-61586136D01*
X74395746Y-61565195D01*
X74511800Y-61517243D01*
X74915824Y-61113923D01*
X75134750Y-60586691D01*
X75135248Y-60015813D01*
X74917243Y-59488200D01*
X74513923Y-59084176D01*
X73986691Y-58865250D01*
X73415813Y-58864752D01*
X72888200Y-59082757D01*
X72484176Y-59486077D01*
X72265250Y-60013309D01*
X72264752Y-60584187D01*
X69727000Y-60584187D01*
X69727000Y-50035167D01*
X72864838Y-50035167D01*
X73006883Y-50378943D01*
X73269673Y-50642192D01*
X73613201Y-50784838D01*
X73985167Y-50785162D01*
X74328943Y-50643117D01*
X74592192Y-50380327D01*
X74734838Y-50036799D01*
X74735162Y-49664833D01*
X74593117Y-49321057D01*
X74330327Y-49057808D01*
X73986799Y-48915162D01*
X73614833Y-48914838D01*
X73271057Y-49056883D01*
X73007808Y-49319673D01*
X72865162Y-49663201D01*
X72864838Y-50035167D01*
X69727000Y-50035167D01*
X69727000Y-47284532D01*
X71163073Y-47284532D01*
X71261736Y-47551387D01*
X71871461Y-47777908D01*
X72521460Y-47753856D01*
X73010264Y-47551387D01*
X73108927Y-47284532D01*
X72136000Y-46311605D01*
X71163073Y-47284532D01*
X69727000Y-47284532D01*
X69727000Y-45867461D01*
X70490092Y-45867461D01*
X70514144Y-46517460D01*
X70716613Y-47006264D01*
X70983468Y-47104927D01*
X71956395Y-46132000D01*
X72315605Y-46132000D01*
X73288532Y-47104927D01*
X73555387Y-47006264D01*
X73781908Y-46396539D01*
X73757856Y-45746540D01*
X73555387Y-45257736D01*
X73288532Y-45159073D01*
X72315605Y-46132000D01*
X71956395Y-46132000D01*
X70983468Y-45159073D01*
X70716613Y-45257736D01*
X70490092Y-45867461D01*
X69727000Y-45867461D01*
X69727000Y-44979468D01*
X71163073Y-44979468D01*
X72136000Y-45952395D01*
X73108927Y-44979468D01*
X73010264Y-44712613D01*
X72400539Y-44486092D01*
X71750540Y-44510144D01*
X71261736Y-44712613D01*
X71163073Y-44979468D01*
X69727000Y-44979468D01*
X69727000Y-42627000D01*
X75973000Y-42627000D01*
X75973000Y-64123000D01*
G36*
X20773000Y-83673000D02*
X18434762Y-83673000D01*
X18435248Y-83115813D01*
X18217243Y-82588200D01*
X17813923Y-82184176D01*
X17683785Y-82130138D01*
X17811800Y-82077243D01*
X18215824Y-81673923D01*
X18434750Y-81146691D01*
X18435248Y-80575813D01*
X18217243Y-80048200D01*
X17813923Y-79644176D01*
X17699232Y-79596552D01*
X17754005Y-79573864D01*
X17828139Y-79327745D01*
X17000000Y-78499605D01*
X16171861Y-79327745D01*
X16245995Y-79573864D01*
X16304254Y-79594805D01*
X16188200Y-79642757D01*
X15784176Y-80046077D01*
X15565250Y-80573309D01*
X15564752Y-81144187D01*
X15782757Y-81671800D01*
X16186077Y-82075824D01*
X16316215Y-82129862D01*
X16188200Y-82182757D01*
X15784176Y-82586077D01*
X15565250Y-83113309D01*
X15564762Y-83673000D01*
X14401000Y-83673000D01*
X14401000Y-78103223D01*
X15553035Y-78103223D01*
X15580222Y-78673454D01*
X15746136Y-79074005D01*
X15992255Y-79148139D01*
X16820395Y-78320000D01*
X17179605Y-78320000D01*
X18007745Y-79148139D01*
X18253864Y-79074005D01*
X18446965Y-78536777D01*
X18419778Y-77966546D01*
X18253864Y-77565995D01*
X18007745Y-77491861D01*
X17179605Y-78320000D01*
X16820395Y-78320000D01*
X15992255Y-77491861D01*
X15746136Y-77565995D01*
X15553035Y-78103223D01*
X14401000Y-78103223D01*
X14401000Y-73524187D01*
X15564752Y-73524187D01*
X15782757Y-74051800D01*
X16186077Y-74455824D01*
X16316215Y-74509862D01*
X16188200Y-74562757D01*
X15784176Y-74966077D01*
X15565250Y-75493309D01*
X15564752Y-76064187D01*
X15782757Y-76591800D01*
X16186077Y-76995824D01*
X16300768Y-77043448D01*
X16245995Y-77066136D01*
X16171861Y-77312255D01*
X17000000Y-78140395D01*
X17828139Y-77312255D01*
X17754005Y-77066136D01*
X17695746Y-77045195D01*
X17811800Y-76997243D01*
X18215824Y-76593923D01*
X18434750Y-76066691D01*
X18435248Y-75495813D01*
X18217243Y-74968200D01*
X17813923Y-74564176D01*
X17683785Y-74510138D01*
X17811800Y-74457243D01*
X18215824Y-74053923D01*
X18434750Y-73526691D01*
X18435248Y-72955813D01*
X18217243Y-72428200D01*
X17813923Y-72024176D01*
X17699232Y-71976552D01*
X17754005Y-71953864D01*
X17828139Y-71707745D01*
X17000000Y-70879605D01*
X16171861Y-71707745D01*
X16245995Y-71953864D01*
X16304254Y-71974805D01*
X16188200Y-72022757D01*
X15784176Y-72426077D01*
X15565250Y-72953309D01*
X15564752Y-73524187D01*
X14401000Y-73524187D01*
X14401000Y-70483223D01*
X15553035Y-70483223D01*
X15580222Y-71053454D01*
X15746136Y-71454005D01*
X15992255Y-71528139D01*
X16820395Y-70700000D01*
X17179605Y-70700000D01*
X18007745Y-71528139D01*
X18253864Y-71454005D01*
X18446965Y-70916777D01*
X18419778Y-70346546D01*
X18253864Y-69945995D01*
X18007745Y-69871861D01*
X17179605Y-70700000D01*
X16820395Y-70700000D01*
X15992255Y-69871861D01*
X15746136Y-69945995D01*
X15553035Y-70483223D01*
X14401000Y-70483223D01*
X14401000Y-69692255D01*
X16171861Y-69692255D01*
X17000000Y-70520395D01*
X17828139Y-69692255D01*
X17754005Y-69446136D01*
X17216777Y-69253035D01*
X16646546Y-69280222D01*
X16245995Y-69446136D01*
X16171861Y-69692255D01*
X14401000Y-69692255D01*
X14401000Y-63844187D01*
X15564752Y-63844187D01*
X15782757Y-64371800D01*
X16186077Y-64775824D01*
X16316215Y-64829862D01*
X16188200Y-64882757D01*
X15784176Y-65286077D01*
X15565250Y-65813309D01*
X15564752Y-66384187D01*
X15782757Y-66911800D01*
X16186077Y-67315824D01*
X16713309Y-67534750D01*
X17284187Y-67535248D01*
X17811800Y-67317243D01*
X18215824Y-66913923D01*
X18434750Y-66386691D01*
X18435248Y-65815813D01*
X18217243Y-65288200D01*
X17813923Y-64884176D01*
X17683785Y-64830138D01*
X17811800Y-64777243D01*
X18215824Y-64373923D01*
X18434750Y-63846691D01*
X18435248Y-63275813D01*
X18217243Y-62748200D01*
X17813923Y-62344176D01*
X17699232Y-62296552D01*
X17754005Y-62273864D01*
X17828139Y-62027745D01*
X17000000Y-61199605D01*
X16171861Y-62027745D01*
X16245995Y-62273864D01*
X16304254Y-62294805D01*
X16188200Y-62342757D01*
X15784176Y-62746077D01*
X15565250Y-63273309D01*
X15564752Y-63844187D01*
X14401000Y-63844187D01*
X14401000Y-60803223D01*
X15553035Y-60803223D01*
X15580222Y-61373454D01*
X15746136Y-61774005D01*
X15992255Y-61848139D01*
X16820395Y-61020000D01*
X17179605Y-61020000D01*
X18007745Y-61848139D01*
X18253864Y-61774005D01*
X18446965Y-61236777D01*
X18419778Y-60666546D01*
X18253864Y-60265995D01*
X18007745Y-60191861D01*
X17179605Y-61020000D01*
X16820395Y-61020000D01*
X15992255Y-60191861D01*
X15746136Y-60265995D01*
X15553035Y-60803223D01*
X14401000Y-60803223D01*
X14401000Y-56224187D01*
X15564752Y-56224187D01*
X15782757Y-56751800D01*
X16186077Y-57155824D01*
X16316215Y-57209862D01*
X16188200Y-57262757D01*
X15784176Y-57666077D01*
X15565250Y-58193309D01*
X15564752Y-58764187D01*
X15782757Y-59291800D01*
X16186077Y-59695824D01*
X16300768Y-59743448D01*
X16245995Y-59766136D01*
X16171861Y-60012255D01*
X17000000Y-60840395D01*
X17828139Y-60012255D01*
X17754005Y-59766136D01*
X17695746Y-59745195D01*
X17811800Y-59697243D01*
X18215824Y-59293923D01*
X18434750Y-58766691D01*
X18435248Y-58195813D01*
X18217243Y-57668200D01*
X17813923Y-57264176D01*
X17683785Y-57210138D01*
X17811800Y-57157243D01*
X18215824Y-56753923D01*
X18434750Y-56226691D01*
X18435248Y-55655813D01*
X18217243Y-55128200D01*
X17813923Y-54724176D01*
X17699232Y-54676552D01*
X17754005Y-54653864D01*
X17828139Y-54407745D01*
X17000000Y-53579605D01*
X16171861Y-54407745D01*
X16245995Y-54653864D01*
X16304254Y-54674805D01*
X16188200Y-54722757D01*
X15784176Y-55126077D01*
X15565250Y-55653309D01*
X15564752Y-56224187D01*
X14401000Y-56224187D01*
X14401000Y-53183223D01*
X15553035Y-53183223D01*
X15580222Y-53753454D01*
X15746136Y-54154005D01*
X15992255Y-54228139D01*
X16820395Y-53400000D01*
X17179605Y-53400000D01*
X18007745Y-54228139D01*
X18253864Y-54154005D01*
X18446965Y-53616777D01*
X18419778Y-53046546D01*
X18253864Y-52645995D01*
X18007745Y-52571861D01*
X17179605Y-53400000D01*
X16820395Y-53400000D01*
X15992255Y-52571861D01*
X15746136Y-52645995D01*
X15553035Y-53183223D01*
X14401000Y-53183223D01*
X14401000Y-52392255D01*
X16171861Y-52392255D01*
X17000000Y-53220395D01*
X17828139Y-52392255D01*
X17754005Y-52146136D01*
X17216777Y-51953035D01*
X16646546Y-51980222D01*
X16245995Y-52146136D01*
X16171861Y-52392255D01*
X14401000Y-52392255D01*
X14401000Y-51877000D01*
X20773000Y-51877000D01*
X20773000Y-83673000D01*
X20773000Y-83673000D01*
G37*
X20773000Y-83673000D02*
X18434762Y-83673000D01*
X18435248Y-83115813D01*
X18217243Y-82588200D01*
X17813923Y-82184176D01*
X17683785Y-82130138D01*
X17811800Y-82077243D01*
X18215824Y-81673923D01*
X18434750Y-81146691D01*
X18435248Y-80575813D01*
X18217243Y-80048200D01*
X17813923Y-79644176D01*
X17699232Y-79596552D01*
X17754005Y-79573864D01*
X17828139Y-79327745D01*
X17000000Y-78499605D01*
X16171861Y-79327745D01*
X16245995Y-79573864D01*
X16304254Y-79594805D01*
X16188200Y-79642757D01*
X15784176Y-80046077D01*
X15565250Y-80573309D01*
X15564752Y-81144187D01*
X15782757Y-81671800D01*
X16186077Y-82075824D01*
X16316215Y-82129862D01*
X16188200Y-82182757D01*
X15784176Y-82586077D01*
X15565250Y-83113309D01*
X15564762Y-83673000D01*
X14401000Y-83673000D01*
X14401000Y-78103223D01*
X15553035Y-78103223D01*
X15580222Y-78673454D01*
X15746136Y-79074005D01*
X15992255Y-79148139D01*
X16820395Y-78320000D01*
X17179605Y-78320000D01*
X18007745Y-79148139D01*
X18253864Y-79074005D01*
X18446965Y-78536777D01*
X18419778Y-77966546D01*
X18253864Y-77565995D01*
X18007745Y-77491861D01*
X17179605Y-78320000D01*
X16820395Y-78320000D01*
X15992255Y-77491861D01*
X15746136Y-77565995D01*
X15553035Y-78103223D01*
X14401000Y-78103223D01*
X14401000Y-73524187D01*
X15564752Y-73524187D01*
X15782757Y-74051800D01*
X16186077Y-74455824D01*
X16316215Y-74509862D01*
X16188200Y-74562757D01*
X15784176Y-74966077D01*
X15565250Y-75493309D01*
X15564752Y-76064187D01*
X15782757Y-76591800D01*
X16186077Y-76995824D01*
X16300768Y-77043448D01*
X16245995Y-77066136D01*
X16171861Y-77312255D01*
X17000000Y-78140395D01*
X17828139Y-77312255D01*
X17754005Y-77066136D01*
X17695746Y-77045195D01*
X17811800Y-76997243D01*
X18215824Y-76593923D01*
X18434750Y-76066691D01*
X18435248Y-75495813D01*
X18217243Y-74968200D01*
X17813923Y-74564176D01*
X17683785Y-74510138D01*
X17811800Y-74457243D01*
X18215824Y-74053923D01*
X18434750Y-73526691D01*
X18435248Y-72955813D01*
X18217243Y-72428200D01*
X17813923Y-72024176D01*
X17699232Y-71976552D01*
X17754005Y-71953864D01*
X17828139Y-71707745D01*
X17000000Y-70879605D01*
X16171861Y-71707745D01*
X16245995Y-71953864D01*
X16304254Y-71974805D01*
X16188200Y-72022757D01*
X15784176Y-72426077D01*
X15565250Y-72953309D01*
X15564752Y-73524187D01*
X14401000Y-73524187D01*
X14401000Y-70483223D01*
X15553035Y-70483223D01*
X15580222Y-71053454D01*
X15746136Y-71454005D01*
X15992255Y-71528139D01*
X16820395Y-70700000D01*
X17179605Y-70700000D01*
X18007745Y-71528139D01*
X18253864Y-71454005D01*
X18446965Y-70916777D01*
X18419778Y-70346546D01*
X18253864Y-69945995D01*
X18007745Y-69871861D01*
X17179605Y-70700000D01*
X16820395Y-70700000D01*
X15992255Y-69871861D01*
X15746136Y-69945995D01*
X15553035Y-70483223D01*
X14401000Y-70483223D01*
X14401000Y-69692255D01*
X16171861Y-69692255D01*
X17000000Y-70520395D01*
X17828139Y-69692255D01*
X17754005Y-69446136D01*
X17216777Y-69253035D01*
X16646546Y-69280222D01*
X16245995Y-69446136D01*
X16171861Y-69692255D01*
X14401000Y-69692255D01*
X14401000Y-63844187D01*
X15564752Y-63844187D01*
X15782757Y-64371800D01*
X16186077Y-64775824D01*
X16316215Y-64829862D01*
X16188200Y-64882757D01*
X15784176Y-65286077D01*
X15565250Y-65813309D01*
X15564752Y-66384187D01*
X15782757Y-66911800D01*
X16186077Y-67315824D01*
X16713309Y-67534750D01*
X17284187Y-67535248D01*
X17811800Y-67317243D01*
X18215824Y-66913923D01*
X18434750Y-66386691D01*
X18435248Y-65815813D01*
X18217243Y-65288200D01*
X17813923Y-64884176D01*
X17683785Y-64830138D01*
X17811800Y-64777243D01*
X18215824Y-64373923D01*
X18434750Y-63846691D01*
X18435248Y-63275813D01*
X18217243Y-62748200D01*
X17813923Y-62344176D01*
X17699232Y-62296552D01*
X17754005Y-62273864D01*
X17828139Y-62027745D01*
X17000000Y-61199605D01*
X16171861Y-62027745D01*
X16245995Y-62273864D01*
X16304254Y-62294805D01*
X16188200Y-62342757D01*
X15784176Y-62746077D01*
X15565250Y-63273309D01*
X15564752Y-63844187D01*
X14401000Y-63844187D01*
X14401000Y-60803223D01*
X15553035Y-60803223D01*
X15580222Y-61373454D01*
X15746136Y-61774005D01*
X15992255Y-61848139D01*
X16820395Y-61020000D01*
X17179605Y-61020000D01*
X18007745Y-61848139D01*
X18253864Y-61774005D01*
X18446965Y-61236777D01*
X18419778Y-60666546D01*
X18253864Y-60265995D01*
X18007745Y-60191861D01*
X17179605Y-61020000D01*
X16820395Y-61020000D01*
X15992255Y-60191861D01*
X15746136Y-60265995D01*
X15553035Y-60803223D01*
X14401000Y-60803223D01*
X14401000Y-56224187D01*
X15564752Y-56224187D01*
X15782757Y-56751800D01*
X16186077Y-57155824D01*
X16316215Y-57209862D01*
X16188200Y-57262757D01*
X15784176Y-57666077D01*
X15565250Y-58193309D01*
X15564752Y-58764187D01*
X15782757Y-59291800D01*
X16186077Y-59695824D01*
X16300768Y-59743448D01*
X16245995Y-59766136D01*
X16171861Y-60012255D01*
X17000000Y-60840395D01*
X17828139Y-60012255D01*
X17754005Y-59766136D01*
X17695746Y-59745195D01*
X17811800Y-59697243D01*
X18215824Y-59293923D01*
X18434750Y-58766691D01*
X18435248Y-58195813D01*
X18217243Y-57668200D01*
X17813923Y-57264176D01*
X17683785Y-57210138D01*
X17811800Y-57157243D01*
X18215824Y-56753923D01*
X18434750Y-56226691D01*
X18435248Y-55655813D01*
X18217243Y-55128200D01*
X17813923Y-54724176D01*
X17699232Y-54676552D01*
X17754005Y-54653864D01*
X17828139Y-54407745D01*
X17000000Y-53579605D01*
X16171861Y-54407745D01*
X16245995Y-54653864D01*
X16304254Y-54674805D01*
X16188200Y-54722757D01*
X15784176Y-55126077D01*
X15565250Y-55653309D01*
X15564752Y-56224187D01*
X14401000Y-56224187D01*
X14401000Y-53183223D01*
X15553035Y-53183223D01*
X15580222Y-53753454D01*
X15746136Y-54154005D01*
X15992255Y-54228139D01*
X16820395Y-53400000D01*
X17179605Y-53400000D01*
X18007745Y-54228139D01*
X18253864Y-54154005D01*
X18446965Y-53616777D01*
X18419778Y-53046546D01*
X18253864Y-52645995D01*
X18007745Y-52571861D01*
X17179605Y-53400000D01*
X16820395Y-53400000D01*
X15992255Y-52571861D01*
X15746136Y-52645995D01*
X15553035Y-53183223D01*
X14401000Y-53183223D01*
X14401000Y-52392255D01*
X16171861Y-52392255D01*
X17000000Y-53220395D01*
X17828139Y-52392255D01*
X17754005Y-52146136D01*
X17216777Y-51953035D01*
X16646546Y-51980222D01*
X16245995Y-52146136D01*
X16171861Y-52392255D01*
X14401000Y-52392255D01*
X14401000Y-51877000D01*
X20773000Y-51877000D01*
X20773000Y-83673000D01*
M02*
