G04 #@! TF.FileFunction,Soldermask,Bot*
%FSLAX46Y46*%
G04 Gerber Fmt 4.6, Leading zero omitted, Abs format (unit mm)*
G04 Created by KiCad (PCBNEW 4.0.2-stable) date 3/8/2017 2:36:32 PM*
%MOMM*%
G01*
G04 APERTURE LIST*
%ADD10C,0.100000*%
%ADD11C,1.600000*%
%ADD12C,2.200000*%
%ADD13C,2.000000*%
G04 APERTURE END LIST*
D10*
D11*
X37000000Y-81800000D03*
X34460000Y-81800000D03*
X31920000Y-81800000D03*
X29380000Y-81800000D03*
X26840000Y-81800000D03*
X24300000Y-81800000D03*
X17000000Y-47800000D03*
X17000000Y-45260000D03*
X17000000Y-42720000D03*
X17000000Y-40180000D03*
X17000000Y-37640000D03*
X17000000Y-35100000D03*
X17000000Y-66100000D03*
X17000000Y-63560000D03*
X17000000Y-61020000D03*
X17000000Y-58480000D03*
X17000000Y-55940000D03*
X17000000Y-53400000D03*
X17000000Y-83400000D03*
X17000000Y-80860000D03*
X17000000Y-78320000D03*
X17000000Y-75780000D03*
X17000000Y-73240000D03*
X17000000Y-70700000D03*
X73700000Y-78080000D03*
X73700000Y-80620000D03*
X73700000Y-83160000D03*
X73700000Y-60300000D03*
X73700000Y-62840000D03*
X73700000Y-65380000D03*
X73700000Y-67920000D03*
X73700000Y-70460000D03*
X73700000Y-73000000D03*
X73700000Y-75540000D03*
D12*
X67480000Y-61330000D03*
X23850000Y-72500000D03*
X23720000Y-43610000D03*
D13*
X72136000Y-46132000D03*
X67436000Y-43132000D03*
X72136000Y-40132000D03*
M02*
