<?xml version="1.0" standalone="no"?>
 <!DOCTYPE svg PUBLIC "-//W3C//DTD SVG 1.1//EN" 
 "http://www.w3.org/Graphics/SVG/1.1/DTD/svg11.dtd"> 
<svg xmlns="http://www.w3.org/2000/svg" version="1.1" 
    width="29.7002cm" height="21.0007cm" viewBox="0 0 116930 82680 ">
<title>SVG Picture created as Logger_KicadProject-F.SilkS.svg date 2017/03/08 14:36:23 </title>
  <desc>Picture generated by PCBNEW </desc>
<g style="fill:#000000; fill-opacity:1;stroke:#000000; stroke-opacity:1;
stroke-linecap:round; stroke-linejoin:round; "
 transform="translate(0 0) scale(1 1)">
</g>
<g style="fill:#000000; fill-opacity:0.0; 
stroke:#000000; stroke-width:-0.000393701; stroke-opacity:1; 
stroke-linecap:round; stroke-linejoin:round;">
</g>
<g style="fill:#000000; fill-opacity:0.0; 
stroke:#000000; stroke-width:39.3701; stroke-opacity:1; 
stroke-linecap:round; stroke-linejoin:round;">
</g>
<g style="fill:#000000; fill-opacity:0.0; 
stroke:#000000; stroke-width:59.0551; stroke-opacity:1; 
stroke-linecap:round; stroke-linejoin:round;">
<rect x="69685.9" y="65357.2" width="42519.7" height="12598.4" rx="0" />
</g>
<g style="fill:#000000; fill-opacity:0.0; 
stroke:#000000; stroke-width:39.3701; stroke-opacity:1; 
stroke-linecap:round; stroke-linejoin:round;">
</g>
<g style="fill:#000000; fill-opacity:0.0; 
stroke:#000000; stroke-width:59.0551; stroke-opacity:1; 
stroke-linecap:round; stroke-linejoin:round;">
<rect x="3937.01" y="3937.01" width="109056" height="74806" rx="0" />
</g>
<g style="fill:#000000; fill-opacity:0.0; 
stroke:#000000; stroke-width:39.3701; stroke-opacity:1; 
stroke-linecap:round; stroke-linejoin:round;">
</g>
<g style="fill:#000000; fill-opacity:0.0; 
stroke:#000000; stroke-width:59.0551; stroke-opacity:1; 
stroke-linecap:round; stroke-linejoin:round;">
<rect x="4724.41" y="4724.41" width="107481" height="73231.2" rx="0" />
</g>
<g style="fill:#000000; fill-opacity:0.0; 
stroke:#000000; stroke-width:39.3701; stroke-opacity:1; 
stroke-linecap:round; stroke-linejoin:round;">
</g>
<g style="fill:#000000; fill-opacity:0.0; 
stroke:#000000; stroke-width:59.0551; stroke-opacity:1; 
stroke-linecap:round; stroke-linejoin:round;">
<path d="M23622 4724
L23622 3937
" />
</g>
<g style="fill:#000000; fill-opacity:0.0; 
stroke:#000000; stroke-width:39.3701; stroke-opacity:1; 
stroke-linecap:round; stroke-linejoin:round;">
</g>
<g style="fill:#000000; fill-opacity:0.0; 
stroke:#000000; stroke-width:59.0551; stroke-opacity:1; 
stroke-linecap:round; stroke-linejoin:round;">
<path d="M43307 4724
L43307 3937
" />
</g>
<g style="fill:#000000; fill-opacity:0.0; 
stroke:#000000; stroke-width:39.3701; stroke-opacity:1; 
stroke-linecap:round; stroke-linejoin:round;">
</g>
<g style="fill:#000000; fill-opacity:0.0; 
stroke:#000000; stroke-width:59.0551; stroke-opacity:1; 
stroke-linecap:round; stroke-linejoin:round;">
<path d="M62992 4724
L62992 3937
" />
</g>
<g style="fill:#000000; fill-opacity:0.0; 
stroke:#000000; stroke-width:39.3701; stroke-opacity:1; 
stroke-linecap:round; stroke-linejoin:round;">
</g>
<g style="fill:#000000; fill-opacity:0.0; 
stroke:#000000; stroke-width:59.0551; stroke-opacity:1; 
stroke-linecap:round; stroke-linejoin:round;">
<path d="M82677 4724
L82677 3937
" />
</g>
<g style="fill:#000000; fill-opacity:0.0; 
stroke:#000000; stroke-width:39.3701; stroke-opacity:1; 
stroke-linecap:round; stroke-linejoin:round;">
</g>
<g style="fill:#000000; fill-opacity:0.0; 
stroke:#000000; stroke-width:59.0551; stroke-opacity:1; 
stroke-linecap:round; stroke-linejoin:round;">
<path d="M102362 4724
L102362 3937
" />
</g>
<g style="fill:#000000; fill-opacity:0.0; 
stroke:#000000; stroke-width:39.3701; stroke-opacity:1; 
stroke-linecap:round; stroke-linejoin:round;">
</g>
<g style="fill:#000000; fill-opacity:0.0; 
stroke:#000000; stroke-width:59.0551; stroke-opacity:1; 
stroke-linecap:round; stroke-linejoin:round;">
<path d="M14169 4562
L13877 4562
" />
<path d="M14023 4562
L14023 4050
L13974 4123
L13925 4172
L13877 4196
" />
</g>
<g style="fill:#000000; fill-opacity:0.0; 
stroke:#000000; stroke-width:39.3701; stroke-opacity:1; 
stroke-linecap:round; stroke-linejoin:round;">
</g>
<g style="fill:#000000; fill-opacity:0.0; 
stroke:#000000; stroke-width:59.0551; stroke-opacity:1; 
stroke-linecap:round; stroke-linejoin:round;">
<path d="M33562 4099
L33586 4074
L33635 4050
L33757 4050
L33805 4074
L33830 4099
L33854 4147
L33854 4196
L33830 4269
L33537 4562
L33854 4562
" />
</g>
<g style="fill:#000000; fill-opacity:0.0; 
stroke:#000000; stroke-width:39.3701; stroke-opacity:1; 
stroke-linecap:round; stroke-linejoin:round;">
</g>
<g style="fill:#000000; fill-opacity:0.0; 
stroke:#000000; stroke-width:59.0551; stroke-opacity:1; 
stroke-linecap:round; stroke-linejoin:round;">
<path d="M53222 4050
L53539 4050
L53368 4245
L53442 4245
L53490 4269
L53515 4294
L53539 4342
L53539 4464
L53515 4513
L53490 4537
L53442 4562
L53295 4562
L53247 4537
L53222 4513
" />
</g>
<g style="fill:#000000; fill-opacity:0.0; 
stroke:#000000; stroke-width:39.3701; stroke-opacity:1; 
stroke-linecap:round; stroke-linejoin:round;">
</g>
<g style="fill:#000000; fill-opacity:0.0; 
stroke:#000000; stroke-width:59.0551; stroke-opacity:1; 
stroke-linecap:round; stroke-linejoin:round;">
<path d="M73175 4221
L73175 4562
" />
<path d="M73053 4026
L72932 4391
L73248 4391
" />
</g>
<g style="fill:#000000; fill-opacity:0.0; 
stroke:#000000; stroke-width:39.3701; stroke-opacity:1; 
stroke-linecap:round; stroke-linejoin:round;">
</g>
<g style="fill:#000000; fill-opacity:0.0; 
stroke:#000000; stroke-width:59.0551; stroke-opacity:1; 
stroke-linecap:round; stroke-linejoin:round;">
<path d="M92885 4050
L92641 4050
L92617 4294
L92641 4269
L92690 4245
L92812 4245
L92860 4269
L92885 4294
L92909 4342
L92909 4464
L92885 4513
L92860 4537
L92812 4562
L92690 4562
L92641 4537
L92617 4513
" />
</g>
<g style="fill:#000000; fill-opacity:0.0; 
stroke:#000000; stroke-width:39.3701; stroke-opacity:1; 
stroke-linecap:round; stroke-linejoin:round;">
</g>
<g style="fill:#000000; fill-opacity:0.0; 
stroke:#000000; stroke-width:59.0551; stroke-opacity:1; 
stroke-linecap:round; stroke-linejoin:round;">
<path d="M112545 4050
L112448 4050
L112399 4074
L112375 4099
L112326 4172
L112302 4269
L112302 4464
L112326 4513
L112350 4537
L112399 4562
L112497 4562
L112545 4537
L112570 4513
L112594 4464
L112594 4342
L112570 4294
L112545 4269
L112497 4245
L112399 4245
L112350 4269
L112326 4294
L112302 4342
" />
</g>
<g style="fill:#000000; fill-opacity:0.0; 
stroke:#000000; stroke-width:39.3701; stroke-opacity:1; 
stroke-linecap:round; stroke-linejoin:round;">
</g>
<g style="fill:#000000; fill-opacity:0.0; 
stroke:#000000; stroke-width:59.0551; stroke-opacity:1; 
stroke-linecap:round; stroke-linejoin:round;">
<path d="M23622 77955
L23622 78742
" />
</g>
<g style="fill:#000000; fill-opacity:0.0; 
stroke:#000000; stroke-width:39.3701; stroke-opacity:1; 
stroke-linecap:round; stroke-linejoin:round;">
</g>
<g style="fill:#000000; fill-opacity:0.0; 
stroke:#000000; stroke-width:59.0551; stroke-opacity:1; 
stroke-linecap:round; stroke-linejoin:round;">
<path d="M43307 77955
L43307 78742
" />
</g>
<g style="fill:#000000; fill-opacity:0.0; 
stroke:#000000; stroke-width:39.3701; stroke-opacity:1; 
stroke-linecap:round; stroke-linejoin:round;">
</g>
<g style="fill:#000000; fill-opacity:0.0; 
stroke:#000000; stroke-width:59.0551; stroke-opacity:1; 
stroke-linecap:round; stroke-linejoin:round;">
<path d="M62992 77955
L62992 78742
" />
</g>
<g style="fill:#000000; fill-opacity:0.0; 
stroke:#000000; stroke-width:39.3701; stroke-opacity:1; 
stroke-linecap:round; stroke-linejoin:round;">
</g>
<g style="fill:#000000; fill-opacity:0.0; 
stroke:#000000; stroke-width:59.0551; stroke-opacity:1; 
stroke-linecap:round; stroke-linejoin:round;">
<path d="M82677 77955
L82677 78742
" />
</g>
<g style="fill:#000000; fill-opacity:0.0; 
stroke:#000000; stroke-width:39.3701; stroke-opacity:1; 
stroke-linecap:round; stroke-linejoin:round;">
</g>
<g style="fill:#000000; fill-opacity:0.0; 
stroke:#000000; stroke-width:59.0551; stroke-opacity:1; 
stroke-linecap:round; stroke-linejoin:round;">
<path d="M102362 77955
L102362 78742
" />
</g>
<g style="fill:#000000; fill-opacity:0.0; 
stroke:#000000; stroke-width:39.3701; stroke-opacity:1; 
stroke-linecap:round; stroke-linejoin:round;">
</g>
<g style="fill:#000000; fill-opacity:0.0; 
stroke:#000000; stroke-width:59.0551; stroke-opacity:1; 
stroke-linecap:round; stroke-linejoin:round;">
<path d="M14169 78580
L13877 78580
" />
<path d="M14023 78580
L14023 78069
L13974 78142
L13925 78190
L13877 78215
" />
</g>
<g style="fill:#000000; fill-opacity:0.0; 
stroke:#000000; stroke-width:39.3701; stroke-opacity:1; 
stroke-linecap:round; stroke-linejoin:round;">
</g>
<g style="fill:#000000; fill-opacity:0.0; 
stroke:#000000; stroke-width:59.0551; stroke-opacity:1; 
stroke-linecap:round; stroke-linejoin:round;">
<path d="M33562 78117
L33586 78093
L33635 78069
L33757 78069
L33805 78093
L33830 78117
L33854 78166
L33854 78215
L33830 78288
L33537 78580
L33854 78580
" />
</g>
<g style="fill:#000000; fill-opacity:0.0; 
stroke:#000000; stroke-width:39.3701; stroke-opacity:1; 
stroke-linecap:round; stroke-linejoin:round;">
</g>
<g style="fill:#000000; fill-opacity:0.0; 
stroke:#000000; stroke-width:59.0551; stroke-opacity:1; 
stroke-linecap:round; stroke-linejoin:round;">
<path d="M53222 78069
L53539 78069
L53368 78263
L53442 78263
L53490 78288
L53515 78312
L53539 78361
L53539 78483
L53515 78532
L53490 78556
L53442 78580
L53295 78580
L53247 78556
L53222 78532
" />
</g>
<g style="fill:#000000; fill-opacity:0.0; 
stroke:#000000; stroke-width:39.3701; stroke-opacity:1; 
stroke-linecap:round; stroke-linejoin:round;">
</g>
<g style="fill:#000000; fill-opacity:0.0; 
stroke:#000000; stroke-width:59.0551; stroke-opacity:1; 
stroke-linecap:round; stroke-linejoin:round;">
<path d="M73175 78239
L73175 78580
" />
<path d="M73053 78044
L72932 78410
L73248 78410
" />
</g>
<g style="fill:#000000; fill-opacity:0.0; 
stroke:#000000; stroke-width:39.3701; stroke-opacity:1; 
stroke-linecap:round; stroke-linejoin:round;">
</g>
<g style="fill:#000000; fill-opacity:0.0; 
stroke:#000000; stroke-width:59.0551; stroke-opacity:1; 
stroke-linecap:round; stroke-linejoin:round;">
<path d="M92885 78069
L92641 78069
L92617 78312
L92641 78288
L92690 78263
L92812 78263
L92860 78288
L92885 78312
L92909 78361
L92909 78483
L92885 78532
L92860 78556
L92812 78580
L92690 78580
L92641 78556
L92617 78532
" />
</g>
<g style="fill:#000000; fill-opacity:0.0; 
stroke:#000000; stroke-width:39.3701; stroke-opacity:1; 
stroke-linecap:round; stroke-linejoin:round;">
</g>
<g style="fill:#000000; fill-opacity:0.0; 
stroke:#000000; stroke-width:59.0551; stroke-opacity:1; 
stroke-linecap:round; stroke-linejoin:round;">
<path d="M112545 78069
L112448 78069
L112399 78093
L112375 78117
L112326 78190
L112302 78288
L112302 78483
L112326 78532
L112350 78556
L112399 78580
L112497 78580
L112545 78556
L112570 78532
L112594 78483
L112594 78361
L112570 78312
L112545 78288
L112497 78263
L112399 78263
L112350 78288
L112326 78312
L112302 78361
" />
</g>
<g style="fill:#000000; fill-opacity:0.0; 
stroke:#000000; stroke-width:39.3701; stroke-opacity:1; 
stroke-linecap:round; stroke-linejoin:round;">
</g>
<g style="fill:#000000; fill-opacity:0.0; 
stroke:#000000; stroke-width:59.0551; stroke-opacity:1; 
stroke-linecap:round; stroke-linejoin:round;">
<path d="M3937 23622
L4724 23622
" />
</g>
<g style="fill:#000000; fill-opacity:0.0; 
stroke:#000000; stroke-width:39.3701; stroke-opacity:1; 
stroke-linecap:round; stroke-linejoin:round;">
</g>
<g style="fill:#000000; fill-opacity:0.0; 
stroke:#000000; stroke-width:59.0551; stroke-opacity:1; 
stroke-linecap:round; stroke-linejoin:round;">
<path d="M3937 43307
L4724 43307
" />
</g>
<g style="fill:#000000; fill-opacity:0.0; 
stroke:#000000; stroke-width:39.3701; stroke-opacity:1; 
stroke-linecap:round; stroke-linejoin:round;">
</g>
<g style="fill:#000000; fill-opacity:0.0; 
stroke:#000000; stroke-width:59.0551; stroke-opacity:1; 
stroke-linecap:round; stroke-linejoin:round;">
<path d="M3937 62992
L4724 62992
" />
</g>
<g style="fill:#000000; fill-opacity:0.0; 
stroke:#000000; stroke-width:39.3701; stroke-opacity:1; 
stroke-linecap:round; stroke-linejoin:round;">
</g>
<g style="fill:#000000; fill-opacity:0.0; 
stroke:#000000; stroke-width:59.0551; stroke-opacity:1; 
stroke-linecap:round; stroke-linejoin:round;">
<path d="M4208 13864
L4452 13864
" />
<path d="M4160 14011
L4330 13499
L4501 14011
" />
</g>
<g style="fill:#000000; fill-opacity:0.0; 
stroke:#000000; stroke-width:39.3701; stroke-opacity:1; 
stroke-linecap:round; stroke-linejoin:round;">
</g>
<g style="fill:#000000; fill-opacity:0.0; 
stroke:#000000; stroke-width:59.0551; stroke-opacity:1; 
stroke-linecap:round; stroke-linejoin:round;">
<path d="M4367 33428
L4440 33452
L4464 33476
L4489 33525
L4489 33598
L4464 33647
L4440 33671
L4391 33696
L4196 33696
L4196 33184
L4367 33184
L4416 33208
L4440 33233
L4464 33281
L4464 33330
L4440 33379
L4416 33403
L4367 33428
L4196 33428
" />
</g>
<g style="fill:#000000; fill-opacity:0.0; 
stroke:#000000; stroke-width:39.3701; stroke-opacity:1; 
stroke-linecap:round; stroke-linejoin:round;">
</g>
<g style="fill:#000000; fill-opacity:0.0; 
stroke:#000000; stroke-width:59.0551; stroke-opacity:1; 
stroke-linecap:round; stroke-linejoin:round;">
<path d="M4489 53332
L4464 53356
L4391 53381
L4342 53381
L4269 53356
L4221 53308
L4196 53259
L4172 53161
L4172 53088
L4196 52991
L4221 52942
L4269 52893
L4342 52869
L4391 52869
L4464 52893
L4489 52918
" />
</g>
<g style="fill:#000000; fill-opacity:0.0; 
stroke:#000000; stroke-width:39.3701; stroke-opacity:1; 
stroke-linecap:round; stroke-linejoin:round;">
</g>
<g style="fill:#000000; fill-opacity:0.0; 
stroke:#000000; stroke-width:59.0551; stroke-opacity:1; 
stroke-linecap:round; stroke-linejoin:round;">
<path d="M4196 73066
L4196 72554
L4318 72554
L4391 72578
L4440 72627
L4464 72676
L4489 72773
L4489 72846
L4464 72944
L4440 72993
L4391 73041
L4318 73066
L4196 73066
" />
</g>
<g style="fill:#000000; fill-opacity:0.0; 
stroke:#000000; stroke-width:39.3701; stroke-opacity:1; 
stroke-linecap:round; stroke-linejoin:round;">
</g>
<g style="fill:#000000; fill-opacity:0.0; 
stroke:#000000; stroke-width:59.0551; stroke-opacity:1; 
stroke-linecap:round; stroke-linejoin:round;">
<path d="M112992 23622
L112205 23622
" />
</g>
<g style="fill:#000000; fill-opacity:0.0; 
stroke:#000000; stroke-width:39.3701; stroke-opacity:1; 
stroke-linecap:round; stroke-linejoin:round;">
</g>
<g style="fill:#000000; fill-opacity:0.0; 
stroke:#000000; stroke-width:59.0551; stroke-opacity:1; 
stroke-linecap:round; stroke-linejoin:round;">
<path d="M112992 43307
L112205 43307
" />
</g>
<g style="fill:#000000; fill-opacity:0.0; 
stroke:#000000; stroke-width:39.3701; stroke-opacity:1; 
stroke-linecap:round; stroke-linejoin:round;">
</g>
<g style="fill:#000000; fill-opacity:0.0; 
stroke:#000000; stroke-width:59.0551; stroke-opacity:1; 
stroke-linecap:round; stroke-linejoin:round;">
<path d="M112992 62992
L112205 62992
" />
</g>
<g style="fill:#000000; fill-opacity:0.0; 
stroke:#000000; stroke-width:39.3701; stroke-opacity:1; 
stroke-linecap:round; stroke-linejoin:round;">
</g>
<g style="fill:#000000; fill-opacity:0.0; 
stroke:#000000; stroke-width:59.0551; stroke-opacity:1; 
stroke-linecap:round; stroke-linejoin:round;">
<path d="M112477 13864
L112721 13864
" />
<path d="M112428 14011
L112599 13499
L112769 14011
" />
</g>
<g style="fill:#000000; fill-opacity:0.0; 
stroke:#000000; stroke-width:39.3701; stroke-opacity:1; 
stroke-linecap:round; stroke-linejoin:round;">
</g>
<g style="fill:#000000; fill-opacity:0.0; 
stroke:#000000; stroke-width:59.0551; stroke-opacity:1; 
stroke-linecap:round; stroke-linejoin:round;">
<path d="M112635 33428
L112708 33452
L112733 33476
L112757 33525
L112757 33598
L112733 33647
L112708 33671
L112660 33696
L112465 33696
L112465 33184
L112635 33184
L112684 33208
L112708 33233
L112733 33281
L112733 33330
L112708 33379
L112684 33403
L112635 33428
L112465 33428
" />
</g>
<g style="fill:#000000; fill-opacity:0.0; 
stroke:#000000; stroke-width:39.3701; stroke-opacity:1; 
stroke-linecap:round; stroke-linejoin:round;">
</g>
<g style="fill:#000000; fill-opacity:0.0; 
stroke:#000000; stroke-width:59.0551; stroke-opacity:1; 
stroke-linecap:round; stroke-linejoin:round;">
<path d="M112757 53332
L112733 53356
L112660 53381
L112611 53381
L112538 53356
L112489 53308
L112465 53259
L112440 53161
L112440 53088
L112465 52991
L112489 52942
L112538 52893
L112611 52869
L112660 52869
L112733 52893
L112757 52918
" />
</g>
<g style="fill:#000000; fill-opacity:0.0; 
stroke:#000000; stroke-width:39.3701; stroke-opacity:1; 
stroke-linecap:round; stroke-linejoin:round;">
</g>
<g style="fill:#000000; fill-opacity:0.0; 
stroke:#000000; stroke-width:59.0551; stroke-opacity:1; 
stroke-linecap:round; stroke-linejoin:round;">
<path d="M112465 73066
L112465 72554
L112587 72554
L112660 72578
L112708 72627
L112733 72676
L112757 72773
L112757 72846
L112733 72944
L112708 72993
L112660 73041
L112587 73066
L112465 73066
" />
</g>
<g style="fill:#000000; fill-opacity:0.0; 
stroke:#000000; stroke-width:39.3701; stroke-opacity:1; 
stroke-linecap:round; stroke-linejoin:round;">
</g>
<g style="fill:#000000; fill-opacity:0.0; 
stroke:#000000; stroke-width:59.0551; stroke-opacity:1; 
stroke-linecap:round; stroke-linejoin:round;">
<path d="M78881 76293
L78881 75703
L79022 75703
L79106 75731
L79162 75787
L79190 75843
L79219 75956
L79219 76040
L79190 76153
L79162 76209
L79106 76265
L79022 76293
L78881 76293
" />
<path d="M79725 76293
L79725 75984
L79697 75928
L79640 75899
L79528 75899
L79472 75928
" />
<path d="M79725 76265
L79669 76293
L79528 76293
L79472 76265
L79444 76209
L79444 76153
L79472 76096
L79528 76068
L79669 76068
L79725 76040
" />
<path d="M79922 75899
L80147 75899
" />
<path d="M80006 75703
L80006 76209
L80034 76265
L80090 76293
L80147 76293
" />
<path d="M80568 76265
L80512 76293
L80400 76293
L80343 76265
L80315 76209
L80315 75984
L80343 75928
L80400 75899
L80512 75899
L80568 75928
L80597 75984
L80597 76040
L80315 76096
" />
<path d="M80850 76237
L80878 76265
L80850 76293
L80822 76265
L80850 76237
L80850 76293
" />
<path d="M80850 75928
L80878 75956
L80850 75984
L80822 75956
L80850 75928
L80850 75984
" />
</g>
<g style="fill:#000000; fill-opacity:0.0; 
stroke:#000000; stroke-width:39.3701; stroke-opacity:1; 
stroke-linecap:round; stroke-linejoin:round;">
</g>
<g style="fill:#000000; fill-opacity:0.0; 
stroke:#000000; stroke-width:59.0551; stroke-opacity:1; 
stroke-linecap:round; stroke-linejoin:round;">
<path d="M69685 76577
L112205 76577
" />
</g>
<g style="fill:#000000; fill-opacity:0.0; 
stroke:#000000; stroke-width:39.3701; stroke-opacity:1; 
stroke-linecap:round; stroke-linejoin:round;">
</g>
<g style="fill:#000000; fill-opacity:0.0; 
stroke:#000000; stroke-width:59.0551; stroke-opacity:1; 
stroke-linecap:round; stroke-linejoin:round;">
<path d="M70220 77395
L70220 76805
" />
<path d="M70557 77395
L70304 77058
" />
<path d="M70557 76805
L70220 77142
" />
<path d="M70810 77395
L70810 77002
" />
<path d="M70810 76805
L70782 76833
L70810 76861
L70838 76833
L70810 76805
L70810 76861
" />
<path d="M71429 77339
L71401 77367
L71316 77395
L71260 77395
L71176 77367
L71120 77311
L71091 77255
L71063 77142
L71063 77058
L71091 76946
L71120 76889
L71176 76833
L71260 76805
L71316 76805
L71401 76833
L71429 76861
" />
<path d="M71935 77395
L71935 77086
L71907 77030
L71851 77002
L71738 77002
L71682 77030
" />
<path d="M71935 77367
L71879 77395
L71738 77395
L71682 77367
L71654 77311
L71654 77255
L71682 77199
L71738 77171
L71879 77171
L71935 77142
" />
<path d="M72469 77395
L72469 76805
" />
<path d="M72469 77367
L72413 77395
L72301 77395
L72244 77367
L72216 77339
L72188 77283
L72188 77114
L72216 77058
L72244 77030
L72301 77002
L72413 77002
L72469 77030
" />
<path d="M73201 77086
L73397 77086
" />
<path d="M73482 77395
L73201 77395
L73201 76805
L73482 76805
" />
<path d="M73735 77339
L73763 77367
L73735 77395
L73707 77367
L73735 77339
L73735 77395
" />
<path d="M74016 77395
L74016 76805
L74157 76805
L74241 76833
L74297 76889
L74325 76946
L74354 77058
L74354 77142
L74325 77255
L74297 77311
L74241 77367
L74157 77395
L74016 77395
" />
<path d="M74607 77339
L74635 77367
L74607 77395
L74579 77367
L74607 77339
L74607 77395
" />
<path d="M74860 77227
L75141 77227
" />
<path d="M74804 77395
L75000 76805
L75197 77395
" />
<path d="M75394 77339
L75422 77367
L75394 77395
L75366 77367
L75394 77339
L75394 77395
" />
<path d="M76575 77395
L76575 76805
" />
<path d="M76631 77171
L76800 77395
" />
<path d="M76800 77002
L76575 77227
" />
<path d="M77053 77395
L77053 77002
" />
<path d="M77053 76805
L77025 76833
L77053 76861
L77081 76833
L77053 76805
L77053 76861
" />
<path d="M77588 77367
L77531 77395
L77419 77395
L77363 77367
L77334 77339
L77306 77283
L77306 77114
L77334 77058
L77363 77030
L77419 77002
L77531 77002
L77588 77030
" />
<path d="M78094 77395
L78094 77086
L78066 77030
L78009 77002
L77897 77002
L77841 77030
" />
<path d="M78094 77367
L78037 77395
L77897 77395
L77841 77367
L77813 77311
L77813 77255
L77841 77199
L77897 77171
L78037 77171
L78094 77142
" />
<path d="M78628 77395
L78628 76805
" />
<path d="M78628 77367
L78572 77395
L78459 77395
L78403 77367
L78375 77339
L78347 77283
L78347 77114
L78375 77058
L78403 77030
L78459 77002
L78572 77002
L78628 77030
" />
<path d="M79612 77002
L79612 77395
" />
<path d="M79472 76777
L79331 77199
L79697 77199
" />
<path d="M79922 77339
L79950 77367
L79922 77395
L79894 77367
L79922 77339
L79922 77395
" />
<path d="M80315 76805
L80372 76805
L80428 76833
L80456 76861
L80484 76917
L80512 77030
L80512 77171
L80484 77283
L80456 77339
L80428 77367
L80372 77395
L80315 77395
L80259 77367
L80231 77339
L80203 77283
L80175 77171
L80175 77030
L80203 76917
L80231 76861
L80259 76833
L80315 76805
" />
<path d="M80765 77339
L80793 77367
L80765 77395
L80737 77367
L80765 77339
L80765 77395
" />
<path d="M81018 76861
L81046 76833
L81103 76805
L81243 76805
L81300 76833
L81328 76861
L81356 76917
L81356 76974
L81328 77058
L80990 77395
L81356 77395
" />
<path d="M81609 77171
L82059 77171
" />
<path d="M82312 77367
L82368 77395
L82481 77395
L82537 77367
L82565 77311
L82565 77283
L82537 77227
L82481 77199
L82396 77199
L82340 77171
L82312 77114
L82312 77086
L82340 77030
L82396 77002
L82481 77002
L82537 77030
" />
<path d="M82734 77002
L82959 77002
" />
<path d="M82818 76805
L82818 77311
L82846 77367
L82903 77395
L82959 77395
" />
<path d="M83409 77395
L83409 77086
L83381 77030
L83324 77002
L83212 77002
L83156 77030
" />
<path d="M83409 77367
L83352 77395
L83212 77395
L83156 77367
L83127 77311
L83127 77255
L83156 77199
L83212 77171
L83352 77171
L83409 77142
" />
<path d="M83690 77395
L83690 76805
" />
<path d="M83690 77030
L83746 77002
L83859 77002
L83915 77030
L83943 77058
L83971 77114
L83971 77283
L83943 77339
L83915 77367
L83859 77395
L83746 77395
L83690 77367
" />
<path d="M84309 77395
L84252 77367
L84224 77311
L84224 76805
" />
<path d="M84759 77367
L84702 77395
L84590 77395
L84534 77367
L84505 77311
L84505 77086
L84534 77030
L84590 77002
L84702 77002
L84759 77030
L84787 77086
L84787 77142
L84505 77199
" />
</g>
<g style="fill:#000000; fill-opacity:0.0; 
stroke:#000000; stroke-width:39.3701; stroke-opacity:1; 
stroke-linecap:round; stroke-linejoin:round;">
</g>
<g style="fill:#000000; fill-opacity:0.0; 
stroke:#000000; stroke-width:59.0551; stroke-opacity:1; 
stroke-linecap:round; stroke-linejoin:round;">
<path d="M69685 75396
L112205 75396
" />
</g>
<g style="fill:#000000; fill-opacity:0.0; 
stroke:#000000; stroke-width:39.3701; stroke-opacity:1; 
stroke-linecap:round; stroke-linejoin:round;">
</g>
<g style="fill:#000000; fill-opacity:0.0; 
stroke:#000000; stroke-width:118.11; stroke-opacity:1; 
stroke-linecap:round; stroke-linejoin:round;">
<path d="M104022 76293
L103825 76012
" />
<path d="M103684 76293
L103684 75703
L103909 75703
L103965 75731
L103994 75759
L104022 75815
L104022 75899
L103994 75956
L103965 75984
L103909 76012
L103684 76012
" />
<path d="M104500 76265
L104444 76293
L104331 76293
L104275 76265
L104247 76209
L104247 75984
L104275 75928
L104331 75899
L104444 75899
L104500 75928
L104528 75984
L104528 76040
L104247 76096
" />
<path d="M104725 75899
L104865 76293
L105006 75899
" />
<path d="M105231 76237
L105259 76265
L105231 76293
L105203 76265
L105231 76237
L105231 76293
" />
<path d="M105231 75928
L105259 75956
L105231 75984
L105203 75956
L105231 75928
L105231 75984
" />
</g>
<g style="fill:#000000; fill-opacity:0.0; 
stroke:#000000; stroke-width:39.3701; stroke-opacity:1; 
stroke-linecap:round; stroke-linejoin:round;">
</g>
<g style="fill:#000000; fill-opacity:0.0; 
stroke:#000000; stroke-width:59.0551; stroke-opacity:1; 
stroke-linecap:round; stroke-linejoin:round;">
<path d="M70192 76265
L70276 76293
L70417 76293
L70473 76265
L70501 76237
L70529 76181
L70529 76124
L70501 76068
L70473 76040
L70417 76012
L70304 75984
L70248 75956
L70220 75928
L70192 75871
L70192 75815
L70220 75759
L70248 75731
L70304 75703
L70445 75703
L70529 75731
" />
<path d="M70782 76293
L70782 75899
" />
<path d="M70782 75703
L70754 75731
L70782 75759
L70810 75731
L70782 75703
L70782 75759
" />
<path d="M71007 75899
L71316 75899
L71007 76293
L71316 76293
" />
<path d="M71766 76265
L71710 76293
L71598 76293
L71541 76265
L71513 76209
L71513 75984
L71541 75928
L71598 75899
L71710 75899
L71766 75928
L71795 75984
L71795 76040
L71513 76096
" />
<path d="M72048 76237
L72076 76265
L72048 76293
L72019 76265
L72048 76237
L72048 76293
" />
<path d="M72048 75928
L72076 75956
L72048 75984
L72019 75956
L72048 75928
L72048 75984
" />
<path d="M72751 76124
L73032 76124
" />
<path d="M72694 76293
L72891 75703
L73088 76293
" />
<path d="M73538 75899
L73538 76293
" />
<path d="M73397 75674
L73257 76096
L73622 76096
" />
</g>
<g style="fill:#000000; fill-opacity:0.0; 
stroke:#000000; stroke-width:39.3701; stroke-opacity:1; 
stroke-linecap:round; stroke-linejoin:round;">
</g>
<g style="fill:#000000; fill-opacity:0.0; 
stroke:#000000; stroke-width:59.0551; stroke-opacity:1; 
stroke-linecap:round; stroke-linejoin:round;">
<path d="M103684 77395
L103684 76805
" />
<path d="M104219 77395
L104219 76805
" />
<path d="M104219 77367
L104162 77395
L104050 77395
L103994 77367
L103965 77339
L103937 77283
L103937 77114
L103965 77058
L103994 77030
L104050 77002
L104162 77002
L104219 77030
" />
<path d="M104500 77339
L104528 77367
L104500 77395
L104472 77367
L104500 77339
L104500 77395
" />
<path d="M104500 77030
L104528 77058
L104500 77086
L104472 77058
L104500 77030
L104500 77086
" />
<path d="M105540 77395
L105203 77395
" />
<path d="M105372 77395
L105372 76805
L105315 76889
L105259 76946
L105203 76974
" />
<path d="M106215 76777
L105709 77536
" />
<path d="M106721 77395
L106384 77395
" />
<path d="M106553 77395
L106553 76805
L106496 76889
L106440 76946
L106384 76974
" />
</g>
<g style="fill:#000000; fill-opacity:0.0; 
stroke:#000000; stroke-width:39.3701; stroke-opacity:1; 
stroke-linecap:round; stroke-linejoin:round;">
</g>
<g style="fill:#000000; fill-opacity:0.0; 
stroke:#000000; stroke-width:59.0551; stroke-opacity:1; 
stroke-linecap:round; stroke-linejoin:round;">
<path d="M69685 73821
L112205 73821
" />
</g>
<g style="fill:#000000; fill-opacity:0.0; 
stroke:#000000; stroke-width:39.3701; stroke-opacity:1; 
stroke-linecap:round; stroke-linejoin:round;">
</g>
<g style="fill:#000000; fill-opacity:0.0; 
stroke:#000000; stroke-width:157.48; stroke-opacity:1; 
stroke-linecap:round; stroke-linejoin:round;">
<path d="M70257 74099
L70707 74099
" />
<path d="M70384 74886
L70482 74099
" />
<path d="M70871 74886
L70937 74361
" />
<path d="M70970 74099
L70927 74136
L70960 74174
L71002 74136
L70970 74099
L70960 74174
" />
<path d="M71199 74361
L71499 74361
" />
<path d="M71345 74099
L71260 74774
L71288 74849
L71359 74886
L71434 74886
" />
<path d="M71809 74886
L71738 74849
L71710 74774
L71795 74099
" />
<path d="M72413 74849
L72334 74886
L72184 74886
L72113 74849
L72085 74774
L72123 74474
L72169 74399
L72249 74361
L72399 74361
L72469 74399
L72498 74474
L72488 74549
L72104 74624
" />
<path d="M72793 74811
L72826 74849
L72783 74886
L72751 74849
L72793 74811
L72783 74886
" />
<path d="M72844 74399
L72877 74436
L72835 74474
L72802 74436
L72844 74399
L72835 74474
" />
</g>
<g style="fill:#000000; fill-opacity:0.0; 
stroke:#000000; stroke-width:39.3701; stroke-opacity:1; 
stroke-linecap:round; stroke-linejoin:round;">
</g>
<g style="fill:#000000; fill-opacity:0.0; 
stroke:#000000; stroke-width:59.0551; stroke-opacity:1; 
stroke-linecap:round; stroke-linejoin:round;">
<path d="M70417 73070
L70220 73070
" />
<path d="M70220 73380
L70220 72789
L70501 72789
" />
<path d="M70726 73380
L70726 72986
" />
<path d="M70726 72789
L70698 72817
L70726 72845
L70754 72817
L70726 72789
L70726 72845
" />
<path d="M71091 73380
L71035 73352
L71007 73295
L71007 72789
" />
<path d="M71541 73352
L71485 73380
L71373 73380
L71316 73352
L71288 73295
L71288 73070
L71316 73014
L71373 72986
L71485 72986
L71541 73014
L71570 73070
L71570 73127
L71288 73183
" />
<path d="M71823 73323
L71851 73352
L71823 73380
L71795 73352
L71823 73323
L71823 73380
" />
<path d="M71823 73014
L71851 73042
L71823 73070
L71795 73042
L71823 73014
L71823 73070
" />
<path d="M72835 73380
L72554 73380
L72554 72789
" />
<path d="M73116 73380
L73060 73352
L73032 73323
L73004 73267
L73004 73099
L73032 73042
L73060 73014
L73116 72986
L73201 72986
L73257 73014
L73285 73042
L73313 73099
L73313 73267
L73285 73323
L73257 73352
L73201 73380
L73116 73380
" />
<path d="M73819 72986
L73819 73464
L73791 73520
L73763 73548
L73707 73577
L73622 73577
L73566 73548
" />
<path d="M73819 73352
L73763 73380
L73651 73380
L73594 73352
L73566 73323
L73538 73267
L73538 73099
L73566 73042
L73594 73014
L73651 72986
L73763 72986
L73819 73014
" />
<path d="M74354 72986
L74354 73464
L74325 73520
L74297 73548
L74241 73577
L74157 73577
L74100 73548
" />
<path d="M74354 73352
L74297 73380
L74185 73380
L74129 73352
L74100 73323
L74072 73267
L74072 73099
L74100 73042
L74129 73014
L74185 72986
L74297 72986
L74354 73014
" />
<path d="M74860 73352
L74804 73380
L74691 73380
L74635 73352
L74607 73295
L74607 73070
L74635 73014
L74691 72986
L74804 72986
L74860 73014
L74888 73070
L74888 73127
L74607 73183
" />
<path d="M75141 73380
L75141 72986
" />
<path d="M75141 73099
L75169 73042
L75197 73014
L75253 72986
L75310 72986
" />
<path d="M75366 73436
L75816 73436
" />
<path d="M75956 73380
L75956 72789
" />
<path d="M76294 73380
L76041 73042
" />
<path d="M76294 72789
L75956 73127
" />
<path d="M76547 73380
L76547 72986
" />
<path d="M76547 72789
L76519 72817
L76547 72845
L76575 72817
L76547 72789
L76547 72845
" />
<path d="M77081 73352
L77025 73380
L76913 73380
L76856 73352
L76828 73323
L76800 73267
L76800 73099
L76828 73042
L76856 73014
L76913 72986
L77025 72986
L77081 73014
" />
<path d="M77588 73380
L77588 73070
L77559 73014
L77503 72986
L77391 72986
L77334 73014
" />
<path d="M77588 73352
L77531 73380
L77391 73380
L77334 73352
L77306 73295
L77306 73239
L77334 73183
L77391 73155
L77531 73155
L77588 73127
" />
<path d="M78122 73380
L78122 72789
" />
<path d="M78122 73352
L78066 73380
L77953 73380
L77897 73352
L77869 73323
L77841 73267
L77841 73099
L77869 73042
L77897 73014
L77953 72986
L78066 72986
L78122 73014
" />
<path d="M78403 73380
L78403 72789
L78628 72789
L78684 72817
L78712 72845
L78741 72902
L78741 72986
L78712 73042
L78684 73070
L78628 73099
L78403 73099
" />
<path d="M78994 73380
L78994 72986
" />
<path d="M78994 73099
L79022 73042
L79050 73014
L79106 72986
L79162 72986
" />
<path d="M79444 73380
L79387 73352
L79359 73323
L79331 73267
L79331 73099
L79359 73042
L79387 73014
L79444 72986
L79528 72986
L79584 73014
L79612 73042
L79640 73099
L79640 73267
L79612 73323
L79584 73352
L79528 73380
L79444 73380
" />
<path d="M79894 72986
L79894 73492
L79865 73548
L79809 73577
L79781 73577
" />
<path d="M79894 72789
L79865 72817
L79894 72845
L79922 72817
L79894 72789
L79894 72845
" />
<path d="M80400 73352
L80343 73380
L80231 73380
L80175 73352
L80147 73295
L80147 73070
L80175 73014
L80231 72986
L80343 72986
L80400 73014
L80428 73070
L80428 73127
L80147 73183
" />
<path d="M80934 73352
L80878 73380
L80765 73380
L80709 73352
L80681 73323
L80653 73267
L80653 73099
L80681 73042
L80709 73014
L80765 72986
L80878 72986
L80934 73014
" />
<path d="M81103 72986
L81328 72986
" />
<path d="M81187 72789
L81187 73295
L81215 73352
L81271 73380
L81328 73380
" />
<path d="M81525 73323
L81553 73352
L81525 73380
L81496 73352
L81525 73323
L81525 73380
" />
<path d="M81806 73380
L81806 72789
" />
<path d="M81862 73155
L82031 73380
" />
<path d="M82031 72986
L81806 73211
" />
<path d="M82284 73380
L82284 72986
" />
<path d="M82284 72789
L82256 72817
L82284 72845
L82312 72817
L82284 72789
L82284 72845
" />
<path d="M82818 73352
L82762 73380
L82649 73380
L82593 73352
L82565 73323
L82537 73267
L82537 73099
L82565 73042
L82593 73014
L82649 72986
L82762 72986
L82818 73014
" />
<path d="M83324 73380
L83324 73070
L83296 73014
L83240 72986
L83127 72986
L83071 73014
" />
<path d="M83324 73352
L83268 73380
L83127 73380
L83071 73352
L83043 73295
L83043 73239
L83071 73183
L83127 73155
L83268 73155
L83324 73127
" />
<path d="M83859 73380
L83859 72789
" />
<path d="M83859 73352
L83802 73380
L83690 73380
L83634 73352
L83606 73323
L83577 73267
L83577 73099
L83606 73042
L83634 73014
L83690 72986
L83802 72986
L83859 73014
" />
<path d="M83999 73436
L84449 73436
" />
<path d="M84590 72986
L84590 73577
" />
<path d="M84590 73014
L84646 72986
L84759 72986
L84815 73014
L84843 73042
L84871 73099
L84871 73267
L84843 73323
L84815 73352
L84759 73380
L84646 73380
L84590 73352
" />
<path d="M85377 73352
L85321 73380
L85208 73380
L85152 73352
L85124 73323
L85096 73267
L85096 73099
L85124 73042
L85152 73014
L85208 72986
L85321 72986
L85377 73014
" />
<path d="M85630 73380
L85630 72789
" />
<path d="M85630 73014
L85687 72986
L85799 72986
L85855 73014
L85883 73042
L85912 73099
L85912 73267
L85883 73323
L85855 73352
L85799 73380
L85687 73380
L85630 73352
" />
</g>
<g style="fill:#000000; fill-opacity:0.0; 
stroke:#000000; stroke-width:39.3701; stroke-opacity:1; 
stroke-linecap:round; stroke-linejoin:round;">
</g>
<g style="fill:#000000; fill-opacity:0.0; 
stroke:#000000; stroke-width:59.0551; stroke-opacity:1; 
stroke-linecap:round; stroke-linejoin:round;">
<path d="M69685 71459
L112205 71459
" />
</g>
<g style="fill:#000000; fill-opacity:0.0; 
stroke:#000000; stroke-width:39.3701; stroke-opacity:1; 
stroke-linecap:round; stroke-linejoin:round;">
</g>
<g style="fill:#000000; fill-opacity:0.0; 
stroke:#000000; stroke-width:59.0551; stroke-opacity:1; 
stroke-linecap:round; stroke-linejoin:round;">
<path d="M70192 72289
L70276 72317
L70417 72317
L70473 72289
L70501 72260
L70529 72204
L70529 72148
L70501 72092
L70473 72064
L70417 72036
L70304 72007
L70248 71979
L70220 71951
L70192 71895
L70192 71839
L70220 71782
L70248 71754
L70304 71726
L70445 71726
L70529 71754
" />
<path d="M70782 72317
L70782 71726
" />
<path d="M71035 72317
L71035 72007
L71007 71951
L70951 71923
L70867 71923
L70810 71951
L70782 71979
" />
<path d="M71541 72289
L71485 72317
L71373 72317
L71316 72289
L71288 72232
L71288 72007
L71316 71951
L71373 71923
L71485 71923
L71541 71951
L71570 72007
L71570 72064
L71288 72120
" />
<path d="M72048 72289
L71991 72317
L71879 72317
L71823 72289
L71795 72232
L71795 72007
L71823 71951
L71879 71923
L71991 71923
L72048 71951
L72076 72007
L72076 72064
L71795 72120
" />
<path d="M72244 71923
L72469 71923
" />
<path d="M72329 71726
L72329 72232
L72357 72289
L72413 72317
L72469 72317
" />
<path d="M72666 72260
L72694 72289
L72666 72317
L72638 72289
L72666 72260
L72666 72317
" />
<path d="M72666 71951
L72694 71979
L72666 72007
L72638 71979
L72666 71951
L72666 72007
" />
</g>
<g style="fill:#000000; fill-opacity:0.0; 
stroke:#000000; stroke-width:39.3701; stroke-opacity:1; 
stroke-linecap:round; stroke-linejoin:round;">
</g>
<g style="fill:#000000; fill-opacity:0.0; 
stroke:#000000; stroke-width:59.0551; stroke-opacity:1; 
stroke-linecap:round; stroke-linejoin:round;">
<path d="M77559 75396
L77559 76577
" />
</g>
<g style="fill:#000000; fill-opacity:0.0; 
stroke:#000000; stroke-width:39.3701; stroke-opacity:1; 
stroke-linecap:round; stroke-linejoin:round;">
</g>
<g style="fill:#000000; fill-opacity:0.0; 
stroke:#000000; stroke-width:59.0551; stroke-opacity:1; 
stroke-linecap:round; stroke-linejoin:round;">
<path d="M102756 75396
L102756 77955
" />
</g>
<g style="fill:#008484; fill-opacity:0.0; 
stroke:#008484; stroke-width:59.0551; stroke-opacity:1; 
stroke-linecap:round; stroke-linejoin:round;">
</g>
<g style="fill:#008484; fill-opacity:0.0; 
stroke:#008484; stroke-width:78.7402; stroke-opacity:1; 
stroke-linecap:round; stroke-linejoin:round;">
<path d="M11850 23602
L11850 23996
" />
<path d="M11643 23809
L12037 23809
" />
<circle cx="23612.2" cy="15226.4" r="169.337" /> 
<circle cx="25935" cy="20423.2" r="78.7402" /> 
<circle cx="21003.9" cy="21850.4" r="111.356" /> 
<circle cx="15354.3" cy="20315" r="55.6776" /> 
</g>
<g style="fill:#C2C200; fill-opacity:0.0; 
stroke:#C2C200; stroke-width:78.7402; stroke-opacity:1; 
stroke-linecap:round; stroke-linejoin:round;">
</g>
<g style="fill:#C2C200; fill-opacity:0.0; 
stroke:#C2C200; stroke-width:39.3701; stroke-opacity:1; 
stroke-linecap:round; stroke-linejoin:round;">
<circle cx="5354.33" cy="12992.1" r="656.168" /> 
<path d="M4370 12992
L6338 12992
" />
<path d="M5354 12007
L5354 13976
" />
<path d="M30400 33600
L30400 33200
" />
<path d="M5400 33600
L30400 33600
" />
<path d="M5400 33400
L5400 33600
" />
<path d="M5400 33200
L5400 33400
" />
<path d="M5400 13000
L5400 13200
" />
<path d="M30400 13000
L5400 13000
" />
<path d="M30400 13200
L30400 13000
" />
<path d="M30400 13800
L30400 13200
" />
<path d="M30400 33200
L30400 13800
" />
<path d="M5400 13200
L5400 33200
" />
</g>
<g style="fill:#C2C200; fill-opacity:0.0; 
stroke:#C2C200; stroke-width:59.0551; stroke-opacity:1; 
stroke-linecap:round; stroke-linejoin:round;">
<path d="M13375 16219
L13431 16238
L13450 16257
L13469 16294
L13469 16351
L13450 16388
L13431 16407
L13394 16426
L13244 16426
L13244 16032
L13375 16032
L13413 16051
L13431 16069
L13450 16107
L13450 16144
L13431 16182
L13413 16201
L13375 16219
L13244 16219
" />
<path d="M13581 16032
L13806 16032
" />
<path d="M13694 16426
L13694 16032
" />
<path d="M14144 16426
L13919 16426
" />
<path d="M14031 16426
L14031 16032
L13994 16088
L13956 16126
L13919 16144
" />
<path d="M24752 19571
L24752 19890
L24770 19928
L24789 19946
L24826 19965
L24901 19965
L24939 19946
L24958 19928
L24976 19890
L24976 19571
" />
<path d="M25333 19703
L25333 19965
" />
<path d="M25239 19553
L25145 19834
L25389 19834
" />
<path d="M8353 31201
L8353 31482
L8334 31539
L8296 31576
L8240 31595
L8203 31595
" />
<path d="M8709 31201
L8634 31201
L8596 31220
L8577 31239
L8540 31295
L8521 31370
L8521 31520
L8540 31557
L8559 31576
L8596 31595
L8671 31595
L8709 31576
L8727 31557
L8746 31520
L8746 31426
L8727 31389
L8709 31370
L8671 31351
L8596 31351
L8559 31370
L8540 31389
L8521 31426
" />
<path d="M18517 18644
L18498 18663
L18442 18682
L18404 18682
L18348 18663
L18310 18625
L18292 18588
L18273 18513
L18273 18457
L18292 18382
L18310 18344
L18348 18307
L18404 18288
L18442 18288
L18498 18307
L18517 18325
" />
<path d="M18648 18288
L18892 18288
L18760 18438
L18817 18438
L18854 18457
L18873 18475
L18892 18513
L18892 18607
L18873 18644
L18854 18663
L18817 18682
L18704 18682
L18667 18663
L18648 18644
" />
<path d="M16410 17876
L16392 17895
L16335 17914
L16298 17914
L16242 17895
L16204 17858
L16185 17820
L16167 17745
L16167 17689
L16185 17614
L16204 17576
L16242 17539
L16298 17520
L16335 17520
L16392 17539
L16410 17558
" />
<path d="M16560 17558
L16579 17539
L16616 17520
L16710 17520
L16748 17539
L16766 17558
L16785 17595
L16785 17633
L16766 17689
L16541 17914
L16785 17914
" />
<path d="M15150 17876
L15132 17895
L15075 17914
L15038 17914
L14982 17895
L14944 17858
L14925 17820
L14907 17745
L14907 17689
L14925 17614
L14944 17576
L14982 17539
L15038 17520
L15075 17520
L15132 17539
L15150 17558
" />
<path d="M15525 17914
L15300 17914
" />
<path d="M15413 17914
L15413 17520
L15375 17576
L15338 17614
L15300 17633
" />
<path d="M16567 26538
L16549 26556
L16492 26575
L16455 26575
L16399 26556
L16361 26519
L16342 26482
L16324 26407
L16324 26350
L16342 26275
L16361 26238
L16399 26200
L16455 26182
L16492 26182
L16549 26200
L16567 26219
" />
<path d="M16942 26575
L16717 26575
" />
<path d="M16830 26575
L16830 26182
L16792 26238
L16755 26275
L16717 26294
" />
<path d="M17186 26182
L17223 26182
L17261 26200
L17280 26219
L17298 26257
L17317 26332
L17317 26425
L17298 26500
L17280 26538
L17261 26556
L17223 26575
L17186 26575
L17148 26556
L17130 26538
L17111 26500
L17092 26425
L17092 26332
L17111 26257
L17130 26219
L17148 26200
L17186 26182
" />
<path d="M15221 24550
L15203 24568
L15146 24587
L15109 24587
L15053 24568
L15015 24531
L14996 24493
L14978 24418
L14978 24362
L14996 24287
L15015 24250
L15053 24212
L15109 24193
L15146 24193
L15203 24212
L15221 24231
" />
<path d="M15409 24587
L15484 24587
L15521 24568
L15540 24550
L15577 24493
L15596 24418
L15596 24268
L15577 24231
L15559 24212
L15521 24193
L15446 24193
L15409 24212
L15390 24231
L15371 24268
L15371 24362
L15390 24400
L15409 24418
L15446 24437
L15521 24437
L15559 24418
L15577 24400
L15596 24362
" />
<path d="M24914 15839
L24895 15858
L24839 15876
L24802 15876
L24745 15858
L24708 15820
L24689 15783
L24670 15708
L24670 15651
L24689 15576
L24708 15539
L24745 15501
L24802 15483
L24839 15483
L24895 15501
L24914 15520
" />
<path d="M25252 15614
L25252 15876
" />
<path d="M25158 15464
L25064 15745
L25308 15745
" />
<path d="M25800 22605
L25781 22623
L25725 22642
L25688 22642
L25631 22623
L25594 22586
L25575 22548
L25556 22473
L25556 22417
L25575 22342
L25594 22305
L25631 22267
L25688 22248
L25725 22248
L25781 22267
L25800 22286
" />
<path d="M25931 22248
L26194 22248
L26025 22642
" />
<path d="M23627 23762
L23608 23781
L23552 23800
L23514 23800
L23458 23781
L23421 23743
L23402 23706
L23383 23631
L23383 23575
L23402 23500
L23421 23462
L23458 23425
L23514 23406
L23552 23406
L23608 23425
L23627 23443
" />
<path d="M23964 23406
L23889 23406
L23852 23425
L23833 23443
L23796 23500
L23777 23575
L23777 23725
L23796 23762
L23814 23781
L23852 23800
L23927 23800
L23964 23781
L23983 23762
L24002 23725
L24002 23631
L23983 23593
L23964 23575
L23927 23556
L23852 23556
L23814 23575
L23796 23593
L23777 23631
" />
<path d="M21942 20672
L21923 20690
L21867 20709
L21829 20709
L21773 20690
L21736 20653
L21717 20615
L21698 20540
L21698 20484
L21717 20409
L21736 20372
L21773 20334
L21829 20315
L21867 20315
L21923 20334
L21942 20353
" />
<path d="M22298 20315
L22110 20315
L22092 20503
L22110 20484
L22148 20465
L22242 20465
L22279 20484
L22298 20503
L22317 20540
L22317 20634
L22298 20672
L22279 20690
L22242 20709
L22148 20709
L22110 20690
L22092 20672
" />
<path d="M26725 28841
L26706 28860
L26650 28878
L26612 28878
L26556 28860
L26519 28822
L26500 28785
L26481 28710
L26481 28653
L26500 28578
L26519 28541
L26556 28503
L26612 28485
L26650 28485
L26706 28503
L26725 28522
" />
<path d="M27100 28878
L26875 28878
" />
<path d="M26987 28878
L26987 28485
L26950 28541
L26912 28578
L26875 28597
" />
<path d="M27437 28616
L27437 28878
" />
<path d="M27343 28466
L27250 28747
L27493 28747
" />
<path d="M22010 31912
L21991 31931
L21935 31949
L21898 31949
L21841 31931
L21804 31893
L21785 31856
L21766 31781
L21766 31724
L21785 31649
L21804 31612
L21841 31574
L21898 31556
L21935 31556
L21991 31574
L22010 31593
" />
<path d="M22385 31949
L22160 31949
" />
<path d="M22273 31949
L22273 31556
L22235 31612
L22198 31649
L22160 31668
" />
<path d="M22741 31556
L22554 31556
L22535 31743
L22554 31724
L22591 31706
L22685 31706
L22723 31724
L22741 31743
L22760 31781
L22760 31874
L22741 31912
L22723 31931
L22685 31949
L22591 31949
L22554 31931
L22535 31912
" />
<path d="M25052 26784
L25033 26803
L24977 26821
L24939 26821
L24883 26803
L24845 26765
L24827 26728
L24808 26653
L24808 26596
L24827 26521
L24845 26484
L24883 26446
L24939 26428
L24977 26428
L25033 26446
L25052 26465
" />
<path d="M25426 26821
L25202 26821
" />
<path d="M25314 26821
L25314 26428
L25276 26484
L25239 26521
L25202 26540
" />
<path d="M25558 26428
L25801 26428
L25670 26578
L25726 26578
L25764 26596
L25783 26615
L25801 26653
L25801 26746
L25783 26784
L25764 26803
L25726 26821
L25614 26821
L25576 26803
L25558 26784
" />
<path d="M24678 24303
L24659 24322
L24603 24341
L24565 24341
L24509 24322
L24471 24285
L24453 24247
L24434 24172
L24434 24116
L24453 24041
L24471 24004
L24509 23966
L24565 23947
L24603 23947
L24659 23966
L24678 23985
" />
<path d="M25052 24341
L24827 24341
" />
<path d="M24940 24341
L24940 23947
L24902 24004
L24865 24041
L24827 24060
" />
<path d="M25202 23985
L25221 23966
L25259 23947
L25352 23947
L25390 23966
L25409 23985
L25427 24022
L25427 24060
L25409 24116
L25184 24341
L25427 24341
" />
<path d="M13246 20536
L13246 20817
L13227 20873
L13190 20911
L13134 20930
L13096 20930
" />
<path d="M13415 20573
L13434 20555
L13471 20536
L13565 20536
L13602 20555
L13621 20573
L13640 20611
L13640 20648
L13621 20705
L13396 20930
L13640 20930
" />
<path d="M8372 13071
L8372 13353
L8353 13409
L8316 13446
L8260 13465
L8222 13465
" />
<path d="M8522 13071
L8766 13071
L8635 13221
L8691 13221
L8728 13240
L8747 13259
L8766 13296
L8766 13390
L8747 13428
L8728 13446
L8691 13465
L8578 13465
L8541 13446
L8522 13428
" />
<path d="M7329 19745
L7329 20026
L7310 20082
L7273 20119
L7216 20138
L7179 20138
" />
<path d="M7685 19876
L7685 20138
" />
<path d="M7591 19726
L7498 20007
L7741 20007
" />
<path d="M7411 26719
L7411 27000
L7392 27056
L7355 27094
L7299 27112
L7261 27112
" />
<path d="M7786 26719
L7599 26719
L7580 26906
L7599 26887
L7636 26869
L7730 26869
L7767 26887
L7786 26906
L7805 26944
L7805 27037
L7786 27075
L7767 27094
L7730 27112
L7636 27112
L7599 27094
L7580 27075
" />
<path d="M27939 22619
L27939 22900
L27920 22956
L27883 22994
L27827 23012
L27789 23012
" />
<path d="M28183 22787
L28145 22769
L28127 22750
L28108 22712
L28108 22694
L28127 22656
L28145 22637
L28183 22619
L28258 22619
L28295 22637
L28314 22656
L28333 22694
L28333 22712
L28314 22750
L28295 22769
L28258 22787
L28183 22787
L28145 22806
L28127 22825
L28108 22862
L28108 22937
L28127 22975
L28145 22994
L28183 23012
L28258 23012
L28295 22994
L28314 22975
L28333 22937
L28333 22862
L28314 22825
L28295 22806
L28258 22787
" />
<path d="M13845 24401
L13713 24401
" />
<path d="M13713 24607
L13713 24213
L13901 24213
" />
<path d="M14182 24401
L14238 24419
L14257 24438
L14276 24476
L14276 24532
L14257 24569
L14238 24588
L14201 24607
L14051 24607
L14051 24213
L14182 24213
L14220 24232
L14238 24251
L14257 24288
L14257 24326
L14238 24363
L14220 24382
L14182 24401
L14051 24401
" />
<path d="M14651 24607
L14426 24607
" />
<path d="M14538 24607
L14538 24213
L14501 24269
L14463 24307
L14426 24326
" />
<path d="M28240 19644
L28202 19625
L28165 19588
L28108 19532
L28071 19513
L28033 19513
" />
<path d="M28052 19607
L28015 19588
L27977 19550
L27958 19476
L27958 19344
L27977 19269
L28015 19232
L28052 19213
L28127 19213
L28165 19232
L28202 19269
L28221 19344
L28221 19476
L28202 19550
L28165 19588
L28127 19607
L28052 19607
" />
<path d="M28596 19607
L28371 19607
" />
<path d="M28483 19607
L28483 19213
L28446 19269
L28408 19307
L28371 19326
" />
<path d="M9123 25747
L9086 25728
L9048 25690
L8992 25634
L8955 25615
L8917 25615
" />
<path d="M8936 25709
L8898 25690
L8861 25653
L8842 25578
L8842 25447
L8861 25372
L8898 25334
L8936 25315
L9011 25315
L9048 25334
L9086 25372
L9105 25447
L9105 25578
L9086 25653
L9048 25690
L9011 25709
L8936 25709
" />
<path d="M9255 25353
L9273 25334
L9311 25315
L9405 25315
L9442 25334
L9461 25353
L9480 25390
L9480 25428
L9461 25484
L9236 25709
L9480 25709
" />
<path d="M11095 16516
L10964 16329
" />
<path d="M10870 16516
L10870 16122
L11020 16122
L11058 16141
L11077 16160
L11095 16197
L11095 16254
L11077 16291
L11058 16310
L11020 16329
L10870 16329
" />
<path d="M11470 16516
L11245 16516
" />
<path d="M11358 16516
L11358 16122
L11320 16179
L11283 16216
L11245 16235
" />
<path d="M13753 18583
L13622 18396
" />
<path d="M13528 18583
L13528 18189
L13678 18189
L13715 18208
L13734 18227
L13753 18264
L13753 18321
L13734 18358
L13715 18377
L13678 18396
L13528 18396
" />
<path d="M13903 18227
L13922 18208
L13959 18189
L14053 18189
L14090 18208
L14109 18227
L14128 18264
L14128 18302
L14109 18358
L13884 18583
L14128 18583
" />
<path d="M9576 23516
L9444 23329
" />
<path d="M9351 23516
L9351 23122
L9501 23122
L9538 23141
L9557 23160
L9576 23197
L9576 23254
L9557 23291
L9538 23310
L9501 23329
L9351 23329
" />
<path d="M9913 23122
L9838 23122
L9801 23141
L9782 23160
L9744 23216
L9726 23291
L9726 23441
L9744 23479
L9763 23497
L9801 23516
L9876 23516
L9913 23497
L9932 23479
L9951 23441
L9951 23347
L9932 23310
L9913 23291
L9876 23272
L9801 23272
L9763 23291
L9744 23310
L9726 23347
" />
<path d="M11450 25788
L11318 25600
" />
<path d="M11225 25788
L11225 25394
L11375 25394
L11412 25413
L11431 25432
L11450 25469
L11450 25525
L11431 25563
L11412 25582
L11375 25600
L11225 25600
" />
<path d="M11581 25394
L11843 25394
L11675 25788
" />
<path d="M11133 30652
L11002 30465
" />
<path d="M10908 30652
L10908 30259
L11058 30259
L11096 30277
L11114 30296
L11133 30334
L11133 30390
L11114 30427
L11096 30446
L11058 30465
L10908 30465
" />
<path d="M11358 30427
L11321 30409
L11302 30390
L11283 30352
L11283 30334
L11302 30296
L11321 30277
L11358 30259
L11433 30259
L11471 30277
L11489 30296
L11508 30334
L11508 30352
L11489 30390
L11471 30409
L11433 30427
L11358 30427
L11321 30446
L11302 30465
L11283 30502
L11283 30577
L11302 30615
L11321 30634
L11358 30652
L11433 30652
L11471 30634
L11489 30615
L11508 30577
L11508 30502
L11489 30465
L11471 30446
L11433 30427
" />
<path d="M12461 30660
L12330 30473
" />
<path d="M12236 30660
L12236 30267
L12386 30267
L12424 30285
L12443 30304
L12461 30342
L12461 30398
L12443 30435
L12424 30454
L12386 30473
L12236 30473
" />
<path d="M12649 30660
L12724 30660
L12761 30642
L12780 30623
L12818 30567
L12836 30492
L12836 30342
L12818 30304
L12799 30285
L12761 30267
L12686 30267
L12649 30285
L12630 30304
L12611 30342
L12611 30435
L12630 30473
L12649 30492
L12686 30510
L12761 30510
L12799 30492
L12818 30473
L12836 30435
" />
<path d="M14552 20109
L14552 20427
L14571 20465
L14589 20484
L14627 20502
L14702 20502
L14739 20484
L14758 20465
L14777 20427
L14777 20109
" />
<path d="M15171 20502
L14946 20502
" />
<path d="M15058 20502
L15058 20109
L15021 20165
L14983 20202
L14946 20221
" />
<path d="M21365 23327
L21365 23646
L21384 23683
L21402 23702
L21440 23721
L21515 23721
L21552 23702
L21571 23683
L21590 23646
L21590 23327
" />
<path d="M21740 23327
L21984 23327
L21852 23477
L21909 23477
L21946 23496
L21965 23515
L21984 23552
L21984 23646
L21965 23683
L21946 23702
L21909 23721
L21796 23721
L21759 23702
L21740 23683
" />
<path d="M26912 32323
L26912 32642
L26931 32679
L26950 32698
L26987 32717
L27062 32717
L27100 32698
L27118 32679
L27137 32642
L27137 32323
" />
<path d="M27493 32323
L27418 32323
L27381 32342
L27362 32361
L27325 32417
L27306 32492
L27306 32642
L27325 32679
L27343 32698
L27381 32717
L27456 32717
L27493 32698
L27512 32679
L27531 32642
L27531 32548
L27512 32511
L27493 32492
L27456 32473
L27381 32473
L27343 32492
L27325 32511
L27306 32548
" />
<path d="M21554 25374
L21554 25693
L21573 25731
L21591 25749
L21629 25768
L21704 25768
L21741 25749
L21760 25731
L21779 25693
L21779 25374
" />
<path d="M22154 25374
L21966 25374
L21948 25562
L21966 25543
L22004 25524
L22098 25524
L22135 25543
L22154 25562
L22173 25599
L22173 25693
L22154 25731
L22135 25749
L22098 25768
L22004 25768
L21966 25749
L21948 25731
" />
<path d="M26942 20101
L26923 20119
L26867 20138
L26829 20138
L26773 20119
L26736 20082
L26717 20044
L26698 19970
L26698 19913
L26717 19838
L26736 19801
L26773 19763
L26829 19745
L26867 19745
L26923 19763
L26942 19782
" />
<path d="M27167 19913
L27129 19895
L27110 19876
L27092 19838
L27092 19820
L27110 19782
L27129 19763
L27167 19745
L27242 19745
L27279 19763
L27298 19782
L27317 19820
L27317 19838
L27298 19876
L27279 19895
L27242 19913
L27167 19913
L27129 19932
L27110 19951
L27092 19988
L27092 20063
L27110 20101
L27129 20119
L27167 20138
L27242 20138
L27279 20119
L27298 20101
L27317 20063
L27317 19988
L27298 19951
L27279 19932
L27242 19913
" />
<path d="M17652 24550
L17633 24568
L17577 24587
L17539 24587
L17483 24568
L17446 24531
L17427 24493
L17408 24418
L17408 24362
L17427 24287
L17446 24250
L17483 24212
L17539 24193
L17577 24193
L17633 24212
L17652 24231
" />
<path d="M18027 24587
L17802 24587
" />
<path d="M17914 24587
L17914 24193
L17877 24250
L17839 24287
L17802 24306
" />
<path d="M18402 24587
L18177 24587
" />
<path d="M18289 24587
L18289 24193
L18252 24250
L18214 24287
L18177 24306
" />
<path d="M27083 18435
L27083 18717
L27064 18773
L27027 18810
L26970 18829
L26933 18829
" />
<path d="M27477 18829
L27252 18829
" />
<path d="M27364 18829
L27364 18435
L27327 18492
L27289 18529
L27252 18548
" />
<path d="M24993 17048
L24862 16860
" />
<path d="M24768 17048
L24768 16654
L24918 16654
L24955 16673
L24974 16691
L24993 16729
L24993 16785
L24974 16823
L24955 16841
L24918 16860
L24768 16860
" />
<path d="M25349 16654
L25162 16654
L25143 16841
L25162 16823
L25199 16804
L25293 16804
L25330 16823
L25349 16841
L25368 16879
L25368 16973
L25349 17010
L25330 17029
L25293 17048
L25199 17048
L25162 17029
L25143 17010
" />
<path d="M20989 19646
L20858 19459
" />
<path d="M20764 19646
L20764 19252
L20914 19252
L20952 19271
L20970 19290
L20989 19327
L20989 19384
L20970 19421
L20952 19440
L20914 19459
L20764 19459
" />
<path d="M21326 19384
L21326 19646
" />
<path d="M21233 19234
L21139 19515
L21383 19515
" />
<path d="M16863 16969
L16732 16781
" />
<path d="M16638 16969
L16638 16575
L16788 16575
L16826 16594
L16844 16613
L16863 16650
L16863 16706
L16844 16744
L16826 16763
L16788 16781
L16638 16781
" />
<path d="M16994 16575
L17238 16575
L17107 16725
L17163 16725
L17200 16744
L17219 16763
L17238 16800
L17238 16894
L17219 16931
L17200 16950
L17163 16969
L17050 16969
L17013 16950
L16994 16931
" />
<path d="M18883 15709
L18883 16028
L18901 16065
L18920 16084
L18958 16103
L19033 16103
L19070 16084
L19089 16065
L19108 16028
L19108 15709
" />
<path d="M19276 15747
L19295 15728
L19333 15709
L19426 15709
L19464 15728
L19483 15747
L19501 15784
L19501 15822
L19483 15878
L19258 16103
L19501 16103
" />
</g>
<g style="fill:#000084; fill-opacity:0.0; 
stroke:#000084; stroke-width:59.0551; stroke-opacity:1; 
stroke-linecap:round; stroke-linejoin:round;">
<path d="M15467 27339
L15467 27620
L15448 27676
L15410 27714
L15354 27733
L15317 27733
" />
<path d="M15617 27339
L15879 27339
L15710 27733
" />
</g>
<g style="fill:#C2C200; fill-opacity:0.0; 
stroke:#C2C200; stroke-width:59.0551; stroke-opacity:1; 
stroke-linecap:round; stroke-linejoin:round;">
<path d="M8939 20908
L8921 20927
L8864 20945
L8827 20945
L8771 20927
L8733 20889
L8714 20852
L8696 20777
L8696 20720
L8714 20645
L8733 20608
L8771 20570
L8827 20552
L8864 20552
L8921 20570
L8939 20589
" />
<path d="M9314 20945
L9089 20945
" />
<path d="M9202 20945
L9202 20552
L9164 20608
L9127 20645
L9089 20664
" />
<path d="M9652 20552
L9577 20552
L9539 20570
L9520 20589
L9483 20645
L9464 20720
L9464 20870
L9483 20908
L9502 20927
L9539 20945
L9614 20945
L9652 20927
L9670 20908
L9689 20870
L9689 20777
L9670 20739
L9652 20720
L9614 20702
L9539 20702
L9502 20720
L9483 20739
L9464 20777
" />
<path d="M8742 14313
L8724 14332
L8667 14351
L8630 14351
L8574 14332
L8536 14295
L8517 14257
L8499 14182
L8499 14126
L8517 14051
L8536 14013
L8574 13976
L8630 13957
L8667 13957
L8724 13976
L8742 13995
" />
<path d="M9117 14351
L8892 14351
" />
<path d="M9005 14351
L9005 13957
L8967 14013
L8930 14051
L8892 14070
" />
<path d="M9249 13957
L9511 13957
L9342 14351
" />
<path d="M23408 28831
L23389 28850
L23333 28869
L23295 28869
L23239 28850
L23202 28812
L23183 28775
L23164 28700
L23164 28644
L23183 28569
L23202 28531
L23239 28494
L23295 28475
L23333 28475
L23389 28494
L23408 28512
" />
<path d="M23783 28869
L23558 28869
" />
<path d="M23670 28869
L23670 28475
L23633 28531
L23595 28569
L23558 28587
" />
<path d="M24008 28644
L23970 28625
L23952 28606
L23933 28569
L23933 28550
L23952 28512
L23970 28494
L24008 28475
L24083 28475
L24120 28494
L24139 28512
L24158 28550
L24158 28569
L24139 28606
L24120 28625
L24083 28644
L24008 28644
L23970 28662
L23952 28681
L23933 28719
L23933 28794
L23952 28831
L23970 28850
L24008 28869
L24083 28869
L24120 28850
L24139 28831
L24158 28794
L24158 28719
L24139 28681
L24120 28662
L24083 28644
" />
<path d="M23467 33339
L23448 33358
L23392 33376
L23354 33376
L23298 33358
L23261 33320
L23242 33283
L23223 33208
L23223 33151
L23242 33076
L23261 33039
L23298 33001
L23354 32983
L23392 32983
L23448 33001
L23467 33020
" />
<path d="M23842 33376
L23617 33376
" />
<path d="M23729 33376
L23729 32983
L23692 33039
L23654 33076
L23617 33095
" />
<path d="M24029 33376
L24104 33376
L24142 33358
L24161 33339
L24198 33283
L24217 33208
L24217 33058
L24198 33020
L24179 33001
L24142 32983
L24067 32983
L24029 33001
L24011 33020
L23992 33058
L23992 33151
L24011 33189
L24029 33208
L24067 33226
L24142 33226
L24179 33208
L24198 33189
L24217 33151
" />
<path d="M11579 21802
L11579 21408
L11673 21408
L11729 21427
L11766 21464
L11785 21502
L11804 21577
L11804 21633
L11785 21708
L11766 21745
L11729 21783
L11673 21802
L11579 21802
" />
<path d="M12179 21802
L11954 21802
" />
<path d="M12066 21802
L12066 21408
L12029 21464
L11991 21502
L11954 21520
" />
<path d="M13861 22520
L13729 22333
" />
<path d="M13636 22520
L13636 22126
L13786 22126
L13823 22145
L13842 22164
L13861 22201
L13861 22258
L13842 22295
L13823 22314
L13786 22333
L13636 22333
" />
<path d="M14236 22520
L14011 22520
" />
<path d="M14123 22520
L14123 22126
L14086 22183
L14048 22220
L14011 22239
" />
<path d="M14479 22126
L14517 22126
L14554 22145
L14573 22164
L14592 22201
L14610 22276
L14610 22370
L14592 22445
L14573 22483
L14554 22501
L14517 22520
L14479 22520
L14442 22501
L14423 22483
L14404 22445
L14386 22370
L14386 22276
L14404 22201
L14423 22164
L14442 22145
L14479 22126
" />
</g>
<g style="fill:#008484; fill-opacity:0.0; 
stroke:#008484; stroke-width:59.0551; stroke-opacity:1; 
stroke-linecap:round; stroke-linejoin:round;">
<path d="M14881 17460
L15669 16673
" />
<path d="M12125 16673
L12913 17460
" />
<path d="M15669 16476
L15669 13720
" />
<path d="M12125 13720
L12125 16476
" />
<path d="M12125 13326
L15669 13326
" />
</g>
<g style="fill:#008484; fill-opacity:0.0; 
stroke:#008484; stroke-width:47.2441; stroke-opacity:1; 
stroke-linecap:round; stroke-linejoin:round;">
<path d="M24444 20590
L24444 21299
" />
<path d="M25712 21299
L25712 20334
" />
</g>
<g style="fill:#008484; fill-opacity:0.0; 
stroke:#008484; stroke-width:59.0551; stroke-opacity:1; 
stroke-linecap:round; stroke-linejoin:round;">
<path d="M8976 30905
L8976 33503
" />
<path d="M8976 33503
L15157 33503
" />
<path d="M15157 33503
L15157 30905
" />
<path d="M15157 30905
L8976 30905
" />
<path d="M18031 18956
L18031 18562
" />
<path d="M17362 18562
L17362 18956
" />
<path d="M16834 18946
L16834 18553
" />
<path d="M16165 18553
L16165 18946
" />
<path d="M14915 18553
L14915 18946
" />
<path d="M15584 18946
L15584 18553
" />
<path d="M16122 25196
L16122 25590
" />
<path d="M16791 25590
L16791 25196
" />
<path d="M14940 25196
L14940 25590
" />
<path d="M15610 25590
L15610 25196
" />
<path d="M25314 14842
L25314 14448
" />
<path d="M24645 14448
L24645 14842
" />
<path d="M25330 22834
L25330 22440
" />
<path d="M24661 22440
L24661 22834
" />
<path d="M23425 22440
L23425 22834
" />
<path d="M24094 22834
L24094 22440
" />
<path d="M22165 20885
L21771 20885
" />
<path d="M21771 21555
L22165 21555
" />
<path d="M26565 27503
L26565 27896
" />
<path d="M27234 27896
L27234 27503
" />
<path d="M23134 30996
L23134 30603
" />
<path d="M22465 30603
L22465 30996
" />
<path d="M25314 27834
L25314 27440
" />
<path d="M24645 27440
L24645 27834
" />
<path d="M25177 25393
L25177 25000
" />
<path d="M24507 25000
L24507 25393
" />
<path d="M12877 20001
L10477 20001
" />
<path d="M10477 20001
L10477 19601
" />
<path d="M10477 19601
L12877 19601
" />
<path d="M12877 19601
L12877 20001
" />
<path d="M7992 13228
L5393 13228
" />
<path d="M5393 13228
L5393 19409
" />
<path d="M5393 19409
L7992 19409
" />
<path d="M7992 19409
L7992 13228
" />
<path d="M7992 20433
L5393 20433
" />
<path d="M5393 20433
L5393 26614
" />
<path d="M5393 26614
L7992 26614
" />
<path d="M7992 26614
L7992 20433
" />
<path d="M7992 27244
L5393 27244
" />
<path d="M5393 27244
L5393 33425
" />
<path d="M5393 33425
L7992 33425
" />
<path d="M7992 33425
L7992 27244
" />
<path d="M30314 23149
L27716 23149
" />
<path d="M27716 23149
L27716 33330
" />
<path d="M27716 33330
L30314 33330
" />
<path d="M30314 33330
L30314 23149
" />
<path d="M13789 25649
L13789 25177
" />
<path d="M14478 25177
L14478 25649
" />
</g>
<g style="fill:#008484; fill-opacity:0.0; 
stroke:#008484; stroke-width:47.2441; stroke-opacity:1; 
stroke-linecap:round; stroke-linejoin:round;">
<path d="M27960 20771
L28326 20771
" />
<path d="M29204 20771
L28838 20771
" />
<path d="M29204 20771
L29204 19921
" />
<path d="M27960 20771
L27960 20196
" />
<path d="M8862 23925
L8862 24291
" />
<path d="M8862 25169
L8862 24803
" />
<path d="M8862 25169
L9712 25169
" />
<path d="M8862 23925
L9437 23925
" />
</g>
<g style="fill:#008484; fill-opacity:0.0; 
stroke:#008484; stroke-width:59.0551; stroke-opacity:1; 
stroke-linecap:round; stroke-linejoin:round;">
<path d="M10915 17460
L10915 16988
" />
<path d="M11604 16988
L11604 17460
" />
<path d="M13513 19606
L13513 19133
" />
<path d="M14202 19133
L14202 19606
" />
<path d="M10328 23669
L10328 23196
" />
<path d="M11017 23196
L11017 23669
" />
<path d="M10994 25019
L10994 25492
" />
<path d="M10305 25492
L10305 25019
" />
<path d="M11643 29338
L11643 29811
" />
<path d="M10954 29811
L10954 29338
" />
<path d="M12872 29346
L12872 29818
" />
<path d="M12183 29818
L12183 29346
" />
<path d="M15572 20572
L15572 20661
" />
<path d="M18427 20572
L18427 20700
" />
<path d="M18427 23427
L18427 23299
" />
<path d="M15572 23427
L15572 23299
" />
<path d="M15572 20572
L15700 20572
" />
<path d="M15572 23427
L15700 23427
" />
<path d="M18427 23427
L18299 23427
" />
<path d="M18427 20572
L18299 20572
" />
<path d="M15572 20661
L15011 20661
" />
</g>
<g style="fill:#008484; fill-opacity:0.0; 
stroke:#008484; stroke-width:47.2441; stroke-opacity:1; 
stroke-linecap:round; stroke-linejoin:round;">
<path d="M21614 23153
L22322 23153
" />
<path d="M22322 21885
L21358 21885
" />
</g>
<g style="fill:#008484; fill-opacity:0.0; 
stroke:#008484; stroke-width:59.0551; stroke-opacity:1; 
stroke-linecap:round; stroke-linejoin:round;">
<path d="M25500 28800
L25500 29100
" />
<path d="M25500 29100
L24900 29100
" />
<path d="M24900 29100
L24900 28800
" />
<path d="M26100 33200
L24300 33200
" />
<path d="M24300 33200
L24300 28800
" />
<path d="M24300 28800
L26100 28800
" />
<path d="M26100 28800
L26100 33200
" />
<circle cx="22600" cy="26400" r="100" /> 
<path d="M22300 26700
L22300 26200
" />
<path d="M22300 25100
L22300 25600
" />
<path d="M22300 26200 A424.264 424.264 0.0 0 0 22300 25600 " />
<path d="M24000 26600
L24000 26700
" />
<path d="M22300 26700
L24000 26700
" />
<path d="M24000 26600
L24000 25100
" />
<path d="M24000 25100
L22300 25100
" />
</g>
<g style="fill:#008484; fill-opacity:0.0; 
stroke:#008484; stroke-width:47.2441; stroke-opacity:1; 
stroke-linecap:round; stroke-linejoin:round;">
<path d="M26673 20748
L26673 21141
" />
<path d="M27342 21141
L27342 20748
" />
<path d="M18248 25610
L18248 25216
" />
<path d="M17578 25216
L17578 25610
" />
</g>
<g style="fill:#008484; fill-opacity:0.0; 
stroke:#008484; stroke-width:59.0551; stroke-opacity:1; 
stroke-linecap:round; stroke-linejoin:round;">
<path d="M29285 13044
L29088 13044
" />
<path d="M29088 18260
L29285 18260
" />
<path d="M28892 18260
L29088 18260
" />
<path d="M29285 18260
L29285 13044
" />
<path d="M26529 17473
L26529 18260
" />
<path d="M26529 18260
L27809 18260
" />
<path d="M29088 13044
L26529 13044
" />
<path d="M26529 16488
L26529 13044
" />
</g>
<g style="fill:#008484; fill-opacity:0.0; 
stroke:#008484; stroke-width:47.2441; stroke-opacity:1; 
stroke-linecap:round; stroke-linejoin:round;">
<path d="M24633 18031
L24633 17559
" />
<path d="M25326 17559
L25326 18031
" />
<path d="M19830 19960
L19830 19488
" />
<path d="M20523 19488
L20523 19960
" />
<path d="M18082 16811
L18082 17283
" />
<path d="M17389 17283
L17389 16811
" />
</g>
<g style="fill:#008484; fill-opacity:0.0; 
stroke:#008484; stroke-width:59.0551; stroke-opacity:1; 
stroke-linecap:round; stroke-linejoin:round;">
<path d="M23986 14655
L23877 14655
" />
<path d="M23986 17706
L23846 17706
" />
<path d="M19793 17706
L19933 17706
" />
<path d="M19793 14655
L19933 14655
" />
<path d="M23986 14655
L23986 17706
" />
<path d="M19793 14655
L19793 17706
" />
<path d="M23877 14655
L23877 14055
" />
</g>
<g style="fill:#008484; fill-opacity:0.0; 
stroke:#008484; stroke-width:20; stroke-opacity:1; 
stroke-linecap:round; stroke-linejoin:round;">
<path d="M20000 29724
L20000 29094
" />
<path d="M16692 29094
L16692 29724
" />
<path d="M16692 29724
L20000 29724
" />
<path d="M16692 29094
L20000 29094
" />
<path d="M16692 29606
L16417 29606
" />
<path d="M16417 29606
L16417 32598
" />
<path d="M16417 32598
L16692 32598
" />
<path d="M16692 32598
L16692 29606
" />
<path d="M16279 27303
L15984 27303
" />
<path d="M15984 27303
L15984 28484
" />
<path d="M15984 28484
L16279 28484
" />
<path d="M16279 28484
L16279 27303
" />
<path d="M19921 33307
L20039 33425
" />
<path d="M19921 33385
L19960 33425
" />
<path d="M19999 32913
L20511 33425
" />
<path d="M20078 32913
L20590 33425
" />
<path d="M19921 33425
L20984 33425
" />
<path d="M20984 33425
L20984 32913
" />
<path d="M20984 32913
L19921 32913
" />
<path d="M19921 32913
L19921 33425
" />
<path d="M15984 27303
L16279 27598
" />
<path d="M16063 27303
L16279 27519
" />
<path d="M16141 27303
L16279 27441
" />
<path d="M16220 27303
L16279 27362
" />
<path d="M15984 27381
L16279 27677
" />
<path d="M15984 27460
L16279 27755
" />
<path d="M15984 27539
L16279 27834
" />
<path d="M15984 27618
L16279 27913
" />
<path d="M15984 27696
L16279 27992
" />
<path d="M15984 27775
L16279 28070
" />
<path d="M15984 27854
L16279 28149
" />
<path d="M15984 27933
L16279 28228
" />
<path d="M15984 28011
L16279 28307
" />
<path d="M15984 28090
L16279 28385
" />
<path d="M15984 28169
L16279 28464
" />
<path d="M15984 28248
L16220 28484
" />
<path d="M15984 28326
L16141 28484
" />
<path d="M15984 28405
L16063 28484
" />
<path d="M15984 30413
L16043 30472
" />
<path d="M20157 32913
L20669 33425
" />
<path d="M20236 32913
L20747 33425
" />
<path d="M20314 32913
L20826 33425
" />
<path d="M20393 32913
L20905 33425
" />
<path d="M20472 32913
L20984 33425
" />
<path d="M20984 33346
L20551 32913
" />
<path d="M20984 33267
L20629 32913
" />
<path d="M20984 33189
L20708 32913
" />
<path d="M20984 33110
L20787 32913
" />
<path d="M20984 33031
L20866 32913
" />
<path d="M20984 32952
L20944 32913
" />
</g>
<g style="fill:#008484; fill-opacity:0.0; 
stroke:#008484; stroke-width:50; stroke-opacity:1; 
stroke-linecap:round; stroke-linejoin:round;">
<path d="M16692 33425
L21102 33425
" />
<path d="M15984 32244
L15984 31515
" />
<path d="M15984 31004
L15984 29153
" />
<path d="M15984 28484
L15984 27126
" />
<path d="M15984 27126
L16220 27126
" />
<path d="M20157 27126
L20236 27126
" />
<path d="M20826 27126
L21692 27126
" />
<path d="M21692 27126
L21692 32598
" />
<path d="M16692 33425
L16594 33326
" />
<path d="M16594 33326
L16437 33326
" />
</g>
<g style="fill:#008484; fill-opacity:0.0; 
stroke:#008484; stroke-width:20; stroke-opacity:1; 
stroke-linecap:round; stroke-linejoin:round;">
<path d="M16417 29606
L16692 29881
" />
<path d="M16496 29606
L16692 29803
" />
<path d="M16574 29606
L16692 29724
" />
<path d="M16692 29566
L16850 29724
" />
<path d="M16417 29685
L16692 29960
" />
<path d="M16417 29763
L16692 30039
" />
<path d="M16417 29842
L16692 30118
" />
<path d="M16417 29921
L16692 30196
" />
<path d="M16417 30000
L16692 30275
" />
<path d="M16417 30078
L16692 30354
" />
<path d="M16417 30157
L16692 30433
" />
<path d="M16417 30236
L16692 30511
" />
<path d="M16417 30315
L16692 30590
" />
<path d="M16417 30393
L16692 30669
" />
<path d="M16417 30472
L16692 30748
" />
<path d="M16417 30551
L16692 30826
" />
<path d="M16417 30629
L16692 30905
" />
<path d="M16417 30708
L16692 30984
" />
<path d="M16417 30787
L16692 31063
" />
<path d="M16417 30866
L16692 31141
" />
<path d="M16417 30944
L16692 31220
" />
<path d="M16417 31023
L16692 31299
" />
<path d="M16417 31102
L16692 31378
" />
<path d="M16417 31181
L16692 31456
" />
<path d="M16417 31259
L16692 31535
" />
<path d="M16417 31338
L16692 31614
" />
<path d="M16417 31417
L16692 31693
" />
<path d="M16417 31496
L16692 31771
" />
<path d="M16417 31574
L16692 31850
" />
<path d="M16417 31653
L16692 31929
" />
<path d="M16417 31732
L16692 32007
" />
<path d="M16417 31811
L16692 32086
" />
<path d="M16417 31889
L16692 32165
" />
<path d="M16417 31968
L16692 32244
" />
<path d="M16417 32047
L16692 32322
" />
<path d="M16417 32126
L16692 32401
" />
<path d="M16417 32204
L16692 32480
" />
<path d="M16417 32283
L16692 32559
" />
<path d="M16417 32362
L16653 32598
" />
<path d="M16417 32441
L16574 32598
" />
<path d="M16417 32519
L16496 32598
" />
<path d="M16692 29094
L17322 29724
" />
<path d="M16692 29173
L17244 29724
" />
<path d="M16692 29252
L17165 29724
" />
<path d="M16692 29330
L17086 29724
" />
<path d="M16692 29409
L17007 29724
" />
<path d="M16692 29488
L16929 29724
" />
<path d="M16653 29606
L16771 29724
" />
<path d="M16771 29094
L17401 29724
" />
<path d="M16850 29094
L17480 29724
" />
<path d="M16929 29094
L17559 29724
" />
<path d="M17007 29094
L17637 29724
" />
<path d="M17086 29094
L17716 29724
" />
<path d="M17165 29094
L17795 29724
" />
<path d="M17244 29094
L17874 29724
" />
<path d="M17322 29094
L17952 29724
" />
<path d="M17401 29094
L18031 29724
" />
<path d="M17480 29094
L18110 29724
" />
<path d="M17559 29094
L18189 29724
" />
<path d="M17637 29094
L18267 29724
" />
<path d="M17716 29094
L18346 29724
" />
<path d="M17795 29094
L18425 29724
" />
<path d="M17874 29094
L18504 29724
" />
<path d="M17952 29094
L18582 29724
" />
<path d="M18031 29094
L18661 29724
" />
<path d="M18110 29094
L18740 29724
" />
<path d="M18189 29094
L18819 29724
" />
<path d="M18267 29094
L18897 29724
" />
<path d="M18346 29094
L18976 29724
" />
<path d="M18425 29094
L19055 29724
" />
<path d="M18504 29094
L19134 29724
" />
<path d="M18582 29094
L19212 29724
" />
<path d="M18661 29094
L19291 29724
" />
<path d="M18740 29094
L19370 29724
" />
<path d="M18819 29094
L19448 29724
" />
<path d="M18897 29094
L19527 29724
" />
<path d="M18976 29094
L19606 29724
" />
<path d="M19055 29094
L19685 29724
" />
<path d="M19134 29094
L19763 29724
" />
<path d="M19212 29094
L19842 29724
" />
<path d="M19291 29094
L19921 29724
" />
<path d="M19370 29094
L20000 29724
" />
<path d="M19448 29094
L20000 29645
" />
<path d="M19527 29094
L20000 29566
" />
<path d="M19606 29094
L20000 29488
" />
<path d="M19685 29094
L20000 29409
" />
<path d="M19763 29094
L20000 29330
" />
<path d="M19842 29094
L20000 29252
" />
<path d="M19921 29094
L19999 29173
" />
<path d="M19921 32913
L20433 33425
" />
<path d="M19921 32992
L20354 33425
" />
<path d="M19921 33070
L20275 33425
" />
<path d="M19921 33149
L20196 33425
" />
<path d="M19921 33228
L20118 33425
" />
<path d="M15984 29153
L15984 30472
" />
<path d="M15984 30472
L16279 30472
" />
<path d="M16279 30472
L16279 29153
" />
<path d="M16279 29153
L15984 29153
" />
<path d="M15984 29153
L16279 29448
" />
<path d="M16063 29153
L16279 29370
" />
<path d="M16141 29153
L16279 29291
" />
<path d="M16220 29153
L16279 29212
" />
<path d="M15984 29232
L16279 29527
" />
<path d="M15984 29311
L16279 29606
" />
<path d="M15984 29389
L16279 29684
" />
<path d="M15984 29468
L16279 29763
" />
<path d="M15984 29547
L16279 29842
" />
<path d="M15984 29626
L16279 29921
" />
<path d="M15984 29704
L16279 29999
" />
<path d="M15984 29783
L16279 30078
" />
<path d="M15984 29862
L16279 30157
" />
<path d="M15984 29940
L16279 30236
" />
<path d="M15984 30019
L16279 30314
" />
<path d="M15984 30098
L16279 30393
" />
<path d="M15984 30177
L16279 30472
" />
<path d="M15984 30255
L16200 30472
" />
<path d="M15984 30334
L16122 30472
" />
</g>
<g style="fill:#008484; fill-opacity:0.0; 
stroke:#008484; stroke-width:50; stroke-opacity:1; 
stroke-linecap:round; stroke-linejoin:round;">
<path d="M20826 33425
L20826 33582
" />
<path d="M16496 33425
L16496 33582
" />
</g>
<g style="fill:#008484; fill-opacity:0.0; 
stroke:#008484; stroke-width:47.2441; stroke-opacity:1; 
stroke-linecap:round; stroke-linejoin:round;">
<path d="M9429 19881
L9429 19488
" />
<path d="M8759 19488
L8759 19881
" />
<path d="M9429 15354
L9429 14960
" />
<path d="M8759 14960
L8759 15354
" />
<path d="M22460 28858
L22460 29251
" />
<path d="M23129 29251
L23129 28858
" />
<path d="M23149 32874
L23149 32480
" />
<path d="M22480 32480
L22480 32874
" />
<path d="M12145 22007
L11594 22007
" />
<path d="M11594 22007
L11594 23110
" />
<path d="M12145 22007
L12145 23110
" />
<path d="M12842 22549
L12842 22076
" />
<path d="M13535 22076
L13535 22549
" />
</g> 
</svg>
