G04 #@! TF.FileFunction,Soldermask,Top*
%FSLAX46Y46*%
G04 Gerber Fmt 4.6, Leading zero omitted, Abs format (unit mm)*
G04 Created by KiCad (PCBNEW 4.0.2-stable) date 1/25/2017 2:02:15 PM*
%MOMM*%
G01*
G04 APERTURE LIST*
%ADD10C,0.100000*%
%ADD11R,0.650000X1.060000*%
%ADD12R,3.750000X3.600000*%
%ADD13R,4.000000X3.600000*%
%ADD14C,1.600000*%
%ADD15R,1.250000X1.000000*%
%ADD16C,2.000000*%
%ADD17R,2.400000X0.740000*%
%ADD18R,1.300000X0.700000*%
%ADD19R,0.800000X0.900000*%
%ADD20R,0.900000X0.800000*%
%ADD21R,1.600000X0.550000*%
%ADD22R,0.550000X1.600000*%
%ADD23R,1.060000X0.650000*%
%ADD24R,0.600000X2.200000*%
%ADD25R,1.143000X0.508000*%
%ADD26R,0.400000X1.050000*%
%ADD27C,2.200000*%
%ADD28C,2.540000*%
%ADD29R,1.300000X1.900000*%
%ADD30R,1.000000X2.800000*%
%ADD31R,1.000000X1.200000*%
%ADD32R,1.000000X0.800000*%
%ADD33R,0.700000X1.200000*%
%ADD34R,0.600000X1.200000*%
%ADD35R,1.900000X1.300000*%
G04 APERTURE END LIST*
D10*
D11*
X62418000Y-52240000D03*
X61468000Y-52240000D03*
X60518000Y-52240000D03*
X60518000Y-54440000D03*
X62418000Y-54440000D03*
X61468000Y-54440000D03*
D12*
X32385000Y-40640000D03*
D13*
X40135000Y-40640000D03*
D12*
X47885000Y-40640000D03*
D14*
X36068000Y-81788000D03*
X33528000Y-81788000D03*
X30988000Y-81788000D03*
X28448000Y-81788000D03*
X25908000Y-81788000D03*
X23368000Y-81788000D03*
D15*
X45085000Y-46625000D03*
X45085000Y-48625000D03*
X41910000Y-46625000D03*
X41910000Y-48625000D03*
X38735000Y-48625000D03*
X38735000Y-46625000D03*
X42672000Y-65516000D03*
X42672000Y-63516000D03*
X40132000Y-65516000D03*
X40132000Y-63516000D03*
X30400000Y-46000000D03*
X30400000Y-48000000D03*
X60452000Y-56912000D03*
X60452000Y-58912000D03*
X56642000Y-58150000D03*
X56642000Y-56150000D03*
X52832000Y-54086000D03*
X52832000Y-52086000D03*
X68326000Y-71358000D03*
X68326000Y-69358000D03*
X57912000Y-77232000D03*
X57912000Y-79232000D03*
X58166000Y-71390000D03*
X58166000Y-73390000D03*
X62738000Y-63008000D03*
X62738000Y-65008000D03*
D16*
X72136000Y-46132000D03*
X67436000Y-43132000D03*
X72136000Y-40132000D03*
D17*
X56224000Y-49784000D03*
X56224000Y-48514000D03*
X56224000Y-47244000D03*
X56224000Y-45974000D03*
X56224000Y-44704000D03*
X52324000Y-44704000D03*
X52324000Y-45974000D03*
X52324000Y-47244000D03*
X52324000Y-48514000D03*
X52324000Y-49784000D03*
D14*
X17272000Y-47752000D03*
X17272000Y-45212000D03*
X17272000Y-42672000D03*
X17272000Y-40132000D03*
X17272000Y-37592000D03*
X17272000Y-35052000D03*
X17272000Y-65024000D03*
X17272000Y-62484000D03*
X17272000Y-59944000D03*
X17272000Y-57404000D03*
X17272000Y-54864000D03*
X17272000Y-52324000D03*
X17145000Y-82550000D03*
X17145000Y-80010000D03*
X17145000Y-77470000D03*
X17145000Y-74930000D03*
X17145000Y-72390000D03*
X17145000Y-69850000D03*
X73660000Y-77724000D03*
X73660000Y-80264000D03*
X73660000Y-82804000D03*
X73660000Y-59944000D03*
X73660000Y-62484000D03*
X73660000Y-65024000D03*
X73660000Y-67564000D03*
X73660000Y-70104000D03*
X73660000Y-72644000D03*
X73660000Y-75184000D03*
D18*
X37592000Y-63566000D03*
X37592000Y-65466000D03*
D19*
X73594000Y-54880000D03*
X71694000Y-54880000D03*
X72644000Y-56880000D03*
D20*
X22495000Y-56835000D03*
X22495000Y-58735000D03*
X24495000Y-57785000D03*
D19*
X24196000Y-75676000D03*
X26096000Y-75676000D03*
X25146000Y-73676000D03*
X31435000Y-75676000D03*
X33335000Y-75676000D03*
X32385000Y-73676000D03*
D18*
X48260000Y-46802000D03*
X48260000Y-48702000D03*
X52324000Y-40706000D03*
X52324000Y-42606000D03*
X27686000Y-58862000D03*
X27686000Y-56962000D03*
X24130000Y-63180000D03*
X24130000Y-61280000D03*
X23114000Y-69662000D03*
X23114000Y-71562000D03*
X30480000Y-69662000D03*
X30480000Y-71562000D03*
X26924000Y-71562000D03*
X26924000Y-69662000D03*
D21*
X38930000Y-53080000D03*
X38930000Y-53880000D03*
X38930000Y-54680000D03*
X38930000Y-55480000D03*
X38930000Y-56280000D03*
X38930000Y-57080000D03*
X38930000Y-57880000D03*
X38930000Y-58680000D03*
D22*
X40380000Y-60130000D03*
X41180000Y-60130000D03*
X41980000Y-60130000D03*
X42780000Y-60130000D03*
X43580000Y-60130000D03*
X44380000Y-60130000D03*
X45180000Y-60130000D03*
X45980000Y-60130000D03*
D21*
X47430000Y-58680000D03*
X47430000Y-57880000D03*
X47430000Y-57080000D03*
X47430000Y-56280000D03*
X47430000Y-55480000D03*
X47430000Y-54680000D03*
X47430000Y-53880000D03*
X47430000Y-53080000D03*
D22*
X45980000Y-51630000D03*
X45180000Y-51630000D03*
X44380000Y-51630000D03*
X43580000Y-51630000D03*
X42780000Y-51630000D03*
X41980000Y-51630000D03*
X41180000Y-51630000D03*
X40380000Y-51630000D03*
D23*
X51732000Y-56200000D03*
X51732000Y-57150000D03*
X51732000Y-58100000D03*
X53932000Y-58100000D03*
X53932000Y-56200000D03*
X53932000Y-57150000D03*
D24*
X23495000Y-50920000D03*
X24765000Y-50920000D03*
X26035000Y-50920000D03*
X27305000Y-50920000D03*
X23495000Y-45720000D03*
X24765000Y-45720000D03*
X26035000Y-45720000D03*
X27305000Y-45720000D03*
D25*
X67183000Y-74295000D03*
X67183000Y-76835000D03*
X67183000Y-78105000D03*
X67183000Y-79375000D03*
X67183000Y-80645000D03*
X67183000Y-81915000D03*
X67183000Y-83185000D03*
X60833000Y-83185000D03*
X60833000Y-81915000D03*
X60833000Y-80645000D03*
X60833000Y-79375000D03*
X60833000Y-78105000D03*
X60833000Y-76835000D03*
X60833000Y-75565000D03*
X60833000Y-74295000D03*
X67183000Y-75565000D03*
D26*
X56896000Y-63030000D03*
X57546000Y-63030000D03*
X58196000Y-63030000D03*
X58846000Y-63030000D03*
X59496000Y-63030000D03*
X60146000Y-63030000D03*
X60796000Y-63030000D03*
X60796000Y-68580000D03*
X60146000Y-68580000D03*
X59496000Y-68580000D03*
X58846000Y-68580000D03*
X58196000Y-68580000D03*
X57546000Y-68580000D03*
X56896000Y-68580000D03*
D15*
X65532000Y-54086000D03*
X65532000Y-52086000D03*
D18*
X34036000Y-71562000D03*
X34036000Y-69662000D03*
D27*
X67600000Y-64200000D03*
X29464000Y-63754000D03*
X53848000Y-37084000D03*
D28*
X38000000Y-76000000D03*
X35052000Y-51308000D03*
X73200000Y-50600000D03*
D15*
X46000000Y-63800000D03*
X46000000Y-65800000D03*
D29*
X54510000Y-83680000D03*
D30*
X40935000Y-83230000D03*
D31*
X40935000Y-72880000D03*
D32*
X40935000Y-79080000D03*
D31*
X52110000Y-68580000D03*
D33*
X50560000Y-68580000D03*
X49460000Y-68580000D03*
X48360000Y-68580000D03*
X47260000Y-68580000D03*
X46160000Y-68580000D03*
X45060000Y-68580000D03*
X43960000Y-68580000D03*
X42860000Y-68580000D03*
D34*
X41910000Y-68580000D03*
D35*
X27076000Y-36156000D03*
X27076000Y-41656000D03*
X23876000Y-36156000D03*
X23876000Y-41656000D03*
M02*
