M48
;DRILL file {KiCad 4.0.2-stable} date 1/25/2017 2:02:23 PM
;FORMAT={-:-/ absolute / inch / decimal}
FMAT,2
INCH,TZ
T1C0.016
T2C0.047
T3C0.051
%
G90
G05
M72
T1
X0.94Y-2.08
X0.97Y-2.74
X1.Y-2.53
X1.0157Y-2.2913
X1.1Y-2.96
X1.12Y-2.81
X1.14Y-2.74
X1.2Y-2.08
X1.24Y-2.34
X1.2677Y-2.2598
X1.28Y-1.8
X1.3071Y-2.22
X1.3622Y-2.0945
X1.38Y-2.96
X1.42Y-2.6
X1.4331Y-2.3071
X1.46Y-1.82
X1.4646Y-1.9055
X1.4724Y-2.0472
X1.54Y-2.
X1.6142Y-2.4409
X1.622Y-1.9606
X1.6535Y-2.4488
X1.7008Y-2.6378
X1.7638Y-1.9685
X1.7874Y-2.4724
X1.8Y-2.78
X1.86Y-1.78
X1.874Y-2.4409
X1.88Y-2.
X1.8898Y-2.5197
X1.937Y-2.2047
X1.9449Y-2.1732
X1.9764Y-1.9134
X1.9921Y-1.7165
X2.Y-2.04
X2.02Y-2.17
X2.14Y-1.62
X2.1969Y-2.7087
X2.2Y-2.48
X2.2598Y-2.4331
X2.28Y-2.96
X2.3Y-1.96
X2.3Y-2.76
X2.32Y-2.04
X2.32Y-2.18
X2.32Y-3.18
X2.34Y-2.76
X2.3622Y-2.4252
X2.44Y-2.22
X2.46Y-2.92
X2.46Y-2.96
X2.46Y-3.06
X2.48Y-3.1
X2.5118Y-2.6614
X2.52Y-2.1
X2.5354Y-2.4882
X2.5433Y-2.7638
X2.58Y-3.08
X2.7Y-2.92
X2.7Y-2.98
X2.8Y-3.02
T2
X2.655Y-1.6981
X2.84Y-1.58
X2.84Y-1.8162
T3
X0.675Y-2.75
X0.675Y-2.85
X0.675Y-2.95
X0.675Y-3.05
X0.675Y-3.15
X0.675Y-3.25
X0.68Y-1.38
X0.68Y-1.48
X0.68Y-1.58
X0.68Y-1.68
X0.68Y-1.78
X0.68Y-1.88
X0.68Y-2.06
X0.68Y-2.16
X0.68Y-2.26
X0.68Y-2.36
X0.68Y-2.46
X0.68Y-2.56
X0.92Y-3.22
X1.02Y-3.22
X1.12Y-3.22
X1.22Y-3.22
X1.32Y-3.22
X1.42Y-3.22
X2.9Y-2.36
X2.9Y-2.46
X2.9Y-2.56
X2.9Y-2.66
X2.9Y-2.76
X2.9Y-2.86
X2.9Y-2.96
X2.9Y-3.06
X2.9Y-3.16
X2.9Y-3.26
T0
M30
