G04 #@! TF.FileFunction,Legend,Top*
%FSLAX46Y46*%
G04 Gerber Fmt 4.6, Leading zero omitted, Abs format (unit mm)*
G04 Created by KiCad (PCBNEW 4.0.2-stable) date 1/25/2017 2:02:14 PM*
%MOMM*%
G01*
G04 APERTURE LIST*
%ADD10C,0.100000*%
%ADD11C,0.200000*%
%ADD12C,0.120000*%
%ADD13C,0.150000*%
G04 APERTURE END LIST*
D10*
D11*
X27765685Y-39800000D02*
G75*
G03X27765685Y-39800000I-565685J0D01*
G01*
D12*
X59858000Y-52440000D02*
X59858000Y-54240000D01*
X63078000Y-54240000D02*
X63078000Y-51790000D01*
D13*
X37385000Y-34640000D02*
X35385000Y-36640000D01*
X44385000Y-36640000D02*
X42385000Y-34640000D01*
X35385000Y-37140000D02*
X35385000Y-44140000D01*
X44385000Y-44140000D02*
X44385000Y-37140000D01*
X44385000Y-45140000D02*
X35385000Y-45140000D01*
X21868000Y-78488000D02*
X21868000Y-85088000D01*
X21868000Y-85088000D02*
X37568000Y-85088000D01*
X37568000Y-85088000D02*
X37568000Y-78488000D01*
X37568000Y-78488000D02*
X21868000Y-78488000D01*
X45935000Y-48125000D02*
X45935000Y-47125000D01*
X44235000Y-47125000D02*
X44235000Y-48125000D01*
X42760000Y-48125000D02*
X42760000Y-47125000D01*
X41060000Y-47125000D02*
X41060000Y-48125000D01*
X37885000Y-47125000D02*
X37885000Y-48125000D01*
X39585000Y-48125000D02*
X39585000Y-47125000D01*
X41822000Y-64016000D02*
X41822000Y-65016000D01*
X43522000Y-65016000D02*
X43522000Y-64016000D01*
X39282000Y-64016000D02*
X39282000Y-65016000D01*
X40982000Y-65016000D02*
X40982000Y-64016000D01*
X31250000Y-47500000D02*
X31250000Y-46500000D01*
X29550000Y-46500000D02*
X29550000Y-47500000D01*
X61302000Y-58412000D02*
X61302000Y-57412000D01*
X59602000Y-57412000D02*
X59602000Y-58412000D01*
X55792000Y-56650000D02*
X55792000Y-57650000D01*
X57492000Y-57650000D02*
X57492000Y-56650000D01*
X51982000Y-52586000D02*
X51982000Y-53586000D01*
X53682000Y-53586000D02*
X53682000Y-52586000D01*
X67476000Y-69858000D02*
X67476000Y-70858000D01*
X69176000Y-70858000D02*
X69176000Y-69858000D01*
X58762000Y-78732000D02*
X58762000Y-77732000D01*
X57062000Y-77732000D02*
X57062000Y-78732000D01*
X59016000Y-72890000D02*
X59016000Y-71890000D01*
X57316000Y-71890000D02*
X57316000Y-72890000D01*
X63588000Y-64508000D02*
X63588000Y-63508000D01*
X61888000Y-63508000D02*
X61888000Y-64508000D01*
X73866000Y-33132000D02*
X73866000Y-47752000D01*
X73866000Y-47752000D02*
X65786000Y-47752000D01*
X65786000Y-47752000D02*
X65786000Y-33132000D01*
X65786000Y-33132000D02*
X73866000Y-33132000D01*
X53721000Y-50292000D02*
X53721000Y-44196000D01*
X53721000Y-44196000D02*
X54737000Y-44196000D01*
X54737000Y-44196000D02*
X54737000Y-50292000D01*
X54737000Y-50292000D02*
X53721000Y-50292000D01*
X20572000Y-33552000D02*
X13972000Y-33552000D01*
X13972000Y-33552000D02*
X13972000Y-49252000D01*
X13972000Y-49252000D02*
X20572000Y-49252000D01*
X20572000Y-49252000D02*
X20572000Y-33552000D01*
X20572000Y-50824000D02*
X13972000Y-50824000D01*
X13972000Y-50824000D02*
X13972000Y-66524000D01*
X13972000Y-66524000D02*
X20572000Y-66524000D01*
X20572000Y-66524000D02*
X20572000Y-50824000D01*
X20445000Y-68350000D02*
X13845000Y-68350000D01*
X13845000Y-68350000D02*
X13845000Y-84050000D01*
X13845000Y-84050000D02*
X20445000Y-84050000D01*
X20445000Y-84050000D02*
X20445000Y-68350000D01*
X76960000Y-58444000D02*
X70360000Y-58444000D01*
X70360000Y-58444000D02*
X70360000Y-84304000D01*
X70360000Y-84304000D02*
X76960000Y-84304000D01*
X76960000Y-84304000D02*
X76960000Y-58444000D01*
X36717000Y-65116000D02*
X36717000Y-63916000D01*
X38467000Y-63916000D02*
X38467000Y-65116000D01*
D12*
X71064000Y-56640000D02*
X71994000Y-56640000D01*
X74224000Y-56640000D02*
X73294000Y-56640000D01*
X74224000Y-56640000D02*
X74224000Y-54480000D01*
X71064000Y-56640000D02*
X71064000Y-55180000D01*
X24255000Y-59365000D02*
X24255000Y-58435000D01*
X24255000Y-56205000D02*
X24255000Y-57135000D01*
X24255000Y-56205000D02*
X22095000Y-56205000D01*
X24255000Y-59365000D02*
X22795000Y-59365000D01*
X26726000Y-73916000D02*
X25796000Y-73916000D01*
X23566000Y-73916000D02*
X24496000Y-73916000D01*
X23566000Y-73916000D02*
X23566000Y-76076000D01*
X26726000Y-73916000D02*
X26726000Y-75376000D01*
X33965000Y-73916000D02*
X33035000Y-73916000D01*
X30805000Y-73916000D02*
X31735000Y-73916000D01*
X30805000Y-73916000D02*
X30805000Y-76076000D01*
X33965000Y-73916000D02*
X33965000Y-75376000D01*
D13*
X47385000Y-48352000D02*
X47385000Y-47152000D01*
X49135000Y-47152000D02*
X49135000Y-48352000D01*
X51449000Y-42256000D02*
X51449000Y-41056000D01*
X53199000Y-41056000D02*
X53199000Y-42256000D01*
X28561000Y-57312000D02*
X28561000Y-58512000D01*
X26811000Y-58512000D02*
X26811000Y-57312000D01*
X25005000Y-61630000D02*
X25005000Y-62830000D01*
X23255000Y-62830000D02*
X23255000Y-61630000D01*
X22239000Y-71212000D02*
X22239000Y-70012000D01*
X23989000Y-70012000D02*
X23989000Y-71212000D01*
X29605000Y-71212000D02*
X29605000Y-70012000D01*
X31355000Y-70012000D02*
X31355000Y-71212000D01*
X27799000Y-70012000D02*
X27799000Y-71212000D01*
X26049000Y-71212000D02*
X26049000Y-70012000D01*
X39555000Y-52255000D02*
X39555000Y-52480000D01*
X46805000Y-52255000D02*
X46805000Y-52580000D01*
X46805000Y-59505000D02*
X46805000Y-59180000D01*
X39555000Y-59505000D02*
X39555000Y-59180000D01*
X39555000Y-52255000D02*
X39880000Y-52255000D01*
X39555000Y-59505000D02*
X39880000Y-59505000D01*
X46805000Y-59505000D02*
X46480000Y-59505000D01*
X46805000Y-52255000D02*
X46480000Y-52255000D01*
X39555000Y-52480000D02*
X38130000Y-52480000D01*
D12*
X51932000Y-58760000D02*
X53732000Y-58760000D01*
X53732000Y-55540000D02*
X51282000Y-55540000D01*
D13*
X26924000Y-47625000D02*
G75*
G03X26924000Y-47625000I-127000J0D01*
G01*
X27432000Y-47117000D02*
X27432000Y-47879000D01*
X27432000Y-49530000D02*
X27432000Y-48641000D01*
X27305000Y-47879000D02*
G75*
G03X27305000Y-48641000I381000J-381000D01*
G01*
X27432000Y-47117000D02*
X23368000Y-47117000D01*
X23368000Y-47117000D02*
X23368000Y-49530000D01*
X23368000Y-49530000D02*
X27432000Y-49530000D01*
X64770000Y-73152000D02*
X64770000Y-73914000D01*
X64770000Y-73914000D02*
X63246000Y-73914000D01*
X63246000Y-73914000D02*
X63246000Y-73152000D01*
X66294000Y-84328000D02*
X61722000Y-84328000D01*
X61722000Y-84328000D02*
X61722000Y-73152000D01*
X61722000Y-73152000D02*
X66294000Y-73152000D01*
X66294000Y-73152000D02*
X66294000Y-84328000D01*
X57658000Y-67056000D02*
G75*
G03X57658000Y-67056000I-254000J0D01*
G01*
X56642000Y-67818000D02*
X56642000Y-66548000D01*
X56642000Y-63754000D02*
X56642000Y-65024000D01*
X56642000Y-66548000D02*
G75*
G03X56642000Y-65024000I-762000J762000D01*
G01*
X60960000Y-67564000D02*
X60960000Y-67818000D01*
X56642000Y-67818000D02*
X60960000Y-67818000D01*
X60960000Y-67564000D02*
X60960000Y-63754000D01*
X60960000Y-63754000D02*
X56642000Y-63754000D01*
D12*
X64682000Y-52586000D02*
X64682000Y-53586000D01*
X66382000Y-53586000D02*
X66382000Y-52586000D01*
D13*
X34911000Y-70012000D02*
X34911000Y-71212000D01*
X33161000Y-71212000D02*
X33161000Y-70012000D01*
D12*
X46850000Y-65300000D02*
X46850000Y-64300000D01*
X45150000Y-64300000D02*
X45150000Y-65300000D01*
D13*
X41910000Y-69880000D02*
X41910000Y-84180000D01*
X41910000Y-84180000D02*
X53310000Y-84180000D01*
X55660000Y-84280000D02*
X55660000Y-69980000D01*
X55660000Y-69880000D02*
X41910000Y-69880000D01*
X22676000Y-42556000D02*
X22676000Y-35156000D01*
X22676000Y-35156000D02*
X28276000Y-35156000D01*
X28276000Y-35156000D02*
X28276000Y-42556000D01*
X28276000Y-42556000D02*
X22676000Y-42556000D01*
X60638095Y-49852381D02*
X60638095Y-50661905D01*
X60685714Y-50757143D01*
X60733333Y-50804762D01*
X60828571Y-50852381D01*
X61019048Y-50852381D01*
X61114286Y-50804762D01*
X61161905Y-50757143D01*
X61209524Y-50661905D01*
X61209524Y-49852381D01*
X61638095Y-49947619D02*
X61685714Y-49900000D01*
X61780952Y-49852381D01*
X62019048Y-49852381D01*
X62114286Y-49900000D01*
X62161905Y-49947619D01*
X62209524Y-50042857D01*
X62209524Y-50138095D01*
X62161905Y-50280952D01*
X61590476Y-50852381D01*
X62209524Y-50852381D01*
X30964286Y-37393571D02*
X31107143Y-37441190D01*
X31154762Y-37488810D01*
X31202381Y-37584048D01*
X31202381Y-37726905D01*
X31154762Y-37822143D01*
X31107143Y-37869762D01*
X31011905Y-37917381D01*
X30630952Y-37917381D01*
X30630952Y-36917381D01*
X30964286Y-36917381D01*
X31059524Y-36965000D01*
X31107143Y-37012619D01*
X31154762Y-37107857D01*
X31154762Y-37203095D01*
X31107143Y-37298333D01*
X31059524Y-37345952D01*
X30964286Y-37393571D01*
X30630952Y-37393571D01*
X31488095Y-36917381D02*
X32059524Y-36917381D01*
X31773809Y-37917381D02*
X31773809Y-36917381D01*
X32916667Y-37917381D02*
X32345238Y-37917381D01*
X32630952Y-37917381D02*
X32630952Y-36917381D01*
X32535714Y-37060238D01*
X32440476Y-37155476D01*
X32345238Y-37203095D01*
X22526667Y-77176381D02*
X22526667Y-77890667D01*
X22479047Y-78033524D01*
X22383809Y-78128762D01*
X22240952Y-78176381D01*
X22145714Y-78176381D01*
X23431429Y-77509714D02*
X23431429Y-78176381D01*
X23193333Y-77128762D02*
X22955238Y-77843048D01*
X23574286Y-77843048D01*
X45433334Y-45357143D02*
X45385715Y-45404762D01*
X45242858Y-45452381D01*
X45147620Y-45452381D01*
X45004762Y-45404762D01*
X44909524Y-45309524D01*
X44861905Y-45214286D01*
X44814286Y-45023810D01*
X44814286Y-44880952D01*
X44861905Y-44690476D01*
X44909524Y-44595238D01*
X45004762Y-44500000D01*
X45147620Y-44452381D01*
X45242858Y-44452381D01*
X45385715Y-44500000D01*
X45433334Y-44547619D01*
X46385715Y-45452381D02*
X45814286Y-45452381D01*
X46100000Y-45452381D02*
X46100000Y-44452381D01*
X46004762Y-44595238D01*
X45909524Y-44690476D01*
X45814286Y-44738095D01*
X41997334Y-45061143D02*
X41949715Y-45108762D01*
X41806858Y-45156381D01*
X41711620Y-45156381D01*
X41568762Y-45108762D01*
X41473524Y-45013524D01*
X41425905Y-44918286D01*
X41378286Y-44727810D01*
X41378286Y-44584952D01*
X41425905Y-44394476D01*
X41473524Y-44299238D01*
X41568762Y-44204000D01*
X41711620Y-44156381D01*
X41806858Y-44156381D01*
X41949715Y-44204000D01*
X41997334Y-44251619D01*
X42378286Y-44251619D02*
X42425905Y-44204000D01*
X42521143Y-44156381D01*
X42759239Y-44156381D01*
X42854477Y-44204000D01*
X42902096Y-44251619D01*
X42949715Y-44346857D01*
X42949715Y-44442095D01*
X42902096Y-44584952D01*
X42330667Y-45156381D01*
X42949715Y-45156381D01*
X36409334Y-47601143D02*
X36361715Y-47648762D01*
X36218858Y-47696381D01*
X36123620Y-47696381D01*
X35980762Y-47648762D01*
X35885524Y-47553524D01*
X35837905Y-47458286D01*
X35790286Y-47267810D01*
X35790286Y-47124952D01*
X35837905Y-46934476D01*
X35885524Y-46839238D01*
X35980762Y-46744000D01*
X36123620Y-46696381D01*
X36218858Y-46696381D01*
X36361715Y-46744000D01*
X36409334Y-46791619D01*
X36742667Y-46696381D02*
X37361715Y-46696381D01*
X37028381Y-47077333D01*
X37171239Y-47077333D01*
X37266477Y-47124952D01*
X37314096Y-47172571D01*
X37361715Y-47267810D01*
X37361715Y-47505905D01*
X37314096Y-47601143D01*
X37266477Y-47648762D01*
X37171239Y-47696381D01*
X36885524Y-47696381D01*
X36790286Y-47648762D01*
X36742667Y-47601143D01*
X43433334Y-62357143D02*
X43385715Y-62404762D01*
X43242858Y-62452381D01*
X43147620Y-62452381D01*
X43004762Y-62404762D01*
X42909524Y-62309524D01*
X42861905Y-62214286D01*
X42814286Y-62023810D01*
X42814286Y-61880952D01*
X42861905Y-61690476D01*
X42909524Y-61595238D01*
X43004762Y-61500000D01*
X43147620Y-61452381D01*
X43242858Y-61452381D01*
X43385715Y-61500000D01*
X43433334Y-61547619D01*
X44290477Y-61785714D02*
X44290477Y-62452381D01*
X44052381Y-61404762D02*
X43814286Y-62119048D01*
X44433334Y-62119048D01*
X39965334Y-62333143D02*
X39917715Y-62380762D01*
X39774858Y-62428381D01*
X39679620Y-62428381D01*
X39536762Y-62380762D01*
X39441524Y-62285524D01*
X39393905Y-62190286D01*
X39346286Y-61999810D01*
X39346286Y-61856952D01*
X39393905Y-61666476D01*
X39441524Y-61571238D01*
X39536762Y-61476000D01*
X39679620Y-61428381D01*
X39774858Y-61428381D01*
X39917715Y-61476000D01*
X39965334Y-61523619D01*
X40870096Y-61428381D02*
X40393905Y-61428381D01*
X40346286Y-61904571D01*
X40393905Y-61856952D01*
X40489143Y-61809333D01*
X40727239Y-61809333D01*
X40822477Y-61856952D01*
X40870096Y-61904571D01*
X40917715Y-61999810D01*
X40917715Y-62237905D01*
X40870096Y-62333143D01*
X40822477Y-62380762D01*
X40727239Y-62428381D01*
X40489143Y-62428381D01*
X40393905Y-62380762D01*
X40346286Y-62333143D01*
X30353334Y-44567143D02*
X30305715Y-44614762D01*
X30162858Y-44662381D01*
X30067620Y-44662381D01*
X29924762Y-44614762D01*
X29829524Y-44519524D01*
X29781905Y-44424286D01*
X29734286Y-44233810D01*
X29734286Y-44090952D01*
X29781905Y-43900476D01*
X29829524Y-43805238D01*
X29924762Y-43710000D01*
X30067620Y-43662381D01*
X30162858Y-43662381D01*
X30305715Y-43710000D01*
X30353334Y-43757619D01*
X31210477Y-43662381D02*
X31020000Y-43662381D01*
X30924762Y-43710000D01*
X30877143Y-43757619D01*
X30781905Y-43900476D01*
X30734286Y-44090952D01*
X30734286Y-44471905D01*
X30781905Y-44567143D01*
X30829524Y-44614762D01*
X30924762Y-44662381D01*
X31115239Y-44662381D01*
X31210477Y-44614762D01*
X31258096Y-44567143D01*
X31305715Y-44471905D01*
X31305715Y-44233810D01*
X31258096Y-44138571D01*
X31210477Y-44090952D01*
X31115239Y-44043333D01*
X30924762Y-44043333D01*
X30829524Y-44090952D01*
X30781905Y-44138571D01*
X30734286Y-44233810D01*
X62433334Y-58157143D02*
X62385715Y-58204762D01*
X62242858Y-58252381D01*
X62147620Y-58252381D01*
X62004762Y-58204762D01*
X61909524Y-58109524D01*
X61861905Y-58014286D01*
X61814286Y-57823810D01*
X61814286Y-57680952D01*
X61861905Y-57490476D01*
X61909524Y-57395238D01*
X62004762Y-57300000D01*
X62147620Y-57252381D01*
X62242858Y-57252381D01*
X62385715Y-57300000D01*
X62433334Y-57347619D01*
X63004762Y-57680952D02*
X62909524Y-57633333D01*
X62861905Y-57585714D01*
X62814286Y-57490476D01*
X62814286Y-57442857D01*
X62861905Y-57347619D01*
X62909524Y-57300000D01*
X63004762Y-57252381D01*
X63195239Y-57252381D01*
X63290477Y-57300000D01*
X63338096Y-57347619D01*
X63385715Y-57442857D01*
X63385715Y-57490476D01*
X63338096Y-57585714D01*
X63290477Y-57633333D01*
X63195239Y-57680952D01*
X63004762Y-57680952D01*
X62909524Y-57728571D01*
X62861905Y-57776190D01*
X62814286Y-57871429D01*
X62814286Y-58061905D01*
X62861905Y-58157143D01*
X62909524Y-58204762D01*
X63004762Y-58252381D01*
X63195239Y-58252381D01*
X63290477Y-58204762D01*
X63338096Y-58157143D01*
X63385715Y-58061905D01*
X63385715Y-57871429D01*
X63338096Y-57776190D01*
X63290477Y-57728571D01*
X63195239Y-57680952D01*
X56475334Y-54713143D02*
X56427715Y-54760762D01*
X56284858Y-54808381D01*
X56189620Y-54808381D01*
X56046762Y-54760762D01*
X55951524Y-54665524D01*
X55903905Y-54570286D01*
X55856286Y-54379810D01*
X55856286Y-54236952D01*
X55903905Y-54046476D01*
X55951524Y-53951238D01*
X56046762Y-53856000D01*
X56189620Y-53808381D01*
X56284858Y-53808381D01*
X56427715Y-53856000D01*
X56475334Y-53903619D01*
X56951524Y-54808381D02*
X57142000Y-54808381D01*
X57237239Y-54760762D01*
X57284858Y-54713143D01*
X57380096Y-54570286D01*
X57427715Y-54379810D01*
X57427715Y-53998857D01*
X57380096Y-53903619D01*
X57332477Y-53856000D01*
X57237239Y-53808381D01*
X57046762Y-53808381D01*
X56951524Y-53856000D01*
X56903905Y-53903619D01*
X56856286Y-53998857D01*
X56856286Y-54236952D01*
X56903905Y-54332190D01*
X56951524Y-54379810D01*
X57046762Y-54427429D01*
X57237239Y-54427429D01*
X57332477Y-54379810D01*
X57380096Y-54332190D01*
X57427715Y-54236952D01*
X54983143Y-52173143D02*
X54935524Y-52220762D01*
X54792667Y-52268381D01*
X54697429Y-52268381D01*
X54554571Y-52220762D01*
X54459333Y-52125524D01*
X54411714Y-52030286D01*
X54364095Y-51839810D01*
X54364095Y-51696952D01*
X54411714Y-51506476D01*
X54459333Y-51411238D01*
X54554571Y-51316000D01*
X54697429Y-51268381D01*
X54792667Y-51268381D01*
X54935524Y-51316000D01*
X54983143Y-51363619D01*
X55935524Y-52268381D02*
X55364095Y-52268381D01*
X55649809Y-52268381D02*
X55649809Y-51268381D01*
X55554571Y-51411238D01*
X55459333Y-51506476D01*
X55364095Y-51554095D01*
X56554571Y-51268381D02*
X56649810Y-51268381D01*
X56745048Y-51316000D01*
X56792667Y-51363619D01*
X56840286Y-51458857D01*
X56887905Y-51649333D01*
X56887905Y-51887429D01*
X56840286Y-52077905D01*
X56792667Y-52173143D01*
X56745048Y-52220762D01*
X56649810Y-52268381D01*
X56554571Y-52268381D01*
X56459333Y-52220762D01*
X56411714Y-52173143D01*
X56364095Y-52077905D01*
X56316476Y-51887429D01*
X56316476Y-51649333D01*
X56364095Y-51458857D01*
X56411714Y-51363619D01*
X56459333Y-51316000D01*
X56554571Y-51268381D01*
X67357143Y-68157143D02*
X67309524Y-68204762D01*
X67166667Y-68252381D01*
X67071429Y-68252381D01*
X66928571Y-68204762D01*
X66833333Y-68109524D01*
X66785714Y-68014286D01*
X66738095Y-67823810D01*
X66738095Y-67680952D01*
X66785714Y-67490476D01*
X66833333Y-67395238D01*
X66928571Y-67300000D01*
X67071429Y-67252381D01*
X67166667Y-67252381D01*
X67309524Y-67300000D01*
X67357143Y-67347619D01*
X68309524Y-68252381D02*
X67738095Y-68252381D01*
X68023809Y-68252381D02*
X68023809Y-67252381D01*
X67928571Y-67395238D01*
X67833333Y-67490476D01*
X67738095Y-67538095D01*
X68690476Y-67347619D02*
X68738095Y-67300000D01*
X68833333Y-67252381D01*
X69071429Y-67252381D01*
X69166667Y-67300000D01*
X69214286Y-67347619D01*
X69261905Y-67442857D01*
X69261905Y-67538095D01*
X69214286Y-67680952D01*
X68642857Y-68252381D01*
X69261905Y-68252381D01*
X56157143Y-81357143D02*
X56109524Y-81404762D01*
X55966667Y-81452381D01*
X55871429Y-81452381D01*
X55728571Y-81404762D01*
X55633333Y-81309524D01*
X55585714Y-81214286D01*
X55538095Y-81023810D01*
X55538095Y-80880952D01*
X55585714Y-80690476D01*
X55633333Y-80595238D01*
X55728571Y-80500000D01*
X55871429Y-80452381D01*
X55966667Y-80452381D01*
X56109524Y-80500000D01*
X56157143Y-80547619D01*
X57109524Y-81452381D02*
X56538095Y-81452381D01*
X56823809Y-81452381D02*
X56823809Y-80452381D01*
X56728571Y-80595238D01*
X56633333Y-80690476D01*
X56538095Y-80738095D01*
X57442857Y-80452381D02*
X58061905Y-80452381D01*
X57728571Y-80833333D01*
X57871429Y-80833333D01*
X57966667Y-80880952D01*
X58014286Y-80928571D01*
X58061905Y-81023810D01*
X58061905Y-81261905D01*
X58014286Y-81357143D01*
X57966667Y-81404762D01*
X57871429Y-81452381D01*
X57585714Y-81452381D01*
X57490476Y-81404762D01*
X57442857Y-81357143D01*
X55157143Y-71557143D02*
X55109524Y-71604762D01*
X54966667Y-71652381D01*
X54871429Y-71652381D01*
X54728571Y-71604762D01*
X54633333Y-71509524D01*
X54585714Y-71414286D01*
X54538095Y-71223810D01*
X54538095Y-71080952D01*
X54585714Y-70890476D01*
X54633333Y-70795238D01*
X54728571Y-70700000D01*
X54871429Y-70652381D01*
X54966667Y-70652381D01*
X55109524Y-70700000D01*
X55157143Y-70747619D01*
X56109524Y-71652381D02*
X55538095Y-71652381D01*
X55823809Y-71652381D02*
X55823809Y-70652381D01*
X55728571Y-70795238D01*
X55633333Y-70890476D01*
X55538095Y-70938095D01*
X56966667Y-70985714D02*
X56966667Y-71652381D01*
X56728571Y-70604762D02*
X56490476Y-71319048D01*
X57109524Y-71319048D01*
X62357143Y-61557143D02*
X62309524Y-61604762D01*
X62166667Y-61652381D01*
X62071429Y-61652381D01*
X61928571Y-61604762D01*
X61833333Y-61509524D01*
X61785714Y-61414286D01*
X61738095Y-61223810D01*
X61738095Y-61080952D01*
X61785714Y-60890476D01*
X61833333Y-60795238D01*
X61928571Y-60700000D01*
X62071429Y-60652381D01*
X62166667Y-60652381D01*
X62309524Y-60700000D01*
X62357143Y-60747619D01*
X63309524Y-61652381D02*
X62738095Y-61652381D01*
X63023809Y-61652381D02*
X63023809Y-60652381D01*
X62928571Y-60795238D01*
X62833333Y-60890476D01*
X62738095Y-60938095D01*
X64214286Y-60652381D02*
X63738095Y-60652381D01*
X63690476Y-61128571D01*
X63738095Y-61080952D01*
X63833333Y-61033333D01*
X64071429Y-61033333D01*
X64166667Y-61080952D01*
X64214286Y-61128571D01*
X64261905Y-61223810D01*
X64261905Y-61461905D01*
X64214286Y-61557143D01*
X64166667Y-61604762D01*
X64071429Y-61652381D01*
X63833333Y-61652381D01*
X63738095Y-61604762D01*
X63690476Y-61557143D01*
X64466667Y-39452381D02*
X64466667Y-40166667D01*
X64419047Y-40309524D01*
X64323809Y-40404762D01*
X64180952Y-40452381D01*
X64085714Y-40452381D01*
X65466667Y-40452381D02*
X64895238Y-40452381D01*
X65180952Y-40452381D02*
X65180952Y-39452381D01*
X65085714Y-39595238D01*
X64990476Y-39690476D01*
X64895238Y-39738095D01*
X58266667Y-44452381D02*
X58266667Y-45166667D01*
X58219047Y-45309524D01*
X58123809Y-45404762D01*
X57980952Y-45452381D01*
X57885714Y-45452381D01*
X58695238Y-44547619D02*
X58742857Y-44500000D01*
X58838095Y-44452381D01*
X59076191Y-44452381D01*
X59171429Y-44500000D01*
X59219048Y-44547619D01*
X59266667Y-44642857D01*
X59266667Y-44738095D01*
X59219048Y-44880952D01*
X58647619Y-45452381D01*
X59266667Y-45452381D01*
X21510667Y-33488381D02*
X21510667Y-34202667D01*
X21463047Y-34345524D01*
X21367809Y-34440762D01*
X21224952Y-34488381D01*
X21129714Y-34488381D01*
X22463048Y-33488381D02*
X21986857Y-33488381D01*
X21939238Y-33964571D01*
X21986857Y-33916952D01*
X22082095Y-33869333D01*
X22320191Y-33869333D01*
X22415429Y-33916952D01*
X22463048Y-33964571D01*
X22510667Y-34059810D01*
X22510667Y-34297905D01*
X22463048Y-34393143D01*
X22415429Y-34440762D01*
X22320191Y-34488381D01*
X22082095Y-34488381D01*
X21986857Y-34440762D01*
X21939238Y-34393143D01*
X21510667Y-50760381D02*
X21510667Y-51474667D01*
X21463047Y-51617524D01*
X21367809Y-51712762D01*
X21224952Y-51760381D01*
X21129714Y-51760381D01*
X22415429Y-50760381D02*
X22224952Y-50760381D01*
X22129714Y-50808000D01*
X22082095Y-50855619D01*
X21986857Y-50998476D01*
X21939238Y-51188952D01*
X21939238Y-51569905D01*
X21986857Y-51665143D01*
X22034476Y-51712762D01*
X22129714Y-51760381D01*
X22320191Y-51760381D01*
X22415429Y-51712762D01*
X22463048Y-51665143D01*
X22510667Y-51569905D01*
X22510667Y-51331810D01*
X22463048Y-51236571D01*
X22415429Y-51188952D01*
X22320191Y-51141333D01*
X22129714Y-51141333D01*
X22034476Y-51188952D01*
X21986857Y-51236571D01*
X21939238Y-51331810D01*
X18970667Y-67016381D02*
X18970667Y-67730667D01*
X18923047Y-67873524D01*
X18827809Y-67968762D01*
X18684952Y-68016381D01*
X18589714Y-68016381D01*
X19351619Y-67016381D02*
X20018286Y-67016381D01*
X19589714Y-68016381D01*
X68754667Y-58888381D02*
X68754667Y-59602667D01*
X68707047Y-59745524D01*
X68611809Y-59840762D01*
X68468952Y-59888381D01*
X68373714Y-59888381D01*
X69373714Y-59316952D02*
X69278476Y-59269333D01*
X69230857Y-59221714D01*
X69183238Y-59126476D01*
X69183238Y-59078857D01*
X69230857Y-58983619D01*
X69278476Y-58936000D01*
X69373714Y-58888381D01*
X69564191Y-58888381D01*
X69659429Y-58936000D01*
X69707048Y-58983619D01*
X69754667Y-59078857D01*
X69754667Y-59126476D01*
X69707048Y-59221714D01*
X69659429Y-59269333D01*
X69564191Y-59316952D01*
X69373714Y-59316952D01*
X69278476Y-59364571D01*
X69230857Y-59412190D01*
X69183238Y-59507429D01*
X69183238Y-59697905D01*
X69230857Y-59793143D01*
X69278476Y-59840762D01*
X69373714Y-59888381D01*
X69564191Y-59888381D01*
X69659429Y-59840762D01*
X69707048Y-59793143D01*
X69754667Y-59697905D01*
X69754667Y-59507429D01*
X69707048Y-59412190D01*
X69659429Y-59364571D01*
X69564191Y-59316952D01*
X36766667Y-61928571D02*
X36433333Y-61928571D01*
X36433333Y-62452381D02*
X36433333Y-61452381D01*
X36909524Y-61452381D01*
X37623810Y-61928571D02*
X37766667Y-61976190D01*
X37814286Y-62023810D01*
X37861905Y-62119048D01*
X37861905Y-62261905D01*
X37814286Y-62357143D01*
X37766667Y-62404762D01*
X37671429Y-62452381D01*
X37290476Y-62452381D01*
X37290476Y-61452381D01*
X37623810Y-61452381D01*
X37719048Y-61500000D01*
X37766667Y-61547619D01*
X37814286Y-61642857D01*
X37814286Y-61738095D01*
X37766667Y-61833333D01*
X37719048Y-61880952D01*
X37623810Y-61928571D01*
X37290476Y-61928571D01*
X38814286Y-62452381D02*
X38242857Y-62452381D01*
X38528571Y-62452381D02*
X38528571Y-61452381D01*
X38433333Y-61595238D01*
X38338095Y-61690476D01*
X38242857Y-61738095D01*
X72504762Y-53747619D02*
X72409524Y-53700000D01*
X72314286Y-53604762D01*
X72171429Y-53461905D01*
X72076190Y-53414286D01*
X71980952Y-53414286D01*
X72028571Y-53652381D02*
X71933333Y-53604762D01*
X71838095Y-53509524D01*
X71790476Y-53319048D01*
X71790476Y-52985714D01*
X71838095Y-52795238D01*
X71933333Y-52700000D01*
X72028571Y-52652381D01*
X72219048Y-52652381D01*
X72314286Y-52700000D01*
X72409524Y-52795238D01*
X72457143Y-52985714D01*
X72457143Y-53319048D01*
X72409524Y-53509524D01*
X72314286Y-53604762D01*
X72219048Y-53652381D01*
X72028571Y-53652381D01*
X73409524Y-53652381D02*
X72838095Y-53652381D01*
X73123809Y-53652381D02*
X73123809Y-52652381D01*
X73028571Y-52795238D01*
X72933333Y-52890476D01*
X72838095Y-52938095D01*
X23399762Y-55832619D02*
X23304524Y-55785000D01*
X23209286Y-55689762D01*
X23066429Y-55546905D01*
X22971190Y-55499286D01*
X22875952Y-55499286D01*
X22923571Y-55737381D02*
X22828333Y-55689762D01*
X22733095Y-55594524D01*
X22685476Y-55404048D01*
X22685476Y-55070714D01*
X22733095Y-54880238D01*
X22828333Y-54785000D01*
X22923571Y-54737381D01*
X23114048Y-54737381D01*
X23209286Y-54785000D01*
X23304524Y-54880238D01*
X23352143Y-55070714D01*
X23352143Y-55404048D01*
X23304524Y-55594524D01*
X23209286Y-55689762D01*
X23114048Y-55737381D01*
X22923571Y-55737381D01*
X23733095Y-54832619D02*
X23780714Y-54785000D01*
X23875952Y-54737381D01*
X24114048Y-54737381D01*
X24209286Y-54785000D01*
X24256905Y-54832619D01*
X24304524Y-54927857D01*
X24304524Y-55023095D01*
X24256905Y-55165952D01*
X23685476Y-55737381D01*
X24304524Y-55737381D01*
X22104762Y-74147619D02*
X22009524Y-74100000D01*
X21914286Y-74004762D01*
X21771429Y-73861905D01*
X21676190Y-73814286D01*
X21580952Y-73814286D01*
X21628571Y-74052381D02*
X21533333Y-74004762D01*
X21438095Y-73909524D01*
X21390476Y-73719048D01*
X21390476Y-73385714D01*
X21438095Y-73195238D01*
X21533333Y-73100000D01*
X21628571Y-73052381D01*
X21819048Y-73052381D01*
X21914286Y-73100000D01*
X22009524Y-73195238D01*
X22057143Y-73385714D01*
X22057143Y-73719048D01*
X22009524Y-73909524D01*
X21914286Y-74004762D01*
X21819048Y-74052381D01*
X21628571Y-74052381D01*
X22390476Y-73052381D02*
X23009524Y-73052381D01*
X22676190Y-73433333D01*
X22819048Y-73433333D01*
X22914286Y-73480952D01*
X22961905Y-73528571D01*
X23009524Y-73623810D01*
X23009524Y-73861905D01*
X22961905Y-73957143D01*
X22914286Y-74004762D01*
X22819048Y-74052381D01*
X22533333Y-74052381D01*
X22438095Y-74004762D01*
X22390476Y-73957143D01*
X29104762Y-74147619D02*
X29009524Y-74100000D01*
X28914286Y-74004762D01*
X28771429Y-73861905D01*
X28676190Y-73814286D01*
X28580952Y-73814286D01*
X28628571Y-74052381D02*
X28533333Y-74004762D01*
X28438095Y-73909524D01*
X28390476Y-73719048D01*
X28390476Y-73385714D01*
X28438095Y-73195238D01*
X28533333Y-73100000D01*
X28628571Y-73052381D01*
X28819048Y-73052381D01*
X28914286Y-73100000D01*
X29009524Y-73195238D01*
X29057143Y-73385714D01*
X29057143Y-73719048D01*
X29009524Y-73909524D01*
X28914286Y-74004762D01*
X28819048Y-74052381D01*
X28628571Y-74052381D01*
X29914286Y-73385714D02*
X29914286Y-74052381D01*
X29676190Y-73004762D02*
X29438095Y-73719048D01*
X30057143Y-73719048D01*
X48633334Y-45652381D02*
X48300000Y-45176190D01*
X48061905Y-45652381D02*
X48061905Y-44652381D01*
X48442858Y-44652381D01*
X48538096Y-44700000D01*
X48585715Y-44747619D01*
X48633334Y-44842857D01*
X48633334Y-44985714D01*
X48585715Y-45080952D01*
X48538096Y-45128571D01*
X48442858Y-45176190D01*
X48061905Y-45176190D01*
X49585715Y-45652381D02*
X49014286Y-45652381D01*
X49300000Y-45652381D02*
X49300000Y-44652381D01*
X49204762Y-44795238D01*
X49109524Y-44890476D01*
X49014286Y-44938095D01*
X54433334Y-42852381D02*
X54100000Y-42376190D01*
X53861905Y-42852381D02*
X53861905Y-41852381D01*
X54242858Y-41852381D01*
X54338096Y-41900000D01*
X54385715Y-41947619D01*
X54433334Y-42042857D01*
X54433334Y-42185714D01*
X54385715Y-42280952D01*
X54338096Y-42328571D01*
X54242858Y-42376190D01*
X53861905Y-42376190D01*
X54814286Y-41947619D02*
X54861905Y-41900000D01*
X54957143Y-41852381D01*
X55195239Y-41852381D01*
X55290477Y-41900000D01*
X55338096Y-41947619D01*
X55385715Y-42042857D01*
X55385715Y-42138095D01*
X55338096Y-42280952D01*
X54766667Y-42852381D01*
X55385715Y-42852381D01*
X27265334Y-55824381D02*
X26932000Y-55348190D01*
X26693905Y-55824381D02*
X26693905Y-54824381D01*
X27074858Y-54824381D01*
X27170096Y-54872000D01*
X27217715Y-54919619D01*
X27265334Y-55014857D01*
X27265334Y-55157714D01*
X27217715Y-55252952D01*
X27170096Y-55300571D01*
X27074858Y-55348190D01*
X26693905Y-55348190D01*
X27598667Y-54824381D02*
X28217715Y-54824381D01*
X27884381Y-55205333D01*
X28027239Y-55205333D01*
X28122477Y-55252952D01*
X28170096Y-55300571D01*
X28217715Y-55395810D01*
X28217715Y-55633905D01*
X28170096Y-55729143D01*
X28122477Y-55776762D01*
X28027239Y-55824381D01*
X27741524Y-55824381D01*
X27646286Y-55776762D01*
X27598667Y-55729143D01*
X21833334Y-61252381D02*
X21500000Y-60776190D01*
X21261905Y-61252381D02*
X21261905Y-60252381D01*
X21642858Y-60252381D01*
X21738096Y-60300000D01*
X21785715Y-60347619D01*
X21833334Y-60442857D01*
X21833334Y-60585714D01*
X21785715Y-60680952D01*
X21738096Y-60728571D01*
X21642858Y-60776190D01*
X21261905Y-60776190D01*
X22690477Y-60585714D02*
X22690477Y-61252381D01*
X22452381Y-60204762D02*
X22214286Y-60919048D01*
X22833334Y-60919048D01*
X23201334Y-68778381D02*
X22868000Y-68302190D01*
X22629905Y-68778381D02*
X22629905Y-67778381D01*
X23010858Y-67778381D01*
X23106096Y-67826000D01*
X23153715Y-67873619D01*
X23201334Y-67968857D01*
X23201334Y-68111714D01*
X23153715Y-68206952D01*
X23106096Y-68254571D01*
X23010858Y-68302190D01*
X22629905Y-68302190D01*
X24106096Y-67778381D02*
X23629905Y-67778381D01*
X23582286Y-68254571D01*
X23629905Y-68206952D01*
X23725143Y-68159333D01*
X23963239Y-68159333D01*
X24058477Y-68206952D01*
X24106096Y-68254571D01*
X24153715Y-68349810D01*
X24153715Y-68587905D01*
X24106096Y-68683143D01*
X24058477Y-68730762D01*
X23963239Y-68778381D01*
X23725143Y-68778381D01*
X23629905Y-68730762D01*
X23582286Y-68683143D01*
X30313334Y-68778381D02*
X29980000Y-68302190D01*
X29741905Y-68778381D02*
X29741905Y-67778381D01*
X30122858Y-67778381D01*
X30218096Y-67826000D01*
X30265715Y-67873619D01*
X30313334Y-67968857D01*
X30313334Y-68111714D01*
X30265715Y-68206952D01*
X30218096Y-68254571D01*
X30122858Y-68302190D01*
X29741905Y-68302190D01*
X31170477Y-67778381D02*
X30980000Y-67778381D01*
X30884762Y-67826000D01*
X30837143Y-67873619D01*
X30741905Y-68016476D01*
X30694286Y-68206952D01*
X30694286Y-68587905D01*
X30741905Y-68683143D01*
X30789524Y-68730762D01*
X30884762Y-68778381D01*
X31075239Y-68778381D01*
X31170477Y-68730762D01*
X31218096Y-68683143D01*
X31265715Y-68587905D01*
X31265715Y-68349810D01*
X31218096Y-68254571D01*
X31170477Y-68206952D01*
X31075239Y-68159333D01*
X30884762Y-68159333D01*
X30789524Y-68206952D01*
X30741905Y-68254571D01*
X30694286Y-68349810D01*
X26757334Y-68778381D02*
X26424000Y-68302190D01*
X26185905Y-68778381D02*
X26185905Y-67778381D01*
X26566858Y-67778381D01*
X26662096Y-67826000D01*
X26709715Y-67873619D01*
X26757334Y-67968857D01*
X26757334Y-68111714D01*
X26709715Y-68206952D01*
X26662096Y-68254571D01*
X26566858Y-68302190D01*
X26185905Y-68302190D01*
X27090667Y-67778381D02*
X27757334Y-67778381D01*
X27328762Y-68778381D01*
X47038095Y-59852381D02*
X47038095Y-60661905D01*
X47085714Y-60757143D01*
X47133333Y-60804762D01*
X47228571Y-60852381D01*
X47419048Y-60852381D01*
X47514286Y-60804762D01*
X47561905Y-60757143D01*
X47609524Y-60661905D01*
X47609524Y-59852381D01*
X48609524Y-60852381D02*
X48038095Y-60852381D01*
X48323809Y-60852381D02*
X48323809Y-59852381D01*
X48228571Y-59995238D01*
X48133333Y-60090476D01*
X48038095Y-60138095D01*
X51562095Y-59650381D02*
X51562095Y-60459905D01*
X51609714Y-60555143D01*
X51657333Y-60602762D01*
X51752571Y-60650381D01*
X51943048Y-60650381D01*
X52038286Y-60602762D01*
X52085905Y-60555143D01*
X52133524Y-60459905D01*
X52133524Y-59650381D01*
X52514476Y-59650381D02*
X53133524Y-59650381D01*
X52800190Y-60031333D01*
X52943048Y-60031333D01*
X53038286Y-60078952D01*
X53085905Y-60126571D01*
X53133524Y-60221810D01*
X53133524Y-60459905D01*
X53085905Y-60555143D01*
X53038286Y-60602762D01*
X52943048Y-60650381D01*
X52657333Y-60650381D01*
X52562095Y-60602762D01*
X52514476Y-60555143D01*
X21038095Y-45052381D02*
X21038095Y-45861905D01*
X21085714Y-45957143D01*
X21133333Y-46004762D01*
X21228571Y-46052381D01*
X21419048Y-46052381D01*
X21514286Y-46004762D01*
X21561905Y-45957143D01*
X21609524Y-45861905D01*
X21609524Y-45052381D01*
X22514286Y-45385714D02*
X22514286Y-46052381D01*
X22276190Y-45004762D02*
X22038095Y-45719048D01*
X22657143Y-45719048D01*
X61838095Y-71652381D02*
X61838095Y-72461905D01*
X61885714Y-72557143D01*
X61933333Y-72604762D01*
X62028571Y-72652381D01*
X62219048Y-72652381D01*
X62314286Y-72604762D01*
X62361905Y-72557143D01*
X62409524Y-72461905D01*
X62409524Y-71652381D01*
X63361905Y-71652381D02*
X62885714Y-71652381D01*
X62838095Y-72128571D01*
X62885714Y-72080952D01*
X62980952Y-72033333D01*
X63219048Y-72033333D01*
X63314286Y-72080952D01*
X63361905Y-72128571D01*
X63409524Y-72223810D01*
X63409524Y-72461905D01*
X63361905Y-72557143D01*
X63314286Y-72604762D01*
X63219048Y-72652381D01*
X62980952Y-72652381D01*
X62885714Y-72604762D01*
X62838095Y-72557143D01*
X54610095Y-67524381D02*
X54610095Y-68333905D01*
X54657714Y-68429143D01*
X54705333Y-68476762D01*
X54800571Y-68524381D01*
X54991048Y-68524381D01*
X55086286Y-68476762D01*
X55133905Y-68429143D01*
X55181524Y-68333905D01*
X55181524Y-67524381D01*
X56086286Y-67524381D02*
X55895809Y-67524381D01*
X55800571Y-67572000D01*
X55752952Y-67619619D01*
X55657714Y-67762476D01*
X55610095Y-67952952D01*
X55610095Y-68333905D01*
X55657714Y-68429143D01*
X55705333Y-68476762D01*
X55800571Y-68524381D01*
X55991048Y-68524381D01*
X56086286Y-68476762D01*
X56133905Y-68429143D01*
X56181524Y-68333905D01*
X56181524Y-68095810D01*
X56133905Y-68000571D01*
X56086286Y-67952952D01*
X55991048Y-67905333D01*
X55800571Y-67905333D01*
X55705333Y-67952952D01*
X55657714Y-68000571D01*
X55610095Y-68095810D01*
X67397334Y-52681143D02*
X67349715Y-52728762D01*
X67206858Y-52776381D01*
X67111620Y-52776381D01*
X66968762Y-52728762D01*
X66873524Y-52633524D01*
X66825905Y-52538286D01*
X66778286Y-52347810D01*
X66778286Y-52204952D01*
X66825905Y-52014476D01*
X66873524Y-51919238D01*
X66968762Y-51824000D01*
X67111620Y-51776381D01*
X67206858Y-51776381D01*
X67349715Y-51824000D01*
X67397334Y-51871619D01*
X67730667Y-51776381D02*
X68397334Y-51776381D01*
X67968762Y-52776381D01*
X33869334Y-68778381D02*
X33536000Y-68302190D01*
X33297905Y-68778381D02*
X33297905Y-67778381D01*
X33678858Y-67778381D01*
X33774096Y-67826000D01*
X33821715Y-67873619D01*
X33869334Y-67968857D01*
X33869334Y-68111714D01*
X33821715Y-68206952D01*
X33774096Y-68254571D01*
X33678858Y-68302190D01*
X33297905Y-68302190D01*
X34440762Y-68206952D02*
X34345524Y-68159333D01*
X34297905Y-68111714D01*
X34250286Y-68016476D01*
X34250286Y-67968857D01*
X34297905Y-67873619D01*
X34345524Y-67826000D01*
X34440762Y-67778381D01*
X34631239Y-67778381D01*
X34726477Y-67826000D01*
X34774096Y-67873619D01*
X34821715Y-67968857D01*
X34821715Y-68016476D01*
X34774096Y-68111714D01*
X34726477Y-68159333D01*
X34631239Y-68206952D01*
X34440762Y-68206952D01*
X34345524Y-68254571D01*
X34297905Y-68302190D01*
X34250286Y-68397429D01*
X34250286Y-68587905D01*
X34297905Y-68683143D01*
X34345524Y-68730762D01*
X34440762Y-68778381D01*
X34631239Y-68778381D01*
X34726477Y-68730762D01*
X34774096Y-68683143D01*
X34821715Y-68587905D01*
X34821715Y-68397429D01*
X34774096Y-68302190D01*
X34726477Y-68254571D01*
X34631239Y-68206952D01*
X36728572Y-73328571D02*
X36395238Y-73328571D01*
X36395238Y-73852381D02*
X36395238Y-72852381D01*
X36871429Y-72852381D01*
X37252381Y-73852381D02*
X37252381Y-72852381D01*
X37728571Y-73852381D02*
X37728571Y-72852381D01*
X37966666Y-72852381D01*
X38109524Y-72900000D01*
X38204762Y-72995238D01*
X38252381Y-73090476D01*
X38300000Y-73280952D01*
X38300000Y-73423810D01*
X38252381Y-73614286D01*
X38204762Y-73709524D01*
X38109524Y-73804762D01*
X37966666Y-73852381D01*
X37728571Y-73852381D01*
X38633333Y-72852381D02*
X39252381Y-72852381D01*
X38919047Y-73233333D01*
X39061905Y-73233333D01*
X39157143Y-73280952D01*
X39204762Y-73328571D01*
X39252381Y-73423810D01*
X39252381Y-73661905D01*
X39204762Y-73757143D01*
X39157143Y-73804762D01*
X39061905Y-73852381D01*
X38776190Y-73852381D01*
X38680952Y-73804762D01*
X38633333Y-73757143D01*
X30528572Y-50928571D02*
X30195238Y-50928571D01*
X30195238Y-51452381D02*
X30195238Y-50452381D01*
X30671429Y-50452381D01*
X31052381Y-51452381D02*
X31052381Y-50452381D01*
X31528571Y-51452381D02*
X31528571Y-50452381D01*
X31766666Y-50452381D01*
X31909524Y-50500000D01*
X32004762Y-50595238D01*
X32052381Y-50690476D01*
X32100000Y-50880952D01*
X32100000Y-51023810D01*
X32052381Y-51214286D01*
X32004762Y-51309524D01*
X31909524Y-51404762D01*
X31766666Y-51452381D01*
X31528571Y-51452381D01*
X32480952Y-50547619D02*
X32528571Y-50500000D01*
X32623809Y-50452381D01*
X32861905Y-50452381D01*
X32957143Y-50500000D01*
X33004762Y-50547619D01*
X33052381Y-50642857D01*
X33052381Y-50738095D01*
X33004762Y-50880952D01*
X32433333Y-51452381D01*
X33052381Y-51452381D01*
X68928572Y-49328571D02*
X68595238Y-49328571D01*
X68595238Y-49852381D02*
X68595238Y-48852381D01*
X69071429Y-48852381D01*
X69452381Y-49852381D02*
X69452381Y-48852381D01*
X69928571Y-49852381D02*
X69928571Y-48852381D01*
X70166666Y-48852381D01*
X70309524Y-48900000D01*
X70404762Y-48995238D01*
X70452381Y-49090476D01*
X70500000Y-49280952D01*
X70500000Y-49423810D01*
X70452381Y-49614286D01*
X70404762Y-49709524D01*
X70309524Y-49804762D01*
X70166666Y-49852381D01*
X69928571Y-49852381D01*
X71452381Y-49852381D02*
X70880952Y-49852381D01*
X71166666Y-49852381D02*
X71166666Y-48852381D01*
X71071428Y-48995238D01*
X70976190Y-49090476D01*
X70880952Y-49138095D01*
X48275143Y-64387143D02*
X48227524Y-64434762D01*
X48084667Y-64482381D01*
X47989429Y-64482381D01*
X47846571Y-64434762D01*
X47751333Y-64339524D01*
X47703714Y-64244286D01*
X47656095Y-64053810D01*
X47656095Y-63910952D01*
X47703714Y-63720476D01*
X47751333Y-63625238D01*
X47846571Y-63530000D01*
X47989429Y-63482381D01*
X48084667Y-63482381D01*
X48227524Y-63530000D01*
X48275143Y-63577619D01*
X49227524Y-64482381D02*
X48656095Y-64482381D01*
X48941809Y-64482381D02*
X48941809Y-63482381D01*
X48846571Y-63625238D01*
X48751333Y-63720476D01*
X48656095Y-63768095D01*
X50179905Y-64482381D02*
X49608476Y-64482381D01*
X49894190Y-64482381D02*
X49894190Y-63482381D01*
X49798952Y-63625238D01*
X49703714Y-63720476D01*
X49608476Y-63768095D01*
X40306667Y-70064381D02*
X40306667Y-70778667D01*
X40259047Y-70921524D01*
X40163809Y-71016762D01*
X40020952Y-71064381D01*
X39925714Y-71064381D01*
X40687619Y-70064381D02*
X41306667Y-70064381D01*
X40973333Y-70445333D01*
X41116191Y-70445333D01*
X41211429Y-70492952D01*
X41259048Y-70540571D01*
X41306667Y-70635810D01*
X41306667Y-70873905D01*
X41259048Y-70969143D01*
X41211429Y-71016762D01*
X41116191Y-71064381D01*
X40830476Y-71064381D01*
X40735238Y-71016762D01*
X40687619Y-70969143D01*
X24123809Y-34176190D02*
X24123809Y-34652381D01*
X23790476Y-33652381D02*
X24123809Y-34176190D01*
X24457143Y-33652381D01*
X25314286Y-34652381D02*
X24742857Y-34652381D01*
X25028571Y-34652381D02*
X25028571Y-33652381D01*
X24933333Y-33795238D01*
X24838095Y-33890476D01*
X24742857Y-33938095D01*
M02*
