G04 #@! TF.FileFunction,Copper,L3,Inr,Plane*
%FSLAX46Y46*%
G04 Gerber Fmt 4.6, Leading zero omitted, Abs format (unit mm)*
G04 Created by KiCad (PCBNEW 4.0.2-stable) date 1/20/2017 4:09:41 PM*
%MOMM*%
G01*
G04 APERTURE LIST*
%ADD10C,0.100000*%
%ADD11C,1.600000*%
%ADD12C,2.000000*%
%ADD13C,0.600000*%
%ADD14C,0.254000*%
G04 APERTURE END LIST*
D10*
D11*
X36068000Y-81788000D03*
X33528000Y-81788000D03*
X30988000Y-81788000D03*
X28448000Y-81788000D03*
X25908000Y-81788000D03*
X23368000Y-81788000D03*
D12*
X72136000Y-46132000D03*
X67436000Y-43132000D03*
X72136000Y-40132000D03*
D11*
X17272000Y-47752000D03*
X17272000Y-45212000D03*
X17272000Y-42672000D03*
X17272000Y-40132000D03*
X17272000Y-37592000D03*
X17272000Y-35052000D03*
X17272000Y-65024000D03*
X17272000Y-62484000D03*
X17272000Y-59944000D03*
X17272000Y-57404000D03*
X17272000Y-54864000D03*
X17272000Y-52324000D03*
X17145000Y-82550000D03*
X17145000Y-80010000D03*
X17145000Y-77470000D03*
X17145000Y-74930000D03*
X17145000Y-72390000D03*
X17145000Y-69850000D03*
X73660000Y-77724000D03*
X73660000Y-80264000D03*
X73660000Y-82804000D03*
X73660000Y-59944000D03*
X73660000Y-62484000D03*
X73660000Y-65024000D03*
X73660000Y-67564000D03*
X73660000Y-70104000D03*
X73660000Y-72644000D03*
X73660000Y-75184000D03*
D13*
X37084000Y-46228000D03*
X46736000Y-62484000D03*
X55880000Y-62992000D03*
X40640000Y-58420000D03*
X54356000Y-41148000D03*
X58420000Y-49784000D03*
X64008000Y-53340000D03*
X42164000Y-53340000D03*
X41656000Y-58420000D03*
X47244000Y-45212000D03*
X36068000Y-66040000D03*
X32512000Y-45720000D03*
X64516000Y-62992000D03*
X25400000Y-64262000D03*
X28448000Y-71374000D03*
X51308000Y-55118000D03*
X59436000Y-70104000D03*
X27940000Y-75184000D03*
X35052000Y-75184000D03*
X45720000Y-70612000D03*
X28956000Y-69596000D03*
X24638000Y-69596000D03*
X31496000Y-59436000D03*
X58928000Y-55372000D03*
X50292000Y-43688000D03*
X41148000Y-49784000D03*
X49276000Y-49784000D03*
X47752000Y-50800000D03*
X39116000Y-50800000D03*
X42164000Y-61976000D03*
X48768000Y-67056000D03*
X44704000Y-58420000D03*
X41656000Y-67056000D03*
X37084000Y-57404000D03*
X36576000Y-56388000D03*
X71120000Y-76708000D03*
X68580000Y-75692000D03*
X62484000Y-74168000D03*
X68580000Y-74168000D03*
X62992000Y-78740000D03*
X62484000Y-75184000D03*
X62484000Y-77724000D03*
X61976000Y-56388000D03*
X45212000Y-53340000D03*
X29972000Y-58420000D03*
X40640000Y-57404000D03*
X30480000Y-52832000D03*
X23876000Y-52832000D03*
X60452000Y-61976000D03*
X56388000Y-61976000D03*
X45720000Y-56388000D03*
X58420000Y-60960000D03*
X64516000Y-67056000D03*
X48768000Y-55880000D03*
X45720000Y-55372000D03*
X62992000Y-66548000D03*
X58928000Y-51816000D03*
X50800000Y-51816000D03*
X57912000Y-75184000D03*
X58420000Y-70104000D03*
X58928000Y-80772000D03*
X65532000Y-78232000D03*
D14*
G36*
X65913000Y-42536309D02*
X65801284Y-42805352D01*
X65800716Y-43455795D01*
X65913000Y-43727542D01*
X65913000Y-63205041D01*
X65839996Y-63277918D01*
X65575301Y-63915373D01*
X65574699Y-64605599D01*
X65838281Y-65243515D01*
X65913000Y-65318365D01*
X65913000Y-77377802D01*
X65718799Y-77297162D01*
X65346833Y-77296838D01*
X65003057Y-77438883D01*
X64739808Y-77701673D01*
X64597162Y-78045201D01*
X64596838Y-78417167D01*
X64738883Y-78760943D01*
X65001673Y-79024192D01*
X65345201Y-79166838D01*
X65717167Y-79167162D01*
X65913000Y-79086246D01*
X65913000Y-84199710D01*
X17925775Y-83714991D01*
X17973139Y-83557745D01*
X17145000Y-82729605D01*
X16316861Y-83557745D01*
X16359460Y-83699170D01*
X15875000Y-83694276D01*
X15875000Y-83265049D01*
X15891136Y-83304005D01*
X16137255Y-83378139D01*
X16965395Y-82550000D01*
X17324605Y-82550000D01*
X18152745Y-83378139D01*
X18398864Y-83304005D01*
X18591965Y-82766777D01*
X18564778Y-82196546D01*
X18513267Y-82072187D01*
X21932752Y-82072187D01*
X22150757Y-82599800D01*
X22554077Y-83003824D01*
X23081309Y-83222750D01*
X23652187Y-83223248D01*
X24179800Y-83005243D01*
X24583824Y-82601923D01*
X24637862Y-82471785D01*
X24690757Y-82599800D01*
X25094077Y-83003824D01*
X25621309Y-83222750D01*
X26192187Y-83223248D01*
X26719800Y-83005243D01*
X26929663Y-82795745D01*
X27619861Y-82795745D01*
X27693995Y-83041864D01*
X28231223Y-83234965D01*
X28801454Y-83207778D01*
X29202005Y-83041864D01*
X29276139Y-82795745D01*
X28448000Y-81967605D01*
X27619861Y-82795745D01*
X26929663Y-82795745D01*
X27123824Y-82601923D01*
X27171448Y-82487232D01*
X27194136Y-82542005D01*
X27440255Y-82616139D01*
X28268395Y-81788000D01*
X28627605Y-81788000D01*
X29455745Y-82616139D01*
X29701864Y-82542005D01*
X29722805Y-82483746D01*
X29770757Y-82599800D01*
X30174077Y-83003824D01*
X30701309Y-83222750D01*
X31272187Y-83223248D01*
X31799800Y-83005243D01*
X32203824Y-82601923D01*
X32257862Y-82471785D01*
X32310757Y-82599800D01*
X32714077Y-83003824D01*
X33241309Y-83222750D01*
X33812187Y-83223248D01*
X34339800Y-83005243D01*
X34549663Y-82795745D01*
X35239861Y-82795745D01*
X35313995Y-83041864D01*
X35851223Y-83234965D01*
X36421454Y-83207778D01*
X36822005Y-83041864D01*
X36896139Y-82795745D01*
X36068000Y-81967605D01*
X35239861Y-82795745D01*
X34549663Y-82795745D01*
X34743824Y-82601923D01*
X34791448Y-82487232D01*
X34814136Y-82542005D01*
X35060255Y-82616139D01*
X35888395Y-81788000D01*
X36247605Y-81788000D01*
X37075745Y-82616139D01*
X37321864Y-82542005D01*
X37514965Y-82004777D01*
X37487778Y-81434546D01*
X37321864Y-81033995D01*
X37075745Y-80959861D01*
X36247605Y-81788000D01*
X35888395Y-81788000D01*
X35060255Y-80959861D01*
X34814136Y-81033995D01*
X34793195Y-81092254D01*
X34745243Y-80976200D01*
X34549640Y-80780255D01*
X35239861Y-80780255D01*
X36068000Y-81608395D01*
X36719227Y-80957167D01*
X57992838Y-80957167D01*
X58134883Y-81300943D01*
X58397673Y-81564192D01*
X58741201Y-81706838D01*
X59113167Y-81707162D01*
X59456943Y-81565117D01*
X59720192Y-81302327D01*
X59862838Y-80958799D01*
X59863162Y-80586833D01*
X59721117Y-80243057D01*
X59458327Y-79979808D01*
X59114799Y-79837162D01*
X58742833Y-79836838D01*
X58399057Y-79978883D01*
X58135808Y-80241673D01*
X57993162Y-80585201D01*
X57992838Y-80957167D01*
X36719227Y-80957167D01*
X36896139Y-80780255D01*
X36822005Y-80534136D01*
X36284777Y-80341035D01*
X35714546Y-80368222D01*
X35313995Y-80534136D01*
X35239861Y-80780255D01*
X34549640Y-80780255D01*
X34341923Y-80572176D01*
X33814691Y-80353250D01*
X33243813Y-80352752D01*
X32716200Y-80570757D01*
X32312176Y-80974077D01*
X32258138Y-81104215D01*
X32205243Y-80976200D01*
X31801923Y-80572176D01*
X31274691Y-80353250D01*
X30703813Y-80352752D01*
X30176200Y-80570757D01*
X29772176Y-80974077D01*
X29724552Y-81088768D01*
X29701864Y-81033995D01*
X29455745Y-80959861D01*
X28627605Y-81788000D01*
X28268395Y-81788000D01*
X27440255Y-80959861D01*
X27194136Y-81033995D01*
X27173195Y-81092254D01*
X27125243Y-80976200D01*
X26929640Y-80780255D01*
X27619861Y-80780255D01*
X28448000Y-81608395D01*
X29276139Y-80780255D01*
X29202005Y-80534136D01*
X28664777Y-80341035D01*
X28094546Y-80368222D01*
X27693995Y-80534136D01*
X27619861Y-80780255D01*
X26929640Y-80780255D01*
X26721923Y-80572176D01*
X26194691Y-80353250D01*
X25623813Y-80352752D01*
X25096200Y-80570757D01*
X24692176Y-80974077D01*
X24638138Y-81104215D01*
X24585243Y-80976200D01*
X24181923Y-80572176D01*
X23654691Y-80353250D01*
X23083813Y-80352752D01*
X22556200Y-80570757D01*
X22152176Y-80974077D01*
X21933250Y-81501309D01*
X21932752Y-82072187D01*
X18513267Y-82072187D01*
X18398864Y-81795995D01*
X18152745Y-81721861D01*
X17324605Y-82550000D01*
X16965395Y-82550000D01*
X16137255Y-81721861D01*
X15891136Y-81795995D01*
X15875000Y-81840887D01*
X15875000Y-80694118D01*
X15927757Y-80821800D01*
X16331077Y-81225824D01*
X16445768Y-81273448D01*
X16390995Y-81296136D01*
X16316861Y-81542255D01*
X17145000Y-82370395D01*
X17973139Y-81542255D01*
X17899005Y-81296136D01*
X17840746Y-81275195D01*
X17956800Y-81227243D01*
X18360824Y-80823923D01*
X18579750Y-80296691D01*
X18580248Y-79725813D01*
X18362243Y-79198200D01*
X17958923Y-78794176D01*
X17828785Y-78740138D01*
X17956800Y-78687243D01*
X18360824Y-78283923D01*
X18516436Y-77909167D01*
X61548838Y-77909167D01*
X61690883Y-78252943D01*
X61953673Y-78516192D01*
X62057157Y-78559162D01*
X62056838Y-78925167D01*
X62198883Y-79268943D01*
X62461673Y-79532192D01*
X62805201Y-79674838D01*
X63177167Y-79675162D01*
X63520943Y-79533117D01*
X63784192Y-79270327D01*
X63926838Y-78926799D01*
X63927162Y-78554833D01*
X63785117Y-78211057D01*
X63522327Y-77947808D01*
X63418843Y-77904838D01*
X63419162Y-77538833D01*
X63277117Y-77195057D01*
X63014327Y-76931808D01*
X62670799Y-76789162D01*
X62298833Y-76788838D01*
X61955057Y-76930883D01*
X61691808Y-77193673D01*
X61549162Y-77537201D01*
X61548838Y-77909167D01*
X18516436Y-77909167D01*
X18579750Y-77756691D01*
X18580248Y-77185813D01*
X18362243Y-76658200D01*
X17958923Y-76254176D01*
X17844232Y-76206552D01*
X17899005Y-76183864D01*
X17973139Y-75937745D01*
X17145000Y-75109605D01*
X16316861Y-75937745D01*
X16390995Y-76183864D01*
X16449254Y-76204805D01*
X16333200Y-76252757D01*
X15929176Y-76656077D01*
X15875000Y-76786547D01*
X15875000Y-75645049D01*
X15891136Y-75684005D01*
X16137255Y-75758139D01*
X16965395Y-74930000D01*
X17324605Y-74930000D01*
X18152745Y-75758139D01*
X18398864Y-75684005D01*
X18512029Y-75369167D01*
X27004838Y-75369167D01*
X27146883Y-75712943D01*
X27409673Y-75976192D01*
X27753201Y-76118838D01*
X28125167Y-76119162D01*
X28468943Y-75977117D01*
X28732192Y-75714327D01*
X28874838Y-75370799D01*
X28874839Y-75369167D01*
X34116838Y-75369167D01*
X34258883Y-75712943D01*
X34521673Y-75976192D01*
X34865201Y-76118838D01*
X35237167Y-76119162D01*
X35580943Y-75977117D01*
X35844192Y-75714327D01*
X35986838Y-75370799D01*
X35986839Y-75369167D01*
X56976838Y-75369167D01*
X57118883Y-75712943D01*
X57381673Y-75976192D01*
X57725201Y-76118838D01*
X58097167Y-76119162D01*
X58440943Y-75977117D01*
X58704192Y-75714327D01*
X58846838Y-75370799D01*
X58847162Y-74998833D01*
X58705117Y-74655057D01*
X58442327Y-74391808D01*
X58349270Y-74353167D01*
X61548838Y-74353167D01*
X61682383Y-74676371D01*
X61549162Y-74997201D01*
X61548838Y-75369167D01*
X61690883Y-75712943D01*
X61953673Y-75976192D01*
X62297201Y-76118838D01*
X62669167Y-76119162D01*
X63012943Y-75977117D01*
X63276192Y-75714327D01*
X63418838Y-75370799D01*
X63419162Y-74998833D01*
X63285617Y-74675629D01*
X63418838Y-74354799D01*
X63419162Y-73982833D01*
X63277117Y-73639057D01*
X63014327Y-73375808D01*
X62670799Y-73233162D01*
X62298833Y-73232838D01*
X61955057Y-73374883D01*
X61691808Y-73637673D01*
X61549162Y-73981201D01*
X61548838Y-74353167D01*
X58349270Y-74353167D01*
X58098799Y-74249162D01*
X57726833Y-74248838D01*
X57383057Y-74390883D01*
X57119808Y-74653673D01*
X56977162Y-74997201D01*
X56976838Y-75369167D01*
X35986839Y-75369167D01*
X35987162Y-74998833D01*
X35845117Y-74655057D01*
X35582327Y-74391808D01*
X35238799Y-74249162D01*
X34866833Y-74248838D01*
X34523057Y-74390883D01*
X34259808Y-74653673D01*
X34117162Y-74997201D01*
X34116838Y-75369167D01*
X28874839Y-75369167D01*
X28875162Y-74998833D01*
X28733117Y-74655057D01*
X28470327Y-74391808D01*
X28126799Y-74249162D01*
X27754833Y-74248838D01*
X27411057Y-74390883D01*
X27147808Y-74653673D01*
X27005162Y-74997201D01*
X27004838Y-75369167D01*
X18512029Y-75369167D01*
X18591965Y-75146777D01*
X18564778Y-74576546D01*
X18398864Y-74175995D01*
X18152745Y-74101861D01*
X17324605Y-74930000D01*
X16965395Y-74930000D01*
X16137255Y-74101861D01*
X15891136Y-74175995D01*
X15875000Y-74220887D01*
X15875000Y-73074118D01*
X15927757Y-73201800D01*
X16331077Y-73605824D01*
X16445768Y-73653448D01*
X16390995Y-73676136D01*
X16316861Y-73922255D01*
X17145000Y-74750395D01*
X17973139Y-73922255D01*
X17899005Y-73676136D01*
X17840746Y-73655195D01*
X17956800Y-73607243D01*
X18360824Y-73203923D01*
X18579750Y-72676691D01*
X18580248Y-72105813D01*
X18362243Y-71578200D01*
X18343244Y-71559167D01*
X27512838Y-71559167D01*
X27654883Y-71902943D01*
X27917673Y-72166192D01*
X28261201Y-72308838D01*
X28633167Y-72309162D01*
X28976943Y-72167117D01*
X29240192Y-71904327D01*
X29382838Y-71560799D01*
X29383162Y-71188833D01*
X29241117Y-70845057D01*
X29193311Y-70797167D01*
X44784838Y-70797167D01*
X44926883Y-71140943D01*
X45189673Y-71404192D01*
X45533201Y-71546838D01*
X45905167Y-71547162D01*
X46248943Y-71405117D01*
X46512192Y-71142327D01*
X46654838Y-70798799D01*
X46655162Y-70426833D01*
X46598280Y-70289167D01*
X57484838Y-70289167D01*
X57626883Y-70632943D01*
X57889673Y-70896192D01*
X58233201Y-71038838D01*
X58605167Y-71039162D01*
X58928371Y-70905617D01*
X59249201Y-71038838D01*
X59621167Y-71039162D01*
X59964943Y-70897117D01*
X60228192Y-70634327D01*
X60370838Y-70290799D01*
X60371162Y-69918833D01*
X60229117Y-69575057D01*
X59966327Y-69311808D01*
X59622799Y-69169162D01*
X59250833Y-69168838D01*
X58927629Y-69302383D01*
X58606799Y-69169162D01*
X58234833Y-69168838D01*
X57891057Y-69310883D01*
X57627808Y-69573673D01*
X57485162Y-69917201D01*
X57484838Y-70289167D01*
X46598280Y-70289167D01*
X46513117Y-70083057D01*
X46250327Y-69819808D01*
X45906799Y-69677162D01*
X45534833Y-69676838D01*
X45191057Y-69818883D01*
X44927808Y-70081673D01*
X44785162Y-70425201D01*
X44784838Y-70797167D01*
X29193311Y-70797167D01*
X28978327Y-70581808D01*
X28855760Y-70530913D01*
X29141167Y-70531162D01*
X29484943Y-70389117D01*
X29748192Y-70126327D01*
X29890838Y-69782799D01*
X29891162Y-69410833D01*
X29749117Y-69067057D01*
X29486327Y-68803808D01*
X29142799Y-68661162D01*
X28770833Y-68660838D01*
X28427057Y-68802883D01*
X28163808Y-69065673D01*
X28021162Y-69409201D01*
X28020838Y-69781167D01*
X28162883Y-70124943D01*
X28425673Y-70388192D01*
X28548240Y-70439087D01*
X28262833Y-70438838D01*
X27919057Y-70580883D01*
X27655808Y-70843673D01*
X27513162Y-71187201D01*
X27512838Y-71559167D01*
X18343244Y-71559167D01*
X17958923Y-71174176D01*
X17828785Y-71120138D01*
X17956800Y-71067243D01*
X18360824Y-70663923D01*
X18579750Y-70136691D01*
X18580060Y-69781167D01*
X23702838Y-69781167D01*
X23844883Y-70124943D01*
X24107673Y-70388192D01*
X24451201Y-70530838D01*
X24823167Y-70531162D01*
X25166943Y-70389117D01*
X25430192Y-70126327D01*
X25572838Y-69782799D01*
X25573162Y-69410833D01*
X25431117Y-69067057D01*
X25168327Y-68803808D01*
X24824799Y-68661162D01*
X24452833Y-68660838D01*
X24109057Y-68802883D01*
X23845808Y-69065673D01*
X23703162Y-69409201D01*
X23702838Y-69781167D01*
X18580060Y-69781167D01*
X18580248Y-69565813D01*
X18362243Y-69038200D01*
X17958923Y-68634176D01*
X17431691Y-68415250D01*
X16860813Y-68414752D01*
X16333200Y-68632757D01*
X15929176Y-69036077D01*
X15875000Y-69166547D01*
X15875000Y-67241167D01*
X40720838Y-67241167D01*
X40862883Y-67584943D01*
X41125673Y-67848192D01*
X41469201Y-67990838D01*
X41841167Y-67991162D01*
X42184943Y-67849117D01*
X42448192Y-67586327D01*
X42590838Y-67242799D01*
X42590839Y-67241167D01*
X47832838Y-67241167D01*
X47974883Y-67584943D01*
X48237673Y-67848192D01*
X48581201Y-67990838D01*
X48953167Y-67991162D01*
X49296943Y-67849117D01*
X49560192Y-67586327D01*
X49702838Y-67242799D01*
X49703162Y-66870833D01*
X49646280Y-66733167D01*
X62056838Y-66733167D01*
X62198883Y-67076943D01*
X62461673Y-67340192D01*
X62805201Y-67482838D01*
X63177167Y-67483162D01*
X63520943Y-67341117D01*
X63592586Y-67269599D01*
X63722883Y-67584943D01*
X63985673Y-67848192D01*
X64329201Y-67990838D01*
X64701167Y-67991162D01*
X65044943Y-67849117D01*
X65308192Y-67586327D01*
X65450838Y-67242799D01*
X65451162Y-66870833D01*
X65309117Y-66527057D01*
X65046327Y-66263808D01*
X64702799Y-66121162D01*
X64330833Y-66120838D01*
X63987057Y-66262883D01*
X63915414Y-66334401D01*
X63785117Y-66019057D01*
X63522327Y-65755808D01*
X63178799Y-65613162D01*
X62806833Y-65612838D01*
X62463057Y-65754883D01*
X62199808Y-66017673D01*
X62057162Y-66361201D01*
X62056838Y-66733167D01*
X49646280Y-66733167D01*
X49561117Y-66527057D01*
X49298327Y-66263808D01*
X48954799Y-66121162D01*
X48582833Y-66120838D01*
X48239057Y-66262883D01*
X47975808Y-66525673D01*
X47833162Y-66869201D01*
X47832838Y-67241167D01*
X42590839Y-67241167D01*
X42591162Y-66870833D01*
X42449117Y-66527057D01*
X42186327Y-66263808D01*
X41842799Y-66121162D01*
X41470833Y-66120838D01*
X41127057Y-66262883D01*
X40863808Y-66525673D01*
X40721162Y-66869201D01*
X40720838Y-67241167D01*
X15875000Y-67241167D01*
X15875000Y-66031745D01*
X16443861Y-66031745D01*
X16517995Y-66277864D01*
X17055223Y-66470965D01*
X17625454Y-66443778D01*
X18026005Y-66277864D01*
X18041877Y-66225167D01*
X35132838Y-66225167D01*
X35274883Y-66568943D01*
X35537673Y-66832192D01*
X35881201Y-66974838D01*
X36253167Y-66975162D01*
X36596943Y-66833117D01*
X36860192Y-66570327D01*
X37002838Y-66226799D01*
X37003162Y-65854833D01*
X36861117Y-65511057D01*
X36598327Y-65247808D01*
X36254799Y-65105162D01*
X35882833Y-65104838D01*
X35539057Y-65246883D01*
X35275808Y-65509673D01*
X35133162Y-65853201D01*
X35132838Y-66225167D01*
X18041877Y-66225167D01*
X18100139Y-66031745D01*
X17272000Y-65203605D01*
X16443861Y-66031745D01*
X15875000Y-66031745D01*
X15875000Y-65432445D01*
X16018136Y-65778005D01*
X16264255Y-65852139D01*
X17092395Y-65024000D01*
X17451605Y-65024000D01*
X18279745Y-65852139D01*
X18525864Y-65778005D01*
X18718965Y-65240777D01*
X18691778Y-64670546D01*
X18599252Y-64447167D01*
X24464838Y-64447167D01*
X24606883Y-64790943D01*
X24869673Y-65054192D01*
X25213201Y-65196838D01*
X25585167Y-65197162D01*
X25928943Y-65055117D01*
X26192192Y-64792327D01*
X26334838Y-64448799D01*
X26335143Y-64097599D01*
X27728699Y-64097599D01*
X27992281Y-64735515D01*
X28479918Y-65224004D01*
X29117373Y-65488699D01*
X29807599Y-65489301D01*
X30445515Y-65225719D01*
X30934004Y-64738082D01*
X31198699Y-64100627D01*
X31199301Y-63410401D01*
X31102931Y-63177167D01*
X63580838Y-63177167D01*
X63722883Y-63520943D01*
X63985673Y-63784192D01*
X64329201Y-63926838D01*
X64701167Y-63927162D01*
X65044943Y-63785117D01*
X65308192Y-63522327D01*
X65450838Y-63178799D01*
X65451162Y-62806833D01*
X65309117Y-62463057D01*
X65046327Y-62199808D01*
X64702799Y-62057162D01*
X64330833Y-62056838D01*
X63987057Y-62198883D01*
X63723808Y-62461673D01*
X63581162Y-62805201D01*
X63580838Y-63177167D01*
X31102931Y-63177167D01*
X30935719Y-62772485D01*
X30448082Y-62283996D01*
X30152278Y-62161167D01*
X41228838Y-62161167D01*
X41370883Y-62504943D01*
X41633673Y-62768192D01*
X41977201Y-62910838D01*
X42349167Y-62911162D01*
X42692943Y-62769117D01*
X42956192Y-62506327D01*
X43098838Y-62162799D01*
X43098839Y-62161167D01*
X55452838Y-62161167D01*
X55594883Y-62504943D01*
X55857673Y-62768192D01*
X56201201Y-62910838D01*
X56573167Y-62911162D01*
X56916943Y-62769117D01*
X57180192Y-62506327D01*
X57322838Y-62162799D01*
X57322839Y-62161167D01*
X59516838Y-62161167D01*
X59658883Y-62504943D01*
X59921673Y-62768192D01*
X60265201Y-62910838D01*
X60637167Y-62911162D01*
X60980943Y-62769117D01*
X61244192Y-62506327D01*
X61386838Y-62162799D01*
X61387162Y-61790833D01*
X61245117Y-61447057D01*
X60982327Y-61183808D01*
X60638799Y-61041162D01*
X60266833Y-61040838D01*
X59923057Y-61182883D01*
X59659808Y-61445673D01*
X59517162Y-61789201D01*
X59516838Y-62161167D01*
X57322839Y-62161167D01*
X57323162Y-61790833D01*
X57181117Y-61447057D01*
X56918327Y-61183808D01*
X56825270Y-61145167D01*
X57484838Y-61145167D01*
X57626883Y-61488943D01*
X57889673Y-61752192D01*
X58233201Y-61894838D01*
X58605167Y-61895162D01*
X58948943Y-61753117D01*
X59212192Y-61490327D01*
X59354838Y-61146799D01*
X59355162Y-60774833D01*
X59213117Y-60431057D01*
X58950327Y-60167808D01*
X58606799Y-60025162D01*
X58234833Y-60024838D01*
X57891057Y-60166883D01*
X57627808Y-60429673D01*
X57485162Y-60773201D01*
X57484838Y-61145167D01*
X56825270Y-61145167D01*
X56574799Y-61041162D01*
X56202833Y-61040838D01*
X55859057Y-61182883D01*
X55595808Y-61445673D01*
X55453162Y-61789201D01*
X55452838Y-62161167D01*
X43098839Y-62161167D01*
X43099162Y-61790833D01*
X42957117Y-61447057D01*
X42694327Y-61183808D01*
X42350799Y-61041162D01*
X41978833Y-61040838D01*
X41635057Y-61182883D01*
X41371808Y-61445673D01*
X41229162Y-61789201D01*
X41228838Y-62161167D01*
X30152278Y-62161167D01*
X29810627Y-62019301D01*
X29120401Y-62018699D01*
X28482485Y-62282281D01*
X27993996Y-62769918D01*
X27729301Y-63407373D01*
X27728699Y-64097599D01*
X26335143Y-64097599D01*
X26335162Y-64076833D01*
X26193117Y-63733057D01*
X25930327Y-63469808D01*
X25586799Y-63327162D01*
X25214833Y-63326838D01*
X24871057Y-63468883D01*
X24607808Y-63731673D01*
X24465162Y-64075201D01*
X24464838Y-64447167D01*
X18599252Y-64447167D01*
X18525864Y-64269995D01*
X18279745Y-64195861D01*
X17451605Y-65024000D01*
X17092395Y-65024000D01*
X16264255Y-64195861D01*
X16018136Y-64269995D01*
X15875000Y-64668215D01*
X15875000Y-62860754D01*
X16054757Y-63295800D01*
X16458077Y-63699824D01*
X16572768Y-63747448D01*
X16517995Y-63770136D01*
X16443861Y-64016255D01*
X17272000Y-64844395D01*
X18100139Y-64016255D01*
X18026005Y-63770136D01*
X17967746Y-63749195D01*
X18083800Y-63701243D01*
X18487824Y-63297923D01*
X18706750Y-62770691D01*
X18707248Y-62199813D01*
X18489243Y-61672200D01*
X18085923Y-61268176D01*
X17955785Y-61214138D01*
X18083800Y-61161243D01*
X18487824Y-60757923D01*
X18706750Y-60230691D01*
X18707248Y-59659813D01*
X18489243Y-59132200D01*
X18085923Y-58728176D01*
X17971232Y-58680552D01*
X18026005Y-58657864D01*
X18041877Y-58605167D01*
X29036838Y-58605167D01*
X29178883Y-58948943D01*
X29441673Y-59212192D01*
X29785201Y-59354838D01*
X30157167Y-59355162D01*
X30500943Y-59213117D01*
X30629388Y-59084896D01*
X30561162Y-59249201D01*
X30560838Y-59621167D01*
X30702883Y-59964943D01*
X30965673Y-60228192D01*
X31309201Y-60370838D01*
X31681167Y-60371162D01*
X32024943Y-60229117D01*
X32288192Y-59966327D01*
X32430838Y-59622799D01*
X32431162Y-59250833D01*
X32289117Y-58907057D01*
X32026327Y-58643808D01*
X31682799Y-58501162D01*
X31310833Y-58500838D01*
X30967057Y-58642883D01*
X30838612Y-58771104D01*
X30906838Y-58606799D01*
X30907162Y-58234833D01*
X30765117Y-57891057D01*
X30502327Y-57627808D01*
X30158799Y-57485162D01*
X29786833Y-57484838D01*
X29443057Y-57626883D01*
X29179808Y-57889673D01*
X29037162Y-58233201D01*
X29036838Y-58605167D01*
X18041877Y-58605167D01*
X18100139Y-58411745D01*
X17272000Y-57583605D01*
X16443861Y-58411745D01*
X16517995Y-58657864D01*
X16576254Y-58678805D01*
X16460200Y-58726757D01*
X16056176Y-59130077D01*
X15875000Y-59566397D01*
X15875000Y-57812445D01*
X16018136Y-58158005D01*
X16264255Y-58232139D01*
X17092395Y-57404000D01*
X17451605Y-57404000D01*
X18279745Y-58232139D01*
X18525864Y-58158005D01*
X18718965Y-57620777D01*
X18691778Y-57050546D01*
X18525864Y-56649995D01*
X18279745Y-56575861D01*
X17451605Y-57404000D01*
X17092395Y-57404000D01*
X16264255Y-56575861D01*
X16018136Y-56649995D01*
X15875000Y-57048215D01*
X15875000Y-55240754D01*
X16054757Y-55675800D01*
X16458077Y-56079824D01*
X16572768Y-56127448D01*
X16517995Y-56150136D01*
X16443861Y-56396255D01*
X17272000Y-57224395D01*
X17923227Y-56573167D01*
X35640838Y-56573167D01*
X35782883Y-56916943D01*
X36045673Y-57180192D01*
X36149157Y-57223162D01*
X36148838Y-57589167D01*
X36290883Y-57932943D01*
X36553673Y-58196192D01*
X36897201Y-58338838D01*
X37269167Y-58339162D01*
X37612943Y-58197117D01*
X37876192Y-57934327D01*
X38018838Y-57590799D01*
X38018839Y-57589167D01*
X39704838Y-57589167D01*
X39846883Y-57932943D01*
X40109673Y-58196192D01*
X40453201Y-58338838D01*
X40721070Y-58339071D01*
X40720838Y-58605167D01*
X40862883Y-58948943D01*
X41125673Y-59212192D01*
X41469201Y-59354838D01*
X41841167Y-59355162D01*
X42184943Y-59213117D01*
X42448192Y-58950327D01*
X42590838Y-58606799D01*
X42590839Y-58605167D01*
X43768838Y-58605167D01*
X43910883Y-58948943D01*
X44173673Y-59212192D01*
X44517201Y-59354838D01*
X44889167Y-59355162D01*
X45232943Y-59213117D01*
X45496192Y-58950327D01*
X45638838Y-58606799D01*
X45639162Y-58234833D01*
X45497117Y-57891057D01*
X45234327Y-57627808D01*
X44890799Y-57485162D01*
X44518833Y-57484838D01*
X44175057Y-57626883D01*
X43911808Y-57889673D01*
X43769162Y-58233201D01*
X43768838Y-58605167D01*
X42590839Y-58605167D01*
X42591162Y-58234833D01*
X42449117Y-57891057D01*
X42186327Y-57627808D01*
X41842799Y-57485162D01*
X41574930Y-57484929D01*
X41575162Y-57218833D01*
X41433117Y-56875057D01*
X41170327Y-56611808D01*
X40826799Y-56469162D01*
X40454833Y-56468838D01*
X40111057Y-56610883D01*
X39847808Y-56873673D01*
X39705162Y-57217201D01*
X39704838Y-57589167D01*
X38018839Y-57589167D01*
X38019162Y-57218833D01*
X37877117Y-56875057D01*
X37614327Y-56611808D01*
X37510843Y-56568838D01*
X37511162Y-56202833D01*
X37369117Y-55859057D01*
X37106327Y-55595808D01*
X37013270Y-55557167D01*
X44784838Y-55557167D01*
X44918383Y-55880371D01*
X44785162Y-56201201D01*
X44784838Y-56573167D01*
X44926883Y-56916943D01*
X45189673Y-57180192D01*
X45533201Y-57322838D01*
X45905167Y-57323162D01*
X46248943Y-57181117D01*
X46512192Y-56918327D01*
X46654838Y-56574799D01*
X46655162Y-56202833D01*
X46598280Y-56065167D01*
X47832838Y-56065167D01*
X47974883Y-56408943D01*
X48237673Y-56672192D01*
X48581201Y-56814838D01*
X48953167Y-56815162D01*
X49296943Y-56673117D01*
X49397067Y-56573167D01*
X61040838Y-56573167D01*
X61182883Y-56916943D01*
X61445673Y-57180192D01*
X61789201Y-57322838D01*
X62161167Y-57323162D01*
X62504943Y-57181117D01*
X62768192Y-56918327D01*
X62910838Y-56574799D01*
X62911162Y-56202833D01*
X62769117Y-55859057D01*
X62506327Y-55595808D01*
X62162799Y-55453162D01*
X61790833Y-55452838D01*
X61447057Y-55594883D01*
X61183808Y-55857673D01*
X61041162Y-56201201D01*
X61040838Y-56573167D01*
X49397067Y-56573167D01*
X49560192Y-56410327D01*
X49702838Y-56066799D01*
X49703162Y-55694833D01*
X49561117Y-55351057D01*
X49513311Y-55303167D01*
X50372838Y-55303167D01*
X50514883Y-55646943D01*
X50777673Y-55910192D01*
X51121201Y-56052838D01*
X51493167Y-56053162D01*
X51836943Y-55911117D01*
X52100192Y-55648327D01*
X52138045Y-55557167D01*
X57992838Y-55557167D01*
X58134883Y-55900943D01*
X58397673Y-56164192D01*
X58741201Y-56306838D01*
X59113167Y-56307162D01*
X59456943Y-56165117D01*
X59720192Y-55902327D01*
X59862838Y-55558799D01*
X59863162Y-55186833D01*
X59721117Y-54843057D01*
X59458327Y-54579808D01*
X59114799Y-54437162D01*
X58742833Y-54436838D01*
X58399057Y-54578883D01*
X58135808Y-54841673D01*
X57993162Y-55185201D01*
X57992838Y-55557167D01*
X52138045Y-55557167D01*
X52242838Y-55304799D01*
X52243162Y-54932833D01*
X52101117Y-54589057D01*
X51838327Y-54325808D01*
X51494799Y-54183162D01*
X51122833Y-54182838D01*
X50779057Y-54324883D01*
X50515808Y-54587673D01*
X50373162Y-54931201D01*
X50372838Y-55303167D01*
X49513311Y-55303167D01*
X49298327Y-55087808D01*
X48954799Y-54945162D01*
X48582833Y-54944838D01*
X48239057Y-55086883D01*
X47975808Y-55349673D01*
X47833162Y-55693201D01*
X47832838Y-56065167D01*
X46598280Y-56065167D01*
X46521617Y-55879629D01*
X46654838Y-55558799D01*
X46655162Y-55186833D01*
X46513117Y-54843057D01*
X46250327Y-54579808D01*
X45906799Y-54437162D01*
X45534833Y-54436838D01*
X45191057Y-54578883D01*
X44927808Y-54841673D01*
X44785162Y-55185201D01*
X44784838Y-55557167D01*
X37013270Y-55557167D01*
X36762799Y-55453162D01*
X36390833Y-55452838D01*
X36047057Y-55594883D01*
X35783808Y-55857673D01*
X35641162Y-56201201D01*
X35640838Y-56573167D01*
X17923227Y-56573167D01*
X18100139Y-56396255D01*
X18026005Y-56150136D01*
X17967746Y-56129195D01*
X18083800Y-56081243D01*
X18487824Y-55677923D01*
X18706750Y-55150691D01*
X18707248Y-54579813D01*
X18489243Y-54052200D01*
X18085923Y-53648176D01*
X17955785Y-53594138D01*
X18083800Y-53541243D01*
X18487824Y-53137923D01*
X18537966Y-53017167D01*
X22940838Y-53017167D01*
X23082883Y-53360943D01*
X23345673Y-53624192D01*
X23689201Y-53766838D01*
X24061167Y-53767162D01*
X24404943Y-53625117D01*
X24668192Y-53362327D01*
X24810838Y-53018799D01*
X24810839Y-53017167D01*
X29544838Y-53017167D01*
X29686883Y-53360943D01*
X29949673Y-53624192D01*
X30293201Y-53766838D01*
X30665167Y-53767162D01*
X31008943Y-53625117D01*
X31109067Y-53525167D01*
X41228838Y-53525167D01*
X41370883Y-53868943D01*
X41633673Y-54132192D01*
X41977201Y-54274838D01*
X42349167Y-54275162D01*
X42692943Y-54133117D01*
X42956192Y-53870327D01*
X43098838Y-53526799D01*
X43098839Y-53525167D01*
X44276838Y-53525167D01*
X44418883Y-53868943D01*
X44681673Y-54132192D01*
X45025201Y-54274838D01*
X45397167Y-54275162D01*
X45740943Y-54133117D01*
X46004192Y-53870327D01*
X46146838Y-53526799D01*
X46146839Y-53525167D01*
X63072838Y-53525167D01*
X63214883Y-53868943D01*
X63477673Y-54132192D01*
X63821201Y-54274838D01*
X64193167Y-54275162D01*
X64536943Y-54133117D01*
X64800192Y-53870327D01*
X64942838Y-53526799D01*
X64943162Y-53154833D01*
X64801117Y-52811057D01*
X64538327Y-52547808D01*
X64194799Y-52405162D01*
X63822833Y-52404838D01*
X63479057Y-52546883D01*
X63215808Y-52809673D01*
X63073162Y-53153201D01*
X63072838Y-53525167D01*
X46146839Y-53525167D01*
X46147162Y-53154833D01*
X46005117Y-52811057D01*
X45742327Y-52547808D01*
X45398799Y-52405162D01*
X45026833Y-52404838D01*
X44683057Y-52546883D01*
X44419808Y-52809673D01*
X44277162Y-53153201D01*
X44276838Y-53525167D01*
X43098839Y-53525167D01*
X43099162Y-53154833D01*
X42957117Y-52811057D01*
X42694327Y-52547808D01*
X42350799Y-52405162D01*
X41978833Y-52404838D01*
X41635057Y-52546883D01*
X41371808Y-52809673D01*
X41229162Y-53153201D01*
X41228838Y-53525167D01*
X31109067Y-53525167D01*
X31272192Y-53362327D01*
X31414838Y-53018799D01*
X31415162Y-52646833D01*
X31273117Y-52303057D01*
X31010327Y-52039808D01*
X30917270Y-52001167D01*
X49864838Y-52001167D01*
X50006883Y-52344943D01*
X50269673Y-52608192D01*
X50613201Y-52750838D01*
X50985167Y-52751162D01*
X51328943Y-52609117D01*
X51592192Y-52346327D01*
X51734838Y-52002799D01*
X51734839Y-52001167D01*
X57992838Y-52001167D01*
X58134883Y-52344943D01*
X58397673Y-52608192D01*
X58741201Y-52750838D01*
X59113167Y-52751162D01*
X59456943Y-52609117D01*
X59720192Y-52346327D01*
X59862838Y-52002799D01*
X59863162Y-51630833D01*
X59721117Y-51287057D01*
X59458327Y-51023808D01*
X59114799Y-50881162D01*
X58742833Y-50880838D01*
X58399057Y-51022883D01*
X58135808Y-51285673D01*
X57993162Y-51629201D01*
X57992838Y-52001167D01*
X51734839Y-52001167D01*
X51735162Y-51630833D01*
X51593117Y-51287057D01*
X51330327Y-51023808D01*
X50986799Y-50881162D01*
X50614833Y-50880838D01*
X50271057Y-51022883D01*
X50007808Y-51285673D01*
X49865162Y-51629201D01*
X49864838Y-52001167D01*
X30917270Y-52001167D01*
X30666799Y-51897162D01*
X30294833Y-51896838D01*
X29951057Y-52038883D01*
X29687808Y-52301673D01*
X29545162Y-52645201D01*
X29544838Y-53017167D01*
X24810839Y-53017167D01*
X24811162Y-52646833D01*
X24669117Y-52303057D01*
X24406327Y-52039808D01*
X24062799Y-51897162D01*
X23690833Y-51896838D01*
X23347057Y-52038883D01*
X23083808Y-52301673D01*
X22941162Y-52645201D01*
X22940838Y-53017167D01*
X18537966Y-53017167D01*
X18706750Y-52610691D01*
X18707248Y-52039813D01*
X18489243Y-51512200D01*
X18085923Y-51108176D01*
X17789685Y-50985167D01*
X38180838Y-50985167D01*
X38322883Y-51328943D01*
X38585673Y-51592192D01*
X38929201Y-51734838D01*
X39301167Y-51735162D01*
X39644943Y-51593117D01*
X39908192Y-51330327D01*
X40050838Y-50986799D01*
X40050839Y-50985167D01*
X46816838Y-50985167D01*
X46958883Y-51328943D01*
X47221673Y-51592192D01*
X47565201Y-51734838D01*
X47937167Y-51735162D01*
X48280943Y-51593117D01*
X48544192Y-51330327D01*
X48686838Y-50986799D01*
X48687162Y-50614833D01*
X48618598Y-50448895D01*
X48745673Y-50576192D01*
X49089201Y-50718838D01*
X49461167Y-50719162D01*
X49804943Y-50577117D01*
X50068192Y-50314327D01*
X50210838Y-49970799D01*
X50210839Y-49969167D01*
X57484838Y-49969167D01*
X57626883Y-50312943D01*
X57889673Y-50576192D01*
X58233201Y-50718838D01*
X58605167Y-50719162D01*
X58948943Y-50577117D01*
X59212192Y-50314327D01*
X59354838Y-49970799D01*
X59355162Y-49598833D01*
X59213117Y-49255057D01*
X58950327Y-48991808D01*
X58606799Y-48849162D01*
X58234833Y-48848838D01*
X57891057Y-48990883D01*
X57627808Y-49253673D01*
X57485162Y-49597201D01*
X57484838Y-49969167D01*
X50210839Y-49969167D01*
X50211162Y-49598833D01*
X50069117Y-49255057D01*
X49806327Y-48991808D01*
X49462799Y-48849162D01*
X49090833Y-48848838D01*
X48747057Y-48990883D01*
X48483808Y-49253673D01*
X48341162Y-49597201D01*
X48340838Y-49969167D01*
X48409402Y-50135105D01*
X48282327Y-50007808D01*
X47938799Y-49865162D01*
X47566833Y-49864838D01*
X47223057Y-50006883D01*
X46959808Y-50269673D01*
X46817162Y-50613201D01*
X46816838Y-50985167D01*
X40050839Y-50985167D01*
X40051162Y-50614833D01*
X39909117Y-50271057D01*
X39646327Y-50007808D01*
X39553270Y-49969167D01*
X40212838Y-49969167D01*
X40354883Y-50312943D01*
X40617673Y-50576192D01*
X40961201Y-50718838D01*
X41333167Y-50719162D01*
X41676943Y-50577117D01*
X41940192Y-50314327D01*
X42082838Y-49970799D01*
X42083162Y-49598833D01*
X41941117Y-49255057D01*
X41678327Y-48991808D01*
X41334799Y-48849162D01*
X40962833Y-48848838D01*
X40619057Y-48990883D01*
X40355808Y-49253673D01*
X40213162Y-49597201D01*
X40212838Y-49969167D01*
X39553270Y-49969167D01*
X39302799Y-49865162D01*
X38930833Y-49864838D01*
X38587057Y-50006883D01*
X38323808Y-50269673D01*
X38181162Y-50613201D01*
X38180838Y-50985167D01*
X17789685Y-50985167D01*
X17558691Y-50889250D01*
X16987813Y-50888752D01*
X16460200Y-51106757D01*
X16056176Y-51510077D01*
X15875000Y-51946397D01*
X15875000Y-48759745D01*
X16443861Y-48759745D01*
X16517995Y-49005864D01*
X17055223Y-49198965D01*
X17625454Y-49171778D01*
X18026005Y-49005864D01*
X18100139Y-48759745D01*
X17272000Y-47931605D01*
X16443861Y-48759745D01*
X15875000Y-48759745D01*
X15875000Y-48160445D01*
X16018136Y-48506005D01*
X16264255Y-48580139D01*
X17092395Y-47752000D01*
X17451605Y-47752000D01*
X18279745Y-48580139D01*
X18525864Y-48506005D01*
X18718965Y-47968777D01*
X18691778Y-47398546D01*
X18525864Y-46997995D01*
X18279745Y-46923861D01*
X17451605Y-47752000D01*
X17092395Y-47752000D01*
X16264255Y-46923861D01*
X16018136Y-46997995D01*
X15875000Y-47396215D01*
X15875000Y-45588754D01*
X16054757Y-46023800D01*
X16458077Y-46427824D01*
X16572768Y-46475448D01*
X16517995Y-46498136D01*
X16443861Y-46744255D01*
X17272000Y-47572395D01*
X18100139Y-46744255D01*
X18026005Y-46498136D01*
X17967746Y-46477195D01*
X18083800Y-46429243D01*
X18487824Y-46025923D01*
X18537966Y-45905167D01*
X31576838Y-45905167D01*
X31718883Y-46248943D01*
X31981673Y-46512192D01*
X32325201Y-46654838D01*
X32697167Y-46655162D01*
X33040943Y-46513117D01*
X33304192Y-46250327D01*
X33446838Y-45906799D01*
X33447162Y-45534833D01*
X33390280Y-45397167D01*
X46308838Y-45397167D01*
X46450883Y-45740943D01*
X46713673Y-46004192D01*
X47057201Y-46146838D01*
X47429167Y-46147162D01*
X47772943Y-46005117D01*
X48036192Y-45742327D01*
X48178838Y-45398799D01*
X48179162Y-45026833D01*
X48037117Y-44683057D01*
X47774327Y-44419808D01*
X47430799Y-44277162D01*
X47058833Y-44276838D01*
X46715057Y-44418883D01*
X46451808Y-44681673D01*
X46309162Y-45025201D01*
X46308838Y-45397167D01*
X33390280Y-45397167D01*
X33305117Y-45191057D01*
X33042327Y-44927808D01*
X32698799Y-44785162D01*
X32326833Y-44784838D01*
X31983057Y-44926883D01*
X31719808Y-45189673D01*
X31577162Y-45533201D01*
X31576838Y-45905167D01*
X18537966Y-45905167D01*
X18706750Y-45498691D01*
X18707248Y-44927813D01*
X18489243Y-44400200D01*
X18085923Y-43996176D01*
X17955785Y-43942138D01*
X18083800Y-43889243D01*
X18099904Y-43873167D01*
X49356838Y-43873167D01*
X49498883Y-44216943D01*
X49761673Y-44480192D01*
X50105201Y-44622838D01*
X50477167Y-44623162D01*
X50820943Y-44481117D01*
X51084192Y-44218327D01*
X51226838Y-43874799D01*
X51227162Y-43502833D01*
X51085117Y-43159057D01*
X50822327Y-42895808D01*
X50478799Y-42753162D01*
X50106833Y-42752838D01*
X49763057Y-42894883D01*
X49499808Y-43157673D01*
X49357162Y-43501201D01*
X49356838Y-43873167D01*
X18099904Y-43873167D01*
X18487824Y-43485923D01*
X18706750Y-42958691D01*
X18707248Y-42387813D01*
X18489243Y-41860200D01*
X18085923Y-41456176D01*
X17971232Y-41408552D01*
X18026005Y-41385864D01*
X18041877Y-41333167D01*
X53420838Y-41333167D01*
X53562883Y-41676943D01*
X53825673Y-41940192D01*
X54169201Y-42082838D01*
X54541167Y-42083162D01*
X54884943Y-41941117D01*
X55148192Y-41678327D01*
X55290838Y-41334799D01*
X55291162Y-40962833D01*
X55149117Y-40619057D01*
X54886327Y-40355808D01*
X54542799Y-40213162D01*
X54170833Y-40212838D01*
X53827057Y-40354883D01*
X53563808Y-40617673D01*
X53421162Y-40961201D01*
X53420838Y-41333167D01*
X18041877Y-41333167D01*
X18100139Y-41139745D01*
X17272000Y-40311605D01*
X16443861Y-41139745D01*
X16517995Y-41385864D01*
X16576254Y-41406805D01*
X16460200Y-41454757D01*
X16056176Y-41858077D01*
X15875000Y-42294397D01*
X15875000Y-40540445D01*
X16018136Y-40886005D01*
X16264255Y-40960139D01*
X17092395Y-40132000D01*
X17451605Y-40132000D01*
X18279745Y-40960139D01*
X18525864Y-40886005D01*
X18718965Y-40348777D01*
X18691778Y-39778546D01*
X18525864Y-39377995D01*
X18279745Y-39303861D01*
X17451605Y-40132000D01*
X17092395Y-40132000D01*
X16264255Y-39303861D01*
X16018136Y-39377995D01*
X15875000Y-39776215D01*
X15875000Y-37968754D01*
X16054757Y-38403800D01*
X16458077Y-38807824D01*
X16572768Y-38855448D01*
X16517995Y-38878136D01*
X16443861Y-39124255D01*
X17272000Y-39952395D01*
X18100139Y-39124255D01*
X18026005Y-38878136D01*
X17967746Y-38857195D01*
X18083800Y-38809243D01*
X18487824Y-38405923D01*
X18706750Y-37878691D01*
X18707143Y-37427599D01*
X52112699Y-37427599D01*
X52376281Y-38065515D01*
X52863918Y-38554004D01*
X53501373Y-38818699D01*
X54191599Y-38819301D01*
X54829515Y-38555719D01*
X55318004Y-38068082D01*
X55582699Y-37430627D01*
X55583301Y-36740401D01*
X55319719Y-36102485D01*
X54832082Y-35613996D01*
X54194627Y-35349301D01*
X53504401Y-35348699D01*
X52866485Y-35612281D01*
X52377996Y-36099918D01*
X52113301Y-36737373D01*
X52112699Y-37427599D01*
X18707143Y-37427599D01*
X18707248Y-37307813D01*
X18489243Y-36780200D01*
X18085923Y-36376176D01*
X17955785Y-36322138D01*
X18083800Y-36269243D01*
X18487824Y-35865923D01*
X18706750Y-35338691D01*
X18707248Y-34767813D01*
X18489243Y-34240200D01*
X18085923Y-33836176D01*
X17770016Y-33705000D01*
X65913000Y-33705000D01*
X65913000Y-42536309D01*
X65913000Y-42536309D01*
G37*
X65913000Y-42536309D02*
X65801284Y-42805352D01*
X65800716Y-43455795D01*
X65913000Y-43727542D01*
X65913000Y-63205041D01*
X65839996Y-63277918D01*
X65575301Y-63915373D01*
X65574699Y-64605599D01*
X65838281Y-65243515D01*
X65913000Y-65318365D01*
X65913000Y-77377802D01*
X65718799Y-77297162D01*
X65346833Y-77296838D01*
X65003057Y-77438883D01*
X64739808Y-77701673D01*
X64597162Y-78045201D01*
X64596838Y-78417167D01*
X64738883Y-78760943D01*
X65001673Y-79024192D01*
X65345201Y-79166838D01*
X65717167Y-79167162D01*
X65913000Y-79086246D01*
X65913000Y-84199710D01*
X17925775Y-83714991D01*
X17973139Y-83557745D01*
X17145000Y-82729605D01*
X16316861Y-83557745D01*
X16359460Y-83699170D01*
X15875000Y-83694276D01*
X15875000Y-83265049D01*
X15891136Y-83304005D01*
X16137255Y-83378139D01*
X16965395Y-82550000D01*
X17324605Y-82550000D01*
X18152745Y-83378139D01*
X18398864Y-83304005D01*
X18591965Y-82766777D01*
X18564778Y-82196546D01*
X18513267Y-82072187D01*
X21932752Y-82072187D01*
X22150757Y-82599800D01*
X22554077Y-83003824D01*
X23081309Y-83222750D01*
X23652187Y-83223248D01*
X24179800Y-83005243D01*
X24583824Y-82601923D01*
X24637862Y-82471785D01*
X24690757Y-82599800D01*
X25094077Y-83003824D01*
X25621309Y-83222750D01*
X26192187Y-83223248D01*
X26719800Y-83005243D01*
X26929663Y-82795745D01*
X27619861Y-82795745D01*
X27693995Y-83041864D01*
X28231223Y-83234965D01*
X28801454Y-83207778D01*
X29202005Y-83041864D01*
X29276139Y-82795745D01*
X28448000Y-81967605D01*
X27619861Y-82795745D01*
X26929663Y-82795745D01*
X27123824Y-82601923D01*
X27171448Y-82487232D01*
X27194136Y-82542005D01*
X27440255Y-82616139D01*
X28268395Y-81788000D01*
X28627605Y-81788000D01*
X29455745Y-82616139D01*
X29701864Y-82542005D01*
X29722805Y-82483746D01*
X29770757Y-82599800D01*
X30174077Y-83003824D01*
X30701309Y-83222750D01*
X31272187Y-83223248D01*
X31799800Y-83005243D01*
X32203824Y-82601923D01*
X32257862Y-82471785D01*
X32310757Y-82599800D01*
X32714077Y-83003824D01*
X33241309Y-83222750D01*
X33812187Y-83223248D01*
X34339800Y-83005243D01*
X34549663Y-82795745D01*
X35239861Y-82795745D01*
X35313995Y-83041864D01*
X35851223Y-83234965D01*
X36421454Y-83207778D01*
X36822005Y-83041864D01*
X36896139Y-82795745D01*
X36068000Y-81967605D01*
X35239861Y-82795745D01*
X34549663Y-82795745D01*
X34743824Y-82601923D01*
X34791448Y-82487232D01*
X34814136Y-82542005D01*
X35060255Y-82616139D01*
X35888395Y-81788000D01*
X36247605Y-81788000D01*
X37075745Y-82616139D01*
X37321864Y-82542005D01*
X37514965Y-82004777D01*
X37487778Y-81434546D01*
X37321864Y-81033995D01*
X37075745Y-80959861D01*
X36247605Y-81788000D01*
X35888395Y-81788000D01*
X35060255Y-80959861D01*
X34814136Y-81033995D01*
X34793195Y-81092254D01*
X34745243Y-80976200D01*
X34549640Y-80780255D01*
X35239861Y-80780255D01*
X36068000Y-81608395D01*
X36719227Y-80957167D01*
X57992838Y-80957167D01*
X58134883Y-81300943D01*
X58397673Y-81564192D01*
X58741201Y-81706838D01*
X59113167Y-81707162D01*
X59456943Y-81565117D01*
X59720192Y-81302327D01*
X59862838Y-80958799D01*
X59863162Y-80586833D01*
X59721117Y-80243057D01*
X59458327Y-79979808D01*
X59114799Y-79837162D01*
X58742833Y-79836838D01*
X58399057Y-79978883D01*
X58135808Y-80241673D01*
X57993162Y-80585201D01*
X57992838Y-80957167D01*
X36719227Y-80957167D01*
X36896139Y-80780255D01*
X36822005Y-80534136D01*
X36284777Y-80341035D01*
X35714546Y-80368222D01*
X35313995Y-80534136D01*
X35239861Y-80780255D01*
X34549640Y-80780255D01*
X34341923Y-80572176D01*
X33814691Y-80353250D01*
X33243813Y-80352752D01*
X32716200Y-80570757D01*
X32312176Y-80974077D01*
X32258138Y-81104215D01*
X32205243Y-80976200D01*
X31801923Y-80572176D01*
X31274691Y-80353250D01*
X30703813Y-80352752D01*
X30176200Y-80570757D01*
X29772176Y-80974077D01*
X29724552Y-81088768D01*
X29701864Y-81033995D01*
X29455745Y-80959861D01*
X28627605Y-81788000D01*
X28268395Y-81788000D01*
X27440255Y-80959861D01*
X27194136Y-81033995D01*
X27173195Y-81092254D01*
X27125243Y-80976200D01*
X26929640Y-80780255D01*
X27619861Y-80780255D01*
X28448000Y-81608395D01*
X29276139Y-80780255D01*
X29202005Y-80534136D01*
X28664777Y-80341035D01*
X28094546Y-80368222D01*
X27693995Y-80534136D01*
X27619861Y-80780255D01*
X26929640Y-80780255D01*
X26721923Y-80572176D01*
X26194691Y-80353250D01*
X25623813Y-80352752D01*
X25096200Y-80570757D01*
X24692176Y-80974077D01*
X24638138Y-81104215D01*
X24585243Y-80976200D01*
X24181923Y-80572176D01*
X23654691Y-80353250D01*
X23083813Y-80352752D01*
X22556200Y-80570757D01*
X22152176Y-80974077D01*
X21933250Y-81501309D01*
X21932752Y-82072187D01*
X18513267Y-82072187D01*
X18398864Y-81795995D01*
X18152745Y-81721861D01*
X17324605Y-82550000D01*
X16965395Y-82550000D01*
X16137255Y-81721861D01*
X15891136Y-81795995D01*
X15875000Y-81840887D01*
X15875000Y-80694118D01*
X15927757Y-80821800D01*
X16331077Y-81225824D01*
X16445768Y-81273448D01*
X16390995Y-81296136D01*
X16316861Y-81542255D01*
X17145000Y-82370395D01*
X17973139Y-81542255D01*
X17899005Y-81296136D01*
X17840746Y-81275195D01*
X17956800Y-81227243D01*
X18360824Y-80823923D01*
X18579750Y-80296691D01*
X18580248Y-79725813D01*
X18362243Y-79198200D01*
X17958923Y-78794176D01*
X17828785Y-78740138D01*
X17956800Y-78687243D01*
X18360824Y-78283923D01*
X18516436Y-77909167D01*
X61548838Y-77909167D01*
X61690883Y-78252943D01*
X61953673Y-78516192D01*
X62057157Y-78559162D01*
X62056838Y-78925167D01*
X62198883Y-79268943D01*
X62461673Y-79532192D01*
X62805201Y-79674838D01*
X63177167Y-79675162D01*
X63520943Y-79533117D01*
X63784192Y-79270327D01*
X63926838Y-78926799D01*
X63927162Y-78554833D01*
X63785117Y-78211057D01*
X63522327Y-77947808D01*
X63418843Y-77904838D01*
X63419162Y-77538833D01*
X63277117Y-77195057D01*
X63014327Y-76931808D01*
X62670799Y-76789162D01*
X62298833Y-76788838D01*
X61955057Y-76930883D01*
X61691808Y-77193673D01*
X61549162Y-77537201D01*
X61548838Y-77909167D01*
X18516436Y-77909167D01*
X18579750Y-77756691D01*
X18580248Y-77185813D01*
X18362243Y-76658200D01*
X17958923Y-76254176D01*
X17844232Y-76206552D01*
X17899005Y-76183864D01*
X17973139Y-75937745D01*
X17145000Y-75109605D01*
X16316861Y-75937745D01*
X16390995Y-76183864D01*
X16449254Y-76204805D01*
X16333200Y-76252757D01*
X15929176Y-76656077D01*
X15875000Y-76786547D01*
X15875000Y-75645049D01*
X15891136Y-75684005D01*
X16137255Y-75758139D01*
X16965395Y-74930000D01*
X17324605Y-74930000D01*
X18152745Y-75758139D01*
X18398864Y-75684005D01*
X18512029Y-75369167D01*
X27004838Y-75369167D01*
X27146883Y-75712943D01*
X27409673Y-75976192D01*
X27753201Y-76118838D01*
X28125167Y-76119162D01*
X28468943Y-75977117D01*
X28732192Y-75714327D01*
X28874838Y-75370799D01*
X28874839Y-75369167D01*
X34116838Y-75369167D01*
X34258883Y-75712943D01*
X34521673Y-75976192D01*
X34865201Y-76118838D01*
X35237167Y-76119162D01*
X35580943Y-75977117D01*
X35844192Y-75714327D01*
X35986838Y-75370799D01*
X35986839Y-75369167D01*
X56976838Y-75369167D01*
X57118883Y-75712943D01*
X57381673Y-75976192D01*
X57725201Y-76118838D01*
X58097167Y-76119162D01*
X58440943Y-75977117D01*
X58704192Y-75714327D01*
X58846838Y-75370799D01*
X58847162Y-74998833D01*
X58705117Y-74655057D01*
X58442327Y-74391808D01*
X58349270Y-74353167D01*
X61548838Y-74353167D01*
X61682383Y-74676371D01*
X61549162Y-74997201D01*
X61548838Y-75369167D01*
X61690883Y-75712943D01*
X61953673Y-75976192D01*
X62297201Y-76118838D01*
X62669167Y-76119162D01*
X63012943Y-75977117D01*
X63276192Y-75714327D01*
X63418838Y-75370799D01*
X63419162Y-74998833D01*
X63285617Y-74675629D01*
X63418838Y-74354799D01*
X63419162Y-73982833D01*
X63277117Y-73639057D01*
X63014327Y-73375808D01*
X62670799Y-73233162D01*
X62298833Y-73232838D01*
X61955057Y-73374883D01*
X61691808Y-73637673D01*
X61549162Y-73981201D01*
X61548838Y-74353167D01*
X58349270Y-74353167D01*
X58098799Y-74249162D01*
X57726833Y-74248838D01*
X57383057Y-74390883D01*
X57119808Y-74653673D01*
X56977162Y-74997201D01*
X56976838Y-75369167D01*
X35986839Y-75369167D01*
X35987162Y-74998833D01*
X35845117Y-74655057D01*
X35582327Y-74391808D01*
X35238799Y-74249162D01*
X34866833Y-74248838D01*
X34523057Y-74390883D01*
X34259808Y-74653673D01*
X34117162Y-74997201D01*
X34116838Y-75369167D01*
X28874839Y-75369167D01*
X28875162Y-74998833D01*
X28733117Y-74655057D01*
X28470327Y-74391808D01*
X28126799Y-74249162D01*
X27754833Y-74248838D01*
X27411057Y-74390883D01*
X27147808Y-74653673D01*
X27005162Y-74997201D01*
X27004838Y-75369167D01*
X18512029Y-75369167D01*
X18591965Y-75146777D01*
X18564778Y-74576546D01*
X18398864Y-74175995D01*
X18152745Y-74101861D01*
X17324605Y-74930000D01*
X16965395Y-74930000D01*
X16137255Y-74101861D01*
X15891136Y-74175995D01*
X15875000Y-74220887D01*
X15875000Y-73074118D01*
X15927757Y-73201800D01*
X16331077Y-73605824D01*
X16445768Y-73653448D01*
X16390995Y-73676136D01*
X16316861Y-73922255D01*
X17145000Y-74750395D01*
X17973139Y-73922255D01*
X17899005Y-73676136D01*
X17840746Y-73655195D01*
X17956800Y-73607243D01*
X18360824Y-73203923D01*
X18579750Y-72676691D01*
X18580248Y-72105813D01*
X18362243Y-71578200D01*
X18343244Y-71559167D01*
X27512838Y-71559167D01*
X27654883Y-71902943D01*
X27917673Y-72166192D01*
X28261201Y-72308838D01*
X28633167Y-72309162D01*
X28976943Y-72167117D01*
X29240192Y-71904327D01*
X29382838Y-71560799D01*
X29383162Y-71188833D01*
X29241117Y-70845057D01*
X29193311Y-70797167D01*
X44784838Y-70797167D01*
X44926883Y-71140943D01*
X45189673Y-71404192D01*
X45533201Y-71546838D01*
X45905167Y-71547162D01*
X46248943Y-71405117D01*
X46512192Y-71142327D01*
X46654838Y-70798799D01*
X46655162Y-70426833D01*
X46598280Y-70289167D01*
X57484838Y-70289167D01*
X57626883Y-70632943D01*
X57889673Y-70896192D01*
X58233201Y-71038838D01*
X58605167Y-71039162D01*
X58928371Y-70905617D01*
X59249201Y-71038838D01*
X59621167Y-71039162D01*
X59964943Y-70897117D01*
X60228192Y-70634327D01*
X60370838Y-70290799D01*
X60371162Y-69918833D01*
X60229117Y-69575057D01*
X59966327Y-69311808D01*
X59622799Y-69169162D01*
X59250833Y-69168838D01*
X58927629Y-69302383D01*
X58606799Y-69169162D01*
X58234833Y-69168838D01*
X57891057Y-69310883D01*
X57627808Y-69573673D01*
X57485162Y-69917201D01*
X57484838Y-70289167D01*
X46598280Y-70289167D01*
X46513117Y-70083057D01*
X46250327Y-69819808D01*
X45906799Y-69677162D01*
X45534833Y-69676838D01*
X45191057Y-69818883D01*
X44927808Y-70081673D01*
X44785162Y-70425201D01*
X44784838Y-70797167D01*
X29193311Y-70797167D01*
X28978327Y-70581808D01*
X28855760Y-70530913D01*
X29141167Y-70531162D01*
X29484943Y-70389117D01*
X29748192Y-70126327D01*
X29890838Y-69782799D01*
X29891162Y-69410833D01*
X29749117Y-69067057D01*
X29486327Y-68803808D01*
X29142799Y-68661162D01*
X28770833Y-68660838D01*
X28427057Y-68802883D01*
X28163808Y-69065673D01*
X28021162Y-69409201D01*
X28020838Y-69781167D01*
X28162883Y-70124943D01*
X28425673Y-70388192D01*
X28548240Y-70439087D01*
X28262833Y-70438838D01*
X27919057Y-70580883D01*
X27655808Y-70843673D01*
X27513162Y-71187201D01*
X27512838Y-71559167D01*
X18343244Y-71559167D01*
X17958923Y-71174176D01*
X17828785Y-71120138D01*
X17956800Y-71067243D01*
X18360824Y-70663923D01*
X18579750Y-70136691D01*
X18580060Y-69781167D01*
X23702838Y-69781167D01*
X23844883Y-70124943D01*
X24107673Y-70388192D01*
X24451201Y-70530838D01*
X24823167Y-70531162D01*
X25166943Y-70389117D01*
X25430192Y-70126327D01*
X25572838Y-69782799D01*
X25573162Y-69410833D01*
X25431117Y-69067057D01*
X25168327Y-68803808D01*
X24824799Y-68661162D01*
X24452833Y-68660838D01*
X24109057Y-68802883D01*
X23845808Y-69065673D01*
X23703162Y-69409201D01*
X23702838Y-69781167D01*
X18580060Y-69781167D01*
X18580248Y-69565813D01*
X18362243Y-69038200D01*
X17958923Y-68634176D01*
X17431691Y-68415250D01*
X16860813Y-68414752D01*
X16333200Y-68632757D01*
X15929176Y-69036077D01*
X15875000Y-69166547D01*
X15875000Y-67241167D01*
X40720838Y-67241167D01*
X40862883Y-67584943D01*
X41125673Y-67848192D01*
X41469201Y-67990838D01*
X41841167Y-67991162D01*
X42184943Y-67849117D01*
X42448192Y-67586327D01*
X42590838Y-67242799D01*
X42590839Y-67241167D01*
X47832838Y-67241167D01*
X47974883Y-67584943D01*
X48237673Y-67848192D01*
X48581201Y-67990838D01*
X48953167Y-67991162D01*
X49296943Y-67849117D01*
X49560192Y-67586327D01*
X49702838Y-67242799D01*
X49703162Y-66870833D01*
X49646280Y-66733167D01*
X62056838Y-66733167D01*
X62198883Y-67076943D01*
X62461673Y-67340192D01*
X62805201Y-67482838D01*
X63177167Y-67483162D01*
X63520943Y-67341117D01*
X63592586Y-67269599D01*
X63722883Y-67584943D01*
X63985673Y-67848192D01*
X64329201Y-67990838D01*
X64701167Y-67991162D01*
X65044943Y-67849117D01*
X65308192Y-67586327D01*
X65450838Y-67242799D01*
X65451162Y-66870833D01*
X65309117Y-66527057D01*
X65046327Y-66263808D01*
X64702799Y-66121162D01*
X64330833Y-66120838D01*
X63987057Y-66262883D01*
X63915414Y-66334401D01*
X63785117Y-66019057D01*
X63522327Y-65755808D01*
X63178799Y-65613162D01*
X62806833Y-65612838D01*
X62463057Y-65754883D01*
X62199808Y-66017673D01*
X62057162Y-66361201D01*
X62056838Y-66733167D01*
X49646280Y-66733167D01*
X49561117Y-66527057D01*
X49298327Y-66263808D01*
X48954799Y-66121162D01*
X48582833Y-66120838D01*
X48239057Y-66262883D01*
X47975808Y-66525673D01*
X47833162Y-66869201D01*
X47832838Y-67241167D01*
X42590839Y-67241167D01*
X42591162Y-66870833D01*
X42449117Y-66527057D01*
X42186327Y-66263808D01*
X41842799Y-66121162D01*
X41470833Y-66120838D01*
X41127057Y-66262883D01*
X40863808Y-66525673D01*
X40721162Y-66869201D01*
X40720838Y-67241167D01*
X15875000Y-67241167D01*
X15875000Y-66031745D01*
X16443861Y-66031745D01*
X16517995Y-66277864D01*
X17055223Y-66470965D01*
X17625454Y-66443778D01*
X18026005Y-66277864D01*
X18041877Y-66225167D01*
X35132838Y-66225167D01*
X35274883Y-66568943D01*
X35537673Y-66832192D01*
X35881201Y-66974838D01*
X36253167Y-66975162D01*
X36596943Y-66833117D01*
X36860192Y-66570327D01*
X37002838Y-66226799D01*
X37003162Y-65854833D01*
X36861117Y-65511057D01*
X36598327Y-65247808D01*
X36254799Y-65105162D01*
X35882833Y-65104838D01*
X35539057Y-65246883D01*
X35275808Y-65509673D01*
X35133162Y-65853201D01*
X35132838Y-66225167D01*
X18041877Y-66225167D01*
X18100139Y-66031745D01*
X17272000Y-65203605D01*
X16443861Y-66031745D01*
X15875000Y-66031745D01*
X15875000Y-65432445D01*
X16018136Y-65778005D01*
X16264255Y-65852139D01*
X17092395Y-65024000D01*
X17451605Y-65024000D01*
X18279745Y-65852139D01*
X18525864Y-65778005D01*
X18718965Y-65240777D01*
X18691778Y-64670546D01*
X18599252Y-64447167D01*
X24464838Y-64447167D01*
X24606883Y-64790943D01*
X24869673Y-65054192D01*
X25213201Y-65196838D01*
X25585167Y-65197162D01*
X25928943Y-65055117D01*
X26192192Y-64792327D01*
X26334838Y-64448799D01*
X26335143Y-64097599D01*
X27728699Y-64097599D01*
X27992281Y-64735515D01*
X28479918Y-65224004D01*
X29117373Y-65488699D01*
X29807599Y-65489301D01*
X30445515Y-65225719D01*
X30934004Y-64738082D01*
X31198699Y-64100627D01*
X31199301Y-63410401D01*
X31102931Y-63177167D01*
X63580838Y-63177167D01*
X63722883Y-63520943D01*
X63985673Y-63784192D01*
X64329201Y-63926838D01*
X64701167Y-63927162D01*
X65044943Y-63785117D01*
X65308192Y-63522327D01*
X65450838Y-63178799D01*
X65451162Y-62806833D01*
X65309117Y-62463057D01*
X65046327Y-62199808D01*
X64702799Y-62057162D01*
X64330833Y-62056838D01*
X63987057Y-62198883D01*
X63723808Y-62461673D01*
X63581162Y-62805201D01*
X63580838Y-63177167D01*
X31102931Y-63177167D01*
X30935719Y-62772485D01*
X30448082Y-62283996D01*
X30152278Y-62161167D01*
X41228838Y-62161167D01*
X41370883Y-62504943D01*
X41633673Y-62768192D01*
X41977201Y-62910838D01*
X42349167Y-62911162D01*
X42692943Y-62769117D01*
X42956192Y-62506327D01*
X43098838Y-62162799D01*
X43098839Y-62161167D01*
X55452838Y-62161167D01*
X55594883Y-62504943D01*
X55857673Y-62768192D01*
X56201201Y-62910838D01*
X56573167Y-62911162D01*
X56916943Y-62769117D01*
X57180192Y-62506327D01*
X57322838Y-62162799D01*
X57322839Y-62161167D01*
X59516838Y-62161167D01*
X59658883Y-62504943D01*
X59921673Y-62768192D01*
X60265201Y-62910838D01*
X60637167Y-62911162D01*
X60980943Y-62769117D01*
X61244192Y-62506327D01*
X61386838Y-62162799D01*
X61387162Y-61790833D01*
X61245117Y-61447057D01*
X60982327Y-61183808D01*
X60638799Y-61041162D01*
X60266833Y-61040838D01*
X59923057Y-61182883D01*
X59659808Y-61445673D01*
X59517162Y-61789201D01*
X59516838Y-62161167D01*
X57322839Y-62161167D01*
X57323162Y-61790833D01*
X57181117Y-61447057D01*
X56918327Y-61183808D01*
X56825270Y-61145167D01*
X57484838Y-61145167D01*
X57626883Y-61488943D01*
X57889673Y-61752192D01*
X58233201Y-61894838D01*
X58605167Y-61895162D01*
X58948943Y-61753117D01*
X59212192Y-61490327D01*
X59354838Y-61146799D01*
X59355162Y-60774833D01*
X59213117Y-60431057D01*
X58950327Y-60167808D01*
X58606799Y-60025162D01*
X58234833Y-60024838D01*
X57891057Y-60166883D01*
X57627808Y-60429673D01*
X57485162Y-60773201D01*
X57484838Y-61145167D01*
X56825270Y-61145167D01*
X56574799Y-61041162D01*
X56202833Y-61040838D01*
X55859057Y-61182883D01*
X55595808Y-61445673D01*
X55453162Y-61789201D01*
X55452838Y-62161167D01*
X43098839Y-62161167D01*
X43099162Y-61790833D01*
X42957117Y-61447057D01*
X42694327Y-61183808D01*
X42350799Y-61041162D01*
X41978833Y-61040838D01*
X41635057Y-61182883D01*
X41371808Y-61445673D01*
X41229162Y-61789201D01*
X41228838Y-62161167D01*
X30152278Y-62161167D01*
X29810627Y-62019301D01*
X29120401Y-62018699D01*
X28482485Y-62282281D01*
X27993996Y-62769918D01*
X27729301Y-63407373D01*
X27728699Y-64097599D01*
X26335143Y-64097599D01*
X26335162Y-64076833D01*
X26193117Y-63733057D01*
X25930327Y-63469808D01*
X25586799Y-63327162D01*
X25214833Y-63326838D01*
X24871057Y-63468883D01*
X24607808Y-63731673D01*
X24465162Y-64075201D01*
X24464838Y-64447167D01*
X18599252Y-64447167D01*
X18525864Y-64269995D01*
X18279745Y-64195861D01*
X17451605Y-65024000D01*
X17092395Y-65024000D01*
X16264255Y-64195861D01*
X16018136Y-64269995D01*
X15875000Y-64668215D01*
X15875000Y-62860754D01*
X16054757Y-63295800D01*
X16458077Y-63699824D01*
X16572768Y-63747448D01*
X16517995Y-63770136D01*
X16443861Y-64016255D01*
X17272000Y-64844395D01*
X18100139Y-64016255D01*
X18026005Y-63770136D01*
X17967746Y-63749195D01*
X18083800Y-63701243D01*
X18487824Y-63297923D01*
X18706750Y-62770691D01*
X18707248Y-62199813D01*
X18489243Y-61672200D01*
X18085923Y-61268176D01*
X17955785Y-61214138D01*
X18083800Y-61161243D01*
X18487824Y-60757923D01*
X18706750Y-60230691D01*
X18707248Y-59659813D01*
X18489243Y-59132200D01*
X18085923Y-58728176D01*
X17971232Y-58680552D01*
X18026005Y-58657864D01*
X18041877Y-58605167D01*
X29036838Y-58605167D01*
X29178883Y-58948943D01*
X29441673Y-59212192D01*
X29785201Y-59354838D01*
X30157167Y-59355162D01*
X30500943Y-59213117D01*
X30629388Y-59084896D01*
X30561162Y-59249201D01*
X30560838Y-59621167D01*
X30702883Y-59964943D01*
X30965673Y-60228192D01*
X31309201Y-60370838D01*
X31681167Y-60371162D01*
X32024943Y-60229117D01*
X32288192Y-59966327D01*
X32430838Y-59622799D01*
X32431162Y-59250833D01*
X32289117Y-58907057D01*
X32026327Y-58643808D01*
X31682799Y-58501162D01*
X31310833Y-58500838D01*
X30967057Y-58642883D01*
X30838612Y-58771104D01*
X30906838Y-58606799D01*
X30907162Y-58234833D01*
X30765117Y-57891057D01*
X30502327Y-57627808D01*
X30158799Y-57485162D01*
X29786833Y-57484838D01*
X29443057Y-57626883D01*
X29179808Y-57889673D01*
X29037162Y-58233201D01*
X29036838Y-58605167D01*
X18041877Y-58605167D01*
X18100139Y-58411745D01*
X17272000Y-57583605D01*
X16443861Y-58411745D01*
X16517995Y-58657864D01*
X16576254Y-58678805D01*
X16460200Y-58726757D01*
X16056176Y-59130077D01*
X15875000Y-59566397D01*
X15875000Y-57812445D01*
X16018136Y-58158005D01*
X16264255Y-58232139D01*
X17092395Y-57404000D01*
X17451605Y-57404000D01*
X18279745Y-58232139D01*
X18525864Y-58158005D01*
X18718965Y-57620777D01*
X18691778Y-57050546D01*
X18525864Y-56649995D01*
X18279745Y-56575861D01*
X17451605Y-57404000D01*
X17092395Y-57404000D01*
X16264255Y-56575861D01*
X16018136Y-56649995D01*
X15875000Y-57048215D01*
X15875000Y-55240754D01*
X16054757Y-55675800D01*
X16458077Y-56079824D01*
X16572768Y-56127448D01*
X16517995Y-56150136D01*
X16443861Y-56396255D01*
X17272000Y-57224395D01*
X17923227Y-56573167D01*
X35640838Y-56573167D01*
X35782883Y-56916943D01*
X36045673Y-57180192D01*
X36149157Y-57223162D01*
X36148838Y-57589167D01*
X36290883Y-57932943D01*
X36553673Y-58196192D01*
X36897201Y-58338838D01*
X37269167Y-58339162D01*
X37612943Y-58197117D01*
X37876192Y-57934327D01*
X38018838Y-57590799D01*
X38018839Y-57589167D01*
X39704838Y-57589167D01*
X39846883Y-57932943D01*
X40109673Y-58196192D01*
X40453201Y-58338838D01*
X40721070Y-58339071D01*
X40720838Y-58605167D01*
X40862883Y-58948943D01*
X41125673Y-59212192D01*
X41469201Y-59354838D01*
X41841167Y-59355162D01*
X42184943Y-59213117D01*
X42448192Y-58950327D01*
X42590838Y-58606799D01*
X42590839Y-58605167D01*
X43768838Y-58605167D01*
X43910883Y-58948943D01*
X44173673Y-59212192D01*
X44517201Y-59354838D01*
X44889167Y-59355162D01*
X45232943Y-59213117D01*
X45496192Y-58950327D01*
X45638838Y-58606799D01*
X45639162Y-58234833D01*
X45497117Y-57891057D01*
X45234327Y-57627808D01*
X44890799Y-57485162D01*
X44518833Y-57484838D01*
X44175057Y-57626883D01*
X43911808Y-57889673D01*
X43769162Y-58233201D01*
X43768838Y-58605167D01*
X42590839Y-58605167D01*
X42591162Y-58234833D01*
X42449117Y-57891057D01*
X42186327Y-57627808D01*
X41842799Y-57485162D01*
X41574930Y-57484929D01*
X41575162Y-57218833D01*
X41433117Y-56875057D01*
X41170327Y-56611808D01*
X40826799Y-56469162D01*
X40454833Y-56468838D01*
X40111057Y-56610883D01*
X39847808Y-56873673D01*
X39705162Y-57217201D01*
X39704838Y-57589167D01*
X38018839Y-57589167D01*
X38019162Y-57218833D01*
X37877117Y-56875057D01*
X37614327Y-56611808D01*
X37510843Y-56568838D01*
X37511162Y-56202833D01*
X37369117Y-55859057D01*
X37106327Y-55595808D01*
X37013270Y-55557167D01*
X44784838Y-55557167D01*
X44918383Y-55880371D01*
X44785162Y-56201201D01*
X44784838Y-56573167D01*
X44926883Y-56916943D01*
X45189673Y-57180192D01*
X45533201Y-57322838D01*
X45905167Y-57323162D01*
X46248943Y-57181117D01*
X46512192Y-56918327D01*
X46654838Y-56574799D01*
X46655162Y-56202833D01*
X46598280Y-56065167D01*
X47832838Y-56065167D01*
X47974883Y-56408943D01*
X48237673Y-56672192D01*
X48581201Y-56814838D01*
X48953167Y-56815162D01*
X49296943Y-56673117D01*
X49397067Y-56573167D01*
X61040838Y-56573167D01*
X61182883Y-56916943D01*
X61445673Y-57180192D01*
X61789201Y-57322838D01*
X62161167Y-57323162D01*
X62504943Y-57181117D01*
X62768192Y-56918327D01*
X62910838Y-56574799D01*
X62911162Y-56202833D01*
X62769117Y-55859057D01*
X62506327Y-55595808D01*
X62162799Y-55453162D01*
X61790833Y-55452838D01*
X61447057Y-55594883D01*
X61183808Y-55857673D01*
X61041162Y-56201201D01*
X61040838Y-56573167D01*
X49397067Y-56573167D01*
X49560192Y-56410327D01*
X49702838Y-56066799D01*
X49703162Y-55694833D01*
X49561117Y-55351057D01*
X49513311Y-55303167D01*
X50372838Y-55303167D01*
X50514883Y-55646943D01*
X50777673Y-55910192D01*
X51121201Y-56052838D01*
X51493167Y-56053162D01*
X51836943Y-55911117D01*
X52100192Y-55648327D01*
X52138045Y-55557167D01*
X57992838Y-55557167D01*
X58134883Y-55900943D01*
X58397673Y-56164192D01*
X58741201Y-56306838D01*
X59113167Y-56307162D01*
X59456943Y-56165117D01*
X59720192Y-55902327D01*
X59862838Y-55558799D01*
X59863162Y-55186833D01*
X59721117Y-54843057D01*
X59458327Y-54579808D01*
X59114799Y-54437162D01*
X58742833Y-54436838D01*
X58399057Y-54578883D01*
X58135808Y-54841673D01*
X57993162Y-55185201D01*
X57992838Y-55557167D01*
X52138045Y-55557167D01*
X52242838Y-55304799D01*
X52243162Y-54932833D01*
X52101117Y-54589057D01*
X51838327Y-54325808D01*
X51494799Y-54183162D01*
X51122833Y-54182838D01*
X50779057Y-54324883D01*
X50515808Y-54587673D01*
X50373162Y-54931201D01*
X50372838Y-55303167D01*
X49513311Y-55303167D01*
X49298327Y-55087808D01*
X48954799Y-54945162D01*
X48582833Y-54944838D01*
X48239057Y-55086883D01*
X47975808Y-55349673D01*
X47833162Y-55693201D01*
X47832838Y-56065167D01*
X46598280Y-56065167D01*
X46521617Y-55879629D01*
X46654838Y-55558799D01*
X46655162Y-55186833D01*
X46513117Y-54843057D01*
X46250327Y-54579808D01*
X45906799Y-54437162D01*
X45534833Y-54436838D01*
X45191057Y-54578883D01*
X44927808Y-54841673D01*
X44785162Y-55185201D01*
X44784838Y-55557167D01*
X37013270Y-55557167D01*
X36762799Y-55453162D01*
X36390833Y-55452838D01*
X36047057Y-55594883D01*
X35783808Y-55857673D01*
X35641162Y-56201201D01*
X35640838Y-56573167D01*
X17923227Y-56573167D01*
X18100139Y-56396255D01*
X18026005Y-56150136D01*
X17967746Y-56129195D01*
X18083800Y-56081243D01*
X18487824Y-55677923D01*
X18706750Y-55150691D01*
X18707248Y-54579813D01*
X18489243Y-54052200D01*
X18085923Y-53648176D01*
X17955785Y-53594138D01*
X18083800Y-53541243D01*
X18487824Y-53137923D01*
X18537966Y-53017167D01*
X22940838Y-53017167D01*
X23082883Y-53360943D01*
X23345673Y-53624192D01*
X23689201Y-53766838D01*
X24061167Y-53767162D01*
X24404943Y-53625117D01*
X24668192Y-53362327D01*
X24810838Y-53018799D01*
X24810839Y-53017167D01*
X29544838Y-53017167D01*
X29686883Y-53360943D01*
X29949673Y-53624192D01*
X30293201Y-53766838D01*
X30665167Y-53767162D01*
X31008943Y-53625117D01*
X31109067Y-53525167D01*
X41228838Y-53525167D01*
X41370883Y-53868943D01*
X41633673Y-54132192D01*
X41977201Y-54274838D01*
X42349167Y-54275162D01*
X42692943Y-54133117D01*
X42956192Y-53870327D01*
X43098838Y-53526799D01*
X43098839Y-53525167D01*
X44276838Y-53525167D01*
X44418883Y-53868943D01*
X44681673Y-54132192D01*
X45025201Y-54274838D01*
X45397167Y-54275162D01*
X45740943Y-54133117D01*
X46004192Y-53870327D01*
X46146838Y-53526799D01*
X46146839Y-53525167D01*
X63072838Y-53525167D01*
X63214883Y-53868943D01*
X63477673Y-54132192D01*
X63821201Y-54274838D01*
X64193167Y-54275162D01*
X64536943Y-54133117D01*
X64800192Y-53870327D01*
X64942838Y-53526799D01*
X64943162Y-53154833D01*
X64801117Y-52811057D01*
X64538327Y-52547808D01*
X64194799Y-52405162D01*
X63822833Y-52404838D01*
X63479057Y-52546883D01*
X63215808Y-52809673D01*
X63073162Y-53153201D01*
X63072838Y-53525167D01*
X46146839Y-53525167D01*
X46147162Y-53154833D01*
X46005117Y-52811057D01*
X45742327Y-52547808D01*
X45398799Y-52405162D01*
X45026833Y-52404838D01*
X44683057Y-52546883D01*
X44419808Y-52809673D01*
X44277162Y-53153201D01*
X44276838Y-53525167D01*
X43098839Y-53525167D01*
X43099162Y-53154833D01*
X42957117Y-52811057D01*
X42694327Y-52547808D01*
X42350799Y-52405162D01*
X41978833Y-52404838D01*
X41635057Y-52546883D01*
X41371808Y-52809673D01*
X41229162Y-53153201D01*
X41228838Y-53525167D01*
X31109067Y-53525167D01*
X31272192Y-53362327D01*
X31414838Y-53018799D01*
X31415162Y-52646833D01*
X31273117Y-52303057D01*
X31010327Y-52039808D01*
X30917270Y-52001167D01*
X49864838Y-52001167D01*
X50006883Y-52344943D01*
X50269673Y-52608192D01*
X50613201Y-52750838D01*
X50985167Y-52751162D01*
X51328943Y-52609117D01*
X51592192Y-52346327D01*
X51734838Y-52002799D01*
X51734839Y-52001167D01*
X57992838Y-52001167D01*
X58134883Y-52344943D01*
X58397673Y-52608192D01*
X58741201Y-52750838D01*
X59113167Y-52751162D01*
X59456943Y-52609117D01*
X59720192Y-52346327D01*
X59862838Y-52002799D01*
X59863162Y-51630833D01*
X59721117Y-51287057D01*
X59458327Y-51023808D01*
X59114799Y-50881162D01*
X58742833Y-50880838D01*
X58399057Y-51022883D01*
X58135808Y-51285673D01*
X57993162Y-51629201D01*
X57992838Y-52001167D01*
X51734839Y-52001167D01*
X51735162Y-51630833D01*
X51593117Y-51287057D01*
X51330327Y-51023808D01*
X50986799Y-50881162D01*
X50614833Y-50880838D01*
X50271057Y-51022883D01*
X50007808Y-51285673D01*
X49865162Y-51629201D01*
X49864838Y-52001167D01*
X30917270Y-52001167D01*
X30666799Y-51897162D01*
X30294833Y-51896838D01*
X29951057Y-52038883D01*
X29687808Y-52301673D01*
X29545162Y-52645201D01*
X29544838Y-53017167D01*
X24810839Y-53017167D01*
X24811162Y-52646833D01*
X24669117Y-52303057D01*
X24406327Y-52039808D01*
X24062799Y-51897162D01*
X23690833Y-51896838D01*
X23347057Y-52038883D01*
X23083808Y-52301673D01*
X22941162Y-52645201D01*
X22940838Y-53017167D01*
X18537966Y-53017167D01*
X18706750Y-52610691D01*
X18707248Y-52039813D01*
X18489243Y-51512200D01*
X18085923Y-51108176D01*
X17789685Y-50985167D01*
X38180838Y-50985167D01*
X38322883Y-51328943D01*
X38585673Y-51592192D01*
X38929201Y-51734838D01*
X39301167Y-51735162D01*
X39644943Y-51593117D01*
X39908192Y-51330327D01*
X40050838Y-50986799D01*
X40050839Y-50985167D01*
X46816838Y-50985167D01*
X46958883Y-51328943D01*
X47221673Y-51592192D01*
X47565201Y-51734838D01*
X47937167Y-51735162D01*
X48280943Y-51593117D01*
X48544192Y-51330327D01*
X48686838Y-50986799D01*
X48687162Y-50614833D01*
X48618598Y-50448895D01*
X48745673Y-50576192D01*
X49089201Y-50718838D01*
X49461167Y-50719162D01*
X49804943Y-50577117D01*
X50068192Y-50314327D01*
X50210838Y-49970799D01*
X50210839Y-49969167D01*
X57484838Y-49969167D01*
X57626883Y-50312943D01*
X57889673Y-50576192D01*
X58233201Y-50718838D01*
X58605167Y-50719162D01*
X58948943Y-50577117D01*
X59212192Y-50314327D01*
X59354838Y-49970799D01*
X59355162Y-49598833D01*
X59213117Y-49255057D01*
X58950327Y-48991808D01*
X58606799Y-48849162D01*
X58234833Y-48848838D01*
X57891057Y-48990883D01*
X57627808Y-49253673D01*
X57485162Y-49597201D01*
X57484838Y-49969167D01*
X50210839Y-49969167D01*
X50211162Y-49598833D01*
X50069117Y-49255057D01*
X49806327Y-48991808D01*
X49462799Y-48849162D01*
X49090833Y-48848838D01*
X48747057Y-48990883D01*
X48483808Y-49253673D01*
X48341162Y-49597201D01*
X48340838Y-49969167D01*
X48409402Y-50135105D01*
X48282327Y-50007808D01*
X47938799Y-49865162D01*
X47566833Y-49864838D01*
X47223057Y-50006883D01*
X46959808Y-50269673D01*
X46817162Y-50613201D01*
X46816838Y-50985167D01*
X40050839Y-50985167D01*
X40051162Y-50614833D01*
X39909117Y-50271057D01*
X39646327Y-50007808D01*
X39553270Y-49969167D01*
X40212838Y-49969167D01*
X40354883Y-50312943D01*
X40617673Y-50576192D01*
X40961201Y-50718838D01*
X41333167Y-50719162D01*
X41676943Y-50577117D01*
X41940192Y-50314327D01*
X42082838Y-49970799D01*
X42083162Y-49598833D01*
X41941117Y-49255057D01*
X41678327Y-48991808D01*
X41334799Y-48849162D01*
X40962833Y-48848838D01*
X40619057Y-48990883D01*
X40355808Y-49253673D01*
X40213162Y-49597201D01*
X40212838Y-49969167D01*
X39553270Y-49969167D01*
X39302799Y-49865162D01*
X38930833Y-49864838D01*
X38587057Y-50006883D01*
X38323808Y-50269673D01*
X38181162Y-50613201D01*
X38180838Y-50985167D01*
X17789685Y-50985167D01*
X17558691Y-50889250D01*
X16987813Y-50888752D01*
X16460200Y-51106757D01*
X16056176Y-51510077D01*
X15875000Y-51946397D01*
X15875000Y-48759745D01*
X16443861Y-48759745D01*
X16517995Y-49005864D01*
X17055223Y-49198965D01*
X17625454Y-49171778D01*
X18026005Y-49005864D01*
X18100139Y-48759745D01*
X17272000Y-47931605D01*
X16443861Y-48759745D01*
X15875000Y-48759745D01*
X15875000Y-48160445D01*
X16018136Y-48506005D01*
X16264255Y-48580139D01*
X17092395Y-47752000D01*
X17451605Y-47752000D01*
X18279745Y-48580139D01*
X18525864Y-48506005D01*
X18718965Y-47968777D01*
X18691778Y-47398546D01*
X18525864Y-46997995D01*
X18279745Y-46923861D01*
X17451605Y-47752000D01*
X17092395Y-47752000D01*
X16264255Y-46923861D01*
X16018136Y-46997995D01*
X15875000Y-47396215D01*
X15875000Y-45588754D01*
X16054757Y-46023800D01*
X16458077Y-46427824D01*
X16572768Y-46475448D01*
X16517995Y-46498136D01*
X16443861Y-46744255D01*
X17272000Y-47572395D01*
X18100139Y-46744255D01*
X18026005Y-46498136D01*
X17967746Y-46477195D01*
X18083800Y-46429243D01*
X18487824Y-46025923D01*
X18537966Y-45905167D01*
X31576838Y-45905167D01*
X31718883Y-46248943D01*
X31981673Y-46512192D01*
X32325201Y-46654838D01*
X32697167Y-46655162D01*
X33040943Y-46513117D01*
X33304192Y-46250327D01*
X33446838Y-45906799D01*
X33447162Y-45534833D01*
X33390280Y-45397167D01*
X46308838Y-45397167D01*
X46450883Y-45740943D01*
X46713673Y-46004192D01*
X47057201Y-46146838D01*
X47429167Y-46147162D01*
X47772943Y-46005117D01*
X48036192Y-45742327D01*
X48178838Y-45398799D01*
X48179162Y-45026833D01*
X48037117Y-44683057D01*
X47774327Y-44419808D01*
X47430799Y-44277162D01*
X47058833Y-44276838D01*
X46715057Y-44418883D01*
X46451808Y-44681673D01*
X46309162Y-45025201D01*
X46308838Y-45397167D01*
X33390280Y-45397167D01*
X33305117Y-45191057D01*
X33042327Y-44927808D01*
X32698799Y-44785162D01*
X32326833Y-44784838D01*
X31983057Y-44926883D01*
X31719808Y-45189673D01*
X31577162Y-45533201D01*
X31576838Y-45905167D01*
X18537966Y-45905167D01*
X18706750Y-45498691D01*
X18707248Y-44927813D01*
X18489243Y-44400200D01*
X18085923Y-43996176D01*
X17955785Y-43942138D01*
X18083800Y-43889243D01*
X18099904Y-43873167D01*
X49356838Y-43873167D01*
X49498883Y-44216943D01*
X49761673Y-44480192D01*
X50105201Y-44622838D01*
X50477167Y-44623162D01*
X50820943Y-44481117D01*
X51084192Y-44218327D01*
X51226838Y-43874799D01*
X51227162Y-43502833D01*
X51085117Y-43159057D01*
X50822327Y-42895808D01*
X50478799Y-42753162D01*
X50106833Y-42752838D01*
X49763057Y-42894883D01*
X49499808Y-43157673D01*
X49357162Y-43501201D01*
X49356838Y-43873167D01*
X18099904Y-43873167D01*
X18487824Y-43485923D01*
X18706750Y-42958691D01*
X18707248Y-42387813D01*
X18489243Y-41860200D01*
X18085923Y-41456176D01*
X17971232Y-41408552D01*
X18026005Y-41385864D01*
X18041877Y-41333167D01*
X53420838Y-41333167D01*
X53562883Y-41676943D01*
X53825673Y-41940192D01*
X54169201Y-42082838D01*
X54541167Y-42083162D01*
X54884943Y-41941117D01*
X55148192Y-41678327D01*
X55290838Y-41334799D01*
X55291162Y-40962833D01*
X55149117Y-40619057D01*
X54886327Y-40355808D01*
X54542799Y-40213162D01*
X54170833Y-40212838D01*
X53827057Y-40354883D01*
X53563808Y-40617673D01*
X53421162Y-40961201D01*
X53420838Y-41333167D01*
X18041877Y-41333167D01*
X18100139Y-41139745D01*
X17272000Y-40311605D01*
X16443861Y-41139745D01*
X16517995Y-41385864D01*
X16576254Y-41406805D01*
X16460200Y-41454757D01*
X16056176Y-41858077D01*
X15875000Y-42294397D01*
X15875000Y-40540445D01*
X16018136Y-40886005D01*
X16264255Y-40960139D01*
X17092395Y-40132000D01*
X17451605Y-40132000D01*
X18279745Y-40960139D01*
X18525864Y-40886005D01*
X18718965Y-40348777D01*
X18691778Y-39778546D01*
X18525864Y-39377995D01*
X18279745Y-39303861D01*
X17451605Y-40132000D01*
X17092395Y-40132000D01*
X16264255Y-39303861D01*
X16018136Y-39377995D01*
X15875000Y-39776215D01*
X15875000Y-37968754D01*
X16054757Y-38403800D01*
X16458077Y-38807824D01*
X16572768Y-38855448D01*
X16517995Y-38878136D01*
X16443861Y-39124255D01*
X17272000Y-39952395D01*
X18100139Y-39124255D01*
X18026005Y-38878136D01*
X17967746Y-38857195D01*
X18083800Y-38809243D01*
X18487824Y-38405923D01*
X18706750Y-37878691D01*
X18707143Y-37427599D01*
X52112699Y-37427599D01*
X52376281Y-38065515D01*
X52863918Y-38554004D01*
X53501373Y-38818699D01*
X54191599Y-38819301D01*
X54829515Y-38555719D01*
X55318004Y-38068082D01*
X55582699Y-37430627D01*
X55583301Y-36740401D01*
X55319719Y-36102485D01*
X54832082Y-35613996D01*
X54194627Y-35349301D01*
X53504401Y-35348699D01*
X52866485Y-35612281D01*
X52377996Y-36099918D01*
X52113301Y-36737373D01*
X52112699Y-37427599D01*
X18707143Y-37427599D01*
X18707248Y-37307813D01*
X18489243Y-36780200D01*
X18085923Y-36376176D01*
X17955785Y-36322138D01*
X18083800Y-36269243D01*
X18487824Y-35865923D01*
X18706750Y-35338691D01*
X18707248Y-34767813D01*
X18489243Y-34240200D01*
X18085923Y-33836176D01*
X17770016Y-33705000D01*
X65913000Y-33705000D01*
X65913000Y-42536309D01*
M02*
