G04 #@! TF.FileFunction,Soldermask,Bot*
%FSLAX46Y46*%
G04 Gerber Fmt 4.6, Leading zero omitted, Abs format (unit mm)*
G04 Created by KiCad (PCBNEW 4.0.2-stable) date 1/20/2017 4:09:41 PM*
%MOMM*%
G01*
G04 APERTURE LIST*
%ADD10C,0.100000*%
%ADD11C,1.600000*%
%ADD12C,2.000000*%
%ADD13C,2.200000*%
G04 APERTURE END LIST*
D10*
D11*
X36068000Y-81788000D03*
X33528000Y-81788000D03*
X30988000Y-81788000D03*
X28448000Y-81788000D03*
X25908000Y-81788000D03*
X23368000Y-81788000D03*
D12*
X72136000Y-46132000D03*
X67436000Y-43132000D03*
X72136000Y-40132000D03*
D11*
X17272000Y-47752000D03*
X17272000Y-45212000D03*
X17272000Y-42672000D03*
X17272000Y-40132000D03*
X17272000Y-37592000D03*
X17272000Y-35052000D03*
X17272000Y-65024000D03*
X17272000Y-62484000D03*
X17272000Y-59944000D03*
X17272000Y-57404000D03*
X17272000Y-54864000D03*
X17272000Y-52324000D03*
X17145000Y-82550000D03*
X17145000Y-80010000D03*
X17145000Y-77470000D03*
X17145000Y-74930000D03*
X17145000Y-72390000D03*
X17145000Y-69850000D03*
X73660000Y-77724000D03*
X73660000Y-80264000D03*
X73660000Y-82804000D03*
X73660000Y-59944000D03*
X73660000Y-62484000D03*
X73660000Y-65024000D03*
X73660000Y-67564000D03*
X73660000Y-70104000D03*
X73660000Y-72644000D03*
X73660000Y-75184000D03*
D13*
X67310000Y-64262000D03*
X29464000Y-63754000D03*
X53848000Y-37084000D03*
M02*
