G04 #@! TF.FileFunction,Copper,L2,Inr,Plane*
%FSLAX46Y46*%
G04 Gerber Fmt 4.6, Leading zero omitted, Abs format (unit mm)*
G04 Created by KiCad (PCBNEW 4.0.2-stable) date 1/20/2017 4:09:41 PM*
%MOMM*%
G01*
G04 APERTURE LIST*
%ADD10C,0.100000*%
%ADD11C,1.600000*%
%ADD12C,2.000000*%
%ADD13C,0.600000*%
%ADD14C,0.254000*%
G04 APERTURE END LIST*
D10*
D11*
X36068000Y-81788000D03*
X33528000Y-81788000D03*
X30988000Y-81788000D03*
X28448000Y-81788000D03*
X25908000Y-81788000D03*
X23368000Y-81788000D03*
D12*
X72136000Y-46132000D03*
X67436000Y-43132000D03*
X72136000Y-40132000D03*
D11*
X17272000Y-47752000D03*
X17272000Y-45212000D03*
X17272000Y-42672000D03*
X17272000Y-40132000D03*
X17272000Y-37592000D03*
X17272000Y-35052000D03*
X17272000Y-65024000D03*
X17272000Y-62484000D03*
X17272000Y-59944000D03*
X17272000Y-57404000D03*
X17272000Y-54864000D03*
X17272000Y-52324000D03*
X17145000Y-82550000D03*
X17145000Y-80010000D03*
X17145000Y-77470000D03*
X17145000Y-74930000D03*
X17145000Y-72390000D03*
X17145000Y-69850000D03*
X73660000Y-77724000D03*
X73660000Y-80264000D03*
X73660000Y-82804000D03*
X73660000Y-59944000D03*
X73660000Y-62484000D03*
X73660000Y-65024000D03*
X73660000Y-67564000D03*
X73660000Y-70104000D03*
X73660000Y-72644000D03*
X73660000Y-75184000D03*
D13*
X37084000Y-46228000D03*
X46736000Y-62484000D03*
X55880000Y-62992000D03*
X40640000Y-58420000D03*
X54356000Y-41148000D03*
X58420000Y-49784000D03*
X64008000Y-53340000D03*
X42164000Y-53340000D03*
X41656000Y-58420000D03*
X47244000Y-45212000D03*
X36068000Y-66040000D03*
X32512000Y-45720000D03*
X64516000Y-62992000D03*
X25400000Y-64262000D03*
X28448000Y-71374000D03*
X51308000Y-55118000D03*
X59436000Y-70104000D03*
X27940000Y-75184000D03*
X35052000Y-75184000D03*
X45720000Y-70612000D03*
X28956000Y-69596000D03*
X24638000Y-69596000D03*
X31496000Y-59436000D03*
X58928000Y-55372000D03*
X50292000Y-43688000D03*
X41148000Y-49784000D03*
X49276000Y-49784000D03*
X47752000Y-50800000D03*
X39116000Y-50800000D03*
X42164000Y-61976000D03*
X48768000Y-67056000D03*
X44704000Y-58420000D03*
X41656000Y-67056000D03*
X37084000Y-57404000D03*
X36576000Y-56388000D03*
X71120000Y-76708000D03*
X68580000Y-75692000D03*
X62484000Y-74168000D03*
X68580000Y-74168000D03*
X62992000Y-78740000D03*
X62484000Y-75184000D03*
X62484000Y-77724000D03*
X61976000Y-56388000D03*
X45212000Y-53340000D03*
X29972000Y-58420000D03*
X40640000Y-57404000D03*
X30480000Y-52832000D03*
X23876000Y-52832000D03*
X60452000Y-61976000D03*
X56388000Y-61976000D03*
X45720000Y-56388000D03*
X58420000Y-60960000D03*
X64516000Y-67056000D03*
X48768000Y-55880000D03*
X45720000Y-55372000D03*
X62992000Y-66548000D03*
X58928000Y-51816000D03*
X50800000Y-51816000D03*
X57912000Y-75184000D03*
X58420000Y-70104000D03*
X58928000Y-80772000D03*
X65532000Y-78232000D03*
D14*
G36*
X70500716Y-40455795D02*
X70749106Y-41056943D01*
X71208637Y-41517278D01*
X71809352Y-41766716D01*
X72459795Y-41767284D01*
X73060943Y-41518894D01*
X73521278Y-41059363D01*
X73770716Y-40458648D01*
X73770890Y-40259000D01*
X75057000Y-40259000D01*
X75057000Y-59567246D01*
X74877243Y-59132200D01*
X74473923Y-58728176D01*
X73946691Y-58509250D01*
X73375813Y-58508752D01*
X72848200Y-58726757D01*
X72444176Y-59130077D01*
X72225250Y-59657309D01*
X72224752Y-60228187D01*
X72442757Y-60755800D01*
X72846077Y-61159824D01*
X72960768Y-61207448D01*
X72905995Y-61230136D01*
X72831861Y-61476255D01*
X73660000Y-62304395D01*
X74488139Y-61476255D01*
X74414005Y-61230136D01*
X74355746Y-61209195D01*
X74471800Y-61161243D01*
X74875824Y-60757923D01*
X75057000Y-60321603D01*
X75057000Y-62075555D01*
X74913864Y-61729995D01*
X74667745Y-61655861D01*
X73839605Y-62484000D01*
X74667745Y-63312139D01*
X74913864Y-63238005D01*
X75057000Y-62839785D01*
X75057000Y-63881000D01*
X74546620Y-63881000D01*
X74473923Y-63808176D01*
X74359232Y-63760552D01*
X74414005Y-63737864D01*
X74488139Y-63491745D01*
X73660000Y-62663605D01*
X72831861Y-63491745D01*
X72905995Y-63737864D01*
X72964254Y-63758805D01*
X72848200Y-63806757D01*
X72773827Y-63881000D01*
X69029847Y-63881000D01*
X68781719Y-63280485D01*
X68707000Y-63205635D01*
X68707000Y-62267223D01*
X72213035Y-62267223D01*
X72240222Y-62837454D01*
X72406136Y-63238005D01*
X72652255Y-63312139D01*
X73480395Y-62484000D01*
X72652255Y-61655861D01*
X72406136Y-61729995D01*
X72213035Y-62267223D01*
X68707000Y-62267223D01*
X68707000Y-50292000D01*
X68696994Y-50242590D01*
X68668553Y-50200965D01*
X68626159Y-50173685D01*
X68580000Y-50165000D01*
X63119000Y-50165000D01*
X63119000Y-47284532D01*
X71163073Y-47284532D01*
X71261736Y-47551387D01*
X71871461Y-47777908D01*
X72521460Y-47753856D01*
X73010264Y-47551387D01*
X73108927Y-47284532D01*
X72136000Y-46311605D01*
X71163073Y-47284532D01*
X63119000Y-47284532D01*
X63119000Y-45867461D01*
X70490092Y-45867461D01*
X70514144Y-46517460D01*
X70716613Y-47006264D01*
X70983468Y-47104927D01*
X71956395Y-46132000D01*
X72315605Y-46132000D01*
X73288532Y-47104927D01*
X73555387Y-47006264D01*
X73781908Y-46396539D01*
X73757856Y-45746540D01*
X73555387Y-45257736D01*
X73288532Y-45159073D01*
X72315605Y-46132000D01*
X71956395Y-46132000D01*
X70983468Y-45159073D01*
X70716613Y-45257736D01*
X70490092Y-45867461D01*
X63119000Y-45867461D01*
X63119000Y-44979468D01*
X71163073Y-44979468D01*
X72136000Y-45952395D01*
X73108927Y-44979468D01*
X73010264Y-44712613D01*
X72400539Y-44486092D01*
X71750540Y-44510144D01*
X71261736Y-44712613D01*
X71163073Y-44979468D01*
X63119000Y-44979468D01*
X63119000Y-43455795D01*
X65800716Y-43455795D01*
X66049106Y-44056943D01*
X66508637Y-44517278D01*
X67109352Y-44766716D01*
X67759795Y-44767284D01*
X68360943Y-44518894D01*
X68821278Y-44059363D01*
X69070716Y-43458648D01*
X69071284Y-42808205D01*
X68822894Y-42207057D01*
X68363363Y-41746722D01*
X67762648Y-41497284D01*
X67112205Y-41496716D01*
X66511057Y-41745106D01*
X66050722Y-42204637D01*
X65801284Y-42805352D01*
X65800716Y-43455795D01*
X63119000Y-43455795D01*
X63119000Y-40259000D01*
X70500888Y-40259000D01*
X70500716Y-40455795D01*
X70500716Y-40455795D01*
G37*
X70500716Y-40455795D02*
X70749106Y-41056943D01*
X71208637Y-41517278D01*
X71809352Y-41766716D01*
X72459795Y-41767284D01*
X73060943Y-41518894D01*
X73521278Y-41059363D01*
X73770716Y-40458648D01*
X73770890Y-40259000D01*
X75057000Y-40259000D01*
X75057000Y-59567246D01*
X74877243Y-59132200D01*
X74473923Y-58728176D01*
X73946691Y-58509250D01*
X73375813Y-58508752D01*
X72848200Y-58726757D01*
X72444176Y-59130077D01*
X72225250Y-59657309D01*
X72224752Y-60228187D01*
X72442757Y-60755800D01*
X72846077Y-61159824D01*
X72960768Y-61207448D01*
X72905995Y-61230136D01*
X72831861Y-61476255D01*
X73660000Y-62304395D01*
X74488139Y-61476255D01*
X74414005Y-61230136D01*
X74355746Y-61209195D01*
X74471800Y-61161243D01*
X74875824Y-60757923D01*
X75057000Y-60321603D01*
X75057000Y-62075555D01*
X74913864Y-61729995D01*
X74667745Y-61655861D01*
X73839605Y-62484000D01*
X74667745Y-63312139D01*
X74913864Y-63238005D01*
X75057000Y-62839785D01*
X75057000Y-63881000D01*
X74546620Y-63881000D01*
X74473923Y-63808176D01*
X74359232Y-63760552D01*
X74414005Y-63737864D01*
X74488139Y-63491745D01*
X73660000Y-62663605D01*
X72831861Y-63491745D01*
X72905995Y-63737864D01*
X72964254Y-63758805D01*
X72848200Y-63806757D01*
X72773827Y-63881000D01*
X69029847Y-63881000D01*
X68781719Y-63280485D01*
X68707000Y-63205635D01*
X68707000Y-62267223D01*
X72213035Y-62267223D01*
X72240222Y-62837454D01*
X72406136Y-63238005D01*
X72652255Y-63312139D01*
X73480395Y-62484000D01*
X72652255Y-61655861D01*
X72406136Y-61729995D01*
X72213035Y-62267223D01*
X68707000Y-62267223D01*
X68707000Y-50292000D01*
X68696994Y-50242590D01*
X68668553Y-50200965D01*
X68626159Y-50173685D01*
X68580000Y-50165000D01*
X63119000Y-50165000D01*
X63119000Y-47284532D01*
X71163073Y-47284532D01*
X71261736Y-47551387D01*
X71871461Y-47777908D01*
X72521460Y-47753856D01*
X73010264Y-47551387D01*
X73108927Y-47284532D01*
X72136000Y-46311605D01*
X71163073Y-47284532D01*
X63119000Y-47284532D01*
X63119000Y-45867461D01*
X70490092Y-45867461D01*
X70514144Y-46517460D01*
X70716613Y-47006264D01*
X70983468Y-47104927D01*
X71956395Y-46132000D01*
X72315605Y-46132000D01*
X73288532Y-47104927D01*
X73555387Y-47006264D01*
X73781908Y-46396539D01*
X73757856Y-45746540D01*
X73555387Y-45257736D01*
X73288532Y-45159073D01*
X72315605Y-46132000D01*
X71956395Y-46132000D01*
X70983468Y-45159073D01*
X70716613Y-45257736D01*
X70490092Y-45867461D01*
X63119000Y-45867461D01*
X63119000Y-44979468D01*
X71163073Y-44979468D01*
X72136000Y-45952395D01*
X73108927Y-44979468D01*
X73010264Y-44712613D01*
X72400539Y-44486092D01*
X71750540Y-44510144D01*
X71261736Y-44712613D01*
X71163073Y-44979468D01*
X63119000Y-44979468D01*
X63119000Y-43455795D01*
X65800716Y-43455795D01*
X66049106Y-44056943D01*
X66508637Y-44517278D01*
X67109352Y-44766716D01*
X67759795Y-44767284D01*
X68360943Y-44518894D01*
X68821278Y-44059363D01*
X69070716Y-43458648D01*
X69071284Y-42808205D01*
X68822894Y-42207057D01*
X68363363Y-41746722D01*
X67762648Y-41497284D01*
X67112205Y-41496716D01*
X66511057Y-41745106D01*
X66050722Y-42204637D01*
X65801284Y-42805352D01*
X65800716Y-43455795D01*
X63119000Y-43455795D01*
X63119000Y-40259000D01*
X70500888Y-40259000D01*
X70500716Y-40455795D01*
G36*
X62357000Y-50800000D02*
X62367006Y-50849410D01*
X62395447Y-50891035D01*
X62437841Y-50918315D01*
X62484000Y-50927000D01*
X67945000Y-50927000D01*
X67945000Y-56261000D01*
X62911111Y-56261000D01*
X62911162Y-56202833D01*
X62769117Y-55859057D01*
X62611000Y-55700664D01*
X62611000Y-52832000D01*
X62600994Y-52782590D01*
X62572553Y-52740965D01*
X62530159Y-52713685D01*
X62484000Y-52705000D01*
X59224888Y-52705000D01*
X59456943Y-52609117D01*
X59720192Y-52346327D01*
X59862838Y-52002799D01*
X59863162Y-51630833D01*
X59721117Y-51287057D01*
X59458327Y-51023808D01*
X59114799Y-50881162D01*
X58742833Y-50880838D01*
X58399057Y-51022883D01*
X58135808Y-51285673D01*
X57993162Y-51629201D01*
X57992838Y-52001167D01*
X58134883Y-52344943D01*
X58397673Y-52608192D01*
X58630811Y-52705000D01*
X51096888Y-52705000D01*
X51328943Y-52609117D01*
X51592192Y-52346327D01*
X51734838Y-52002799D01*
X51735162Y-51630833D01*
X51593117Y-51287057D01*
X51330327Y-51023808D01*
X50986799Y-50881162D01*
X50614833Y-50880838D01*
X50271057Y-51022883D01*
X50007808Y-51285673D01*
X49865162Y-51629201D01*
X49864838Y-52001167D01*
X50006883Y-52344943D01*
X50269673Y-52608192D01*
X50502811Y-52705000D01*
X49784000Y-52705000D01*
X49734590Y-52715006D01*
X49692965Y-52743447D01*
X49665685Y-52785841D01*
X49657000Y-52832000D01*
X49657000Y-54737000D01*
X46407245Y-54737000D01*
X46250327Y-54579808D01*
X45906799Y-54437162D01*
X45534833Y-54436838D01*
X45191057Y-54578883D01*
X45032664Y-54737000D01*
X40767000Y-54737000D01*
X40767000Y-53525167D01*
X44276838Y-53525167D01*
X44418883Y-53868943D01*
X44681673Y-54132192D01*
X45025201Y-54274838D01*
X45397167Y-54275162D01*
X45740943Y-54133117D01*
X46004192Y-53870327D01*
X46146838Y-53526799D01*
X46147162Y-53154833D01*
X46005117Y-52811057D01*
X45742327Y-52547808D01*
X45398799Y-52405162D01*
X45026833Y-52404838D01*
X44683057Y-52546883D01*
X44419808Y-52809673D01*
X44277162Y-53153201D01*
X44276838Y-53525167D01*
X40767000Y-53525167D01*
X40767000Y-52832000D01*
X40756994Y-52782590D01*
X40728553Y-52740965D01*
X40686159Y-52713685D01*
X40640000Y-52705000D01*
X31415111Y-52705000D01*
X31415162Y-52646833D01*
X31273117Y-52303057D01*
X31010327Y-52039808D01*
X30666799Y-51897162D01*
X30294833Y-51896838D01*
X29951057Y-52038883D01*
X29687808Y-52301673D01*
X29545162Y-52645201D01*
X29545110Y-52705000D01*
X24811111Y-52705000D01*
X24811162Y-52646833D01*
X24669117Y-52303057D01*
X24406327Y-52039808D01*
X24062799Y-51897162D01*
X23690833Y-51896838D01*
X23347057Y-52038883D01*
X23083808Y-52301673D01*
X22941162Y-52645201D01*
X22941110Y-52705000D01*
X22479000Y-52705000D01*
X22479000Y-50985167D01*
X38180838Y-50985167D01*
X38322883Y-51328943D01*
X38585673Y-51592192D01*
X38929201Y-51734838D01*
X39301167Y-51735162D01*
X39644943Y-51593117D01*
X39908192Y-51330327D01*
X40050838Y-50986799D01*
X40050839Y-50985167D01*
X46816838Y-50985167D01*
X46958883Y-51328943D01*
X47221673Y-51592192D01*
X47565201Y-51734838D01*
X47937167Y-51735162D01*
X48280943Y-51593117D01*
X48544192Y-51330327D01*
X48686838Y-50986799D01*
X48687162Y-50614833D01*
X48618598Y-50448895D01*
X48745673Y-50576192D01*
X49089201Y-50718838D01*
X49461167Y-50719162D01*
X49804943Y-50577117D01*
X50068192Y-50314327D01*
X50210838Y-49970799D01*
X50211162Y-49598833D01*
X50069117Y-49255057D01*
X49806327Y-48991808D01*
X49462799Y-48849162D01*
X49090833Y-48848838D01*
X48747057Y-48990883D01*
X48483808Y-49253673D01*
X48341162Y-49597201D01*
X48340838Y-49969167D01*
X48409402Y-50135105D01*
X48282327Y-50007808D01*
X47938799Y-49865162D01*
X47566833Y-49864838D01*
X47223057Y-50006883D01*
X46959808Y-50269673D01*
X46817162Y-50613201D01*
X46816838Y-50985167D01*
X40050839Y-50985167D01*
X40051162Y-50614833D01*
X39909117Y-50271057D01*
X39646327Y-50007808D01*
X39553270Y-49969167D01*
X40212838Y-49969167D01*
X40354883Y-50312943D01*
X40617673Y-50576192D01*
X40961201Y-50718838D01*
X41333167Y-50719162D01*
X41676943Y-50577117D01*
X41940192Y-50314327D01*
X42082838Y-49970799D01*
X42083162Y-49598833D01*
X41941117Y-49255057D01*
X41678327Y-48991808D01*
X41334799Y-48849162D01*
X40962833Y-48848838D01*
X40619057Y-48990883D01*
X40355808Y-49253673D01*
X40213162Y-49597201D01*
X40212838Y-49969167D01*
X39553270Y-49969167D01*
X39302799Y-49865162D01*
X38930833Y-49864838D01*
X38587057Y-50006883D01*
X38323808Y-50269673D01*
X38181162Y-50613201D01*
X38180838Y-50985167D01*
X22479000Y-50985167D01*
X22479000Y-46413167D01*
X36148838Y-46413167D01*
X36290883Y-46756943D01*
X36553673Y-47020192D01*
X36897201Y-47162838D01*
X37269167Y-47163162D01*
X37612943Y-47021117D01*
X37876192Y-46758327D01*
X38018838Y-46414799D01*
X38019162Y-46042833D01*
X37877117Y-45699057D01*
X37614327Y-45435808D01*
X37270799Y-45293162D01*
X36898833Y-45292838D01*
X36555057Y-45434883D01*
X36291808Y-45697673D01*
X36149162Y-46041201D01*
X36148838Y-46413167D01*
X22479000Y-46413167D01*
X22479000Y-43873167D01*
X49356838Y-43873167D01*
X49498883Y-44216943D01*
X49761673Y-44480192D01*
X50105201Y-44622838D01*
X50477167Y-44623162D01*
X50820943Y-44481117D01*
X51084192Y-44218327D01*
X51226838Y-43874799D01*
X51227162Y-43502833D01*
X51085117Y-43159057D01*
X50822327Y-42895808D01*
X50478799Y-42753162D01*
X50106833Y-42752838D01*
X49763057Y-42894883D01*
X49499808Y-43157673D01*
X49357162Y-43501201D01*
X49356838Y-43873167D01*
X22479000Y-43873167D01*
X22479000Y-40259000D01*
X62357000Y-40259000D01*
X62357000Y-50800000D01*
X62357000Y-50800000D01*
G37*
X62357000Y-50800000D02*
X62367006Y-50849410D01*
X62395447Y-50891035D01*
X62437841Y-50918315D01*
X62484000Y-50927000D01*
X67945000Y-50927000D01*
X67945000Y-56261000D01*
X62911111Y-56261000D01*
X62911162Y-56202833D01*
X62769117Y-55859057D01*
X62611000Y-55700664D01*
X62611000Y-52832000D01*
X62600994Y-52782590D01*
X62572553Y-52740965D01*
X62530159Y-52713685D01*
X62484000Y-52705000D01*
X59224888Y-52705000D01*
X59456943Y-52609117D01*
X59720192Y-52346327D01*
X59862838Y-52002799D01*
X59863162Y-51630833D01*
X59721117Y-51287057D01*
X59458327Y-51023808D01*
X59114799Y-50881162D01*
X58742833Y-50880838D01*
X58399057Y-51022883D01*
X58135808Y-51285673D01*
X57993162Y-51629201D01*
X57992838Y-52001167D01*
X58134883Y-52344943D01*
X58397673Y-52608192D01*
X58630811Y-52705000D01*
X51096888Y-52705000D01*
X51328943Y-52609117D01*
X51592192Y-52346327D01*
X51734838Y-52002799D01*
X51735162Y-51630833D01*
X51593117Y-51287057D01*
X51330327Y-51023808D01*
X50986799Y-50881162D01*
X50614833Y-50880838D01*
X50271057Y-51022883D01*
X50007808Y-51285673D01*
X49865162Y-51629201D01*
X49864838Y-52001167D01*
X50006883Y-52344943D01*
X50269673Y-52608192D01*
X50502811Y-52705000D01*
X49784000Y-52705000D01*
X49734590Y-52715006D01*
X49692965Y-52743447D01*
X49665685Y-52785841D01*
X49657000Y-52832000D01*
X49657000Y-54737000D01*
X46407245Y-54737000D01*
X46250327Y-54579808D01*
X45906799Y-54437162D01*
X45534833Y-54436838D01*
X45191057Y-54578883D01*
X45032664Y-54737000D01*
X40767000Y-54737000D01*
X40767000Y-53525167D01*
X44276838Y-53525167D01*
X44418883Y-53868943D01*
X44681673Y-54132192D01*
X45025201Y-54274838D01*
X45397167Y-54275162D01*
X45740943Y-54133117D01*
X46004192Y-53870327D01*
X46146838Y-53526799D01*
X46147162Y-53154833D01*
X46005117Y-52811057D01*
X45742327Y-52547808D01*
X45398799Y-52405162D01*
X45026833Y-52404838D01*
X44683057Y-52546883D01*
X44419808Y-52809673D01*
X44277162Y-53153201D01*
X44276838Y-53525167D01*
X40767000Y-53525167D01*
X40767000Y-52832000D01*
X40756994Y-52782590D01*
X40728553Y-52740965D01*
X40686159Y-52713685D01*
X40640000Y-52705000D01*
X31415111Y-52705000D01*
X31415162Y-52646833D01*
X31273117Y-52303057D01*
X31010327Y-52039808D01*
X30666799Y-51897162D01*
X30294833Y-51896838D01*
X29951057Y-52038883D01*
X29687808Y-52301673D01*
X29545162Y-52645201D01*
X29545110Y-52705000D01*
X24811111Y-52705000D01*
X24811162Y-52646833D01*
X24669117Y-52303057D01*
X24406327Y-52039808D01*
X24062799Y-51897162D01*
X23690833Y-51896838D01*
X23347057Y-52038883D01*
X23083808Y-52301673D01*
X22941162Y-52645201D01*
X22941110Y-52705000D01*
X22479000Y-52705000D01*
X22479000Y-50985167D01*
X38180838Y-50985167D01*
X38322883Y-51328943D01*
X38585673Y-51592192D01*
X38929201Y-51734838D01*
X39301167Y-51735162D01*
X39644943Y-51593117D01*
X39908192Y-51330327D01*
X40050838Y-50986799D01*
X40050839Y-50985167D01*
X46816838Y-50985167D01*
X46958883Y-51328943D01*
X47221673Y-51592192D01*
X47565201Y-51734838D01*
X47937167Y-51735162D01*
X48280943Y-51593117D01*
X48544192Y-51330327D01*
X48686838Y-50986799D01*
X48687162Y-50614833D01*
X48618598Y-50448895D01*
X48745673Y-50576192D01*
X49089201Y-50718838D01*
X49461167Y-50719162D01*
X49804943Y-50577117D01*
X50068192Y-50314327D01*
X50210838Y-49970799D01*
X50211162Y-49598833D01*
X50069117Y-49255057D01*
X49806327Y-48991808D01*
X49462799Y-48849162D01*
X49090833Y-48848838D01*
X48747057Y-48990883D01*
X48483808Y-49253673D01*
X48341162Y-49597201D01*
X48340838Y-49969167D01*
X48409402Y-50135105D01*
X48282327Y-50007808D01*
X47938799Y-49865162D01*
X47566833Y-49864838D01*
X47223057Y-50006883D01*
X46959808Y-50269673D01*
X46817162Y-50613201D01*
X46816838Y-50985167D01*
X40050839Y-50985167D01*
X40051162Y-50614833D01*
X39909117Y-50271057D01*
X39646327Y-50007808D01*
X39553270Y-49969167D01*
X40212838Y-49969167D01*
X40354883Y-50312943D01*
X40617673Y-50576192D01*
X40961201Y-50718838D01*
X41333167Y-50719162D01*
X41676943Y-50577117D01*
X41940192Y-50314327D01*
X42082838Y-49970799D01*
X42083162Y-49598833D01*
X41941117Y-49255057D01*
X41678327Y-48991808D01*
X41334799Y-48849162D01*
X40962833Y-48848838D01*
X40619057Y-48990883D01*
X40355808Y-49253673D01*
X40213162Y-49597201D01*
X40212838Y-49969167D01*
X39553270Y-49969167D01*
X39302799Y-49865162D01*
X38930833Y-49864838D01*
X38587057Y-50006883D01*
X38323808Y-50269673D01*
X38181162Y-50613201D01*
X38180838Y-50985167D01*
X22479000Y-50985167D01*
X22479000Y-46413167D01*
X36148838Y-46413167D01*
X36290883Y-46756943D01*
X36553673Y-47020192D01*
X36897201Y-47162838D01*
X37269167Y-47163162D01*
X37612943Y-47021117D01*
X37876192Y-46758327D01*
X38018838Y-46414799D01*
X38019162Y-46042833D01*
X37877117Y-45699057D01*
X37614327Y-45435808D01*
X37270799Y-45293162D01*
X36898833Y-45292838D01*
X36555057Y-45434883D01*
X36291808Y-45697673D01*
X36149162Y-46041201D01*
X36148838Y-46413167D01*
X22479000Y-46413167D01*
X22479000Y-43873167D01*
X49356838Y-43873167D01*
X49498883Y-44216943D01*
X49761673Y-44480192D01*
X50105201Y-44622838D01*
X50477167Y-44623162D01*
X50820943Y-44481117D01*
X51084192Y-44218327D01*
X51226838Y-43874799D01*
X51227162Y-43502833D01*
X51085117Y-43159057D01*
X50822327Y-42895808D01*
X50478799Y-42753162D01*
X50106833Y-42752838D01*
X49763057Y-42894883D01*
X49499808Y-43157673D01*
X49357162Y-43501201D01*
X49356838Y-43873167D01*
X22479000Y-43873167D01*
X22479000Y-40259000D01*
X62357000Y-40259000D01*
X62357000Y-50800000D01*
G36*
X36553673Y-58196192D02*
X36897201Y-58338838D01*
X37269167Y-58339162D01*
X37612943Y-58197117D01*
X37771336Y-58039000D01*
X39785802Y-58039000D01*
X39705162Y-58233201D01*
X39704838Y-58605167D01*
X39846883Y-58948943D01*
X40109673Y-59212192D01*
X40453201Y-59354838D01*
X40825167Y-59355162D01*
X41168943Y-59213117D01*
X41432192Y-58950327D01*
X41574838Y-58606799D01*
X41575162Y-58234833D01*
X41494246Y-58039000D01*
X43849802Y-58039000D01*
X43769162Y-58233201D01*
X43768838Y-58605167D01*
X43910883Y-58948943D01*
X44173673Y-59212192D01*
X44517201Y-59354838D01*
X44889167Y-59355162D01*
X45085000Y-59274246D01*
X45085000Y-66929000D01*
X42591111Y-66929000D01*
X42591162Y-66870833D01*
X42449117Y-66527057D01*
X42186327Y-66263808D01*
X41842799Y-66121162D01*
X41470833Y-66120838D01*
X41127057Y-66262883D01*
X40863808Y-66525673D01*
X40721162Y-66869201D01*
X40721110Y-66929000D01*
X34671000Y-66929000D01*
X34671000Y-62161167D01*
X41228838Y-62161167D01*
X41370883Y-62504943D01*
X41633673Y-62768192D01*
X41977201Y-62910838D01*
X42349167Y-62911162D01*
X42692943Y-62769117D01*
X42956192Y-62506327D01*
X43098838Y-62162799D01*
X43099162Y-61790833D01*
X42957117Y-61447057D01*
X42694327Y-61183808D01*
X42350799Y-61041162D01*
X41978833Y-61040838D01*
X41635057Y-61182883D01*
X41371808Y-61445673D01*
X41229162Y-61789201D01*
X41228838Y-62161167D01*
X34671000Y-62161167D01*
X34671000Y-58039000D01*
X36396755Y-58039000D01*
X36553673Y-58196192D01*
X36553673Y-58196192D01*
G37*
X36553673Y-58196192D02*
X36897201Y-58338838D01*
X37269167Y-58339162D01*
X37612943Y-58197117D01*
X37771336Y-58039000D01*
X39785802Y-58039000D01*
X39705162Y-58233201D01*
X39704838Y-58605167D01*
X39846883Y-58948943D01*
X40109673Y-59212192D01*
X40453201Y-59354838D01*
X40825167Y-59355162D01*
X41168943Y-59213117D01*
X41432192Y-58950327D01*
X41574838Y-58606799D01*
X41575162Y-58234833D01*
X41494246Y-58039000D01*
X43849802Y-58039000D01*
X43769162Y-58233201D01*
X43768838Y-58605167D01*
X43910883Y-58948943D01*
X44173673Y-59212192D01*
X44517201Y-59354838D01*
X44889167Y-59355162D01*
X45085000Y-59274246D01*
X45085000Y-66929000D01*
X42591111Y-66929000D01*
X42591162Y-66870833D01*
X42449117Y-66527057D01*
X42186327Y-66263808D01*
X41842799Y-66121162D01*
X41470833Y-66120838D01*
X41127057Y-66262883D01*
X40863808Y-66525673D01*
X40721162Y-66869201D01*
X40721110Y-66929000D01*
X34671000Y-66929000D01*
X34671000Y-62161167D01*
X41228838Y-62161167D01*
X41370883Y-62504943D01*
X41633673Y-62768192D01*
X41977201Y-62910838D01*
X42349167Y-62911162D01*
X42692943Y-62769117D01*
X42956192Y-62506327D01*
X43098838Y-62162799D01*
X43099162Y-61790833D01*
X42957117Y-61447057D01*
X42694327Y-61183808D01*
X42350799Y-61041162D01*
X41978833Y-61040838D01*
X41635057Y-61182883D01*
X41371808Y-61445673D01*
X41229162Y-61789201D01*
X41228838Y-62161167D01*
X34671000Y-62161167D01*
X34671000Y-58039000D01*
X36396755Y-58039000D01*
X36553673Y-58196192D01*
G36*
X16517995Y-33798136D02*
X16443861Y-34044255D01*
X17272000Y-34872395D01*
X18100139Y-34044255D01*
X18026005Y-33798136D01*
X17766891Y-33705000D01*
X21209000Y-33705000D01*
X21209000Y-53340000D01*
X21219006Y-53389410D01*
X21247447Y-53431035D01*
X21289841Y-53458315D01*
X21336000Y-53467000D01*
X23188755Y-53467000D01*
X23345673Y-53624192D01*
X23689201Y-53766838D01*
X24061167Y-53767162D01*
X24404943Y-53625117D01*
X24563336Y-53467000D01*
X29792755Y-53467000D01*
X29949673Y-53624192D01*
X30293201Y-53766838D01*
X30665167Y-53767162D01*
X31008943Y-53625117D01*
X31167336Y-53467000D01*
X40005000Y-53467000D01*
X40005000Y-55372000D01*
X40015006Y-55421410D01*
X40043447Y-55463035D01*
X40085841Y-55490315D01*
X40132000Y-55499000D01*
X44784889Y-55499000D01*
X44784838Y-55557167D01*
X44918383Y-55880371D01*
X44785162Y-56201201D01*
X44784838Y-56573167D01*
X44865754Y-56769000D01*
X41327245Y-56769000D01*
X41170327Y-56611808D01*
X40826799Y-56469162D01*
X40454833Y-56468838D01*
X40111057Y-56610883D01*
X39952664Y-56769000D01*
X37771245Y-56769000D01*
X37614327Y-56611808D01*
X37510843Y-56568838D01*
X37511162Y-56202833D01*
X37369117Y-55859057D01*
X37106327Y-55595808D01*
X36762799Y-55453162D01*
X36390833Y-55452838D01*
X36047057Y-55594883D01*
X35783808Y-55857673D01*
X35641162Y-56201201D01*
X35640838Y-56573167D01*
X35721754Y-56769000D01*
X33528000Y-56769000D01*
X33478590Y-56779006D01*
X33436965Y-56807447D01*
X33409685Y-56849841D01*
X33401000Y-56896000D01*
X33401000Y-67564000D01*
X33411006Y-67613410D01*
X33439447Y-67655035D01*
X33481841Y-67682315D01*
X33528000Y-67691000D01*
X40968755Y-67691000D01*
X41125673Y-67848192D01*
X41469201Y-67990838D01*
X41841167Y-67991162D01*
X42184943Y-67849117D01*
X42343336Y-67691000D01*
X45720000Y-67691000D01*
X45769410Y-67680994D01*
X45811035Y-67652553D01*
X45838315Y-67610159D01*
X45847000Y-67564000D01*
X45847000Y-67241167D01*
X47832838Y-67241167D01*
X47974883Y-67584943D01*
X48237673Y-67848192D01*
X48581201Y-67990838D01*
X48953167Y-67991162D01*
X49296943Y-67849117D01*
X49560192Y-67586327D01*
X49702838Y-67242799D01*
X49703162Y-66870833D01*
X49646280Y-66733167D01*
X62056838Y-66733167D01*
X62198883Y-67076943D01*
X62461673Y-67340192D01*
X62805201Y-67482838D01*
X63177167Y-67483162D01*
X63520943Y-67341117D01*
X63592586Y-67269599D01*
X63722883Y-67584943D01*
X63985673Y-67848192D01*
X64329201Y-67990838D01*
X64701167Y-67991162D01*
X65044943Y-67849117D01*
X65308192Y-67586327D01*
X65450838Y-67242799D01*
X65451162Y-66870833D01*
X65309117Y-66527057D01*
X65046327Y-66263808D01*
X64702799Y-66121162D01*
X64330833Y-66120838D01*
X63987057Y-66262883D01*
X63915414Y-66334401D01*
X63785117Y-66019057D01*
X63522327Y-65755808D01*
X63178799Y-65613162D01*
X62806833Y-65612838D01*
X62463057Y-65754883D01*
X62199808Y-66017673D01*
X62057162Y-66361201D01*
X62056838Y-66733167D01*
X49646280Y-66733167D01*
X49561117Y-66527057D01*
X49298327Y-66263808D01*
X48954799Y-66121162D01*
X48582833Y-66120838D01*
X48239057Y-66262883D01*
X47975808Y-66525673D01*
X47833162Y-66869201D01*
X47832838Y-67241167D01*
X45847000Y-67241167D01*
X45847000Y-62780888D01*
X45942883Y-63012943D01*
X46205673Y-63276192D01*
X46549201Y-63418838D01*
X46921167Y-63419162D01*
X47264943Y-63277117D01*
X47365067Y-63177167D01*
X54944838Y-63177167D01*
X55086883Y-63520943D01*
X55349673Y-63784192D01*
X55693201Y-63926838D01*
X56065167Y-63927162D01*
X56408943Y-63785117D01*
X56672192Y-63522327D01*
X56814838Y-63178799D01*
X56815158Y-62811174D01*
X56916943Y-62769117D01*
X57180192Y-62506327D01*
X57322838Y-62162799D01*
X57322839Y-62161167D01*
X59516838Y-62161167D01*
X59658883Y-62504943D01*
X59921673Y-62768192D01*
X60265201Y-62910838D01*
X60637167Y-62911162D01*
X60980943Y-62769117D01*
X61244192Y-62506327D01*
X61386838Y-62162799D01*
X61387162Y-61790833D01*
X61245117Y-61447057D01*
X60982327Y-61183808D01*
X60638799Y-61041162D01*
X60266833Y-61040838D01*
X59923057Y-61182883D01*
X59659808Y-61445673D01*
X59517162Y-61789201D01*
X59516838Y-62161167D01*
X57322839Y-62161167D01*
X57323162Y-61790833D01*
X57181117Y-61447057D01*
X56918327Y-61183808D01*
X56825270Y-61145167D01*
X57484838Y-61145167D01*
X57626883Y-61488943D01*
X57889673Y-61752192D01*
X58233201Y-61894838D01*
X58605167Y-61895162D01*
X58948943Y-61753117D01*
X59212192Y-61490327D01*
X59354838Y-61146799D01*
X59355162Y-60774833D01*
X59213117Y-60431057D01*
X58950327Y-60167808D01*
X58606799Y-60025162D01*
X58234833Y-60024838D01*
X57891057Y-60166883D01*
X57627808Y-60429673D01*
X57485162Y-60773201D01*
X57484838Y-61145167D01*
X56825270Y-61145167D01*
X56574799Y-61041162D01*
X56202833Y-61040838D01*
X55859057Y-61182883D01*
X55595808Y-61445673D01*
X55453162Y-61789201D01*
X55452842Y-62156826D01*
X55351057Y-62198883D01*
X55087808Y-62461673D01*
X54945162Y-62805201D01*
X54944838Y-63177167D01*
X47365067Y-63177167D01*
X47528192Y-63014327D01*
X47670838Y-62670799D01*
X47671162Y-62298833D01*
X47529117Y-61955057D01*
X47266327Y-61691808D01*
X46922799Y-61549162D01*
X46550833Y-61548838D01*
X46207057Y-61690883D01*
X45943808Y-61953673D01*
X45847000Y-62186811D01*
X45847000Y-57323111D01*
X45905167Y-57323162D01*
X46248943Y-57181117D01*
X46512192Y-56918327D01*
X46654838Y-56574799D01*
X46655162Y-56202833D01*
X46521617Y-55879629D01*
X46654838Y-55558799D01*
X46654890Y-55499000D01*
X47913802Y-55499000D01*
X47833162Y-55693201D01*
X47832838Y-56065167D01*
X47974883Y-56408943D01*
X48237673Y-56672192D01*
X48581201Y-56814838D01*
X48953167Y-56815162D01*
X49296943Y-56673117D01*
X49560192Y-56410327D01*
X49702838Y-56066799D01*
X49703162Y-55694833D01*
X49646280Y-55557167D01*
X57992838Y-55557167D01*
X58134883Y-55900943D01*
X58397673Y-56164192D01*
X58741201Y-56306838D01*
X59113167Y-56307162D01*
X59456943Y-56165117D01*
X59720192Y-55902327D01*
X59862838Y-55558799D01*
X59863162Y-55186833D01*
X59721117Y-54843057D01*
X59458327Y-54579808D01*
X59114799Y-54437162D01*
X58742833Y-54436838D01*
X58399057Y-54578883D01*
X58135808Y-54841673D01*
X57993162Y-55185201D01*
X57992838Y-55557167D01*
X49646280Y-55557167D01*
X49622246Y-55499000D01*
X50292000Y-55499000D01*
X50341410Y-55488994D01*
X50383035Y-55460553D01*
X50410315Y-55418159D01*
X50419000Y-55372000D01*
X50419000Y-53467000D01*
X61849000Y-53467000D01*
X61849000Y-55452889D01*
X61790833Y-55452838D01*
X61447057Y-55594883D01*
X61183808Y-55857673D01*
X61041162Y-56201201D01*
X61040838Y-56573167D01*
X61182883Y-56916943D01*
X61445673Y-57180192D01*
X61789201Y-57322838D01*
X62161167Y-57323162D01*
X62504943Y-57181117D01*
X62663336Y-57023000D01*
X67437000Y-57023000D01*
X67437000Y-62527109D01*
X66966401Y-62526699D01*
X66328485Y-62790281D01*
X65839996Y-63277918D01*
X65575301Y-63915373D01*
X65574699Y-64605599D01*
X65838281Y-65243515D01*
X66325918Y-65732004D01*
X66963373Y-65996699D01*
X67653599Y-65997301D01*
X68291515Y-65733719D01*
X68780004Y-65246082D01*
X68819486Y-65151000D01*
X70993000Y-65151000D01*
X70993000Y-75772889D01*
X70934833Y-75772838D01*
X70591057Y-75914883D01*
X70327808Y-76177673D01*
X70185162Y-76521201D01*
X70184838Y-76893167D01*
X70326883Y-77236943D01*
X70589673Y-77500192D01*
X70933201Y-77642838D01*
X70993000Y-77642890D01*
X70993000Y-82169000D01*
X56007000Y-82169000D01*
X56007000Y-80957167D01*
X57992838Y-80957167D01*
X58134883Y-81300943D01*
X58397673Y-81564192D01*
X58741201Y-81706838D01*
X59113167Y-81707162D01*
X59456943Y-81565117D01*
X59720192Y-81302327D01*
X59862838Y-80958799D01*
X59863162Y-80586833D01*
X59721117Y-80243057D01*
X59458327Y-79979808D01*
X59114799Y-79837162D01*
X58742833Y-79836838D01*
X58399057Y-79978883D01*
X58135808Y-80241673D01*
X57993162Y-80585201D01*
X57992838Y-80957167D01*
X56007000Y-80957167D01*
X56007000Y-77909167D01*
X61548838Y-77909167D01*
X61690883Y-78252943D01*
X61953673Y-78516192D01*
X62057157Y-78559162D01*
X62056838Y-78925167D01*
X62198883Y-79268943D01*
X62461673Y-79532192D01*
X62805201Y-79674838D01*
X63177167Y-79675162D01*
X63520943Y-79533117D01*
X63784192Y-79270327D01*
X63926838Y-78926799D01*
X63927162Y-78554833D01*
X63870280Y-78417167D01*
X64596838Y-78417167D01*
X64738883Y-78760943D01*
X65001673Y-79024192D01*
X65345201Y-79166838D01*
X65717167Y-79167162D01*
X66060943Y-79025117D01*
X66324192Y-78762327D01*
X66466838Y-78418799D01*
X66467162Y-78046833D01*
X66325117Y-77703057D01*
X66062327Y-77439808D01*
X65718799Y-77297162D01*
X65346833Y-77296838D01*
X65003057Y-77438883D01*
X64739808Y-77701673D01*
X64597162Y-78045201D01*
X64596838Y-78417167D01*
X63870280Y-78417167D01*
X63785117Y-78211057D01*
X63522327Y-77947808D01*
X63418843Y-77904838D01*
X63419162Y-77538833D01*
X63277117Y-77195057D01*
X63014327Y-76931808D01*
X62670799Y-76789162D01*
X62298833Y-76788838D01*
X61955057Y-76930883D01*
X61691808Y-77193673D01*
X61549162Y-77537201D01*
X61548838Y-77909167D01*
X56007000Y-77909167D01*
X56007000Y-75692000D01*
X55996994Y-75642590D01*
X55968553Y-75600965D01*
X55926159Y-75573685D01*
X55880000Y-75565000D01*
X21463000Y-75565000D01*
X21463000Y-75369167D01*
X56976838Y-75369167D01*
X57118883Y-75712943D01*
X57381673Y-75976192D01*
X57725201Y-76118838D01*
X58097167Y-76119162D01*
X58440943Y-75977117D01*
X58704192Y-75714327D01*
X58846838Y-75370799D01*
X58847162Y-74998833D01*
X58705117Y-74655057D01*
X58442327Y-74391808D01*
X58349270Y-74353167D01*
X61548838Y-74353167D01*
X61682383Y-74676371D01*
X61549162Y-74997201D01*
X61548838Y-75369167D01*
X61690883Y-75712943D01*
X61953673Y-75976192D01*
X62297201Y-76118838D01*
X62669167Y-76119162D01*
X63012943Y-75977117D01*
X63276192Y-75714327D01*
X63418838Y-75370799D01*
X63419162Y-74998833D01*
X63285617Y-74675629D01*
X63418838Y-74354799D01*
X63418839Y-74353167D01*
X67644838Y-74353167D01*
X67786883Y-74696943D01*
X68019709Y-74930176D01*
X67787808Y-75161673D01*
X67645162Y-75505201D01*
X67644838Y-75877167D01*
X67786883Y-76220943D01*
X68049673Y-76484192D01*
X68393201Y-76626838D01*
X68765167Y-76627162D01*
X69108943Y-76485117D01*
X69372192Y-76222327D01*
X69514838Y-75878799D01*
X69515162Y-75506833D01*
X69373117Y-75163057D01*
X69140291Y-74929824D01*
X69372192Y-74698327D01*
X69514838Y-74354799D01*
X69515162Y-73982833D01*
X69373117Y-73639057D01*
X69110327Y-73375808D01*
X68766799Y-73233162D01*
X68394833Y-73232838D01*
X68051057Y-73374883D01*
X67787808Y-73637673D01*
X67645162Y-73981201D01*
X67644838Y-74353167D01*
X63418839Y-74353167D01*
X63419162Y-73982833D01*
X63277117Y-73639057D01*
X63014327Y-73375808D01*
X62670799Y-73233162D01*
X62298833Y-73232838D01*
X61955057Y-73374883D01*
X61691808Y-73637673D01*
X61549162Y-73981201D01*
X61548838Y-74353167D01*
X58349270Y-74353167D01*
X58098799Y-74249162D01*
X57726833Y-74248838D01*
X57383057Y-74390883D01*
X57119808Y-74653673D01*
X56977162Y-74997201D01*
X56976838Y-75369167D01*
X21463000Y-75369167D01*
X21463000Y-69781167D01*
X23702838Y-69781167D01*
X23844883Y-70124943D01*
X24107673Y-70388192D01*
X24451201Y-70530838D01*
X24823167Y-70531162D01*
X25166943Y-70389117D01*
X25430192Y-70126327D01*
X25572838Y-69782799D01*
X25572839Y-69781167D01*
X28020838Y-69781167D01*
X28162883Y-70124943D01*
X28425673Y-70388192D01*
X28769201Y-70530838D01*
X29141167Y-70531162D01*
X29484943Y-70389117D01*
X29585067Y-70289167D01*
X57484838Y-70289167D01*
X57626883Y-70632943D01*
X57889673Y-70896192D01*
X58233201Y-71038838D01*
X58605167Y-71039162D01*
X58948943Y-70897117D01*
X59212192Y-70634327D01*
X59354838Y-70290799D01*
X59355162Y-69918833D01*
X59213117Y-69575057D01*
X58950327Y-69311808D01*
X58606799Y-69169162D01*
X58234833Y-69168838D01*
X57891057Y-69310883D01*
X57627808Y-69573673D01*
X57485162Y-69917201D01*
X57484838Y-70289167D01*
X29585067Y-70289167D01*
X29748192Y-70126327D01*
X29890838Y-69782799D01*
X29891162Y-69410833D01*
X29749117Y-69067057D01*
X29486327Y-68803808D01*
X29142799Y-68661162D01*
X28770833Y-68660838D01*
X28427057Y-68802883D01*
X28163808Y-69065673D01*
X28021162Y-69409201D01*
X28020838Y-69781167D01*
X25572839Y-69781167D01*
X25573162Y-69410833D01*
X25431117Y-69067057D01*
X25168327Y-68803808D01*
X24824799Y-68661162D01*
X24452833Y-68660838D01*
X24109057Y-68802883D01*
X23845808Y-69065673D01*
X23703162Y-69409201D01*
X23702838Y-69781167D01*
X21463000Y-69781167D01*
X21463000Y-66040000D01*
X21452994Y-65990590D01*
X21424553Y-65948965D01*
X21382159Y-65921685D01*
X21336000Y-65913000D01*
X18412616Y-65913000D01*
X18487824Y-65837923D01*
X18706750Y-65310691D01*
X18707248Y-64739813D01*
X18489243Y-64212200D01*
X18374842Y-64097599D01*
X27728699Y-64097599D01*
X27992281Y-64735515D01*
X28479918Y-65224004D01*
X29117373Y-65488699D01*
X29807599Y-65489301D01*
X30445515Y-65225719D01*
X30934004Y-64738082D01*
X31198699Y-64100627D01*
X31199301Y-63410401D01*
X30935719Y-62772485D01*
X30448082Y-62283996D01*
X29810627Y-62019301D01*
X29120401Y-62018699D01*
X28482485Y-62282281D01*
X27993996Y-62769918D01*
X27729301Y-63407373D01*
X27728699Y-64097599D01*
X18374842Y-64097599D01*
X18085923Y-63808176D01*
X17955785Y-63754138D01*
X18083800Y-63701243D01*
X18487824Y-63297923D01*
X18706750Y-62770691D01*
X18707248Y-62199813D01*
X18489243Y-61672200D01*
X18085923Y-61268176D01*
X17955785Y-61214138D01*
X18083800Y-61161243D01*
X18487824Y-60757923D01*
X18706750Y-60230691D01*
X18707248Y-59659813D01*
X18489243Y-59132200D01*
X18085923Y-58728176D01*
X17955785Y-58674138D01*
X18083800Y-58621243D01*
X18099904Y-58605167D01*
X29036838Y-58605167D01*
X29178883Y-58948943D01*
X29441673Y-59212192D01*
X29785201Y-59354838D01*
X30157167Y-59355162D01*
X30500943Y-59213117D01*
X30629388Y-59084896D01*
X30561162Y-59249201D01*
X30560838Y-59621167D01*
X30702883Y-59964943D01*
X30965673Y-60228192D01*
X31309201Y-60370838D01*
X31681167Y-60371162D01*
X32024943Y-60229117D01*
X32288192Y-59966327D01*
X32430838Y-59622799D01*
X32431162Y-59250833D01*
X32289117Y-58907057D01*
X32026327Y-58643808D01*
X31682799Y-58501162D01*
X31310833Y-58500838D01*
X30967057Y-58642883D01*
X30838612Y-58771104D01*
X30906838Y-58606799D01*
X30907162Y-58234833D01*
X30765117Y-57891057D01*
X30502327Y-57627808D01*
X30158799Y-57485162D01*
X29786833Y-57484838D01*
X29443057Y-57626883D01*
X29179808Y-57889673D01*
X29037162Y-58233201D01*
X29036838Y-58605167D01*
X18099904Y-58605167D01*
X18487824Y-58217923D01*
X18706750Y-57690691D01*
X18707248Y-57119813D01*
X18489243Y-56592200D01*
X18085923Y-56188176D01*
X17955785Y-56134138D01*
X18083800Y-56081243D01*
X18487824Y-55677923D01*
X18706750Y-55150691D01*
X18707248Y-54579813D01*
X18489243Y-54052200D01*
X18085923Y-53648176D01*
X17955785Y-53594138D01*
X18083800Y-53541243D01*
X18487824Y-53137923D01*
X18706750Y-52610691D01*
X18707248Y-52039813D01*
X18489243Y-51512200D01*
X18085923Y-51108176D01*
X17558691Y-50889250D01*
X16987813Y-50888752D01*
X16460200Y-51106757D01*
X16056176Y-51510077D01*
X15875000Y-51946397D01*
X15875000Y-48128754D01*
X16054757Y-48563800D01*
X16458077Y-48967824D01*
X16985309Y-49186750D01*
X17556187Y-49187248D01*
X18083800Y-48969243D01*
X18487824Y-48565923D01*
X18706750Y-48038691D01*
X18707248Y-47467813D01*
X18489243Y-46940200D01*
X18085923Y-46536176D01*
X17955785Y-46482138D01*
X18083800Y-46429243D01*
X18487824Y-46025923D01*
X18706750Y-45498691D01*
X18707248Y-44927813D01*
X18489243Y-44400200D01*
X18085923Y-43996176D01*
X17971232Y-43948552D01*
X18026005Y-43925864D01*
X18100139Y-43679745D01*
X17272000Y-42851605D01*
X16443861Y-43679745D01*
X16517995Y-43925864D01*
X16576254Y-43946805D01*
X16460200Y-43994757D01*
X16056176Y-44398077D01*
X15875000Y-44834397D01*
X15875000Y-43080445D01*
X16018136Y-43426005D01*
X16264255Y-43500139D01*
X17092395Y-42672000D01*
X17451605Y-42672000D01*
X18279745Y-43500139D01*
X18525864Y-43426005D01*
X18718965Y-42888777D01*
X18691778Y-42318546D01*
X18525864Y-41917995D01*
X18279745Y-41843861D01*
X17451605Y-42672000D01*
X17092395Y-42672000D01*
X16264255Y-41843861D01*
X16018136Y-41917995D01*
X15875000Y-42316215D01*
X15875000Y-40508754D01*
X16054757Y-40943800D01*
X16458077Y-41347824D01*
X16572768Y-41395448D01*
X16517995Y-41418136D01*
X16443861Y-41664255D01*
X17272000Y-42492395D01*
X18100139Y-41664255D01*
X18026005Y-41418136D01*
X17967746Y-41397195D01*
X18083800Y-41349243D01*
X18487824Y-40945923D01*
X18706750Y-40418691D01*
X18707248Y-39847813D01*
X18489243Y-39320200D01*
X18085923Y-38916176D01*
X17955785Y-38862138D01*
X18083800Y-38809243D01*
X18487824Y-38405923D01*
X18706750Y-37878691D01*
X18707248Y-37307813D01*
X18489243Y-36780200D01*
X18085923Y-36376176D01*
X17971232Y-36328552D01*
X18026005Y-36305864D01*
X18100139Y-36059745D01*
X17272000Y-35231605D01*
X16443861Y-36059745D01*
X16517995Y-36305864D01*
X16576254Y-36326805D01*
X16460200Y-36374757D01*
X16056176Y-36778077D01*
X15875000Y-37214397D01*
X15875000Y-35460445D01*
X16018136Y-35806005D01*
X16264255Y-35880139D01*
X17092395Y-35052000D01*
X17451605Y-35052000D01*
X18279745Y-35880139D01*
X18525864Y-35806005D01*
X18718965Y-35268777D01*
X18691778Y-34698546D01*
X18525864Y-34297995D01*
X18279745Y-34223861D01*
X17451605Y-35052000D01*
X17092395Y-35052000D01*
X16264255Y-34223861D01*
X16018136Y-34297995D01*
X15875000Y-34696215D01*
X15875000Y-33705000D01*
X16742845Y-33705000D01*
X16517995Y-33798136D01*
X16517995Y-33798136D01*
G37*
X16517995Y-33798136D02*
X16443861Y-34044255D01*
X17272000Y-34872395D01*
X18100139Y-34044255D01*
X18026005Y-33798136D01*
X17766891Y-33705000D01*
X21209000Y-33705000D01*
X21209000Y-53340000D01*
X21219006Y-53389410D01*
X21247447Y-53431035D01*
X21289841Y-53458315D01*
X21336000Y-53467000D01*
X23188755Y-53467000D01*
X23345673Y-53624192D01*
X23689201Y-53766838D01*
X24061167Y-53767162D01*
X24404943Y-53625117D01*
X24563336Y-53467000D01*
X29792755Y-53467000D01*
X29949673Y-53624192D01*
X30293201Y-53766838D01*
X30665167Y-53767162D01*
X31008943Y-53625117D01*
X31167336Y-53467000D01*
X40005000Y-53467000D01*
X40005000Y-55372000D01*
X40015006Y-55421410D01*
X40043447Y-55463035D01*
X40085841Y-55490315D01*
X40132000Y-55499000D01*
X44784889Y-55499000D01*
X44784838Y-55557167D01*
X44918383Y-55880371D01*
X44785162Y-56201201D01*
X44784838Y-56573167D01*
X44865754Y-56769000D01*
X41327245Y-56769000D01*
X41170327Y-56611808D01*
X40826799Y-56469162D01*
X40454833Y-56468838D01*
X40111057Y-56610883D01*
X39952664Y-56769000D01*
X37771245Y-56769000D01*
X37614327Y-56611808D01*
X37510843Y-56568838D01*
X37511162Y-56202833D01*
X37369117Y-55859057D01*
X37106327Y-55595808D01*
X36762799Y-55453162D01*
X36390833Y-55452838D01*
X36047057Y-55594883D01*
X35783808Y-55857673D01*
X35641162Y-56201201D01*
X35640838Y-56573167D01*
X35721754Y-56769000D01*
X33528000Y-56769000D01*
X33478590Y-56779006D01*
X33436965Y-56807447D01*
X33409685Y-56849841D01*
X33401000Y-56896000D01*
X33401000Y-67564000D01*
X33411006Y-67613410D01*
X33439447Y-67655035D01*
X33481841Y-67682315D01*
X33528000Y-67691000D01*
X40968755Y-67691000D01*
X41125673Y-67848192D01*
X41469201Y-67990838D01*
X41841167Y-67991162D01*
X42184943Y-67849117D01*
X42343336Y-67691000D01*
X45720000Y-67691000D01*
X45769410Y-67680994D01*
X45811035Y-67652553D01*
X45838315Y-67610159D01*
X45847000Y-67564000D01*
X45847000Y-67241167D01*
X47832838Y-67241167D01*
X47974883Y-67584943D01*
X48237673Y-67848192D01*
X48581201Y-67990838D01*
X48953167Y-67991162D01*
X49296943Y-67849117D01*
X49560192Y-67586327D01*
X49702838Y-67242799D01*
X49703162Y-66870833D01*
X49646280Y-66733167D01*
X62056838Y-66733167D01*
X62198883Y-67076943D01*
X62461673Y-67340192D01*
X62805201Y-67482838D01*
X63177167Y-67483162D01*
X63520943Y-67341117D01*
X63592586Y-67269599D01*
X63722883Y-67584943D01*
X63985673Y-67848192D01*
X64329201Y-67990838D01*
X64701167Y-67991162D01*
X65044943Y-67849117D01*
X65308192Y-67586327D01*
X65450838Y-67242799D01*
X65451162Y-66870833D01*
X65309117Y-66527057D01*
X65046327Y-66263808D01*
X64702799Y-66121162D01*
X64330833Y-66120838D01*
X63987057Y-66262883D01*
X63915414Y-66334401D01*
X63785117Y-66019057D01*
X63522327Y-65755808D01*
X63178799Y-65613162D01*
X62806833Y-65612838D01*
X62463057Y-65754883D01*
X62199808Y-66017673D01*
X62057162Y-66361201D01*
X62056838Y-66733167D01*
X49646280Y-66733167D01*
X49561117Y-66527057D01*
X49298327Y-66263808D01*
X48954799Y-66121162D01*
X48582833Y-66120838D01*
X48239057Y-66262883D01*
X47975808Y-66525673D01*
X47833162Y-66869201D01*
X47832838Y-67241167D01*
X45847000Y-67241167D01*
X45847000Y-62780888D01*
X45942883Y-63012943D01*
X46205673Y-63276192D01*
X46549201Y-63418838D01*
X46921167Y-63419162D01*
X47264943Y-63277117D01*
X47365067Y-63177167D01*
X54944838Y-63177167D01*
X55086883Y-63520943D01*
X55349673Y-63784192D01*
X55693201Y-63926838D01*
X56065167Y-63927162D01*
X56408943Y-63785117D01*
X56672192Y-63522327D01*
X56814838Y-63178799D01*
X56815158Y-62811174D01*
X56916943Y-62769117D01*
X57180192Y-62506327D01*
X57322838Y-62162799D01*
X57322839Y-62161167D01*
X59516838Y-62161167D01*
X59658883Y-62504943D01*
X59921673Y-62768192D01*
X60265201Y-62910838D01*
X60637167Y-62911162D01*
X60980943Y-62769117D01*
X61244192Y-62506327D01*
X61386838Y-62162799D01*
X61387162Y-61790833D01*
X61245117Y-61447057D01*
X60982327Y-61183808D01*
X60638799Y-61041162D01*
X60266833Y-61040838D01*
X59923057Y-61182883D01*
X59659808Y-61445673D01*
X59517162Y-61789201D01*
X59516838Y-62161167D01*
X57322839Y-62161167D01*
X57323162Y-61790833D01*
X57181117Y-61447057D01*
X56918327Y-61183808D01*
X56825270Y-61145167D01*
X57484838Y-61145167D01*
X57626883Y-61488943D01*
X57889673Y-61752192D01*
X58233201Y-61894838D01*
X58605167Y-61895162D01*
X58948943Y-61753117D01*
X59212192Y-61490327D01*
X59354838Y-61146799D01*
X59355162Y-60774833D01*
X59213117Y-60431057D01*
X58950327Y-60167808D01*
X58606799Y-60025162D01*
X58234833Y-60024838D01*
X57891057Y-60166883D01*
X57627808Y-60429673D01*
X57485162Y-60773201D01*
X57484838Y-61145167D01*
X56825270Y-61145167D01*
X56574799Y-61041162D01*
X56202833Y-61040838D01*
X55859057Y-61182883D01*
X55595808Y-61445673D01*
X55453162Y-61789201D01*
X55452842Y-62156826D01*
X55351057Y-62198883D01*
X55087808Y-62461673D01*
X54945162Y-62805201D01*
X54944838Y-63177167D01*
X47365067Y-63177167D01*
X47528192Y-63014327D01*
X47670838Y-62670799D01*
X47671162Y-62298833D01*
X47529117Y-61955057D01*
X47266327Y-61691808D01*
X46922799Y-61549162D01*
X46550833Y-61548838D01*
X46207057Y-61690883D01*
X45943808Y-61953673D01*
X45847000Y-62186811D01*
X45847000Y-57323111D01*
X45905167Y-57323162D01*
X46248943Y-57181117D01*
X46512192Y-56918327D01*
X46654838Y-56574799D01*
X46655162Y-56202833D01*
X46521617Y-55879629D01*
X46654838Y-55558799D01*
X46654890Y-55499000D01*
X47913802Y-55499000D01*
X47833162Y-55693201D01*
X47832838Y-56065167D01*
X47974883Y-56408943D01*
X48237673Y-56672192D01*
X48581201Y-56814838D01*
X48953167Y-56815162D01*
X49296943Y-56673117D01*
X49560192Y-56410327D01*
X49702838Y-56066799D01*
X49703162Y-55694833D01*
X49646280Y-55557167D01*
X57992838Y-55557167D01*
X58134883Y-55900943D01*
X58397673Y-56164192D01*
X58741201Y-56306838D01*
X59113167Y-56307162D01*
X59456943Y-56165117D01*
X59720192Y-55902327D01*
X59862838Y-55558799D01*
X59863162Y-55186833D01*
X59721117Y-54843057D01*
X59458327Y-54579808D01*
X59114799Y-54437162D01*
X58742833Y-54436838D01*
X58399057Y-54578883D01*
X58135808Y-54841673D01*
X57993162Y-55185201D01*
X57992838Y-55557167D01*
X49646280Y-55557167D01*
X49622246Y-55499000D01*
X50292000Y-55499000D01*
X50341410Y-55488994D01*
X50383035Y-55460553D01*
X50410315Y-55418159D01*
X50419000Y-55372000D01*
X50419000Y-53467000D01*
X61849000Y-53467000D01*
X61849000Y-55452889D01*
X61790833Y-55452838D01*
X61447057Y-55594883D01*
X61183808Y-55857673D01*
X61041162Y-56201201D01*
X61040838Y-56573167D01*
X61182883Y-56916943D01*
X61445673Y-57180192D01*
X61789201Y-57322838D01*
X62161167Y-57323162D01*
X62504943Y-57181117D01*
X62663336Y-57023000D01*
X67437000Y-57023000D01*
X67437000Y-62527109D01*
X66966401Y-62526699D01*
X66328485Y-62790281D01*
X65839996Y-63277918D01*
X65575301Y-63915373D01*
X65574699Y-64605599D01*
X65838281Y-65243515D01*
X66325918Y-65732004D01*
X66963373Y-65996699D01*
X67653599Y-65997301D01*
X68291515Y-65733719D01*
X68780004Y-65246082D01*
X68819486Y-65151000D01*
X70993000Y-65151000D01*
X70993000Y-75772889D01*
X70934833Y-75772838D01*
X70591057Y-75914883D01*
X70327808Y-76177673D01*
X70185162Y-76521201D01*
X70184838Y-76893167D01*
X70326883Y-77236943D01*
X70589673Y-77500192D01*
X70933201Y-77642838D01*
X70993000Y-77642890D01*
X70993000Y-82169000D01*
X56007000Y-82169000D01*
X56007000Y-80957167D01*
X57992838Y-80957167D01*
X58134883Y-81300943D01*
X58397673Y-81564192D01*
X58741201Y-81706838D01*
X59113167Y-81707162D01*
X59456943Y-81565117D01*
X59720192Y-81302327D01*
X59862838Y-80958799D01*
X59863162Y-80586833D01*
X59721117Y-80243057D01*
X59458327Y-79979808D01*
X59114799Y-79837162D01*
X58742833Y-79836838D01*
X58399057Y-79978883D01*
X58135808Y-80241673D01*
X57993162Y-80585201D01*
X57992838Y-80957167D01*
X56007000Y-80957167D01*
X56007000Y-77909167D01*
X61548838Y-77909167D01*
X61690883Y-78252943D01*
X61953673Y-78516192D01*
X62057157Y-78559162D01*
X62056838Y-78925167D01*
X62198883Y-79268943D01*
X62461673Y-79532192D01*
X62805201Y-79674838D01*
X63177167Y-79675162D01*
X63520943Y-79533117D01*
X63784192Y-79270327D01*
X63926838Y-78926799D01*
X63927162Y-78554833D01*
X63870280Y-78417167D01*
X64596838Y-78417167D01*
X64738883Y-78760943D01*
X65001673Y-79024192D01*
X65345201Y-79166838D01*
X65717167Y-79167162D01*
X66060943Y-79025117D01*
X66324192Y-78762327D01*
X66466838Y-78418799D01*
X66467162Y-78046833D01*
X66325117Y-77703057D01*
X66062327Y-77439808D01*
X65718799Y-77297162D01*
X65346833Y-77296838D01*
X65003057Y-77438883D01*
X64739808Y-77701673D01*
X64597162Y-78045201D01*
X64596838Y-78417167D01*
X63870280Y-78417167D01*
X63785117Y-78211057D01*
X63522327Y-77947808D01*
X63418843Y-77904838D01*
X63419162Y-77538833D01*
X63277117Y-77195057D01*
X63014327Y-76931808D01*
X62670799Y-76789162D01*
X62298833Y-76788838D01*
X61955057Y-76930883D01*
X61691808Y-77193673D01*
X61549162Y-77537201D01*
X61548838Y-77909167D01*
X56007000Y-77909167D01*
X56007000Y-75692000D01*
X55996994Y-75642590D01*
X55968553Y-75600965D01*
X55926159Y-75573685D01*
X55880000Y-75565000D01*
X21463000Y-75565000D01*
X21463000Y-75369167D01*
X56976838Y-75369167D01*
X57118883Y-75712943D01*
X57381673Y-75976192D01*
X57725201Y-76118838D01*
X58097167Y-76119162D01*
X58440943Y-75977117D01*
X58704192Y-75714327D01*
X58846838Y-75370799D01*
X58847162Y-74998833D01*
X58705117Y-74655057D01*
X58442327Y-74391808D01*
X58349270Y-74353167D01*
X61548838Y-74353167D01*
X61682383Y-74676371D01*
X61549162Y-74997201D01*
X61548838Y-75369167D01*
X61690883Y-75712943D01*
X61953673Y-75976192D01*
X62297201Y-76118838D01*
X62669167Y-76119162D01*
X63012943Y-75977117D01*
X63276192Y-75714327D01*
X63418838Y-75370799D01*
X63419162Y-74998833D01*
X63285617Y-74675629D01*
X63418838Y-74354799D01*
X63418839Y-74353167D01*
X67644838Y-74353167D01*
X67786883Y-74696943D01*
X68019709Y-74930176D01*
X67787808Y-75161673D01*
X67645162Y-75505201D01*
X67644838Y-75877167D01*
X67786883Y-76220943D01*
X68049673Y-76484192D01*
X68393201Y-76626838D01*
X68765167Y-76627162D01*
X69108943Y-76485117D01*
X69372192Y-76222327D01*
X69514838Y-75878799D01*
X69515162Y-75506833D01*
X69373117Y-75163057D01*
X69140291Y-74929824D01*
X69372192Y-74698327D01*
X69514838Y-74354799D01*
X69515162Y-73982833D01*
X69373117Y-73639057D01*
X69110327Y-73375808D01*
X68766799Y-73233162D01*
X68394833Y-73232838D01*
X68051057Y-73374883D01*
X67787808Y-73637673D01*
X67645162Y-73981201D01*
X67644838Y-74353167D01*
X63418839Y-74353167D01*
X63419162Y-73982833D01*
X63277117Y-73639057D01*
X63014327Y-73375808D01*
X62670799Y-73233162D01*
X62298833Y-73232838D01*
X61955057Y-73374883D01*
X61691808Y-73637673D01*
X61549162Y-73981201D01*
X61548838Y-74353167D01*
X58349270Y-74353167D01*
X58098799Y-74249162D01*
X57726833Y-74248838D01*
X57383057Y-74390883D01*
X57119808Y-74653673D01*
X56977162Y-74997201D01*
X56976838Y-75369167D01*
X21463000Y-75369167D01*
X21463000Y-69781167D01*
X23702838Y-69781167D01*
X23844883Y-70124943D01*
X24107673Y-70388192D01*
X24451201Y-70530838D01*
X24823167Y-70531162D01*
X25166943Y-70389117D01*
X25430192Y-70126327D01*
X25572838Y-69782799D01*
X25572839Y-69781167D01*
X28020838Y-69781167D01*
X28162883Y-70124943D01*
X28425673Y-70388192D01*
X28769201Y-70530838D01*
X29141167Y-70531162D01*
X29484943Y-70389117D01*
X29585067Y-70289167D01*
X57484838Y-70289167D01*
X57626883Y-70632943D01*
X57889673Y-70896192D01*
X58233201Y-71038838D01*
X58605167Y-71039162D01*
X58948943Y-70897117D01*
X59212192Y-70634327D01*
X59354838Y-70290799D01*
X59355162Y-69918833D01*
X59213117Y-69575057D01*
X58950327Y-69311808D01*
X58606799Y-69169162D01*
X58234833Y-69168838D01*
X57891057Y-69310883D01*
X57627808Y-69573673D01*
X57485162Y-69917201D01*
X57484838Y-70289167D01*
X29585067Y-70289167D01*
X29748192Y-70126327D01*
X29890838Y-69782799D01*
X29891162Y-69410833D01*
X29749117Y-69067057D01*
X29486327Y-68803808D01*
X29142799Y-68661162D01*
X28770833Y-68660838D01*
X28427057Y-68802883D01*
X28163808Y-69065673D01*
X28021162Y-69409201D01*
X28020838Y-69781167D01*
X25572839Y-69781167D01*
X25573162Y-69410833D01*
X25431117Y-69067057D01*
X25168327Y-68803808D01*
X24824799Y-68661162D01*
X24452833Y-68660838D01*
X24109057Y-68802883D01*
X23845808Y-69065673D01*
X23703162Y-69409201D01*
X23702838Y-69781167D01*
X21463000Y-69781167D01*
X21463000Y-66040000D01*
X21452994Y-65990590D01*
X21424553Y-65948965D01*
X21382159Y-65921685D01*
X21336000Y-65913000D01*
X18412616Y-65913000D01*
X18487824Y-65837923D01*
X18706750Y-65310691D01*
X18707248Y-64739813D01*
X18489243Y-64212200D01*
X18374842Y-64097599D01*
X27728699Y-64097599D01*
X27992281Y-64735515D01*
X28479918Y-65224004D01*
X29117373Y-65488699D01*
X29807599Y-65489301D01*
X30445515Y-65225719D01*
X30934004Y-64738082D01*
X31198699Y-64100627D01*
X31199301Y-63410401D01*
X30935719Y-62772485D01*
X30448082Y-62283996D01*
X29810627Y-62019301D01*
X29120401Y-62018699D01*
X28482485Y-62282281D01*
X27993996Y-62769918D01*
X27729301Y-63407373D01*
X27728699Y-64097599D01*
X18374842Y-64097599D01*
X18085923Y-63808176D01*
X17955785Y-63754138D01*
X18083800Y-63701243D01*
X18487824Y-63297923D01*
X18706750Y-62770691D01*
X18707248Y-62199813D01*
X18489243Y-61672200D01*
X18085923Y-61268176D01*
X17955785Y-61214138D01*
X18083800Y-61161243D01*
X18487824Y-60757923D01*
X18706750Y-60230691D01*
X18707248Y-59659813D01*
X18489243Y-59132200D01*
X18085923Y-58728176D01*
X17955785Y-58674138D01*
X18083800Y-58621243D01*
X18099904Y-58605167D01*
X29036838Y-58605167D01*
X29178883Y-58948943D01*
X29441673Y-59212192D01*
X29785201Y-59354838D01*
X30157167Y-59355162D01*
X30500943Y-59213117D01*
X30629388Y-59084896D01*
X30561162Y-59249201D01*
X30560838Y-59621167D01*
X30702883Y-59964943D01*
X30965673Y-60228192D01*
X31309201Y-60370838D01*
X31681167Y-60371162D01*
X32024943Y-60229117D01*
X32288192Y-59966327D01*
X32430838Y-59622799D01*
X32431162Y-59250833D01*
X32289117Y-58907057D01*
X32026327Y-58643808D01*
X31682799Y-58501162D01*
X31310833Y-58500838D01*
X30967057Y-58642883D01*
X30838612Y-58771104D01*
X30906838Y-58606799D01*
X30907162Y-58234833D01*
X30765117Y-57891057D01*
X30502327Y-57627808D01*
X30158799Y-57485162D01*
X29786833Y-57484838D01*
X29443057Y-57626883D01*
X29179808Y-57889673D01*
X29037162Y-58233201D01*
X29036838Y-58605167D01*
X18099904Y-58605167D01*
X18487824Y-58217923D01*
X18706750Y-57690691D01*
X18707248Y-57119813D01*
X18489243Y-56592200D01*
X18085923Y-56188176D01*
X17955785Y-56134138D01*
X18083800Y-56081243D01*
X18487824Y-55677923D01*
X18706750Y-55150691D01*
X18707248Y-54579813D01*
X18489243Y-54052200D01*
X18085923Y-53648176D01*
X17955785Y-53594138D01*
X18083800Y-53541243D01*
X18487824Y-53137923D01*
X18706750Y-52610691D01*
X18707248Y-52039813D01*
X18489243Y-51512200D01*
X18085923Y-51108176D01*
X17558691Y-50889250D01*
X16987813Y-50888752D01*
X16460200Y-51106757D01*
X16056176Y-51510077D01*
X15875000Y-51946397D01*
X15875000Y-48128754D01*
X16054757Y-48563800D01*
X16458077Y-48967824D01*
X16985309Y-49186750D01*
X17556187Y-49187248D01*
X18083800Y-48969243D01*
X18487824Y-48565923D01*
X18706750Y-48038691D01*
X18707248Y-47467813D01*
X18489243Y-46940200D01*
X18085923Y-46536176D01*
X17955785Y-46482138D01*
X18083800Y-46429243D01*
X18487824Y-46025923D01*
X18706750Y-45498691D01*
X18707248Y-44927813D01*
X18489243Y-44400200D01*
X18085923Y-43996176D01*
X17971232Y-43948552D01*
X18026005Y-43925864D01*
X18100139Y-43679745D01*
X17272000Y-42851605D01*
X16443861Y-43679745D01*
X16517995Y-43925864D01*
X16576254Y-43946805D01*
X16460200Y-43994757D01*
X16056176Y-44398077D01*
X15875000Y-44834397D01*
X15875000Y-43080445D01*
X16018136Y-43426005D01*
X16264255Y-43500139D01*
X17092395Y-42672000D01*
X17451605Y-42672000D01*
X18279745Y-43500139D01*
X18525864Y-43426005D01*
X18718965Y-42888777D01*
X18691778Y-42318546D01*
X18525864Y-41917995D01*
X18279745Y-41843861D01*
X17451605Y-42672000D01*
X17092395Y-42672000D01*
X16264255Y-41843861D01*
X16018136Y-41917995D01*
X15875000Y-42316215D01*
X15875000Y-40508754D01*
X16054757Y-40943800D01*
X16458077Y-41347824D01*
X16572768Y-41395448D01*
X16517995Y-41418136D01*
X16443861Y-41664255D01*
X17272000Y-42492395D01*
X18100139Y-41664255D01*
X18026005Y-41418136D01*
X17967746Y-41397195D01*
X18083800Y-41349243D01*
X18487824Y-40945923D01*
X18706750Y-40418691D01*
X18707248Y-39847813D01*
X18489243Y-39320200D01*
X18085923Y-38916176D01*
X17955785Y-38862138D01*
X18083800Y-38809243D01*
X18487824Y-38405923D01*
X18706750Y-37878691D01*
X18707248Y-37307813D01*
X18489243Y-36780200D01*
X18085923Y-36376176D01*
X17971232Y-36328552D01*
X18026005Y-36305864D01*
X18100139Y-36059745D01*
X17272000Y-35231605D01*
X16443861Y-36059745D01*
X16517995Y-36305864D01*
X16576254Y-36326805D01*
X16460200Y-36374757D01*
X16056176Y-36778077D01*
X15875000Y-37214397D01*
X15875000Y-35460445D01*
X16018136Y-35806005D01*
X16264255Y-35880139D01*
X17092395Y-35052000D01*
X17451605Y-35052000D01*
X18279745Y-35880139D01*
X18525864Y-35806005D01*
X18718965Y-35268777D01*
X18691778Y-34698546D01*
X18525864Y-34297995D01*
X18279745Y-34223861D01*
X17451605Y-35052000D01*
X17092395Y-35052000D01*
X16264255Y-34223861D01*
X16018136Y-34297995D01*
X15875000Y-34696215D01*
X15875000Y-33705000D01*
X16742845Y-33705000D01*
X16517995Y-33798136D01*
M02*
