G04 #@! TF.FileFunction,Copper,L1,Top,Signal*
%FSLAX46Y46*%
G04 Gerber Fmt 4.6, Leading zero omitted, Abs format (unit mm)*
G04 Created by KiCad (PCBNEW 4.0.2-stable) date 3/8/2017 2:36:32 PM*
%MOMM*%
G01*
G04 APERTURE LIST*
%ADD10C,0.100000*%
%ADD11R,3.750000X3.600000*%
%ADD12R,4.000000X3.600000*%
%ADD13R,0.650000X1.060000*%
%ADD14C,1.600000*%
%ADD15R,1.250000X1.000000*%
%ADD16R,1.000000X1.250000*%
%ADD17R,0.740000X2.400000*%
%ADD18R,1.300000X0.700000*%
%ADD19R,0.800000X0.900000*%
%ADD20R,0.900000X0.800000*%
%ADD21R,1.600000X0.550000*%
%ADD22R,0.550000X1.600000*%
%ADD23R,1.060000X0.650000*%
%ADD24R,1.143000X0.508000*%
%ADD25R,0.400000X1.050000*%
%ADD26C,1.000000*%
%ADD27C,2.000000*%
%ADD28R,0.600000X1.500000*%
%ADD29R,0.700024X1.200150*%
%ADD30R,0.999998X0.800354*%
%ADD31R,0.999998X1.200150*%
%ADD32R,0.999998X2.800350*%
%ADD33R,1.299972X1.900174*%
%ADD34R,1.200000X1.200000*%
%ADD35C,0.600000*%
%ADD36C,0.250000*%
%ADD37C,0.254000*%
G04 APERTURE END LIST*
D10*
D11*
X42800000Y-38350000D03*
D12*
X35050000Y-38350000D03*
D11*
X27300000Y-38350000D03*
D13*
X64650000Y-52100000D03*
X63700000Y-52100000D03*
X62750000Y-52100000D03*
X62750000Y-54300000D03*
X64650000Y-54300000D03*
X63700000Y-54300000D03*
D14*
X37000000Y-81800000D03*
X34460000Y-81800000D03*
X31920000Y-81800000D03*
X29380000Y-81800000D03*
X26840000Y-81800000D03*
X24300000Y-81800000D03*
D15*
X44950000Y-46650000D03*
X44950000Y-48650000D03*
X41910000Y-46625000D03*
X41910000Y-48625000D03*
X38735000Y-48625000D03*
X38735000Y-46625000D03*
X41800000Y-65500000D03*
X41800000Y-63500000D03*
X38800000Y-65500000D03*
X38800000Y-63500000D03*
X63450000Y-36200000D03*
X63450000Y-38200000D03*
X63490000Y-56500000D03*
X63490000Y-58500000D03*
X60350000Y-58500000D03*
X60350000Y-56500000D03*
D16*
X54800000Y-53900000D03*
X56800000Y-53900000D03*
D15*
X68326000Y-71358000D03*
X68326000Y-69358000D03*
X57912000Y-77232000D03*
X57912000Y-79232000D03*
X63450000Y-69200000D03*
X63450000Y-71200000D03*
X63100000Y-63000000D03*
X63100000Y-65000000D03*
D17*
X32200000Y-48300000D03*
X30930000Y-48300000D03*
X29660000Y-48300000D03*
X28390000Y-48300000D03*
X27120000Y-48300000D03*
X27120000Y-52200000D03*
X28390000Y-52200000D03*
X29660000Y-52200000D03*
X30930000Y-52200000D03*
X32200000Y-52200000D03*
D14*
X17000000Y-47800000D03*
X17000000Y-45260000D03*
X17000000Y-42720000D03*
X17000000Y-40180000D03*
X17000000Y-37640000D03*
X17000000Y-35100000D03*
X17000000Y-66100000D03*
X17000000Y-63560000D03*
X17000000Y-61020000D03*
X17000000Y-58480000D03*
X17000000Y-55940000D03*
X17000000Y-53400000D03*
X17000000Y-83400000D03*
X17000000Y-80860000D03*
X17000000Y-78320000D03*
X17000000Y-75780000D03*
X17000000Y-73240000D03*
X17000000Y-70700000D03*
X73700000Y-78080000D03*
X73700000Y-80620000D03*
X73700000Y-83160000D03*
X73700000Y-60300000D03*
X73700000Y-62840000D03*
X73700000Y-65380000D03*
X73700000Y-67920000D03*
X73700000Y-70460000D03*
X73700000Y-73000000D03*
X73700000Y-75540000D03*
D18*
X35900000Y-63600000D03*
X35900000Y-65500000D03*
D19*
X73550000Y-51000000D03*
X71650000Y-51000000D03*
X72600000Y-53000000D03*
D20*
X24270000Y-63300000D03*
X24270000Y-61400000D03*
X22270000Y-62350000D03*
D18*
X28600000Y-42800000D03*
X28600000Y-44700000D03*
X35200000Y-48250000D03*
X35200000Y-50150000D03*
X27110000Y-58570000D03*
X27110000Y-60470000D03*
X27050000Y-65100000D03*
X27050000Y-63200000D03*
X28700000Y-76070000D03*
X28700000Y-74170000D03*
X31820000Y-76090000D03*
X31820000Y-74190000D03*
D21*
X38930000Y-53080000D03*
X38930000Y-53880000D03*
X38930000Y-54680000D03*
X38930000Y-55480000D03*
X38930000Y-56280000D03*
X38930000Y-57080000D03*
X38930000Y-57880000D03*
X38930000Y-58680000D03*
D22*
X40380000Y-60130000D03*
X41180000Y-60130000D03*
X41980000Y-60130000D03*
X42780000Y-60130000D03*
X43580000Y-60130000D03*
X44380000Y-60130000D03*
X45180000Y-60130000D03*
X45980000Y-60130000D03*
D21*
X47430000Y-58680000D03*
X47430000Y-57880000D03*
X47430000Y-57080000D03*
X47430000Y-56280000D03*
X47430000Y-55480000D03*
X47430000Y-54680000D03*
X47430000Y-53880000D03*
X47430000Y-53080000D03*
D22*
X45980000Y-51630000D03*
X45180000Y-51630000D03*
X44380000Y-51630000D03*
X43580000Y-51630000D03*
X42780000Y-51630000D03*
X41980000Y-51630000D03*
X41180000Y-51630000D03*
X40380000Y-51630000D03*
D23*
X54700000Y-56250000D03*
X54700000Y-57200000D03*
X54700000Y-58150000D03*
X56900000Y-58150000D03*
X56900000Y-56250000D03*
X56900000Y-57200000D03*
D24*
X67183000Y-74295000D03*
X67183000Y-76835000D03*
X67183000Y-78105000D03*
X67183000Y-79375000D03*
X67183000Y-80645000D03*
X67183000Y-81915000D03*
X67183000Y-83185000D03*
X60833000Y-83185000D03*
X60833000Y-81915000D03*
X60833000Y-80645000D03*
X60833000Y-79375000D03*
X60833000Y-78105000D03*
X60833000Y-76835000D03*
X60833000Y-75565000D03*
X60833000Y-74295000D03*
X67183000Y-75565000D03*
D25*
X56896000Y-63030000D03*
X57546000Y-63030000D03*
X58196000Y-63030000D03*
X58846000Y-63030000D03*
X59496000Y-63030000D03*
X60146000Y-63030000D03*
X60796000Y-63030000D03*
X60796000Y-68580000D03*
X60146000Y-68580000D03*
X59496000Y-68580000D03*
X58846000Y-68580000D03*
X58196000Y-68580000D03*
X57546000Y-68580000D03*
X56896000Y-68580000D03*
D15*
X68600000Y-54200000D03*
X68600000Y-52200000D03*
D26*
X68350000Y-65750000D03*
X65600000Y-48400000D03*
X23000000Y-56400000D03*
D15*
X45500000Y-63550000D03*
X45500000Y-65550000D03*
D27*
X72136000Y-46132000D03*
X67436000Y-43132000D03*
X72136000Y-40132000D03*
D18*
X63450000Y-44250000D03*
X63450000Y-46150000D03*
X51250000Y-49150000D03*
X51250000Y-51050000D03*
X45050000Y-44250000D03*
X45050000Y-42350000D03*
D28*
X60045000Y-36450000D03*
X58775000Y-36450000D03*
X57505000Y-36450000D03*
X56235000Y-36450000D03*
X54965000Y-36450000D03*
X53695000Y-36450000D03*
X52425000Y-36450000D03*
X51155000Y-36450000D03*
X51155000Y-45750000D03*
X52425000Y-45750000D03*
X53695000Y-45750000D03*
X54965000Y-45750000D03*
X56235000Y-45750000D03*
X57505000Y-45750000D03*
X58775000Y-45750000D03*
X60045000Y-45750000D03*
D29*
X50599746Y-68899925D03*
X49499926Y-68899925D03*
X48399852Y-68899925D03*
X47299778Y-68899925D03*
X46199704Y-68899925D03*
X45099884Y-68899925D03*
X43999810Y-68899925D03*
X42899736Y-68899925D03*
X41799662Y-68899925D03*
D30*
X40999816Y-79399904D03*
D31*
X40999816Y-73199764D03*
D32*
X41000070Y-83549756D03*
D33*
X54499916Y-84000225D03*
D31*
X52149654Y-68899798D03*
D15*
X23100000Y-49000000D03*
X23100000Y-51000000D03*
X23100000Y-37500000D03*
X23100000Y-39500000D03*
X57900000Y-74800000D03*
X57900000Y-72800000D03*
X57950000Y-82000000D03*
X57950000Y-84000000D03*
D34*
X30150000Y-58800000D03*
X30150000Y-56600000D03*
D18*
X33500000Y-55725000D03*
X33500000Y-57625000D03*
D35*
X56850000Y-47500000D03*
X46000000Y-40050000D03*
X60150000Y-71250000D03*
X54600000Y-71250000D03*
X58750000Y-53700000D03*
X39850000Y-44250000D03*
X40600000Y-62000000D03*
X43600000Y-54500000D03*
X63100000Y-66750000D03*
X51650000Y-47650000D03*
X47250000Y-64550000D03*
X36350000Y-46500000D03*
X65750000Y-45850000D03*
X66500000Y-51550000D03*
X36600000Y-66800000D03*
X66600000Y-68750000D03*
X59436000Y-70104000D03*
X53300000Y-54500000D03*
X47100000Y-66250000D03*
X61100000Y-54600000D03*
X44600000Y-53500000D03*
X30350000Y-44750000D03*
X43350000Y-63950000D03*
X45750000Y-66900000D03*
X42150000Y-61850000D03*
X49500000Y-67050000D03*
X40750000Y-67500000D03*
X38500000Y-60450000D03*
X36050000Y-55350000D03*
X36650000Y-53950000D03*
X71120000Y-76708000D03*
X68580000Y-75692000D03*
X62484000Y-74168000D03*
X62350000Y-79250000D03*
X71850000Y-73500000D03*
X62484000Y-75184000D03*
X62484000Y-77724000D03*
X47800000Y-51550000D03*
X73800000Y-49850000D03*
X48050000Y-60250000D03*
X63000000Y-72500000D03*
X61900000Y-72700000D03*
X47650000Y-61650000D03*
X49200000Y-55400000D03*
X49850000Y-52050000D03*
X54150000Y-51400000D03*
X50500000Y-54650000D03*
X44900000Y-50000000D03*
X46650000Y-42450000D03*
X65532000Y-78232000D03*
X58928000Y-80772000D03*
D36*
X42800000Y-38350000D02*
X44300000Y-38350000D01*
X44300000Y-38350000D02*
X46000000Y-40050000D01*
X57505000Y-46845000D02*
X57505000Y-45750000D01*
X56850000Y-47500000D02*
X57505000Y-46845000D01*
X27300000Y-38350000D02*
X27600000Y-38350000D01*
X27600000Y-38350000D02*
X30500000Y-35450000D01*
X30500000Y-35450000D02*
X39900000Y-35450000D01*
X39900000Y-35450000D02*
X42800000Y-38350000D01*
X44100000Y-39650000D02*
X42800000Y-38350000D01*
X23100000Y-51000000D02*
X20200000Y-51000000D01*
X20200000Y-51000000D02*
X17000000Y-47800000D01*
X23100000Y-39500000D02*
X17680000Y-39500000D01*
X17680000Y-39500000D02*
X17000000Y-40180000D01*
X57950000Y-84000000D02*
X57650000Y-84000000D01*
X60833000Y-80645000D02*
X61985000Y-80645000D01*
X61985000Y-80645000D02*
X62000000Y-80660000D01*
X57950000Y-84000000D02*
X58280000Y-84000000D01*
X63450000Y-71200000D02*
X60200000Y-71200000D01*
X60200000Y-71200000D02*
X60150000Y-71250000D01*
X38800000Y-65500000D02*
X38800000Y-68800000D01*
X38800000Y-68800000D02*
X38600000Y-69000000D01*
X38800000Y-65500000D02*
X41800000Y-65500000D01*
X45500000Y-63550000D02*
X46250000Y-63550000D01*
X46250000Y-63550000D02*
X46350000Y-63650000D01*
X46350000Y-63650000D02*
X46350000Y-63750000D01*
X46350000Y-63750000D02*
X46350000Y-63650000D01*
X56896000Y-68580000D02*
X56770000Y-68580000D01*
X56770000Y-68580000D02*
X54600000Y-70750000D01*
X54600000Y-70750000D02*
X54600000Y-71250000D01*
X58550000Y-53900000D02*
X58750000Y-53700000D01*
X56800000Y-53900000D02*
X58550000Y-53900000D01*
X38735000Y-45365000D02*
X39850000Y-44250000D01*
X38735000Y-46625000D02*
X38735000Y-45365000D01*
X41180000Y-60130000D02*
X41180000Y-61420000D01*
X41180000Y-61420000D02*
X40600000Y-62000000D01*
X43580000Y-54480000D02*
X43600000Y-54500000D01*
X43580000Y-53470000D02*
X43580000Y-51630000D01*
X43580000Y-53470000D02*
X43580000Y-54480000D01*
X63100000Y-65000000D02*
X63100000Y-66750000D01*
X56896000Y-63030000D02*
X56530000Y-63030000D01*
X55800000Y-59400000D02*
X55800000Y-57200000D01*
X55800000Y-62300000D02*
X55800000Y-59400000D01*
X56530000Y-63030000D02*
X55800000Y-62300000D01*
X63700000Y-52100000D02*
X63700000Y-50850000D01*
X63700000Y-50850000D02*
X63800000Y-50750000D01*
X51155000Y-45750000D02*
X51155000Y-47155000D01*
X51155000Y-47155000D02*
X51650000Y-47650000D01*
X44950000Y-48650000D02*
X44950000Y-48800000D01*
X44950000Y-48800000D02*
X43580000Y-50170000D01*
X43580000Y-50170000D02*
X43580000Y-51630000D01*
X71650000Y-51000000D02*
X71650000Y-49950000D01*
X74100000Y-42096000D02*
X72136000Y-40132000D01*
X74100000Y-47500000D02*
X74100000Y-42096000D01*
X71650000Y-49950000D02*
X74100000Y-47500000D01*
X46250000Y-63550000D02*
X46350000Y-63650000D01*
X46350000Y-63650000D02*
X47250000Y-64550000D01*
X54700000Y-57200000D02*
X55800000Y-57200000D01*
X55800000Y-57200000D02*
X56900000Y-57200000D01*
X56896000Y-68580000D02*
X56896000Y-68704000D01*
X45500000Y-63550000D02*
X45900000Y-63550000D01*
X45500000Y-63550000D02*
X45500000Y-63150000D01*
X45982000Y-63520000D02*
X45982000Y-63232000D01*
X68072000Y-69612000D02*
X68072000Y-69072000D01*
X60833000Y-80645000D02*
X61341000Y-80645000D01*
X22850000Y-51000000D02*
X23100000Y-51000000D01*
X35200000Y-48250000D02*
X35200000Y-47650000D01*
X35200000Y-47650000D02*
X36350000Y-46500000D01*
X56900000Y-56250000D02*
X57600000Y-56250000D01*
X59100000Y-57750000D02*
X59100000Y-58150000D01*
X57600000Y-56250000D02*
X59100000Y-57750000D01*
X41250000Y-44250000D02*
X41400000Y-44250000D01*
X39800000Y-42800000D02*
X41250000Y-44250000D01*
X28600000Y-42800000D02*
X39800000Y-42800000D01*
X40400000Y-45250000D02*
X40400000Y-48625000D01*
X45050000Y-44250000D02*
X41400000Y-44250000D01*
X41400000Y-44250000D02*
X40400000Y-45250000D01*
X56900000Y-56250000D02*
X57350000Y-56250000D01*
X59250000Y-58150000D02*
X59100000Y-58150000D01*
X59750000Y-58150000D02*
X59250000Y-58150000D01*
X59100000Y-58150000D02*
X56900000Y-58150000D01*
X64650000Y-54300000D02*
X64650000Y-54870000D01*
X64650000Y-54870000D02*
X65170000Y-55390000D01*
X32200000Y-48300000D02*
X35150000Y-48300000D01*
X35150000Y-48300000D02*
X35200000Y-48250000D01*
X38735000Y-48625000D02*
X35575000Y-48625000D01*
X35575000Y-48625000D02*
X35200000Y-48250000D01*
X51250000Y-49150000D02*
X51250000Y-48650000D01*
X46850000Y-44250000D02*
X45050000Y-44250000D01*
X51250000Y-48650000D02*
X46850000Y-44250000D01*
X63450000Y-44250000D02*
X64150000Y-44250000D01*
X64150000Y-44250000D02*
X65750000Y-45850000D01*
X63450000Y-36200000D02*
X64100000Y-36200000D01*
X65000000Y-42700000D02*
X63450000Y-44250000D01*
X65000000Y-37100000D02*
X65000000Y-42700000D01*
X64100000Y-36200000D02*
X65000000Y-37100000D01*
X58775000Y-36450000D02*
X58775000Y-35325000D01*
X62250000Y-35000000D02*
X63450000Y-36200000D01*
X59100000Y-35000000D02*
X62250000Y-35000000D01*
X58775000Y-35325000D02*
X59100000Y-35000000D01*
X67650000Y-54300000D02*
X68500000Y-54300000D01*
X68500000Y-54300000D02*
X68600000Y-54200000D01*
X66150000Y-54300000D02*
X66150000Y-51900000D01*
X66150000Y-51900000D02*
X66500000Y-51550000D01*
X35900000Y-65500000D02*
X35900000Y-66100000D01*
X35900000Y-66100000D02*
X36600000Y-66800000D01*
X67900000Y-54300000D02*
X67650000Y-54300000D01*
X67650000Y-54300000D02*
X67200000Y-54300000D01*
X67200000Y-54300000D02*
X66150000Y-54300000D01*
X66150000Y-54300000D02*
X64650000Y-54300000D01*
X67900000Y-54300000D02*
X68000000Y-54200000D01*
X56900000Y-56250000D02*
X56750000Y-56250000D01*
X35416000Y-65466000D02*
X35692000Y-65466000D01*
X41980000Y-51630000D02*
X41980000Y-48695000D01*
X41980000Y-48695000D02*
X41910000Y-48625000D01*
X38735000Y-48625000D02*
X40400000Y-48625000D01*
X40400000Y-48625000D02*
X41910000Y-48625000D01*
X65170000Y-55390000D02*
X65170000Y-59260000D01*
X65170000Y-59260000D02*
X64220000Y-60210000D01*
X64220000Y-60210000D02*
X62410000Y-60210000D01*
X60350000Y-58500000D02*
X60100000Y-58500000D01*
X60100000Y-58500000D02*
X59750000Y-58150000D01*
X62410000Y-60210000D02*
X60400000Y-58200000D01*
X60350000Y-58150000D02*
X60400000Y-58200000D01*
X63100000Y-63000000D02*
X64600000Y-63000000D01*
X66600000Y-69750000D02*
X66600000Y-68750000D01*
X66600000Y-69750000D02*
X68208000Y-71358000D01*
X66350000Y-68500000D02*
X66600000Y-68750000D01*
X66350000Y-64750000D02*
X66350000Y-68500000D01*
X64600000Y-63000000D02*
X66350000Y-64750000D01*
X68326000Y-71358000D02*
X68208000Y-71358000D01*
X68326000Y-71358000D02*
X67958000Y-71358000D01*
X59436000Y-70104000D02*
X61496000Y-70104000D01*
X59496000Y-68580000D02*
X59496000Y-70044000D01*
X59436000Y-70104000D02*
X59496000Y-70044000D01*
X62400000Y-69200000D02*
X63450000Y-69200000D01*
X61496000Y-70104000D02*
X62400000Y-69200000D01*
X53900000Y-53900000D02*
X53300000Y-54500000D01*
X54800000Y-53900000D02*
X53900000Y-53900000D01*
X54700000Y-54000000D02*
X54800000Y-53900000D01*
X54700000Y-56250000D02*
X54700000Y-54000000D01*
X17150000Y-35250000D02*
X17000000Y-35100000D01*
X27050000Y-65100000D02*
X27050000Y-74760000D01*
X26010000Y-80090000D02*
X24300000Y-81800000D01*
X26010000Y-75800000D02*
X26010000Y-80090000D01*
X27050000Y-74760000D02*
X26010000Y-75800000D01*
X31820000Y-76090000D02*
X28720000Y-76090000D01*
X28720000Y-76090000D02*
X28700000Y-76070000D01*
X31820000Y-76090000D02*
X31820000Y-81700000D01*
X31820000Y-81700000D02*
X31920000Y-81800000D01*
X31920000Y-76190000D02*
X31820000Y-76090000D01*
X24270000Y-63300000D02*
X24270000Y-63730000D01*
X25640000Y-65100000D02*
X27050000Y-65100000D01*
X24270000Y-63730000D02*
X25640000Y-65100000D01*
X47299778Y-68899925D02*
X47299778Y-69549778D01*
X60796000Y-64054000D02*
X58850000Y-66000000D01*
X58850000Y-66000000D02*
X57600000Y-66000000D01*
X57600000Y-66000000D02*
X53100000Y-70500000D01*
X60796000Y-64054000D02*
X60796000Y-63030000D01*
X52650000Y-70950000D02*
X53100000Y-70500000D01*
X48700000Y-70950000D02*
X52650000Y-70950000D01*
X47299778Y-69549778D02*
X48700000Y-70950000D01*
X54650000Y-56300000D02*
X54700000Y-56250000D01*
X54650000Y-56300000D02*
X54700000Y-56250000D01*
X63100000Y-63000000D02*
X63350000Y-63000000D01*
X68326000Y-71358000D02*
X68326000Y-71226000D01*
X47100000Y-66250000D02*
X47350000Y-66500000D01*
X46400000Y-65550000D02*
X47100000Y-66250000D01*
X45500000Y-65550000D02*
X46400000Y-65550000D01*
X47350000Y-66500000D02*
X47350000Y-68849703D01*
X47350000Y-68849703D02*
X47299778Y-68899925D01*
X45660000Y-65715000D02*
X45855000Y-65520000D01*
X68072000Y-71612000D02*
X68072000Y-73406000D01*
X68072000Y-73406000D02*
X67183000Y-74295000D01*
X62738000Y-63008000D02*
X60818000Y-63008000D01*
X60818000Y-63008000D02*
X60796000Y-63030000D01*
X60818000Y-63008000D02*
X60796000Y-63030000D01*
X60818000Y-63008000D02*
X60796000Y-63030000D01*
X27110000Y-58570000D02*
X26730000Y-58570000D01*
X26730000Y-58570000D02*
X25325000Y-59975000D01*
X25325000Y-59975000D02*
X18045000Y-59975000D01*
X18045000Y-59975000D02*
X17000000Y-61020000D01*
X61100000Y-54600000D02*
X61400000Y-54300000D01*
X62750000Y-54300000D02*
X61400000Y-54300000D01*
X62750000Y-54300000D02*
X62750000Y-55550000D01*
X62750000Y-55550000D02*
X63500000Y-56300000D01*
X72136000Y-46132000D02*
X72118000Y-46132000D01*
X72118000Y-46132000D02*
X67700000Y-50550000D01*
X67700000Y-50550000D02*
X66200000Y-50550000D01*
X66200000Y-50550000D02*
X64650000Y-52100000D01*
X64650000Y-52100000D02*
X64650000Y-52650000D01*
X63700000Y-53600000D02*
X63700000Y-54300000D01*
X64650000Y-52650000D02*
X63700000Y-53600000D01*
X28600000Y-44700000D02*
X30300000Y-44700000D01*
X45180000Y-52920000D02*
X45180000Y-51630000D01*
X44600000Y-53500000D02*
X45180000Y-52920000D01*
X30300000Y-44700000D02*
X30350000Y-44750000D01*
X27120000Y-52200000D02*
X27120000Y-52020000D01*
X27120000Y-52020000D02*
X25600000Y-50500000D01*
X27650000Y-44700000D02*
X28600000Y-44700000D01*
X25600000Y-46750000D02*
X27650000Y-44700000D01*
X25600000Y-50500000D02*
X25600000Y-46750000D01*
X27120000Y-52200000D02*
X27120000Y-52010000D01*
X27120000Y-52200000D02*
X27120000Y-51950000D01*
X30930000Y-52200000D02*
X30930000Y-50820000D01*
X31600000Y-50150000D02*
X35200000Y-50150000D01*
X30930000Y-50820000D02*
X31600000Y-50150000D01*
X35450000Y-50250000D02*
X40850000Y-50250000D01*
X40850000Y-50250000D02*
X41180000Y-50580000D01*
X35400000Y-50300000D02*
X35450000Y-50250000D01*
X41180000Y-50580000D02*
X41180000Y-51630000D01*
X32200000Y-52200000D02*
X32550000Y-52200000D01*
X32550000Y-52200000D02*
X33120000Y-51630000D01*
X33120000Y-51630000D02*
X40380000Y-51630000D01*
X43999810Y-68899925D02*
X43999810Y-62249810D01*
X43580000Y-61830000D02*
X43580000Y-60130000D01*
X43999810Y-62249810D02*
X43580000Y-61830000D01*
X46199704Y-68899925D02*
X46199704Y-67349704D01*
X42780000Y-62080000D02*
X42780000Y-60130000D01*
X43350000Y-62650000D02*
X42780000Y-62080000D01*
X43350000Y-63950000D02*
X43350000Y-62650000D01*
X46199704Y-67349704D02*
X45750000Y-66900000D01*
X42800000Y-60150000D02*
X42780000Y-60130000D01*
X48399852Y-68899925D02*
X48399852Y-64249852D01*
X44380000Y-61830000D02*
X44380000Y-60130000D01*
X44850000Y-62300000D02*
X44380000Y-61830000D01*
X46450000Y-62300000D02*
X44850000Y-62300000D01*
X48399852Y-64249852D02*
X46450000Y-62300000D01*
X49499926Y-68899925D02*
X49499926Y-67050074D01*
X41980000Y-61680000D02*
X41980000Y-60130000D01*
X42150000Y-61850000D02*
X41980000Y-61680000D01*
X49499926Y-67050074D02*
X49500000Y-67050000D01*
X41799662Y-68899925D02*
X41799662Y-68549662D01*
X41799662Y-68549662D02*
X40750000Y-67500000D01*
X38500000Y-60450000D02*
X38930000Y-60020000D01*
X38930000Y-60020000D02*
X38930000Y-58680000D01*
X38930000Y-58680000D02*
X38320000Y-58680000D01*
X23100000Y-49000000D02*
X22600000Y-49000000D01*
X22600000Y-49000000D02*
X18860000Y-45260000D01*
X18860000Y-45260000D02*
X17000000Y-45260000D01*
X23100000Y-49000000D02*
X23100000Y-48820000D01*
X17000000Y-45260000D02*
X17110000Y-45260000D01*
X36180000Y-55480000D02*
X38930000Y-55480000D01*
X36050000Y-55350000D02*
X36180000Y-55480000D01*
X23100000Y-37500000D02*
X17140000Y-37500000D01*
X17140000Y-37500000D02*
X17000000Y-37640000D01*
X22710000Y-37640000D02*
X23100000Y-37250000D01*
X37380000Y-54680000D02*
X38930000Y-54680000D01*
X36650000Y-53950000D02*
X37380000Y-54680000D01*
X70993000Y-76835000D02*
X71120000Y-76708000D01*
X67183000Y-76835000D02*
X70993000Y-76835000D01*
X67183000Y-75565000D02*
X68453000Y-75565000D01*
X68453000Y-75565000D02*
X68580000Y-75692000D01*
X67183000Y-80645000D02*
X71501000Y-80645000D01*
X71501000Y-80645000D02*
X73660000Y-82804000D01*
X72600000Y-53000000D02*
X72600000Y-58884000D01*
X72600000Y-58884000D02*
X73660000Y-59944000D01*
X60833000Y-74295000D02*
X62357000Y-74295000D01*
X62357000Y-74295000D02*
X62484000Y-74168000D01*
X62225000Y-79375000D02*
X60833000Y-79375000D01*
X62225000Y-79375000D02*
X62350000Y-79250000D01*
X73660000Y-67564000D02*
X73660000Y-67690000D01*
X73660000Y-67690000D02*
X71850000Y-69500000D01*
X71850000Y-69500000D02*
X71850000Y-73500000D01*
X60833000Y-75565000D02*
X62103000Y-75565000D01*
X62103000Y-75565000D02*
X62484000Y-75184000D01*
X60833000Y-78105000D02*
X62103000Y-78105000D01*
X62103000Y-78105000D02*
X62484000Y-77724000D01*
X67183000Y-79375000D02*
X69469000Y-79375000D01*
X69469000Y-79375000D02*
X73660000Y-75184000D01*
X67310000Y-79248000D02*
X67183000Y-79375000D01*
X73550000Y-51000000D02*
X73550000Y-50100000D01*
X47720000Y-51630000D02*
X45980000Y-51630000D01*
X47800000Y-51550000D02*
X47720000Y-51630000D01*
X73550000Y-50100000D02*
X73800000Y-49850000D01*
X73550000Y-51000000D02*
X73550000Y-50750000D01*
X24270000Y-61400000D02*
X24750000Y-61400000D01*
X24750000Y-61400000D02*
X26550000Y-63200000D01*
X26550000Y-63200000D02*
X27050000Y-63200000D01*
X38930000Y-56280000D02*
X37390000Y-56280000D01*
X30470000Y-63200000D02*
X27050000Y-63200000D01*
X37390000Y-56280000D02*
X30470000Y-63200000D01*
X28700000Y-74170000D02*
X28700000Y-65770000D01*
X29230000Y-65240000D02*
X37390000Y-57080000D01*
X37390000Y-57080000D02*
X38930000Y-57080000D01*
X28700000Y-65770000D02*
X29230000Y-65240000D01*
X26840000Y-81800000D02*
X26840000Y-76030000D01*
X26840000Y-76030000D02*
X28700000Y-74170000D01*
X34460000Y-81800000D02*
X34400000Y-81800000D01*
X34400000Y-81800000D02*
X33600000Y-81000000D01*
X33600000Y-81000000D02*
X33600000Y-75250000D01*
X33600000Y-75250000D02*
X32540000Y-74190000D01*
X32540000Y-74190000D02*
X31820000Y-74190000D01*
X31820000Y-74190000D02*
X31820000Y-63560000D01*
X37500000Y-57880000D02*
X38930000Y-57880000D01*
X31820000Y-63560000D02*
X37500000Y-57880000D01*
X31820000Y-74190000D02*
X32340000Y-74190000D01*
X47430000Y-57080000D02*
X48543602Y-57080000D01*
X48543602Y-57080000D02*
X55963602Y-64500000D01*
X55963602Y-64500000D02*
X58100000Y-64500000D01*
X58100000Y-64500000D02*
X58846000Y-63754000D01*
X58846000Y-63754000D02*
X58846000Y-63030000D01*
X47430000Y-58680000D02*
X48780000Y-58680000D01*
X60146000Y-63954000D02*
X60146000Y-63030000D01*
X58600000Y-65500000D02*
X60146000Y-63954000D01*
X55600000Y-65500000D02*
X58600000Y-65500000D01*
X48780000Y-58680000D02*
X55600000Y-65500000D01*
X58196000Y-63030000D02*
X58196000Y-63654000D01*
X58196000Y-63654000D02*
X57850000Y-64000000D01*
X57850000Y-64000000D02*
X56100000Y-64000000D01*
X56100000Y-64000000D02*
X48380000Y-56280000D01*
X48380000Y-56280000D02*
X47430000Y-56280000D01*
X59496000Y-63030000D02*
X59496000Y-63854000D01*
X48707204Y-57880000D02*
X47430000Y-57880000D01*
X55827204Y-65000000D02*
X48707204Y-57880000D01*
X58350000Y-65000000D02*
X55827204Y-65000000D01*
X59496000Y-63854000D02*
X58350000Y-65000000D01*
X47462000Y-57912000D02*
X47430000Y-57880000D01*
X67183000Y-81915000D02*
X66165000Y-81915000D01*
X47930000Y-60130000D02*
X45980000Y-60130000D01*
X48050000Y-60250000D02*
X47930000Y-60130000D01*
X64600000Y-74100000D02*
X63000000Y-72500000D01*
X64600000Y-80350000D02*
X64600000Y-74100000D01*
X66165000Y-81915000D02*
X64600000Y-80350000D01*
X67183000Y-81915000D02*
X66715000Y-81915000D01*
X67183000Y-83185000D02*
X66635000Y-83185000D01*
X66635000Y-83185000D02*
X63500000Y-80050000D01*
X63500000Y-80050000D02*
X63500000Y-74300000D01*
X63500000Y-74300000D02*
X61900000Y-72700000D01*
X47650000Y-61650000D02*
X47550000Y-61750000D01*
X47550000Y-61750000D02*
X45450000Y-61750000D01*
X45450000Y-61750000D02*
X45180000Y-61480000D01*
X45180000Y-61480000D02*
X45180000Y-60130000D01*
X45200000Y-60110000D02*
X45180000Y-60130000D01*
X54700000Y-58150000D02*
X53850000Y-58150000D01*
X50980000Y-53880000D02*
X47430000Y-53880000D01*
X52200000Y-55100000D02*
X50980000Y-53880000D01*
X52200000Y-56500000D02*
X52200000Y-55100000D01*
X53850000Y-58150000D02*
X52200000Y-56500000D01*
X54650000Y-58100000D02*
X54700000Y-58150000D01*
X47430000Y-53080000D02*
X53220000Y-53080000D01*
X54200000Y-52100000D02*
X62750000Y-52100000D01*
X53220000Y-53080000D02*
X54200000Y-52100000D01*
X62466000Y-51816000D02*
X62750000Y-52100000D01*
X51250000Y-51050000D02*
X50850000Y-51050000D01*
X50850000Y-51050000D02*
X49850000Y-52050000D01*
X49120000Y-55480000D02*
X47430000Y-55480000D01*
X49200000Y-55400000D02*
X49120000Y-55480000D01*
X58775000Y-45750000D02*
X58775000Y-49825000D01*
X51700000Y-50600000D02*
X51250000Y-51050000D01*
X58000000Y-50600000D02*
X51700000Y-50600000D01*
X58775000Y-49825000D02*
X58000000Y-50600000D01*
X47430000Y-54680000D02*
X50470000Y-54680000D01*
X60045000Y-49755000D02*
X60045000Y-45750000D01*
X58400000Y-51400000D02*
X60045000Y-49755000D01*
X54150000Y-51400000D02*
X58400000Y-51400000D01*
X50470000Y-54680000D02*
X50500000Y-54650000D01*
X60045000Y-45750000D02*
X63050000Y-45750000D01*
X63050000Y-45750000D02*
X63450000Y-46150000D01*
X45050000Y-42350000D02*
X46550000Y-42350000D01*
X44380000Y-50520000D02*
X44380000Y-51630000D01*
X44900000Y-50000000D02*
X44380000Y-50520000D01*
X46550000Y-42350000D02*
X46650000Y-42450000D01*
X57505000Y-36450000D02*
X57505000Y-35355000D01*
X46850000Y-40550000D02*
X45050000Y-42350000D01*
X46850000Y-38500000D02*
X46850000Y-40550000D01*
X50300000Y-35050000D02*
X46850000Y-38500000D01*
X57200000Y-35050000D02*
X50300000Y-35050000D01*
X57505000Y-35355000D02*
X57200000Y-35050000D01*
X38898000Y-53848000D02*
X38930000Y-53880000D01*
X44950000Y-46650000D02*
X44750000Y-46650000D01*
X44750000Y-46650000D02*
X43300000Y-48100000D01*
X43300000Y-48100000D02*
X43300000Y-49550000D01*
X43300000Y-49550000D02*
X42780000Y-50070000D01*
X42780000Y-50070000D02*
X42780000Y-51630000D01*
X35900000Y-63600000D02*
X38700000Y-63600000D01*
X38700000Y-63600000D02*
X38800000Y-63500000D01*
X38750000Y-63550000D02*
X38800000Y-63500000D01*
X38800000Y-63500000D02*
X38800000Y-61710000D01*
X38800000Y-61710000D02*
X40380000Y-60130000D01*
X38800000Y-63500000D02*
X41800000Y-63500000D01*
X38750000Y-63550000D02*
X38800000Y-63500000D01*
X39182000Y-63566000D02*
X39232000Y-63516000D01*
X58846000Y-68580000D02*
X58846000Y-69654000D01*
X56650000Y-74000000D02*
X57450000Y-74800000D01*
X56650000Y-71850000D02*
X56650000Y-74000000D01*
X58846000Y-69654000D02*
X56650000Y-71850000D01*
X57450000Y-74800000D02*
X57900000Y-74800000D01*
X57912000Y-77232000D02*
X57912000Y-74812000D01*
X57912000Y-74812000D02*
X57900000Y-74800000D01*
X57912000Y-77232000D02*
X57912000Y-77112000D01*
X60833000Y-76835000D02*
X58277000Y-76835000D01*
X58277000Y-76835000D02*
X57912000Y-77200000D01*
X57912000Y-79232000D02*
X57912000Y-79212000D01*
X57912000Y-79212000D02*
X56100000Y-77400000D01*
X56100000Y-70900000D02*
X57546000Y-69454000D01*
X56100000Y-77400000D02*
X56100000Y-70900000D01*
X57912000Y-79232000D02*
X57832000Y-79232000D01*
X57950000Y-82000000D02*
X57950000Y-81750000D01*
X57950000Y-81750000D02*
X58928000Y-80772000D01*
X57546000Y-69454000D02*
X58046000Y-69454000D01*
X58196000Y-69304000D02*
X58196000Y-68580000D01*
X58046000Y-69454000D02*
X58196000Y-69304000D01*
X57546000Y-69454000D02*
X57546000Y-68580000D01*
X67183000Y-78105000D02*
X65659000Y-78105000D01*
X65659000Y-78105000D02*
X65532000Y-78232000D01*
X58928000Y-80772000D02*
X57912000Y-79756000D01*
X57912000Y-79756000D02*
X57912000Y-79232000D01*
X27110000Y-60470000D02*
X23000000Y-60470000D01*
X22270000Y-61200000D02*
X22270000Y-62350000D01*
X23000000Y-60470000D02*
X22270000Y-61200000D01*
X22270000Y-62350000D02*
X18210000Y-62350000D01*
X18210000Y-62350000D02*
X17000000Y-63560000D01*
X17000000Y-63560000D02*
X17000000Y-63500000D01*
X17000000Y-63500000D02*
X15600000Y-62100000D01*
X15600000Y-57340000D02*
X17000000Y-55940000D01*
X15600000Y-62100000D02*
X15600000Y-57340000D01*
X17000000Y-73240000D02*
X17000000Y-73200000D01*
X17000000Y-73200000D02*
X15500000Y-71700000D01*
X15500000Y-65060000D02*
X17000000Y-63560000D01*
X15500000Y-71700000D02*
X15500000Y-65060000D01*
X17000000Y-73240000D02*
X17000000Y-73500000D01*
X17000000Y-73500000D02*
X15600000Y-74900000D01*
X15600000Y-79460000D02*
X17000000Y-80860000D01*
X15600000Y-74900000D02*
X15600000Y-79460000D01*
X60225000Y-36550000D02*
X60225000Y-35825000D01*
X38930000Y-53080000D02*
X35745000Y-53080000D01*
X33500000Y-55325000D02*
X33500000Y-55725000D01*
X35745000Y-53080000D02*
X33500000Y-55325000D01*
X33500000Y-57625000D02*
X33500000Y-57650000D01*
X33500000Y-57650000D02*
X32350000Y-58800000D01*
X32350000Y-58800000D02*
X30150000Y-58800000D01*
X33500000Y-57625000D02*
X33475000Y-57625000D01*
D37*
G36*
X16188200Y-33882757D02*
X15784176Y-34286077D01*
X15565250Y-34813309D01*
X15564752Y-35384187D01*
X15782757Y-35911800D01*
X16186077Y-36315824D01*
X16316215Y-36369862D01*
X16188200Y-36422757D01*
X15784176Y-36826077D01*
X15565250Y-37353309D01*
X15564752Y-37924187D01*
X15782757Y-38451800D01*
X16186077Y-38855824D01*
X16300768Y-38903448D01*
X16245995Y-38926136D01*
X16171861Y-39172255D01*
X17000000Y-40000395D01*
X17828139Y-39172255D01*
X17754005Y-38926136D01*
X17695746Y-38905195D01*
X17811800Y-38857243D01*
X18215824Y-38453923D01*
X18296348Y-38260000D01*
X21887721Y-38260000D01*
X22010910Y-38451441D01*
X22079006Y-38497969D01*
X21936673Y-38640302D01*
X21840000Y-38873691D01*
X21840000Y-39214250D01*
X21998750Y-39373000D01*
X22973000Y-39373000D01*
X22973000Y-39353000D01*
X23227000Y-39353000D01*
X23227000Y-39373000D01*
X24201250Y-39373000D01*
X24360000Y-39214250D01*
X24360000Y-38873691D01*
X24263327Y-38640302D01*
X24122090Y-38499064D01*
X24176441Y-38464090D01*
X24321431Y-38251890D01*
X24372440Y-38000000D01*
X24372440Y-37000000D01*
X24328162Y-36764683D01*
X24189090Y-36548559D01*
X23976890Y-36403569D01*
X23725000Y-36352560D01*
X22475000Y-36352560D01*
X22239683Y-36396838D01*
X22023559Y-36535910D01*
X21884110Y-36740000D01*
X18129197Y-36740000D01*
X17813923Y-36424176D01*
X17683785Y-36370138D01*
X17811800Y-36317243D01*
X18215824Y-35913923D01*
X18434750Y-35386691D01*
X18435248Y-34815813D01*
X18217243Y-34288200D01*
X17813923Y-33884176D01*
X17382420Y-33705000D01*
X75473000Y-33705000D01*
X75473000Y-51723000D01*
X74532007Y-51723000D01*
X74546431Y-51701890D01*
X74597440Y-51450000D01*
X74597440Y-50550000D01*
X74569732Y-50402747D01*
X74592192Y-50380327D01*
X74734838Y-50036799D01*
X74735162Y-49664833D01*
X74593117Y-49321057D01*
X74330327Y-49057808D01*
X73986799Y-48915162D01*
X73614833Y-48914838D01*
X73271057Y-49056883D01*
X73007808Y-49319673D01*
X72865162Y-49663201D01*
X72865057Y-49783411D01*
X72847852Y-49809161D01*
X72806636Y-50016364D01*
X72698559Y-50085910D01*
X72603010Y-50225750D01*
X72588327Y-50190302D01*
X72409699Y-50011673D01*
X72176310Y-49915000D01*
X71935750Y-49915000D01*
X71777000Y-50073750D01*
X71777000Y-50873000D01*
X71797000Y-50873000D01*
X71797000Y-51127000D01*
X71777000Y-51127000D01*
X71777000Y-51147000D01*
X71523000Y-51147000D01*
X71523000Y-51127000D01*
X70773750Y-51127000D01*
X70615000Y-51285750D01*
X70615000Y-51576309D01*
X70677637Y-51727529D01*
X70650590Y-51733006D01*
X70608965Y-51761447D01*
X70581685Y-51803841D01*
X70573000Y-51850000D01*
X70573000Y-63850000D01*
X70583006Y-63899410D01*
X70611447Y-63941035D01*
X70653841Y-63968315D01*
X70700000Y-63977000D01*
X72807390Y-63977000D01*
X72886077Y-64055824D01*
X73016215Y-64109862D01*
X72888200Y-64162757D01*
X72484176Y-64566077D01*
X72265250Y-65093309D01*
X72264752Y-65664187D01*
X72482757Y-66191800D01*
X72886077Y-66595824D01*
X73016215Y-66649862D01*
X72888200Y-66702757D01*
X72484176Y-67106077D01*
X72265250Y-67633309D01*
X72264921Y-68010277D01*
X71312599Y-68962599D01*
X71147852Y-69209161D01*
X71090000Y-69500000D01*
X71090000Y-72937537D01*
X71057808Y-72969673D01*
X70915162Y-73313201D01*
X70914838Y-73685167D01*
X71056883Y-74028943D01*
X71319673Y-74292192D01*
X71663201Y-74434838D01*
X72035167Y-74435162D01*
X72378943Y-74293117D01*
X72642192Y-74030327D01*
X72659439Y-73988791D01*
X72886077Y-74215824D01*
X73016215Y-74269862D01*
X72888200Y-74322757D01*
X72484176Y-74726077D01*
X72265250Y-75253309D01*
X72265031Y-75504167D01*
X71751770Y-76017428D01*
X71650327Y-75915808D01*
X71306799Y-75773162D01*
X70934833Y-75772838D01*
X70591057Y-75914883D01*
X70430660Y-76075000D01*
X69433368Y-76075000D01*
X69514838Y-75878799D01*
X69515162Y-75506833D01*
X69373117Y-75163057D01*
X69110327Y-74899808D01*
X68766799Y-74757162D01*
X68394833Y-74756838D01*
X68356657Y-74772612D01*
X68401940Y-74549000D01*
X68401940Y-74150862D01*
X68609401Y-73943401D01*
X68774148Y-73696839D01*
X68832000Y-73406000D01*
X68832000Y-72505440D01*
X68951000Y-72505440D01*
X69186317Y-72461162D01*
X69402441Y-72322090D01*
X69547431Y-72109890D01*
X69598440Y-71858000D01*
X69598440Y-70858000D01*
X69554162Y-70622683D01*
X69415090Y-70406559D01*
X69346994Y-70360031D01*
X69489327Y-70217698D01*
X69586000Y-69984309D01*
X69586000Y-69643750D01*
X69427250Y-69485000D01*
X68453000Y-69485000D01*
X68453000Y-69505000D01*
X68199000Y-69505000D01*
X68199000Y-69485000D01*
X68179000Y-69485000D01*
X68179000Y-69231000D01*
X68199000Y-69231000D01*
X68199000Y-68381750D01*
X68453000Y-68381750D01*
X68453000Y-69231000D01*
X69427250Y-69231000D01*
X69586000Y-69072250D01*
X69586000Y-68731691D01*
X69489327Y-68498302D01*
X69310699Y-68319673D01*
X69077310Y-68223000D01*
X68611750Y-68223000D01*
X68453000Y-68381750D01*
X68199000Y-68381750D01*
X68040250Y-68223000D01*
X67574690Y-68223000D01*
X67420337Y-68286935D01*
X67393117Y-68221057D01*
X67130327Y-67957808D01*
X67110000Y-67949367D01*
X67110000Y-66407217D01*
X67164990Y-66540303D01*
X67557630Y-66933629D01*
X68070900Y-67146757D01*
X68626661Y-67147242D01*
X69140303Y-66935010D01*
X69533629Y-66542370D01*
X69746757Y-66029100D01*
X69747242Y-65473339D01*
X69535010Y-64959697D01*
X69142370Y-64566371D01*
X68629100Y-64353243D01*
X68073339Y-64352758D01*
X67559697Y-64564990D01*
X67166371Y-64957630D01*
X67110000Y-65093387D01*
X67110000Y-64750000D01*
X67052148Y-64459161D01*
X66887401Y-64212599D01*
X65137401Y-62462599D01*
X64890839Y-62297852D01*
X64600000Y-62240000D01*
X64312279Y-62240000D01*
X64189090Y-62048559D01*
X63976890Y-61903569D01*
X63725000Y-61852560D01*
X62475000Y-61852560D01*
X62239683Y-61896838D01*
X62023559Y-62035910D01*
X61878644Y-62248000D01*
X61585209Y-62248000D01*
X61460090Y-62053559D01*
X61247890Y-61908569D01*
X60996000Y-61857560D01*
X60596000Y-61857560D01*
X60466411Y-61881944D01*
X60346000Y-61857560D01*
X59946000Y-61857560D01*
X59816411Y-61881944D01*
X59696000Y-61857560D01*
X59296000Y-61857560D01*
X59166411Y-61881944D01*
X59046000Y-61857560D01*
X58646000Y-61857560D01*
X58516411Y-61881944D01*
X58396000Y-61857560D01*
X57996000Y-61857560D01*
X57866411Y-61881944D01*
X57746000Y-61857560D01*
X57346000Y-61857560D01*
X57240295Y-61877450D01*
X57222310Y-61870000D01*
X57154750Y-61870000D01*
X57125746Y-61899004D01*
X57110683Y-61901838D01*
X56894559Y-62040910D01*
X56796000Y-62185156D01*
X56796000Y-62028750D01*
X56637250Y-61870000D01*
X56569690Y-61870000D01*
X56336301Y-61966673D01*
X56157673Y-62145302D01*
X56061000Y-62378691D01*
X56061000Y-62744250D01*
X56219748Y-62902998D01*
X56077800Y-62902998D01*
X54848401Y-61673599D01*
X65744699Y-61673599D01*
X66008281Y-62311515D01*
X66495918Y-62800004D01*
X67133373Y-63064699D01*
X67823599Y-63065301D01*
X68461515Y-62801719D01*
X68950004Y-62314082D01*
X69214699Y-61676627D01*
X69215301Y-60986401D01*
X68951719Y-60348485D01*
X68464082Y-59859996D01*
X67826627Y-59595301D01*
X67136401Y-59594699D01*
X66498485Y-59858281D01*
X66009996Y-60345918D01*
X65745301Y-60983373D01*
X65744699Y-61673599D01*
X54848401Y-61673599D01*
X49473476Y-56298674D01*
X49728943Y-56193117D01*
X49992192Y-55930327D01*
X50134838Y-55586799D01*
X50134904Y-55510802D01*
X50313201Y-55584838D01*
X50685167Y-55585162D01*
X51028943Y-55443117D01*
X51248821Y-55223623D01*
X51440000Y-55414802D01*
X51440000Y-56500000D01*
X51497852Y-56790839D01*
X51662599Y-57037401D01*
X53312599Y-58687401D01*
X53559160Y-58852148D01*
X53672627Y-58874718D01*
X53705910Y-58926441D01*
X53918110Y-59071431D01*
X54170000Y-59122440D01*
X55230000Y-59122440D01*
X55465317Y-59078162D01*
X55681441Y-58939090D01*
X55801233Y-58763768D01*
X55905910Y-58926441D01*
X56118110Y-59071431D01*
X56370000Y-59122440D01*
X57430000Y-59122440D01*
X57665317Y-59078162D01*
X57881441Y-58939090D01*
X57901317Y-58910000D01*
X59077560Y-58910000D01*
X59077560Y-59000000D01*
X59121838Y-59235317D01*
X59260910Y-59451441D01*
X59473110Y-59596431D01*
X59725000Y-59647440D01*
X60772638Y-59647440D01*
X61872599Y-60747401D01*
X62119160Y-60912148D01*
X62410000Y-60970000D01*
X64220000Y-60970000D01*
X64510839Y-60912148D01*
X64757401Y-60747401D01*
X65707401Y-59797401D01*
X65872148Y-59550839D01*
X65930000Y-59260000D01*
X65930000Y-55390000D01*
X65872148Y-55099161D01*
X65845982Y-55060000D01*
X67452069Y-55060000D01*
X67510910Y-55151441D01*
X67723110Y-55296431D01*
X67975000Y-55347440D01*
X69225000Y-55347440D01*
X69460317Y-55303162D01*
X69676441Y-55164090D01*
X69821431Y-54951890D01*
X69872440Y-54700000D01*
X69872440Y-53700000D01*
X69828162Y-53464683D01*
X69689090Y-53248559D01*
X69620994Y-53202031D01*
X69763327Y-53059698D01*
X69860000Y-52826309D01*
X69860000Y-52485750D01*
X69701250Y-52327000D01*
X68727000Y-52327000D01*
X68727000Y-52347000D01*
X68473000Y-52347000D01*
X68473000Y-52327000D01*
X67498750Y-52327000D01*
X67340000Y-52485750D01*
X67340000Y-52826309D01*
X67436673Y-53059698D01*
X67577910Y-53200936D01*
X67523559Y-53235910D01*
X67378569Y-53448110D01*
X67359961Y-53540000D01*
X66910000Y-53540000D01*
X66910000Y-52392263D01*
X67028943Y-52343117D01*
X67292192Y-52080327D01*
X67354947Y-51929197D01*
X67498750Y-52073000D01*
X68473000Y-52073000D01*
X68473000Y-51223750D01*
X68727000Y-51223750D01*
X68727000Y-52073000D01*
X69701250Y-52073000D01*
X69860000Y-51914250D01*
X69860000Y-51573691D01*
X69763327Y-51340302D01*
X69584699Y-51161673D01*
X69351310Y-51065000D01*
X68885750Y-51065000D01*
X68727000Y-51223750D01*
X68473000Y-51223750D01*
X68314250Y-51065000D01*
X68259802Y-51065000D01*
X68901111Y-50423691D01*
X70615000Y-50423691D01*
X70615000Y-50714250D01*
X70773750Y-50873000D01*
X71523000Y-50873000D01*
X71523000Y-50073750D01*
X71364250Y-49915000D01*
X71123690Y-49915000D01*
X70890301Y-50011673D01*
X70711673Y-50190302D01*
X70615000Y-50423691D01*
X68901111Y-50423691D01*
X71631808Y-47692994D01*
X71809352Y-47766716D01*
X72459795Y-47767284D01*
X73060943Y-47518894D01*
X73521278Y-47059363D01*
X73770716Y-46458648D01*
X73771284Y-45808205D01*
X73522894Y-45207057D01*
X73063363Y-44746722D01*
X72462648Y-44497284D01*
X71812205Y-44496716D01*
X71211057Y-44745106D01*
X70750722Y-45204637D01*
X70501284Y-45805352D01*
X70500716Y-46455795D01*
X70564656Y-46610542D01*
X67385198Y-49790000D01*
X66200000Y-49790000D01*
X65909161Y-49847852D01*
X65662599Y-50012599D01*
X64752638Y-50922560D01*
X64325000Y-50922560D01*
X64184914Y-50948919D01*
X64151310Y-50935000D01*
X63985750Y-50935000D01*
X63827000Y-51093750D01*
X63827000Y-51174051D01*
X63728569Y-51318110D01*
X63700824Y-51455120D01*
X63678162Y-51334683D01*
X63573000Y-51171257D01*
X63573000Y-51093750D01*
X63414250Y-50935000D01*
X63248690Y-50935000D01*
X63211829Y-50950268D01*
X63075000Y-50922560D01*
X62425000Y-50922560D01*
X62189683Y-50966838D01*
X61973559Y-51105910D01*
X61828569Y-51318110D01*
X61824136Y-51340000D01*
X59534802Y-51340000D01*
X60582401Y-50292401D01*
X60747148Y-50045840D01*
X60805000Y-49755000D01*
X60805000Y-48676661D01*
X64202758Y-48676661D01*
X64414990Y-49190303D01*
X64807630Y-49583629D01*
X65320900Y-49796757D01*
X65876661Y-49797242D01*
X66390303Y-49585010D01*
X66783629Y-49192370D01*
X66996757Y-48679100D01*
X66997242Y-48123339D01*
X66785010Y-47609697D01*
X66392370Y-47216371D01*
X65879100Y-47003243D01*
X65323339Y-47002758D01*
X64809697Y-47214990D01*
X64416371Y-47607630D01*
X64203243Y-48120900D01*
X64202758Y-48676661D01*
X60805000Y-48676661D01*
X60805000Y-46951563D01*
X60941431Y-46751890D01*
X60990415Y-46510000D01*
X62154442Y-46510000D01*
X62196838Y-46735317D01*
X62335910Y-46951441D01*
X62548110Y-47096431D01*
X62800000Y-47147440D01*
X64100000Y-47147440D01*
X64335317Y-47103162D01*
X64551441Y-46964090D01*
X64696431Y-46751890D01*
X64747440Y-46500000D01*
X64747440Y-45922242D01*
X64814878Y-45989680D01*
X64814838Y-46035167D01*
X64956883Y-46378943D01*
X65219673Y-46642192D01*
X65563201Y-46784838D01*
X65935167Y-46785162D01*
X66278943Y-46643117D01*
X66542192Y-46380327D01*
X66684838Y-46036799D01*
X66685162Y-45664833D01*
X66543117Y-45321057D01*
X66280327Y-45057808D01*
X65936799Y-44915162D01*
X65889923Y-44915121D01*
X64874802Y-43900000D01*
X65319007Y-43455795D01*
X65800716Y-43455795D01*
X66049106Y-44056943D01*
X66508637Y-44517278D01*
X67109352Y-44766716D01*
X67759795Y-44767284D01*
X68360943Y-44518894D01*
X68821278Y-44059363D01*
X69070716Y-43458648D01*
X69071284Y-42808205D01*
X68822894Y-42207057D01*
X68363363Y-41746722D01*
X67762648Y-41497284D01*
X67112205Y-41496716D01*
X66511057Y-41745106D01*
X66050722Y-42204637D01*
X65801284Y-42805352D01*
X65800716Y-43455795D01*
X65319007Y-43455795D01*
X65537401Y-43237401D01*
X65702148Y-42990839D01*
X65760000Y-42700000D01*
X65760000Y-41284532D01*
X71163073Y-41284532D01*
X71261736Y-41551387D01*
X71871461Y-41777908D01*
X72521460Y-41753856D01*
X73010264Y-41551387D01*
X73108927Y-41284532D01*
X72136000Y-40311605D01*
X71163073Y-41284532D01*
X65760000Y-41284532D01*
X65760000Y-39867461D01*
X70490092Y-39867461D01*
X70514144Y-40517460D01*
X70716613Y-41006264D01*
X70983468Y-41104927D01*
X71956395Y-40132000D01*
X72315605Y-40132000D01*
X73288532Y-41104927D01*
X73555387Y-41006264D01*
X73781908Y-40396539D01*
X73757856Y-39746540D01*
X73555387Y-39257736D01*
X73288532Y-39159073D01*
X72315605Y-40132000D01*
X71956395Y-40132000D01*
X70983468Y-39159073D01*
X70716613Y-39257736D01*
X70490092Y-39867461D01*
X65760000Y-39867461D01*
X65760000Y-38979468D01*
X71163073Y-38979468D01*
X72136000Y-39952395D01*
X73108927Y-38979468D01*
X73010264Y-38712613D01*
X72400539Y-38486092D01*
X71750540Y-38510144D01*
X71261736Y-38712613D01*
X71163073Y-38979468D01*
X65760000Y-38979468D01*
X65760000Y-37100000D01*
X65740109Y-37000000D01*
X65702148Y-36809160D01*
X65537401Y-36562599D01*
X64722440Y-35747638D01*
X64722440Y-35700000D01*
X64678162Y-35464683D01*
X64539090Y-35248559D01*
X64326890Y-35103569D01*
X64075000Y-35052560D01*
X63377362Y-35052560D01*
X62787401Y-34462599D01*
X62540839Y-34297852D01*
X62250000Y-34240000D01*
X59100000Y-34240000D01*
X58857684Y-34288200D01*
X58809160Y-34297852D01*
X58562599Y-34462599D01*
X58237599Y-34787599D01*
X58129977Y-34948667D01*
X58042401Y-34817599D01*
X57737401Y-34512599D01*
X57490839Y-34347852D01*
X57200000Y-34290000D01*
X50300000Y-34290000D01*
X50009161Y-34347852D01*
X49762599Y-34512599D01*
X46312599Y-37962599D01*
X46147852Y-38209161D01*
X46090000Y-38500000D01*
X46090000Y-39065198D01*
X45322440Y-38297638D01*
X45322440Y-36550000D01*
X45278162Y-36314683D01*
X45139090Y-36098559D01*
X44926890Y-35953569D01*
X44675000Y-35902560D01*
X41427362Y-35902560D01*
X40437401Y-34912599D01*
X40190839Y-34747852D01*
X39900000Y-34690000D01*
X30500000Y-34690000D01*
X30209160Y-34747852D01*
X29962599Y-34912599D01*
X28972638Y-35902560D01*
X25425000Y-35902560D01*
X25189683Y-35946838D01*
X24973559Y-36085910D01*
X24828569Y-36298110D01*
X24777560Y-36550000D01*
X24777560Y-40150000D01*
X24821838Y-40385317D01*
X24960910Y-40601441D01*
X25173110Y-40746431D01*
X25425000Y-40797440D01*
X29175000Y-40797440D01*
X29410317Y-40753162D01*
X29626441Y-40614090D01*
X29771431Y-40401890D01*
X29822440Y-40150000D01*
X29822440Y-38635750D01*
X32415000Y-38635750D01*
X32415000Y-40276310D01*
X32511673Y-40509699D01*
X32690302Y-40688327D01*
X32923691Y-40785000D01*
X34764250Y-40785000D01*
X34923000Y-40626250D01*
X34923000Y-38477000D01*
X35177000Y-38477000D01*
X35177000Y-40626250D01*
X35335750Y-40785000D01*
X37176309Y-40785000D01*
X37409698Y-40688327D01*
X37588327Y-40509699D01*
X37685000Y-40276310D01*
X37685000Y-38635750D01*
X37526250Y-38477000D01*
X35177000Y-38477000D01*
X34923000Y-38477000D01*
X32573750Y-38477000D01*
X32415000Y-38635750D01*
X29822440Y-38635750D01*
X29822440Y-37202362D01*
X30814802Y-36210000D01*
X32503513Y-36210000D01*
X32415000Y-36423690D01*
X32415000Y-38064250D01*
X32573750Y-38223000D01*
X34923000Y-38223000D01*
X34923000Y-38203000D01*
X35177000Y-38203000D01*
X35177000Y-38223000D01*
X37526250Y-38223000D01*
X37685000Y-38064250D01*
X37685000Y-36423690D01*
X37596487Y-36210000D01*
X39585198Y-36210000D01*
X40277560Y-36902362D01*
X40277560Y-40150000D01*
X40321838Y-40385317D01*
X40460910Y-40601441D01*
X40673110Y-40746431D01*
X40925000Y-40797440D01*
X44675000Y-40797440D01*
X44910317Y-40753162D01*
X45126441Y-40614090D01*
X45185619Y-40527480D01*
X45206883Y-40578943D01*
X45469673Y-40842192D01*
X45479094Y-40846104D01*
X44972638Y-41352560D01*
X44400000Y-41352560D01*
X44164683Y-41396838D01*
X43948559Y-41535910D01*
X43803569Y-41748110D01*
X43752560Y-42000000D01*
X43752560Y-42700000D01*
X43796838Y-42935317D01*
X43935910Y-43151441D01*
X44148110Y-43296431D01*
X44161197Y-43299081D01*
X43948559Y-43435910D01*
X43911601Y-43490000D01*
X41564802Y-43490000D01*
X40337401Y-42262599D01*
X40090839Y-42097852D01*
X39800000Y-42040000D01*
X29740757Y-42040000D01*
X29714090Y-41998559D01*
X29501890Y-41853569D01*
X29250000Y-41802560D01*
X27950000Y-41802560D01*
X27714683Y-41846838D01*
X27498559Y-41985910D01*
X27353569Y-42198110D01*
X27302560Y-42450000D01*
X27302560Y-43150000D01*
X27346838Y-43385317D01*
X27485910Y-43601441D01*
X27698110Y-43746431D01*
X27711197Y-43749081D01*
X27498559Y-43885910D01*
X27431968Y-43983370D01*
X27359161Y-43997852D01*
X27112599Y-44162599D01*
X25062599Y-46212599D01*
X24897852Y-46459161D01*
X24840000Y-46750000D01*
X24840000Y-50500000D01*
X24897852Y-50790839D01*
X25062599Y-51037401D01*
X26102560Y-52077362D01*
X26102560Y-53400000D01*
X26146838Y-53635317D01*
X26285910Y-53851441D01*
X26498110Y-53996431D01*
X26750000Y-54047440D01*
X27490000Y-54047440D01*
X27725317Y-54003162D01*
X27752428Y-53985716D01*
X27768110Y-53996431D01*
X28020000Y-54047440D01*
X28760000Y-54047440D01*
X28995317Y-54003162D01*
X29022428Y-53985716D01*
X29038110Y-53996431D01*
X29290000Y-54047440D01*
X30030000Y-54047440D01*
X30265317Y-54003162D01*
X30292428Y-53985716D01*
X30308110Y-53996431D01*
X30560000Y-54047440D01*
X31300000Y-54047440D01*
X31535317Y-54003162D01*
X31562428Y-53985716D01*
X31578110Y-53996431D01*
X31830000Y-54047440D01*
X32570000Y-54047440D01*
X32805317Y-54003162D01*
X33021441Y-53864090D01*
X33166431Y-53651890D01*
X33217440Y-53400000D01*
X33217440Y-52607362D01*
X33434802Y-52390000D01*
X35435979Y-52390000D01*
X35207599Y-52542599D01*
X33022638Y-54727560D01*
X32850000Y-54727560D01*
X32614683Y-54771838D01*
X32398559Y-54910910D01*
X32253569Y-55123110D01*
X32202560Y-55375000D01*
X32202560Y-56075000D01*
X32246838Y-56310317D01*
X32385910Y-56526441D01*
X32598110Y-56671431D01*
X32611197Y-56674081D01*
X32398559Y-56810910D01*
X32253569Y-57023110D01*
X32202560Y-57275000D01*
X32202560Y-57872638D01*
X32035198Y-58040000D01*
X31367334Y-58040000D01*
X31353162Y-57964683D01*
X31214090Y-57748559D01*
X31145994Y-57702031D01*
X31288327Y-57559698D01*
X31385000Y-57326309D01*
X31385000Y-56885750D01*
X31226250Y-56727000D01*
X30277000Y-56727000D01*
X30277000Y-56747000D01*
X30023000Y-56747000D01*
X30023000Y-56727000D01*
X29073750Y-56727000D01*
X28915000Y-56885750D01*
X28915000Y-57326309D01*
X29011673Y-57559698D01*
X29152910Y-57700936D01*
X29098559Y-57735910D01*
X28953569Y-57948110D01*
X28902560Y-58200000D01*
X28902560Y-59400000D01*
X28946838Y-59635317D01*
X29085910Y-59851441D01*
X29298110Y-59996431D01*
X29550000Y-60047440D01*
X30750000Y-60047440D01*
X30985317Y-60003162D01*
X31201441Y-59864090D01*
X31346431Y-59651890D01*
X31365039Y-59560000D01*
X32350000Y-59560000D01*
X32640839Y-59502148D01*
X32887401Y-59337401D01*
X33602362Y-58622440D01*
X33972758Y-58622440D01*
X30155198Y-62440000D01*
X28190757Y-62440000D01*
X28164090Y-62398559D01*
X27951890Y-62253569D01*
X27700000Y-62202560D01*
X26627362Y-62202560D01*
X25654802Y-61230000D01*
X25969243Y-61230000D01*
X25995910Y-61271441D01*
X26208110Y-61416431D01*
X26460000Y-61467440D01*
X27760000Y-61467440D01*
X27995317Y-61423162D01*
X28211441Y-61284090D01*
X28356431Y-61071890D01*
X28407440Y-60820000D01*
X28407440Y-60120000D01*
X28363162Y-59884683D01*
X28224090Y-59668559D01*
X28011890Y-59523569D01*
X27998803Y-59520919D01*
X28211441Y-59384090D01*
X28356431Y-59171890D01*
X28407440Y-58920000D01*
X28407440Y-58220000D01*
X28363162Y-57984683D01*
X28224090Y-57768559D01*
X28011890Y-57623569D01*
X27760000Y-57572560D01*
X26460000Y-57572560D01*
X26224683Y-57616838D01*
X26008559Y-57755910D01*
X25863569Y-57968110D01*
X25812560Y-58220000D01*
X25812560Y-58412638D01*
X25010198Y-59215000D01*
X18260695Y-59215000D01*
X18446965Y-58696777D01*
X18419778Y-58126546D01*
X18253864Y-57725995D01*
X18007745Y-57651861D01*
X17179605Y-58480000D01*
X17193748Y-58494142D01*
X17014142Y-58673748D01*
X17000000Y-58659605D01*
X16985858Y-58673748D01*
X16806252Y-58494142D01*
X16820395Y-58480000D01*
X16806252Y-58465858D01*
X16985858Y-58286252D01*
X17000000Y-58300395D01*
X17828139Y-57472255D01*
X17754005Y-57226136D01*
X17695746Y-57205195D01*
X17811800Y-57157243D01*
X18215824Y-56753923D01*
X18247906Y-56676661D01*
X21602758Y-56676661D01*
X21814990Y-57190303D01*
X22207630Y-57583629D01*
X22720900Y-57796757D01*
X23276661Y-57797242D01*
X23790303Y-57585010D01*
X24183629Y-57192370D01*
X24396757Y-56679100D01*
X24397242Y-56123339D01*
X24294090Y-55873691D01*
X28915000Y-55873691D01*
X28915000Y-56314250D01*
X29073750Y-56473000D01*
X30023000Y-56473000D01*
X30023000Y-55523750D01*
X30277000Y-55523750D01*
X30277000Y-56473000D01*
X31226250Y-56473000D01*
X31385000Y-56314250D01*
X31385000Y-55873691D01*
X31288327Y-55640302D01*
X31109699Y-55461673D01*
X30876310Y-55365000D01*
X30435750Y-55365000D01*
X30277000Y-55523750D01*
X30023000Y-55523750D01*
X29864250Y-55365000D01*
X29423690Y-55365000D01*
X29190301Y-55461673D01*
X29011673Y-55640302D01*
X28915000Y-55873691D01*
X24294090Y-55873691D01*
X24185010Y-55609697D01*
X23792370Y-55216371D01*
X23279100Y-55003243D01*
X22723339Y-55002758D01*
X22209697Y-55214990D01*
X21816371Y-55607630D01*
X21603243Y-56120900D01*
X21602758Y-56676661D01*
X18247906Y-56676661D01*
X18434750Y-56226691D01*
X18435248Y-55655813D01*
X18217243Y-55128200D01*
X17813923Y-54724176D01*
X17683785Y-54670138D01*
X17811800Y-54617243D01*
X18215824Y-54213923D01*
X18434750Y-53686691D01*
X18435248Y-53115813D01*
X18217243Y-52588200D01*
X17813923Y-52184176D01*
X17286691Y-51965250D01*
X16715813Y-51964752D01*
X16188200Y-52182757D01*
X15784176Y-52586077D01*
X15565250Y-53113309D01*
X15564752Y-53684187D01*
X15782757Y-54211800D01*
X16186077Y-54615824D01*
X16316215Y-54669862D01*
X16188200Y-54722757D01*
X15784176Y-55126077D01*
X15565250Y-55653309D01*
X15564752Y-56224187D01*
X15587049Y-56278149D01*
X15062599Y-56802599D01*
X14897852Y-57049161D01*
X14840000Y-57340000D01*
X14840000Y-62100000D01*
X14897852Y-62390839D01*
X15062599Y-62637401D01*
X15604348Y-63179150D01*
X15565250Y-63273309D01*
X15564752Y-63844187D01*
X15587049Y-63898149D01*
X14962599Y-64522599D01*
X14797852Y-64769161D01*
X14740000Y-65060000D01*
X14740000Y-71700000D01*
X14797852Y-71990839D01*
X14962599Y-72237401D01*
X15598480Y-72873282D01*
X15565250Y-72953309D01*
X15564752Y-73524187D01*
X15663068Y-73762130D01*
X15062599Y-74362599D01*
X14897852Y-74609161D01*
X14840000Y-74900000D01*
X14840000Y-79460000D01*
X14897852Y-79750839D01*
X15062599Y-79997401D01*
X15586744Y-80521546D01*
X15565250Y-80573309D01*
X15564752Y-81144187D01*
X15782757Y-81671800D01*
X16186077Y-82075824D01*
X16300768Y-82123448D01*
X16245995Y-82146136D01*
X16171861Y-82392255D01*
X17000000Y-83220395D01*
X17828139Y-82392255D01*
X17754005Y-82146136D01*
X17695746Y-82125195D01*
X17811800Y-82077243D01*
X18215824Y-81673923D01*
X18434750Y-81146691D01*
X18435248Y-80575813D01*
X18217243Y-80048200D01*
X17813923Y-79644176D01*
X17683785Y-79590138D01*
X17811800Y-79537243D01*
X18215824Y-79133923D01*
X18434750Y-78606691D01*
X18435248Y-78035813D01*
X18217243Y-77508200D01*
X17813923Y-77104176D01*
X17699232Y-77056552D01*
X17754005Y-77033864D01*
X17828139Y-76787745D01*
X17000000Y-75959605D01*
X16985858Y-75973748D01*
X16806252Y-75794142D01*
X16820395Y-75780000D01*
X17179605Y-75780000D01*
X18007745Y-76608139D01*
X18253864Y-76534005D01*
X18446965Y-75996777D01*
X18419778Y-75426546D01*
X18253864Y-75025995D01*
X18007745Y-74951861D01*
X17179605Y-75780000D01*
X16820395Y-75780000D01*
X16806252Y-75765858D01*
X16985858Y-75586252D01*
X17000000Y-75600395D01*
X17828139Y-74772255D01*
X17754005Y-74526136D01*
X17695746Y-74505195D01*
X17811800Y-74457243D01*
X18215824Y-74053923D01*
X18434750Y-73526691D01*
X18435248Y-72955813D01*
X18388883Y-72843599D01*
X22114699Y-72843599D01*
X22378281Y-73481515D01*
X22865918Y-73970004D01*
X23503373Y-74234699D01*
X24193599Y-74235301D01*
X24831515Y-73971719D01*
X25320004Y-73484082D01*
X25584699Y-72846627D01*
X25585301Y-72156401D01*
X25321719Y-71518485D01*
X24834082Y-71029996D01*
X24196627Y-70765301D01*
X23506401Y-70764699D01*
X22868485Y-71028281D01*
X22379996Y-71515918D01*
X22115301Y-72153373D01*
X22114699Y-72843599D01*
X18388883Y-72843599D01*
X18217243Y-72428200D01*
X17813923Y-72024176D01*
X17683785Y-71970138D01*
X17811800Y-71917243D01*
X18215824Y-71513923D01*
X18434750Y-70986691D01*
X18435248Y-70415813D01*
X18217243Y-69888200D01*
X17813923Y-69484176D01*
X17286691Y-69265250D01*
X16715813Y-69264752D01*
X16260000Y-69453090D01*
X16260000Y-67358898D01*
X16783223Y-67546965D01*
X17353454Y-67519778D01*
X17754005Y-67353864D01*
X17828139Y-67107745D01*
X17000000Y-66279605D01*
X16985858Y-66293748D01*
X16806252Y-66114142D01*
X16820395Y-66100000D01*
X17179605Y-66100000D01*
X18007745Y-66928139D01*
X18253864Y-66854005D01*
X18446965Y-66316777D01*
X18419778Y-65746546D01*
X18253864Y-65345995D01*
X18007745Y-65271861D01*
X17179605Y-66100000D01*
X16820395Y-66100000D01*
X16806252Y-66085858D01*
X16985858Y-65906252D01*
X17000000Y-65920395D01*
X17828139Y-65092255D01*
X17754005Y-64846136D01*
X17695746Y-64825195D01*
X17811800Y-64777243D01*
X18215824Y-64373923D01*
X18434750Y-63846691D01*
X18435248Y-63275813D01*
X18412951Y-63221851D01*
X18524802Y-63110000D01*
X21297069Y-63110000D01*
X21355910Y-63201441D01*
X21568110Y-63346431D01*
X21820000Y-63397440D01*
X22720000Y-63397440D01*
X22955317Y-63353162D01*
X23171441Y-63214090D01*
X23172560Y-63212452D01*
X23172560Y-63700000D01*
X23216838Y-63935317D01*
X23355910Y-64151441D01*
X23568110Y-64296431D01*
X23810769Y-64345571D01*
X25102599Y-65637401D01*
X25349161Y-65802148D01*
X25640000Y-65860000D01*
X25909243Y-65860000D01*
X25935910Y-65901441D01*
X26148110Y-66046431D01*
X26290000Y-66075164D01*
X26290000Y-74445198D01*
X25472599Y-75262599D01*
X25307852Y-75509161D01*
X25250000Y-75800000D01*
X25250000Y-79775198D01*
X24638454Y-80386744D01*
X24586691Y-80365250D01*
X24015813Y-80364752D01*
X23488200Y-80582757D01*
X23084176Y-80986077D01*
X22865250Y-81513309D01*
X22864752Y-82084187D01*
X23082757Y-82611800D01*
X23486077Y-83015824D01*
X24013309Y-83234750D01*
X24584187Y-83235248D01*
X25111800Y-83017243D01*
X25515824Y-82613923D01*
X25569862Y-82483785D01*
X25622757Y-82611800D01*
X26026077Y-83015824D01*
X26553309Y-83234750D01*
X27124187Y-83235248D01*
X27651800Y-83017243D01*
X27861663Y-82807745D01*
X28551861Y-82807745D01*
X28625995Y-83053864D01*
X29163223Y-83246965D01*
X29733454Y-83219778D01*
X30134005Y-83053864D01*
X30208139Y-82807745D01*
X29380000Y-81979605D01*
X28551861Y-82807745D01*
X27861663Y-82807745D01*
X28055824Y-82613923D01*
X28103448Y-82499232D01*
X28126136Y-82554005D01*
X28372255Y-82628139D01*
X29200395Y-81800000D01*
X28372255Y-80971861D01*
X28126136Y-81045995D01*
X28105195Y-81104254D01*
X28057243Y-80988200D01*
X27861640Y-80792255D01*
X28551861Y-80792255D01*
X29380000Y-81620395D01*
X30208139Y-80792255D01*
X30134005Y-80546136D01*
X29596777Y-80353035D01*
X29026546Y-80380222D01*
X28625995Y-80546136D01*
X28551861Y-80792255D01*
X27861640Y-80792255D01*
X27653923Y-80584176D01*
X27600000Y-80561785D01*
X27600000Y-76881068D01*
X27798110Y-77016431D01*
X28050000Y-77067440D01*
X29350000Y-77067440D01*
X29585317Y-77023162D01*
X29801441Y-76884090D01*
X29824734Y-76850000D01*
X30679243Y-76850000D01*
X30705910Y-76891441D01*
X30918110Y-77036431D01*
X31060000Y-77065164D01*
X31060000Y-80630873D01*
X30704176Y-80986077D01*
X30656552Y-81100768D01*
X30633864Y-81045995D01*
X30387745Y-80971861D01*
X29559605Y-81800000D01*
X30387745Y-82628139D01*
X30633864Y-82554005D01*
X30654805Y-82495746D01*
X30702757Y-82611800D01*
X31106077Y-83015824D01*
X31633309Y-83234750D01*
X32204187Y-83235248D01*
X32731800Y-83017243D01*
X33135824Y-82613923D01*
X33189862Y-82483785D01*
X33242757Y-82611800D01*
X33646077Y-83015824D01*
X34173309Y-83234750D01*
X34744187Y-83235248D01*
X35271800Y-83017243D01*
X35481663Y-82807745D01*
X36171861Y-82807745D01*
X36245995Y-83053864D01*
X36783223Y-83246965D01*
X37353454Y-83219778D01*
X37754005Y-83053864D01*
X37828139Y-82807745D01*
X37000000Y-81979605D01*
X36171861Y-82807745D01*
X35481663Y-82807745D01*
X35675824Y-82613923D01*
X35723448Y-82499232D01*
X35746136Y-82554005D01*
X35992255Y-82628139D01*
X36820395Y-81800000D01*
X37179605Y-81800000D01*
X38007745Y-82628139D01*
X38253864Y-82554005D01*
X38446965Y-82016777D01*
X38419778Y-81446546D01*
X38253864Y-81045995D01*
X38007745Y-80971861D01*
X37179605Y-81800000D01*
X36820395Y-81800000D01*
X35992255Y-80971861D01*
X35746136Y-81045995D01*
X35725195Y-81104254D01*
X35677243Y-80988200D01*
X35481640Y-80792255D01*
X36171861Y-80792255D01*
X37000000Y-81620395D01*
X37828139Y-80792255D01*
X37754005Y-80546136D01*
X37216777Y-80353035D01*
X36646546Y-80380222D01*
X36245995Y-80546136D01*
X36171861Y-80792255D01*
X35481640Y-80792255D01*
X35273923Y-80584176D01*
X34746691Y-80365250D01*
X34360000Y-80364913D01*
X34360000Y-79685654D01*
X39864817Y-79685654D01*
X39864817Y-79926391D01*
X39961490Y-80159780D01*
X40140119Y-80338408D01*
X40373508Y-80435081D01*
X40714066Y-80435081D01*
X40872816Y-80276331D01*
X40872816Y-79526904D01*
X41126816Y-79526904D01*
X41126816Y-80276331D01*
X41285566Y-80435081D01*
X41626124Y-80435081D01*
X41859513Y-80338408D01*
X42038142Y-80159780D01*
X42134815Y-79926391D01*
X42134815Y-79685654D01*
X41976065Y-79526904D01*
X41126816Y-79526904D01*
X40872816Y-79526904D01*
X40023567Y-79526904D01*
X39864817Y-79685654D01*
X34360000Y-79685654D01*
X34360000Y-78873417D01*
X39864817Y-78873417D01*
X39864817Y-79114154D01*
X40023567Y-79272904D01*
X40872816Y-79272904D01*
X40872816Y-78523477D01*
X41126816Y-78523477D01*
X41126816Y-79272904D01*
X41976065Y-79272904D01*
X42134815Y-79114154D01*
X42134815Y-78873417D01*
X42038142Y-78640028D01*
X41859513Y-78461400D01*
X41626124Y-78364727D01*
X41285566Y-78364727D01*
X41126816Y-78523477D01*
X40872816Y-78523477D01*
X40714066Y-78364727D01*
X40373508Y-78364727D01*
X40140119Y-78461400D01*
X39961490Y-78640028D01*
X39864817Y-78873417D01*
X34360000Y-78873417D01*
X34360000Y-75250000D01*
X34338748Y-75143162D01*
X34302148Y-74959160D01*
X34137401Y-74712599D01*
X33083285Y-73658483D01*
X33073162Y-73604683D01*
X32934090Y-73388559D01*
X32721890Y-73243569D01*
X32580000Y-73214836D01*
X32580000Y-72599689D01*
X39852377Y-72599689D01*
X39852377Y-73799839D01*
X39896655Y-74035156D01*
X40035727Y-74251280D01*
X40247927Y-74396270D01*
X40499817Y-74447279D01*
X41499815Y-74447279D01*
X41735132Y-74403001D01*
X41951256Y-74263929D01*
X42096246Y-74051729D01*
X42147255Y-73799839D01*
X42147255Y-72599689D01*
X42102977Y-72364372D01*
X41963905Y-72148248D01*
X41751705Y-72003258D01*
X41499815Y-71952249D01*
X40499817Y-71952249D01*
X40264500Y-71996527D01*
X40048376Y-72135599D01*
X39903386Y-72347799D01*
X39852377Y-72599689D01*
X32580000Y-72599689D01*
X32580000Y-63874802D01*
X34723000Y-61731802D01*
X34723000Y-62896494D01*
X34653569Y-62998110D01*
X34602560Y-63250000D01*
X34602560Y-63950000D01*
X34646838Y-64185317D01*
X34723000Y-64303676D01*
X34723000Y-64796494D01*
X34653569Y-64898110D01*
X34602560Y-65150000D01*
X34602560Y-65850000D01*
X34646838Y-66085317D01*
X34723000Y-66203676D01*
X34723000Y-67750000D01*
X34733006Y-67799410D01*
X34761447Y-67841035D01*
X34803841Y-67868315D01*
X34850000Y-67877000D01*
X39894102Y-67877000D01*
X39956883Y-68028943D01*
X40219673Y-68292192D01*
X40563201Y-68434838D01*
X40610077Y-68434879D01*
X40802210Y-68627012D01*
X40802210Y-69500000D01*
X40846488Y-69735317D01*
X40985560Y-69951441D01*
X41197760Y-70096431D01*
X41449650Y-70147440D01*
X42149674Y-70147440D01*
X42357042Y-70108421D01*
X42549724Y-70147440D01*
X43249748Y-70147440D01*
X43457116Y-70108421D01*
X43649798Y-70147440D01*
X44349822Y-70147440D01*
X44558706Y-70108136D01*
X44623562Y-70135000D01*
X44814134Y-70135000D01*
X44972884Y-69976250D01*
X44972884Y-69620382D01*
X44997262Y-69500000D01*
X44997262Y-68299850D01*
X44972884Y-68170292D01*
X44972884Y-67823600D01*
X44814134Y-67664850D01*
X44759810Y-67664850D01*
X44759810Y-66674113D01*
X44825840Y-66687485D01*
X44815162Y-66713201D01*
X44814838Y-67085167D01*
X44956883Y-67428943D01*
X45219673Y-67692192D01*
X45317620Y-67732864D01*
X45226884Y-67823600D01*
X45226884Y-68178214D01*
X45202252Y-68299850D01*
X45202252Y-69500000D01*
X45226884Y-69630908D01*
X45226884Y-69976250D01*
X45385634Y-70135000D01*
X45576206Y-70135000D01*
X45645836Y-70106158D01*
X45849692Y-70147440D01*
X46549716Y-70147440D01*
X46757084Y-70108421D01*
X46790357Y-70115159D01*
X48162599Y-71487401D01*
X48409161Y-71652148D01*
X48700000Y-71710000D01*
X52650000Y-71710000D01*
X52940839Y-71652148D01*
X53187401Y-71487401D01*
X56061000Y-68613802D01*
X56061000Y-68707002D01*
X56219748Y-68707002D01*
X56061000Y-68865750D01*
X56061000Y-69231309D01*
X56157673Y-69464698D01*
X56309086Y-69616112D01*
X55562599Y-70362599D01*
X55397852Y-70609161D01*
X55340000Y-70900000D01*
X55340000Y-77400000D01*
X55397852Y-77690839D01*
X55562599Y-77937401D01*
X56639560Y-79014362D01*
X56639560Y-79732000D01*
X56683838Y-79967317D01*
X56822910Y-80183441D01*
X57035110Y-80328431D01*
X57287000Y-80379440D01*
X57460638Y-80379440D01*
X57853198Y-80772000D01*
X57772638Y-80852560D01*
X57325000Y-80852560D01*
X57089683Y-80896838D01*
X56873559Y-81035910D01*
X56728569Y-81248110D01*
X56677560Y-81500000D01*
X56677560Y-82500000D01*
X56721838Y-82735317D01*
X56860910Y-82951441D01*
X56929006Y-82997969D01*
X56786673Y-83140302D01*
X56690000Y-83373691D01*
X56690000Y-83714250D01*
X56848750Y-83873000D01*
X57823000Y-83873000D01*
X57823000Y-83853000D01*
X58077000Y-83853000D01*
X58077000Y-83873000D01*
X59051250Y-83873000D01*
X59210000Y-83714250D01*
X59210000Y-83470750D01*
X59626500Y-83470750D01*
X59626500Y-83565309D01*
X59723173Y-83798698D01*
X59901801Y-83977327D01*
X60135190Y-84074000D01*
X60547250Y-84074000D01*
X60706000Y-83915250D01*
X60706000Y-83312000D01*
X60960000Y-83312000D01*
X60960000Y-83915250D01*
X61118750Y-84074000D01*
X61530810Y-84074000D01*
X61764199Y-83977327D01*
X61942827Y-83798698D01*
X62039500Y-83565309D01*
X62039500Y-83470750D01*
X61880750Y-83312000D01*
X60960000Y-83312000D01*
X60706000Y-83312000D01*
X59785250Y-83312000D01*
X59626500Y-83470750D01*
X59210000Y-83470750D01*
X59210000Y-83373691D01*
X59113327Y-83140302D01*
X58972090Y-82999064D01*
X59026441Y-82964090D01*
X59171431Y-82751890D01*
X59222440Y-82500000D01*
X59222440Y-81662011D01*
X59456943Y-81565117D01*
X59720192Y-81302327D01*
X59733868Y-81269393D01*
X59749709Y-81285235D01*
X59665069Y-81409110D01*
X59614060Y-81661000D01*
X59614060Y-82169000D01*
X59658338Y-82404317D01*
X59749104Y-82545371D01*
X59723173Y-82571302D01*
X59626500Y-82804691D01*
X59626500Y-82899250D01*
X59785250Y-83058000D01*
X60706000Y-83058000D01*
X60706000Y-83038000D01*
X60960000Y-83038000D01*
X60960000Y-83058000D01*
X61880750Y-83058000D01*
X62039500Y-82899250D01*
X62039500Y-82804691D01*
X61942827Y-82571302D01*
X61916291Y-82544765D01*
X62000931Y-82420890D01*
X62051940Y-82169000D01*
X62051940Y-81661000D01*
X62007662Y-81425683D01*
X61916896Y-81284629D01*
X61942827Y-81258698D01*
X62039500Y-81025309D01*
X62039500Y-80930750D01*
X61880750Y-80772000D01*
X60960000Y-80772000D01*
X60960000Y-80792000D01*
X60706000Y-80792000D01*
X60706000Y-80772000D01*
X60686000Y-80772000D01*
X60686000Y-80518000D01*
X60706000Y-80518000D01*
X60706000Y-80498000D01*
X60960000Y-80498000D01*
X60960000Y-80518000D01*
X61880750Y-80518000D01*
X62039500Y-80359250D01*
X62039500Y-80264691D01*
X61985780Y-80135000D01*
X62043178Y-80135000D01*
X62163201Y-80184838D01*
X62535167Y-80185162D01*
X62749287Y-80096690D01*
X62797852Y-80340839D01*
X62962599Y-80587401D01*
X65998794Y-83623596D01*
X66008338Y-83674317D01*
X66147410Y-83890441D01*
X66359610Y-84035431D01*
X66611500Y-84086440D01*
X67754500Y-84086440D01*
X67989817Y-84042162D01*
X68205941Y-83903090D01*
X68350931Y-83690890D01*
X68401940Y-83439000D01*
X68401940Y-82931000D01*
X68357662Y-82695683D01*
X68263334Y-82549093D01*
X68350931Y-82420890D01*
X68401940Y-82169000D01*
X68401940Y-81661000D01*
X68357662Y-81425683D01*
X68344353Y-81405000D01*
X71186198Y-81405000D01*
X72379460Y-82598262D01*
X72265250Y-82873309D01*
X72264752Y-83444187D01*
X72482757Y-83971800D01*
X72886077Y-84375824D01*
X73413309Y-84594750D01*
X73984187Y-84595248D01*
X74511800Y-84377243D01*
X74915824Y-83973923D01*
X75134750Y-83446691D01*
X75135248Y-82875813D01*
X74917243Y-82348200D01*
X74513923Y-81944176D01*
X74383785Y-81890138D01*
X74511800Y-81837243D01*
X74915824Y-81433923D01*
X75134750Y-80906691D01*
X75135248Y-80335813D01*
X74917243Y-79808200D01*
X74513923Y-79404176D01*
X74383785Y-79350138D01*
X74511800Y-79297243D01*
X74915824Y-78893923D01*
X75134750Y-78366691D01*
X75135248Y-77795813D01*
X74917243Y-77268200D01*
X74513923Y-76864176D01*
X74383785Y-76810138D01*
X74511800Y-76757243D01*
X74915824Y-76353923D01*
X75134750Y-75826691D01*
X75135248Y-75255813D01*
X74917243Y-74728200D01*
X74513923Y-74324176D01*
X74383785Y-74270138D01*
X74511800Y-74217243D01*
X74915824Y-73813923D01*
X75134750Y-73286691D01*
X75135248Y-72715813D01*
X74917243Y-72188200D01*
X74513923Y-71784176D01*
X74383785Y-71730138D01*
X74511800Y-71677243D01*
X74915824Y-71273923D01*
X75134750Y-70746691D01*
X75135248Y-70175813D01*
X74917243Y-69648200D01*
X74513923Y-69244176D01*
X74383785Y-69190138D01*
X74511800Y-69137243D01*
X74915824Y-68733923D01*
X75134750Y-68206691D01*
X75135248Y-67635813D01*
X74917243Y-67108200D01*
X74513923Y-66704176D01*
X74383785Y-66650138D01*
X74511800Y-66597243D01*
X74915824Y-66193923D01*
X75134750Y-65666691D01*
X75135248Y-65095813D01*
X74917243Y-64568200D01*
X74513923Y-64164176D01*
X74383785Y-64110138D01*
X74511800Y-64057243D01*
X74592183Y-63977000D01*
X75473000Y-63977000D01*
X75473000Y-84659000D01*
X59196459Y-84659000D01*
X59210000Y-84626309D01*
X59210000Y-84285750D01*
X59051250Y-84127000D01*
X58077000Y-84127000D01*
X58077000Y-84147000D01*
X57823000Y-84147000D01*
X57823000Y-84127000D01*
X56848750Y-84127000D01*
X56690000Y-84285750D01*
X56690000Y-84626309D01*
X56703541Y-84659000D01*
X55797342Y-84659000D01*
X55797342Y-83050138D01*
X55753064Y-82814821D01*
X55613992Y-82598697D01*
X55401792Y-82453707D01*
X55149902Y-82402698D01*
X53849930Y-82402698D01*
X53614613Y-82446976D01*
X53398489Y-82586048D01*
X53253499Y-82798248D01*
X53202490Y-83050138D01*
X53202490Y-84659000D01*
X42147509Y-84659000D01*
X42147509Y-82149581D01*
X42103231Y-81914264D01*
X41964159Y-81698140D01*
X41751959Y-81553150D01*
X41500069Y-81502141D01*
X40500071Y-81502141D01*
X40264754Y-81546419D01*
X40048630Y-81685491D01*
X39903640Y-81897691D01*
X39852631Y-82149581D01*
X39852631Y-84659000D01*
X17741606Y-84659000D01*
X17754005Y-84653864D01*
X17828139Y-84407745D01*
X17000000Y-83579605D01*
X16171861Y-84407745D01*
X16245995Y-84653864D01*
X16260284Y-84659000D01*
X14401000Y-84659000D01*
X14401000Y-83183223D01*
X15553035Y-83183223D01*
X15580222Y-83753454D01*
X15746136Y-84154005D01*
X15992255Y-84228139D01*
X16820395Y-83400000D01*
X17179605Y-83400000D01*
X18007745Y-84228139D01*
X18253864Y-84154005D01*
X18446965Y-83616777D01*
X18419778Y-83046546D01*
X18253864Y-82645995D01*
X18007745Y-82571861D01*
X17179605Y-83400000D01*
X16820395Y-83400000D01*
X15992255Y-82571861D01*
X15746136Y-82645995D01*
X15553035Y-83183223D01*
X14401000Y-83183223D01*
X14401000Y-51285750D01*
X21840000Y-51285750D01*
X21840000Y-51626309D01*
X21936673Y-51859698D01*
X22115301Y-52038327D01*
X22348690Y-52135000D01*
X22814250Y-52135000D01*
X22973000Y-51976250D01*
X22973000Y-51127000D01*
X23227000Y-51127000D01*
X23227000Y-51976250D01*
X23385750Y-52135000D01*
X23851310Y-52135000D01*
X24084699Y-52038327D01*
X24263327Y-51859698D01*
X24360000Y-51626309D01*
X24360000Y-51285750D01*
X24201250Y-51127000D01*
X23227000Y-51127000D01*
X22973000Y-51127000D01*
X21998750Y-51127000D01*
X21840000Y-51285750D01*
X14401000Y-51285750D01*
X14401000Y-48807745D01*
X16171861Y-48807745D01*
X16245995Y-49053864D01*
X16783223Y-49246965D01*
X17353454Y-49219778D01*
X17754005Y-49053864D01*
X17828139Y-48807745D01*
X17000000Y-47979605D01*
X16171861Y-48807745D01*
X14401000Y-48807745D01*
X14401000Y-47583223D01*
X15553035Y-47583223D01*
X15580222Y-48153454D01*
X15746136Y-48554005D01*
X15992255Y-48628139D01*
X16820395Y-47800000D01*
X17179605Y-47800000D01*
X18007745Y-48628139D01*
X18253864Y-48554005D01*
X18446965Y-48016777D01*
X18419778Y-47446546D01*
X18253864Y-47045995D01*
X18007745Y-46971861D01*
X17179605Y-47800000D01*
X16820395Y-47800000D01*
X15992255Y-46971861D01*
X15746136Y-47045995D01*
X15553035Y-47583223D01*
X14401000Y-47583223D01*
X14401000Y-43004187D01*
X15564752Y-43004187D01*
X15782757Y-43531800D01*
X16186077Y-43935824D01*
X16316215Y-43989862D01*
X16188200Y-44042757D01*
X15784176Y-44446077D01*
X15565250Y-44973309D01*
X15564752Y-45544187D01*
X15782757Y-46071800D01*
X16186077Y-46475824D01*
X16300768Y-46523448D01*
X16245995Y-46546136D01*
X16171861Y-46792255D01*
X17000000Y-47620395D01*
X17828139Y-46792255D01*
X17754005Y-46546136D01*
X17695746Y-46525195D01*
X17811800Y-46477243D01*
X18215824Y-46073923D01*
X18238215Y-46020000D01*
X18545198Y-46020000D01*
X21827560Y-49302362D01*
X21827560Y-49500000D01*
X21871838Y-49735317D01*
X22010910Y-49951441D01*
X22079006Y-49997969D01*
X21936673Y-50140302D01*
X21840000Y-50373691D01*
X21840000Y-50714250D01*
X21998750Y-50873000D01*
X22973000Y-50873000D01*
X22973000Y-50853000D01*
X23227000Y-50853000D01*
X23227000Y-50873000D01*
X24201250Y-50873000D01*
X24360000Y-50714250D01*
X24360000Y-50373691D01*
X24263327Y-50140302D01*
X24122090Y-49999064D01*
X24176441Y-49964090D01*
X24321431Y-49751890D01*
X24372440Y-49500000D01*
X24372440Y-48500000D01*
X24328162Y-48264683D01*
X24189090Y-48048559D01*
X23976890Y-47903569D01*
X23725000Y-47852560D01*
X22527362Y-47852560D01*
X19397401Y-44722599D01*
X19150839Y-44557852D01*
X18860000Y-44500000D01*
X18238646Y-44500000D01*
X18217243Y-44448200D01*
X17813923Y-44044176D01*
X17683785Y-43990138D01*
X17772215Y-43953599D01*
X21984699Y-43953599D01*
X22248281Y-44591515D01*
X22735918Y-45080004D01*
X23373373Y-45344699D01*
X24063599Y-45345301D01*
X24701515Y-45081719D01*
X25190004Y-44594082D01*
X25454699Y-43956627D01*
X25455301Y-43266401D01*
X25191719Y-42628485D01*
X24704082Y-42139996D01*
X24066627Y-41875301D01*
X23376401Y-41874699D01*
X22738485Y-42138281D01*
X22249996Y-42625918D01*
X21985301Y-43263373D01*
X21984699Y-43953599D01*
X17772215Y-43953599D01*
X17811800Y-43937243D01*
X18215824Y-43533923D01*
X18434750Y-43006691D01*
X18435248Y-42435813D01*
X18217243Y-41908200D01*
X17813923Y-41504176D01*
X17699232Y-41456552D01*
X17754005Y-41433864D01*
X17828139Y-41187745D01*
X17000000Y-40359605D01*
X16171861Y-41187745D01*
X16245995Y-41433864D01*
X16304254Y-41454805D01*
X16188200Y-41502757D01*
X15784176Y-41906077D01*
X15565250Y-42433309D01*
X15564752Y-43004187D01*
X14401000Y-43004187D01*
X14401000Y-39963223D01*
X15553035Y-39963223D01*
X15580222Y-40533454D01*
X15746136Y-40934005D01*
X15992255Y-41008139D01*
X16820395Y-40180000D01*
X17179605Y-40180000D01*
X18007745Y-41008139D01*
X18253864Y-40934005D01*
X18446965Y-40396777D01*
X18419778Y-39826546D01*
X18402880Y-39785750D01*
X21840000Y-39785750D01*
X21840000Y-40126309D01*
X21936673Y-40359698D01*
X22115301Y-40538327D01*
X22348690Y-40635000D01*
X22814250Y-40635000D01*
X22973000Y-40476250D01*
X22973000Y-39627000D01*
X23227000Y-39627000D01*
X23227000Y-40476250D01*
X23385750Y-40635000D01*
X23851310Y-40635000D01*
X24084699Y-40538327D01*
X24263327Y-40359698D01*
X24360000Y-40126309D01*
X24360000Y-39785750D01*
X24201250Y-39627000D01*
X23227000Y-39627000D01*
X22973000Y-39627000D01*
X21998750Y-39627000D01*
X21840000Y-39785750D01*
X18402880Y-39785750D01*
X18253864Y-39425995D01*
X18007745Y-39351861D01*
X17179605Y-40180000D01*
X16820395Y-40180000D01*
X15992255Y-39351861D01*
X15746136Y-39425995D01*
X15553035Y-39963223D01*
X14401000Y-39963223D01*
X14401000Y-33705000D01*
X16618405Y-33705000D01*
X16188200Y-33882757D01*
X16188200Y-33882757D01*
G37*
X16188200Y-33882757D02*
X15784176Y-34286077D01*
X15565250Y-34813309D01*
X15564752Y-35384187D01*
X15782757Y-35911800D01*
X16186077Y-36315824D01*
X16316215Y-36369862D01*
X16188200Y-36422757D01*
X15784176Y-36826077D01*
X15565250Y-37353309D01*
X15564752Y-37924187D01*
X15782757Y-38451800D01*
X16186077Y-38855824D01*
X16300768Y-38903448D01*
X16245995Y-38926136D01*
X16171861Y-39172255D01*
X17000000Y-40000395D01*
X17828139Y-39172255D01*
X17754005Y-38926136D01*
X17695746Y-38905195D01*
X17811800Y-38857243D01*
X18215824Y-38453923D01*
X18296348Y-38260000D01*
X21887721Y-38260000D01*
X22010910Y-38451441D01*
X22079006Y-38497969D01*
X21936673Y-38640302D01*
X21840000Y-38873691D01*
X21840000Y-39214250D01*
X21998750Y-39373000D01*
X22973000Y-39373000D01*
X22973000Y-39353000D01*
X23227000Y-39353000D01*
X23227000Y-39373000D01*
X24201250Y-39373000D01*
X24360000Y-39214250D01*
X24360000Y-38873691D01*
X24263327Y-38640302D01*
X24122090Y-38499064D01*
X24176441Y-38464090D01*
X24321431Y-38251890D01*
X24372440Y-38000000D01*
X24372440Y-37000000D01*
X24328162Y-36764683D01*
X24189090Y-36548559D01*
X23976890Y-36403569D01*
X23725000Y-36352560D01*
X22475000Y-36352560D01*
X22239683Y-36396838D01*
X22023559Y-36535910D01*
X21884110Y-36740000D01*
X18129197Y-36740000D01*
X17813923Y-36424176D01*
X17683785Y-36370138D01*
X17811800Y-36317243D01*
X18215824Y-35913923D01*
X18434750Y-35386691D01*
X18435248Y-34815813D01*
X18217243Y-34288200D01*
X17813923Y-33884176D01*
X17382420Y-33705000D01*
X75473000Y-33705000D01*
X75473000Y-51723000D01*
X74532007Y-51723000D01*
X74546431Y-51701890D01*
X74597440Y-51450000D01*
X74597440Y-50550000D01*
X74569732Y-50402747D01*
X74592192Y-50380327D01*
X74734838Y-50036799D01*
X74735162Y-49664833D01*
X74593117Y-49321057D01*
X74330327Y-49057808D01*
X73986799Y-48915162D01*
X73614833Y-48914838D01*
X73271057Y-49056883D01*
X73007808Y-49319673D01*
X72865162Y-49663201D01*
X72865057Y-49783411D01*
X72847852Y-49809161D01*
X72806636Y-50016364D01*
X72698559Y-50085910D01*
X72603010Y-50225750D01*
X72588327Y-50190302D01*
X72409699Y-50011673D01*
X72176310Y-49915000D01*
X71935750Y-49915000D01*
X71777000Y-50073750D01*
X71777000Y-50873000D01*
X71797000Y-50873000D01*
X71797000Y-51127000D01*
X71777000Y-51127000D01*
X71777000Y-51147000D01*
X71523000Y-51147000D01*
X71523000Y-51127000D01*
X70773750Y-51127000D01*
X70615000Y-51285750D01*
X70615000Y-51576309D01*
X70677637Y-51727529D01*
X70650590Y-51733006D01*
X70608965Y-51761447D01*
X70581685Y-51803841D01*
X70573000Y-51850000D01*
X70573000Y-63850000D01*
X70583006Y-63899410D01*
X70611447Y-63941035D01*
X70653841Y-63968315D01*
X70700000Y-63977000D01*
X72807390Y-63977000D01*
X72886077Y-64055824D01*
X73016215Y-64109862D01*
X72888200Y-64162757D01*
X72484176Y-64566077D01*
X72265250Y-65093309D01*
X72264752Y-65664187D01*
X72482757Y-66191800D01*
X72886077Y-66595824D01*
X73016215Y-66649862D01*
X72888200Y-66702757D01*
X72484176Y-67106077D01*
X72265250Y-67633309D01*
X72264921Y-68010277D01*
X71312599Y-68962599D01*
X71147852Y-69209161D01*
X71090000Y-69500000D01*
X71090000Y-72937537D01*
X71057808Y-72969673D01*
X70915162Y-73313201D01*
X70914838Y-73685167D01*
X71056883Y-74028943D01*
X71319673Y-74292192D01*
X71663201Y-74434838D01*
X72035167Y-74435162D01*
X72378943Y-74293117D01*
X72642192Y-74030327D01*
X72659439Y-73988791D01*
X72886077Y-74215824D01*
X73016215Y-74269862D01*
X72888200Y-74322757D01*
X72484176Y-74726077D01*
X72265250Y-75253309D01*
X72265031Y-75504167D01*
X71751770Y-76017428D01*
X71650327Y-75915808D01*
X71306799Y-75773162D01*
X70934833Y-75772838D01*
X70591057Y-75914883D01*
X70430660Y-76075000D01*
X69433368Y-76075000D01*
X69514838Y-75878799D01*
X69515162Y-75506833D01*
X69373117Y-75163057D01*
X69110327Y-74899808D01*
X68766799Y-74757162D01*
X68394833Y-74756838D01*
X68356657Y-74772612D01*
X68401940Y-74549000D01*
X68401940Y-74150862D01*
X68609401Y-73943401D01*
X68774148Y-73696839D01*
X68832000Y-73406000D01*
X68832000Y-72505440D01*
X68951000Y-72505440D01*
X69186317Y-72461162D01*
X69402441Y-72322090D01*
X69547431Y-72109890D01*
X69598440Y-71858000D01*
X69598440Y-70858000D01*
X69554162Y-70622683D01*
X69415090Y-70406559D01*
X69346994Y-70360031D01*
X69489327Y-70217698D01*
X69586000Y-69984309D01*
X69586000Y-69643750D01*
X69427250Y-69485000D01*
X68453000Y-69485000D01*
X68453000Y-69505000D01*
X68199000Y-69505000D01*
X68199000Y-69485000D01*
X68179000Y-69485000D01*
X68179000Y-69231000D01*
X68199000Y-69231000D01*
X68199000Y-68381750D01*
X68453000Y-68381750D01*
X68453000Y-69231000D01*
X69427250Y-69231000D01*
X69586000Y-69072250D01*
X69586000Y-68731691D01*
X69489327Y-68498302D01*
X69310699Y-68319673D01*
X69077310Y-68223000D01*
X68611750Y-68223000D01*
X68453000Y-68381750D01*
X68199000Y-68381750D01*
X68040250Y-68223000D01*
X67574690Y-68223000D01*
X67420337Y-68286935D01*
X67393117Y-68221057D01*
X67130327Y-67957808D01*
X67110000Y-67949367D01*
X67110000Y-66407217D01*
X67164990Y-66540303D01*
X67557630Y-66933629D01*
X68070900Y-67146757D01*
X68626661Y-67147242D01*
X69140303Y-66935010D01*
X69533629Y-66542370D01*
X69746757Y-66029100D01*
X69747242Y-65473339D01*
X69535010Y-64959697D01*
X69142370Y-64566371D01*
X68629100Y-64353243D01*
X68073339Y-64352758D01*
X67559697Y-64564990D01*
X67166371Y-64957630D01*
X67110000Y-65093387D01*
X67110000Y-64750000D01*
X67052148Y-64459161D01*
X66887401Y-64212599D01*
X65137401Y-62462599D01*
X64890839Y-62297852D01*
X64600000Y-62240000D01*
X64312279Y-62240000D01*
X64189090Y-62048559D01*
X63976890Y-61903569D01*
X63725000Y-61852560D01*
X62475000Y-61852560D01*
X62239683Y-61896838D01*
X62023559Y-62035910D01*
X61878644Y-62248000D01*
X61585209Y-62248000D01*
X61460090Y-62053559D01*
X61247890Y-61908569D01*
X60996000Y-61857560D01*
X60596000Y-61857560D01*
X60466411Y-61881944D01*
X60346000Y-61857560D01*
X59946000Y-61857560D01*
X59816411Y-61881944D01*
X59696000Y-61857560D01*
X59296000Y-61857560D01*
X59166411Y-61881944D01*
X59046000Y-61857560D01*
X58646000Y-61857560D01*
X58516411Y-61881944D01*
X58396000Y-61857560D01*
X57996000Y-61857560D01*
X57866411Y-61881944D01*
X57746000Y-61857560D01*
X57346000Y-61857560D01*
X57240295Y-61877450D01*
X57222310Y-61870000D01*
X57154750Y-61870000D01*
X57125746Y-61899004D01*
X57110683Y-61901838D01*
X56894559Y-62040910D01*
X56796000Y-62185156D01*
X56796000Y-62028750D01*
X56637250Y-61870000D01*
X56569690Y-61870000D01*
X56336301Y-61966673D01*
X56157673Y-62145302D01*
X56061000Y-62378691D01*
X56061000Y-62744250D01*
X56219748Y-62902998D01*
X56077800Y-62902998D01*
X54848401Y-61673599D01*
X65744699Y-61673599D01*
X66008281Y-62311515D01*
X66495918Y-62800004D01*
X67133373Y-63064699D01*
X67823599Y-63065301D01*
X68461515Y-62801719D01*
X68950004Y-62314082D01*
X69214699Y-61676627D01*
X69215301Y-60986401D01*
X68951719Y-60348485D01*
X68464082Y-59859996D01*
X67826627Y-59595301D01*
X67136401Y-59594699D01*
X66498485Y-59858281D01*
X66009996Y-60345918D01*
X65745301Y-60983373D01*
X65744699Y-61673599D01*
X54848401Y-61673599D01*
X49473476Y-56298674D01*
X49728943Y-56193117D01*
X49992192Y-55930327D01*
X50134838Y-55586799D01*
X50134904Y-55510802D01*
X50313201Y-55584838D01*
X50685167Y-55585162D01*
X51028943Y-55443117D01*
X51248821Y-55223623D01*
X51440000Y-55414802D01*
X51440000Y-56500000D01*
X51497852Y-56790839D01*
X51662599Y-57037401D01*
X53312599Y-58687401D01*
X53559160Y-58852148D01*
X53672627Y-58874718D01*
X53705910Y-58926441D01*
X53918110Y-59071431D01*
X54170000Y-59122440D01*
X55230000Y-59122440D01*
X55465317Y-59078162D01*
X55681441Y-58939090D01*
X55801233Y-58763768D01*
X55905910Y-58926441D01*
X56118110Y-59071431D01*
X56370000Y-59122440D01*
X57430000Y-59122440D01*
X57665317Y-59078162D01*
X57881441Y-58939090D01*
X57901317Y-58910000D01*
X59077560Y-58910000D01*
X59077560Y-59000000D01*
X59121838Y-59235317D01*
X59260910Y-59451441D01*
X59473110Y-59596431D01*
X59725000Y-59647440D01*
X60772638Y-59647440D01*
X61872599Y-60747401D01*
X62119160Y-60912148D01*
X62410000Y-60970000D01*
X64220000Y-60970000D01*
X64510839Y-60912148D01*
X64757401Y-60747401D01*
X65707401Y-59797401D01*
X65872148Y-59550839D01*
X65930000Y-59260000D01*
X65930000Y-55390000D01*
X65872148Y-55099161D01*
X65845982Y-55060000D01*
X67452069Y-55060000D01*
X67510910Y-55151441D01*
X67723110Y-55296431D01*
X67975000Y-55347440D01*
X69225000Y-55347440D01*
X69460317Y-55303162D01*
X69676441Y-55164090D01*
X69821431Y-54951890D01*
X69872440Y-54700000D01*
X69872440Y-53700000D01*
X69828162Y-53464683D01*
X69689090Y-53248559D01*
X69620994Y-53202031D01*
X69763327Y-53059698D01*
X69860000Y-52826309D01*
X69860000Y-52485750D01*
X69701250Y-52327000D01*
X68727000Y-52327000D01*
X68727000Y-52347000D01*
X68473000Y-52347000D01*
X68473000Y-52327000D01*
X67498750Y-52327000D01*
X67340000Y-52485750D01*
X67340000Y-52826309D01*
X67436673Y-53059698D01*
X67577910Y-53200936D01*
X67523559Y-53235910D01*
X67378569Y-53448110D01*
X67359961Y-53540000D01*
X66910000Y-53540000D01*
X66910000Y-52392263D01*
X67028943Y-52343117D01*
X67292192Y-52080327D01*
X67354947Y-51929197D01*
X67498750Y-52073000D01*
X68473000Y-52073000D01*
X68473000Y-51223750D01*
X68727000Y-51223750D01*
X68727000Y-52073000D01*
X69701250Y-52073000D01*
X69860000Y-51914250D01*
X69860000Y-51573691D01*
X69763327Y-51340302D01*
X69584699Y-51161673D01*
X69351310Y-51065000D01*
X68885750Y-51065000D01*
X68727000Y-51223750D01*
X68473000Y-51223750D01*
X68314250Y-51065000D01*
X68259802Y-51065000D01*
X68901111Y-50423691D01*
X70615000Y-50423691D01*
X70615000Y-50714250D01*
X70773750Y-50873000D01*
X71523000Y-50873000D01*
X71523000Y-50073750D01*
X71364250Y-49915000D01*
X71123690Y-49915000D01*
X70890301Y-50011673D01*
X70711673Y-50190302D01*
X70615000Y-50423691D01*
X68901111Y-50423691D01*
X71631808Y-47692994D01*
X71809352Y-47766716D01*
X72459795Y-47767284D01*
X73060943Y-47518894D01*
X73521278Y-47059363D01*
X73770716Y-46458648D01*
X73771284Y-45808205D01*
X73522894Y-45207057D01*
X73063363Y-44746722D01*
X72462648Y-44497284D01*
X71812205Y-44496716D01*
X71211057Y-44745106D01*
X70750722Y-45204637D01*
X70501284Y-45805352D01*
X70500716Y-46455795D01*
X70564656Y-46610542D01*
X67385198Y-49790000D01*
X66200000Y-49790000D01*
X65909161Y-49847852D01*
X65662599Y-50012599D01*
X64752638Y-50922560D01*
X64325000Y-50922560D01*
X64184914Y-50948919D01*
X64151310Y-50935000D01*
X63985750Y-50935000D01*
X63827000Y-51093750D01*
X63827000Y-51174051D01*
X63728569Y-51318110D01*
X63700824Y-51455120D01*
X63678162Y-51334683D01*
X63573000Y-51171257D01*
X63573000Y-51093750D01*
X63414250Y-50935000D01*
X63248690Y-50935000D01*
X63211829Y-50950268D01*
X63075000Y-50922560D01*
X62425000Y-50922560D01*
X62189683Y-50966838D01*
X61973559Y-51105910D01*
X61828569Y-51318110D01*
X61824136Y-51340000D01*
X59534802Y-51340000D01*
X60582401Y-50292401D01*
X60747148Y-50045840D01*
X60805000Y-49755000D01*
X60805000Y-48676661D01*
X64202758Y-48676661D01*
X64414990Y-49190303D01*
X64807630Y-49583629D01*
X65320900Y-49796757D01*
X65876661Y-49797242D01*
X66390303Y-49585010D01*
X66783629Y-49192370D01*
X66996757Y-48679100D01*
X66997242Y-48123339D01*
X66785010Y-47609697D01*
X66392370Y-47216371D01*
X65879100Y-47003243D01*
X65323339Y-47002758D01*
X64809697Y-47214990D01*
X64416371Y-47607630D01*
X64203243Y-48120900D01*
X64202758Y-48676661D01*
X60805000Y-48676661D01*
X60805000Y-46951563D01*
X60941431Y-46751890D01*
X60990415Y-46510000D01*
X62154442Y-46510000D01*
X62196838Y-46735317D01*
X62335910Y-46951441D01*
X62548110Y-47096431D01*
X62800000Y-47147440D01*
X64100000Y-47147440D01*
X64335317Y-47103162D01*
X64551441Y-46964090D01*
X64696431Y-46751890D01*
X64747440Y-46500000D01*
X64747440Y-45922242D01*
X64814878Y-45989680D01*
X64814838Y-46035167D01*
X64956883Y-46378943D01*
X65219673Y-46642192D01*
X65563201Y-46784838D01*
X65935167Y-46785162D01*
X66278943Y-46643117D01*
X66542192Y-46380327D01*
X66684838Y-46036799D01*
X66685162Y-45664833D01*
X66543117Y-45321057D01*
X66280327Y-45057808D01*
X65936799Y-44915162D01*
X65889923Y-44915121D01*
X64874802Y-43900000D01*
X65319007Y-43455795D01*
X65800716Y-43455795D01*
X66049106Y-44056943D01*
X66508637Y-44517278D01*
X67109352Y-44766716D01*
X67759795Y-44767284D01*
X68360943Y-44518894D01*
X68821278Y-44059363D01*
X69070716Y-43458648D01*
X69071284Y-42808205D01*
X68822894Y-42207057D01*
X68363363Y-41746722D01*
X67762648Y-41497284D01*
X67112205Y-41496716D01*
X66511057Y-41745106D01*
X66050722Y-42204637D01*
X65801284Y-42805352D01*
X65800716Y-43455795D01*
X65319007Y-43455795D01*
X65537401Y-43237401D01*
X65702148Y-42990839D01*
X65760000Y-42700000D01*
X65760000Y-41284532D01*
X71163073Y-41284532D01*
X71261736Y-41551387D01*
X71871461Y-41777908D01*
X72521460Y-41753856D01*
X73010264Y-41551387D01*
X73108927Y-41284532D01*
X72136000Y-40311605D01*
X71163073Y-41284532D01*
X65760000Y-41284532D01*
X65760000Y-39867461D01*
X70490092Y-39867461D01*
X70514144Y-40517460D01*
X70716613Y-41006264D01*
X70983468Y-41104927D01*
X71956395Y-40132000D01*
X72315605Y-40132000D01*
X73288532Y-41104927D01*
X73555387Y-41006264D01*
X73781908Y-40396539D01*
X73757856Y-39746540D01*
X73555387Y-39257736D01*
X73288532Y-39159073D01*
X72315605Y-40132000D01*
X71956395Y-40132000D01*
X70983468Y-39159073D01*
X70716613Y-39257736D01*
X70490092Y-39867461D01*
X65760000Y-39867461D01*
X65760000Y-38979468D01*
X71163073Y-38979468D01*
X72136000Y-39952395D01*
X73108927Y-38979468D01*
X73010264Y-38712613D01*
X72400539Y-38486092D01*
X71750540Y-38510144D01*
X71261736Y-38712613D01*
X71163073Y-38979468D01*
X65760000Y-38979468D01*
X65760000Y-37100000D01*
X65740109Y-37000000D01*
X65702148Y-36809160D01*
X65537401Y-36562599D01*
X64722440Y-35747638D01*
X64722440Y-35700000D01*
X64678162Y-35464683D01*
X64539090Y-35248559D01*
X64326890Y-35103569D01*
X64075000Y-35052560D01*
X63377362Y-35052560D01*
X62787401Y-34462599D01*
X62540839Y-34297852D01*
X62250000Y-34240000D01*
X59100000Y-34240000D01*
X58857684Y-34288200D01*
X58809160Y-34297852D01*
X58562599Y-34462599D01*
X58237599Y-34787599D01*
X58129977Y-34948667D01*
X58042401Y-34817599D01*
X57737401Y-34512599D01*
X57490839Y-34347852D01*
X57200000Y-34290000D01*
X50300000Y-34290000D01*
X50009161Y-34347852D01*
X49762599Y-34512599D01*
X46312599Y-37962599D01*
X46147852Y-38209161D01*
X46090000Y-38500000D01*
X46090000Y-39065198D01*
X45322440Y-38297638D01*
X45322440Y-36550000D01*
X45278162Y-36314683D01*
X45139090Y-36098559D01*
X44926890Y-35953569D01*
X44675000Y-35902560D01*
X41427362Y-35902560D01*
X40437401Y-34912599D01*
X40190839Y-34747852D01*
X39900000Y-34690000D01*
X30500000Y-34690000D01*
X30209160Y-34747852D01*
X29962599Y-34912599D01*
X28972638Y-35902560D01*
X25425000Y-35902560D01*
X25189683Y-35946838D01*
X24973559Y-36085910D01*
X24828569Y-36298110D01*
X24777560Y-36550000D01*
X24777560Y-40150000D01*
X24821838Y-40385317D01*
X24960910Y-40601441D01*
X25173110Y-40746431D01*
X25425000Y-40797440D01*
X29175000Y-40797440D01*
X29410317Y-40753162D01*
X29626441Y-40614090D01*
X29771431Y-40401890D01*
X29822440Y-40150000D01*
X29822440Y-38635750D01*
X32415000Y-38635750D01*
X32415000Y-40276310D01*
X32511673Y-40509699D01*
X32690302Y-40688327D01*
X32923691Y-40785000D01*
X34764250Y-40785000D01*
X34923000Y-40626250D01*
X34923000Y-38477000D01*
X35177000Y-38477000D01*
X35177000Y-40626250D01*
X35335750Y-40785000D01*
X37176309Y-40785000D01*
X37409698Y-40688327D01*
X37588327Y-40509699D01*
X37685000Y-40276310D01*
X37685000Y-38635750D01*
X37526250Y-38477000D01*
X35177000Y-38477000D01*
X34923000Y-38477000D01*
X32573750Y-38477000D01*
X32415000Y-38635750D01*
X29822440Y-38635750D01*
X29822440Y-37202362D01*
X30814802Y-36210000D01*
X32503513Y-36210000D01*
X32415000Y-36423690D01*
X32415000Y-38064250D01*
X32573750Y-38223000D01*
X34923000Y-38223000D01*
X34923000Y-38203000D01*
X35177000Y-38203000D01*
X35177000Y-38223000D01*
X37526250Y-38223000D01*
X37685000Y-38064250D01*
X37685000Y-36423690D01*
X37596487Y-36210000D01*
X39585198Y-36210000D01*
X40277560Y-36902362D01*
X40277560Y-40150000D01*
X40321838Y-40385317D01*
X40460910Y-40601441D01*
X40673110Y-40746431D01*
X40925000Y-40797440D01*
X44675000Y-40797440D01*
X44910317Y-40753162D01*
X45126441Y-40614090D01*
X45185619Y-40527480D01*
X45206883Y-40578943D01*
X45469673Y-40842192D01*
X45479094Y-40846104D01*
X44972638Y-41352560D01*
X44400000Y-41352560D01*
X44164683Y-41396838D01*
X43948559Y-41535910D01*
X43803569Y-41748110D01*
X43752560Y-42000000D01*
X43752560Y-42700000D01*
X43796838Y-42935317D01*
X43935910Y-43151441D01*
X44148110Y-43296431D01*
X44161197Y-43299081D01*
X43948559Y-43435910D01*
X43911601Y-43490000D01*
X41564802Y-43490000D01*
X40337401Y-42262599D01*
X40090839Y-42097852D01*
X39800000Y-42040000D01*
X29740757Y-42040000D01*
X29714090Y-41998559D01*
X29501890Y-41853569D01*
X29250000Y-41802560D01*
X27950000Y-41802560D01*
X27714683Y-41846838D01*
X27498559Y-41985910D01*
X27353569Y-42198110D01*
X27302560Y-42450000D01*
X27302560Y-43150000D01*
X27346838Y-43385317D01*
X27485910Y-43601441D01*
X27698110Y-43746431D01*
X27711197Y-43749081D01*
X27498559Y-43885910D01*
X27431968Y-43983370D01*
X27359161Y-43997852D01*
X27112599Y-44162599D01*
X25062599Y-46212599D01*
X24897852Y-46459161D01*
X24840000Y-46750000D01*
X24840000Y-50500000D01*
X24897852Y-50790839D01*
X25062599Y-51037401D01*
X26102560Y-52077362D01*
X26102560Y-53400000D01*
X26146838Y-53635317D01*
X26285910Y-53851441D01*
X26498110Y-53996431D01*
X26750000Y-54047440D01*
X27490000Y-54047440D01*
X27725317Y-54003162D01*
X27752428Y-53985716D01*
X27768110Y-53996431D01*
X28020000Y-54047440D01*
X28760000Y-54047440D01*
X28995317Y-54003162D01*
X29022428Y-53985716D01*
X29038110Y-53996431D01*
X29290000Y-54047440D01*
X30030000Y-54047440D01*
X30265317Y-54003162D01*
X30292428Y-53985716D01*
X30308110Y-53996431D01*
X30560000Y-54047440D01*
X31300000Y-54047440D01*
X31535317Y-54003162D01*
X31562428Y-53985716D01*
X31578110Y-53996431D01*
X31830000Y-54047440D01*
X32570000Y-54047440D01*
X32805317Y-54003162D01*
X33021441Y-53864090D01*
X33166431Y-53651890D01*
X33217440Y-53400000D01*
X33217440Y-52607362D01*
X33434802Y-52390000D01*
X35435979Y-52390000D01*
X35207599Y-52542599D01*
X33022638Y-54727560D01*
X32850000Y-54727560D01*
X32614683Y-54771838D01*
X32398559Y-54910910D01*
X32253569Y-55123110D01*
X32202560Y-55375000D01*
X32202560Y-56075000D01*
X32246838Y-56310317D01*
X32385910Y-56526441D01*
X32598110Y-56671431D01*
X32611197Y-56674081D01*
X32398559Y-56810910D01*
X32253569Y-57023110D01*
X32202560Y-57275000D01*
X32202560Y-57872638D01*
X32035198Y-58040000D01*
X31367334Y-58040000D01*
X31353162Y-57964683D01*
X31214090Y-57748559D01*
X31145994Y-57702031D01*
X31288327Y-57559698D01*
X31385000Y-57326309D01*
X31385000Y-56885750D01*
X31226250Y-56727000D01*
X30277000Y-56727000D01*
X30277000Y-56747000D01*
X30023000Y-56747000D01*
X30023000Y-56727000D01*
X29073750Y-56727000D01*
X28915000Y-56885750D01*
X28915000Y-57326309D01*
X29011673Y-57559698D01*
X29152910Y-57700936D01*
X29098559Y-57735910D01*
X28953569Y-57948110D01*
X28902560Y-58200000D01*
X28902560Y-59400000D01*
X28946838Y-59635317D01*
X29085910Y-59851441D01*
X29298110Y-59996431D01*
X29550000Y-60047440D01*
X30750000Y-60047440D01*
X30985317Y-60003162D01*
X31201441Y-59864090D01*
X31346431Y-59651890D01*
X31365039Y-59560000D01*
X32350000Y-59560000D01*
X32640839Y-59502148D01*
X32887401Y-59337401D01*
X33602362Y-58622440D01*
X33972758Y-58622440D01*
X30155198Y-62440000D01*
X28190757Y-62440000D01*
X28164090Y-62398559D01*
X27951890Y-62253569D01*
X27700000Y-62202560D01*
X26627362Y-62202560D01*
X25654802Y-61230000D01*
X25969243Y-61230000D01*
X25995910Y-61271441D01*
X26208110Y-61416431D01*
X26460000Y-61467440D01*
X27760000Y-61467440D01*
X27995317Y-61423162D01*
X28211441Y-61284090D01*
X28356431Y-61071890D01*
X28407440Y-60820000D01*
X28407440Y-60120000D01*
X28363162Y-59884683D01*
X28224090Y-59668559D01*
X28011890Y-59523569D01*
X27998803Y-59520919D01*
X28211441Y-59384090D01*
X28356431Y-59171890D01*
X28407440Y-58920000D01*
X28407440Y-58220000D01*
X28363162Y-57984683D01*
X28224090Y-57768559D01*
X28011890Y-57623569D01*
X27760000Y-57572560D01*
X26460000Y-57572560D01*
X26224683Y-57616838D01*
X26008559Y-57755910D01*
X25863569Y-57968110D01*
X25812560Y-58220000D01*
X25812560Y-58412638D01*
X25010198Y-59215000D01*
X18260695Y-59215000D01*
X18446965Y-58696777D01*
X18419778Y-58126546D01*
X18253864Y-57725995D01*
X18007745Y-57651861D01*
X17179605Y-58480000D01*
X17193748Y-58494142D01*
X17014142Y-58673748D01*
X17000000Y-58659605D01*
X16985858Y-58673748D01*
X16806252Y-58494142D01*
X16820395Y-58480000D01*
X16806252Y-58465858D01*
X16985858Y-58286252D01*
X17000000Y-58300395D01*
X17828139Y-57472255D01*
X17754005Y-57226136D01*
X17695746Y-57205195D01*
X17811800Y-57157243D01*
X18215824Y-56753923D01*
X18247906Y-56676661D01*
X21602758Y-56676661D01*
X21814990Y-57190303D01*
X22207630Y-57583629D01*
X22720900Y-57796757D01*
X23276661Y-57797242D01*
X23790303Y-57585010D01*
X24183629Y-57192370D01*
X24396757Y-56679100D01*
X24397242Y-56123339D01*
X24294090Y-55873691D01*
X28915000Y-55873691D01*
X28915000Y-56314250D01*
X29073750Y-56473000D01*
X30023000Y-56473000D01*
X30023000Y-55523750D01*
X30277000Y-55523750D01*
X30277000Y-56473000D01*
X31226250Y-56473000D01*
X31385000Y-56314250D01*
X31385000Y-55873691D01*
X31288327Y-55640302D01*
X31109699Y-55461673D01*
X30876310Y-55365000D01*
X30435750Y-55365000D01*
X30277000Y-55523750D01*
X30023000Y-55523750D01*
X29864250Y-55365000D01*
X29423690Y-55365000D01*
X29190301Y-55461673D01*
X29011673Y-55640302D01*
X28915000Y-55873691D01*
X24294090Y-55873691D01*
X24185010Y-55609697D01*
X23792370Y-55216371D01*
X23279100Y-55003243D01*
X22723339Y-55002758D01*
X22209697Y-55214990D01*
X21816371Y-55607630D01*
X21603243Y-56120900D01*
X21602758Y-56676661D01*
X18247906Y-56676661D01*
X18434750Y-56226691D01*
X18435248Y-55655813D01*
X18217243Y-55128200D01*
X17813923Y-54724176D01*
X17683785Y-54670138D01*
X17811800Y-54617243D01*
X18215824Y-54213923D01*
X18434750Y-53686691D01*
X18435248Y-53115813D01*
X18217243Y-52588200D01*
X17813923Y-52184176D01*
X17286691Y-51965250D01*
X16715813Y-51964752D01*
X16188200Y-52182757D01*
X15784176Y-52586077D01*
X15565250Y-53113309D01*
X15564752Y-53684187D01*
X15782757Y-54211800D01*
X16186077Y-54615824D01*
X16316215Y-54669862D01*
X16188200Y-54722757D01*
X15784176Y-55126077D01*
X15565250Y-55653309D01*
X15564752Y-56224187D01*
X15587049Y-56278149D01*
X15062599Y-56802599D01*
X14897852Y-57049161D01*
X14840000Y-57340000D01*
X14840000Y-62100000D01*
X14897852Y-62390839D01*
X15062599Y-62637401D01*
X15604348Y-63179150D01*
X15565250Y-63273309D01*
X15564752Y-63844187D01*
X15587049Y-63898149D01*
X14962599Y-64522599D01*
X14797852Y-64769161D01*
X14740000Y-65060000D01*
X14740000Y-71700000D01*
X14797852Y-71990839D01*
X14962599Y-72237401D01*
X15598480Y-72873282D01*
X15565250Y-72953309D01*
X15564752Y-73524187D01*
X15663068Y-73762130D01*
X15062599Y-74362599D01*
X14897852Y-74609161D01*
X14840000Y-74900000D01*
X14840000Y-79460000D01*
X14897852Y-79750839D01*
X15062599Y-79997401D01*
X15586744Y-80521546D01*
X15565250Y-80573309D01*
X15564752Y-81144187D01*
X15782757Y-81671800D01*
X16186077Y-82075824D01*
X16300768Y-82123448D01*
X16245995Y-82146136D01*
X16171861Y-82392255D01*
X17000000Y-83220395D01*
X17828139Y-82392255D01*
X17754005Y-82146136D01*
X17695746Y-82125195D01*
X17811800Y-82077243D01*
X18215824Y-81673923D01*
X18434750Y-81146691D01*
X18435248Y-80575813D01*
X18217243Y-80048200D01*
X17813923Y-79644176D01*
X17683785Y-79590138D01*
X17811800Y-79537243D01*
X18215824Y-79133923D01*
X18434750Y-78606691D01*
X18435248Y-78035813D01*
X18217243Y-77508200D01*
X17813923Y-77104176D01*
X17699232Y-77056552D01*
X17754005Y-77033864D01*
X17828139Y-76787745D01*
X17000000Y-75959605D01*
X16985858Y-75973748D01*
X16806252Y-75794142D01*
X16820395Y-75780000D01*
X17179605Y-75780000D01*
X18007745Y-76608139D01*
X18253864Y-76534005D01*
X18446965Y-75996777D01*
X18419778Y-75426546D01*
X18253864Y-75025995D01*
X18007745Y-74951861D01*
X17179605Y-75780000D01*
X16820395Y-75780000D01*
X16806252Y-75765858D01*
X16985858Y-75586252D01*
X17000000Y-75600395D01*
X17828139Y-74772255D01*
X17754005Y-74526136D01*
X17695746Y-74505195D01*
X17811800Y-74457243D01*
X18215824Y-74053923D01*
X18434750Y-73526691D01*
X18435248Y-72955813D01*
X18388883Y-72843599D01*
X22114699Y-72843599D01*
X22378281Y-73481515D01*
X22865918Y-73970004D01*
X23503373Y-74234699D01*
X24193599Y-74235301D01*
X24831515Y-73971719D01*
X25320004Y-73484082D01*
X25584699Y-72846627D01*
X25585301Y-72156401D01*
X25321719Y-71518485D01*
X24834082Y-71029996D01*
X24196627Y-70765301D01*
X23506401Y-70764699D01*
X22868485Y-71028281D01*
X22379996Y-71515918D01*
X22115301Y-72153373D01*
X22114699Y-72843599D01*
X18388883Y-72843599D01*
X18217243Y-72428200D01*
X17813923Y-72024176D01*
X17683785Y-71970138D01*
X17811800Y-71917243D01*
X18215824Y-71513923D01*
X18434750Y-70986691D01*
X18435248Y-70415813D01*
X18217243Y-69888200D01*
X17813923Y-69484176D01*
X17286691Y-69265250D01*
X16715813Y-69264752D01*
X16260000Y-69453090D01*
X16260000Y-67358898D01*
X16783223Y-67546965D01*
X17353454Y-67519778D01*
X17754005Y-67353864D01*
X17828139Y-67107745D01*
X17000000Y-66279605D01*
X16985858Y-66293748D01*
X16806252Y-66114142D01*
X16820395Y-66100000D01*
X17179605Y-66100000D01*
X18007745Y-66928139D01*
X18253864Y-66854005D01*
X18446965Y-66316777D01*
X18419778Y-65746546D01*
X18253864Y-65345995D01*
X18007745Y-65271861D01*
X17179605Y-66100000D01*
X16820395Y-66100000D01*
X16806252Y-66085858D01*
X16985858Y-65906252D01*
X17000000Y-65920395D01*
X17828139Y-65092255D01*
X17754005Y-64846136D01*
X17695746Y-64825195D01*
X17811800Y-64777243D01*
X18215824Y-64373923D01*
X18434750Y-63846691D01*
X18435248Y-63275813D01*
X18412951Y-63221851D01*
X18524802Y-63110000D01*
X21297069Y-63110000D01*
X21355910Y-63201441D01*
X21568110Y-63346431D01*
X21820000Y-63397440D01*
X22720000Y-63397440D01*
X22955317Y-63353162D01*
X23171441Y-63214090D01*
X23172560Y-63212452D01*
X23172560Y-63700000D01*
X23216838Y-63935317D01*
X23355910Y-64151441D01*
X23568110Y-64296431D01*
X23810769Y-64345571D01*
X25102599Y-65637401D01*
X25349161Y-65802148D01*
X25640000Y-65860000D01*
X25909243Y-65860000D01*
X25935910Y-65901441D01*
X26148110Y-66046431D01*
X26290000Y-66075164D01*
X26290000Y-74445198D01*
X25472599Y-75262599D01*
X25307852Y-75509161D01*
X25250000Y-75800000D01*
X25250000Y-79775198D01*
X24638454Y-80386744D01*
X24586691Y-80365250D01*
X24015813Y-80364752D01*
X23488200Y-80582757D01*
X23084176Y-80986077D01*
X22865250Y-81513309D01*
X22864752Y-82084187D01*
X23082757Y-82611800D01*
X23486077Y-83015824D01*
X24013309Y-83234750D01*
X24584187Y-83235248D01*
X25111800Y-83017243D01*
X25515824Y-82613923D01*
X25569862Y-82483785D01*
X25622757Y-82611800D01*
X26026077Y-83015824D01*
X26553309Y-83234750D01*
X27124187Y-83235248D01*
X27651800Y-83017243D01*
X27861663Y-82807745D01*
X28551861Y-82807745D01*
X28625995Y-83053864D01*
X29163223Y-83246965D01*
X29733454Y-83219778D01*
X30134005Y-83053864D01*
X30208139Y-82807745D01*
X29380000Y-81979605D01*
X28551861Y-82807745D01*
X27861663Y-82807745D01*
X28055824Y-82613923D01*
X28103448Y-82499232D01*
X28126136Y-82554005D01*
X28372255Y-82628139D01*
X29200395Y-81800000D01*
X28372255Y-80971861D01*
X28126136Y-81045995D01*
X28105195Y-81104254D01*
X28057243Y-80988200D01*
X27861640Y-80792255D01*
X28551861Y-80792255D01*
X29380000Y-81620395D01*
X30208139Y-80792255D01*
X30134005Y-80546136D01*
X29596777Y-80353035D01*
X29026546Y-80380222D01*
X28625995Y-80546136D01*
X28551861Y-80792255D01*
X27861640Y-80792255D01*
X27653923Y-80584176D01*
X27600000Y-80561785D01*
X27600000Y-76881068D01*
X27798110Y-77016431D01*
X28050000Y-77067440D01*
X29350000Y-77067440D01*
X29585317Y-77023162D01*
X29801441Y-76884090D01*
X29824734Y-76850000D01*
X30679243Y-76850000D01*
X30705910Y-76891441D01*
X30918110Y-77036431D01*
X31060000Y-77065164D01*
X31060000Y-80630873D01*
X30704176Y-80986077D01*
X30656552Y-81100768D01*
X30633864Y-81045995D01*
X30387745Y-80971861D01*
X29559605Y-81800000D01*
X30387745Y-82628139D01*
X30633864Y-82554005D01*
X30654805Y-82495746D01*
X30702757Y-82611800D01*
X31106077Y-83015824D01*
X31633309Y-83234750D01*
X32204187Y-83235248D01*
X32731800Y-83017243D01*
X33135824Y-82613923D01*
X33189862Y-82483785D01*
X33242757Y-82611800D01*
X33646077Y-83015824D01*
X34173309Y-83234750D01*
X34744187Y-83235248D01*
X35271800Y-83017243D01*
X35481663Y-82807745D01*
X36171861Y-82807745D01*
X36245995Y-83053864D01*
X36783223Y-83246965D01*
X37353454Y-83219778D01*
X37754005Y-83053864D01*
X37828139Y-82807745D01*
X37000000Y-81979605D01*
X36171861Y-82807745D01*
X35481663Y-82807745D01*
X35675824Y-82613923D01*
X35723448Y-82499232D01*
X35746136Y-82554005D01*
X35992255Y-82628139D01*
X36820395Y-81800000D01*
X37179605Y-81800000D01*
X38007745Y-82628139D01*
X38253864Y-82554005D01*
X38446965Y-82016777D01*
X38419778Y-81446546D01*
X38253864Y-81045995D01*
X38007745Y-80971861D01*
X37179605Y-81800000D01*
X36820395Y-81800000D01*
X35992255Y-80971861D01*
X35746136Y-81045995D01*
X35725195Y-81104254D01*
X35677243Y-80988200D01*
X35481640Y-80792255D01*
X36171861Y-80792255D01*
X37000000Y-81620395D01*
X37828139Y-80792255D01*
X37754005Y-80546136D01*
X37216777Y-80353035D01*
X36646546Y-80380222D01*
X36245995Y-80546136D01*
X36171861Y-80792255D01*
X35481640Y-80792255D01*
X35273923Y-80584176D01*
X34746691Y-80365250D01*
X34360000Y-80364913D01*
X34360000Y-79685654D01*
X39864817Y-79685654D01*
X39864817Y-79926391D01*
X39961490Y-80159780D01*
X40140119Y-80338408D01*
X40373508Y-80435081D01*
X40714066Y-80435081D01*
X40872816Y-80276331D01*
X40872816Y-79526904D01*
X41126816Y-79526904D01*
X41126816Y-80276331D01*
X41285566Y-80435081D01*
X41626124Y-80435081D01*
X41859513Y-80338408D01*
X42038142Y-80159780D01*
X42134815Y-79926391D01*
X42134815Y-79685654D01*
X41976065Y-79526904D01*
X41126816Y-79526904D01*
X40872816Y-79526904D01*
X40023567Y-79526904D01*
X39864817Y-79685654D01*
X34360000Y-79685654D01*
X34360000Y-78873417D01*
X39864817Y-78873417D01*
X39864817Y-79114154D01*
X40023567Y-79272904D01*
X40872816Y-79272904D01*
X40872816Y-78523477D01*
X41126816Y-78523477D01*
X41126816Y-79272904D01*
X41976065Y-79272904D01*
X42134815Y-79114154D01*
X42134815Y-78873417D01*
X42038142Y-78640028D01*
X41859513Y-78461400D01*
X41626124Y-78364727D01*
X41285566Y-78364727D01*
X41126816Y-78523477D01*
X40872816Y-78523477D01*
X40714066Y-78364727D01*
X40373508Y-78364727D01*
X40140119Y-78461400D01*
X39961490Y-78640028D01*
X39864817Y-78873417D01*
X34360000Y-78873417D01*
X34360000Y-75250000D01*
X34338748Y-75143162D01*
X34302148Y-74959160D01*
X34137401Y-74712599D01*
X33083285Y-73658483D01*
X33073162Y-73604683D01*
X32934090Y-73388559D01*
X32721890Y-73243569D01*
X32580000Y-73214836D01*
X32580000Y-72599689D01*
X39852377Y-72599689D01*
X39852377Y-73799839D01*
X39896655Y-74035156D01*
X40035727Y-74251280D01*
X40247927Y-74396270D01*
X40499817Y-74447279D01*
X41499815Y-74447279D01*
X41735132Y-74403001D01*
X41951256Y-74263929D01*
X42096246Y-74051729D01*
X42147255Y-73799839D01*
X42147255Y-72599689D01*
X42102977Y-72364372D01*
X41963905Y-72148248D01*
X41751705Y-72003258D01*
X41499815Y-71952249D01*
X40499817Y-71952249D01*
X40264500Y-71996527D01*
X40048376Y-72135599D01*
X39903386Y-72347799D01*
X39852377Y-72599689D01*
X32580000Y-72599689D01*
X32580000Y-63874802D01*
X34723000Y-61731802D01*
X34723000Y-62896494D01*
X34653569Y-62998110D01*
X34602560Y-63250000D01*
X34602560Y-63950000D01*
X34646838Y-64185317D01*
X34723000Y-64303676D01*
X34723000Y-64796494D01*
X34653569Y-64898110D01*
X34602560Y-65150000D01*
X34602560Y-65850000D01*
X34646838Y-66085317D01*
X34723000Y-66203676D01*
X34723000Y-67750000D01*
X34733006Y-67799410D01*
X34761447Y-67841035D01*
X34803841Y-67868315D01*
X34850000Y-67877000D01*
X39894102Y-67877000D01*
X39956883Y-68028943D01*
X40219673Y-68292192D01*
X40563201Y-68434838D01*
X40610077Y-68434879D01*
X40802210Y-68627012D01*
X40802210Y-69500000D01*
X40846488Y-69735317D01*
X40985560Y-69951441D01*
X41197760Y-70096431D01*
X41449650Y-70147440D01*
X42149674Y-70147440D01*
X42357042Y-70108421D01*
X42549724Y-70147440D01*
X43249748Y-70147440D01*
X43457116Y-70108421D01*
X43649798Y-70147440D01*
X44349822Y-70147440D01*
X44558706Y-70108136D01*
X44623562Y-70135000D01*
X44814134Y-70135000D01*
X44972884Y-69976250D01*
X44972884Y-69620382D01*
X44997262Y-69500000D01*
X44997262Y-68299850D01*
X44972884Y-68170292D01*
X44972884Y-67823600D01*
X44814134Y-67664850D01*
X44759810Y-67664850D01*
X44759810Y-66674113D01*
X44825840Y-66687485D01*
X44815162Y-66713201D01*
X44814838Y-67085167D01*
X44956883Y-67428943D01*
X45219673Y-67692192D01*
X45317620Y-67732864D01*
X45226884Y-67823600D01*
X45226884Y-68178214D01*
X45202252Y-68299850D01*
X45202252Y-69500000D01*
X45226884Y-69630908D01*
X45226884Y-69976250D01*
X45385634Y-70135000D01*
X45576206Y-70135000D01*
X45645836Y-70106158D01*
X45849692Y-70147440D01*
X46549716Y-70147440D01*
X46757084Y-70108421D01*
X46790357Y-70115159D01*
X48162599Y-71487401D01*
X48409161Y-71652148D01*
X48700000Y-71710000D01*
X52650000Y-71710000D01*
X52940839Y-71652148D01*
X53187401Y-71487401D01*
X56061000Y-68613802D01*
X56061000Y-68707002D01*
X56219748Y-68707002D01*
X56061000Y-68865750D01*
X56061000Y-69231309D01*
X56157673Y-69464698D01*
X56309086Y-69616112D01*
X55562599Y-70362599D01*
X55397852Y-70609161D01*
X55340000Y-70900000D01*
X55340000Y-77400000D01*
X55397852Y-77690839D01*
X55562599Y-77937401D01*
X56639560Y-79014362D01*
X56639560Y-79732000D01*
X56683838Y-79967317D01*
X56822910Y-80183441D01*
X57035110Y-80328431D01*
X57287000Y-80379440D01*
X57460638Y-80379440D01*
X57853198Y-80772000D01*
X57772638Y-80852560D01*
X57325000Y-80852560D01*
X57089683Y-80896838D01*
X56873559Y-81035910D01*
X56728569Y-81248110D01*
X56677560Y-81500000D01*
X56677560Y-82500000D01*
X56721838Y-82735317D01*
X56860910Y-82951441D01*
X56929006Y-82997969D01*
X56786673Y-83140302D01*
X56690000Y-83373691D01*
X56690000Y-83714250D01*
X56848750Y-83873000D01*
X57823000Y-83873000D01*
X57823000Y-83853000D01*
X58077000Y-83853000D01*
X58077000Y-83873000D01*
X59051250Y-83873000D01*
X59210000Y-83714250D01*
X59210000Y-83470750D01*
X59626500Y-83470750D01*
X59626500Y-83565309D01*
X59723173Y-83798698D01*
X59901801Y-83977327D01*
X60135190Y-84074000D01*
X60547250Y-84074000D01*
X60706000Y-83915250D01*
X60706000Y-83312000D01*
X60960000Y-83312000D01*
X60960000Y-83915250D01*
X61118750Y-84074000D01*
X61530810Y-84074000D01*
X61764199Y-83977327D01*
X61942827Y-83798698D01*
X62039500Y-83565309D01*
X62039500Y-83470750D01*
X61880750Y-83312000D01*
X60960000Y-83312000D01*
X60706000Y-83312000D01*
X59785250Y-83312000D01*
X59626500Y-83470750D01*
X59210000Y-83470750D01*
X59210000Y-83373691D01*
X59113327Y-83140302D01*
X58972090Y-82999064D01*
X59026441Y-82964090D01*
X59171431Y-82751890D01*
X59222440Y-82500000D01*
X59222440Y-81662011D01*
X59456943Y-81565117D01*
X59720192Y-81302327D01*
X59733868Y-81269393D01*
X59749709Y-81285235D01*
X59665069Y-81409110D01*
X59614060Y-81661000D01*
X59614060Y-82169000D01*
X59658338Y-82404317D01*
X59749104Y-82545371D01*
X59723173Y-82571302D01*
X59626500Y-82804691D01*
X59626500Y-82899250D01*
X59785250Y-83058000D01*
X60706000Y-83058000D01*
X60706000Y-83038000D01*
X60960000Y-83038000D01*
X60960000Y-83058000D01*
X61880750Y-83058000D01*
X62039500Y-82899250D01*
X62039500Y-82804691D01*
X61942827Y-82571302D01*
X61916291Y-82544765D01*
X62000931Y-82420890D01*
X62051940Y-82169000D01*
X62051940Y-81661000D01*
X62007662Y-81425683D01*
X61916896Y-81284629D01*
X61942827Y-81258698D01*
X62039500Y-81025309D01*
X62039500Y-80930750D01*
X61880750Y-80772000D01*
X60960000Y-80772000D01*
X60960000Y-80792000D01*
X60706000Y-80792000D01*
X60706000Y-80772000D01*
X60686000Y-80772000D01*
X60686000Y-80518000D01*
X60706000Y-80518000D01*
X60706000Y-80498000D01*
X60960000Y-80498000D01*
X60960000Y-80518000D01*
X61880750Y-80518000D01*
X62039500Y-80359250D01*
X62039500Y-80264691D01*
X61985780Y-80135000D01*
X62043178Y-80135000D01*
X62163201Y-80184838D01*
X62535167Y-80185162D01*
X62749287Y-80096690D01*
X62797852Y-80340839D01*
X62962599Y-80587401D01*
X65998794Y-83623596D01*
X66008338Y-83674317D01*
X66147410Y-83890441D01*
X66359610Y-84035431D01*
X66611500Y-84086440D01*
X67754500Y-84086440D01*
X67989817Y-84042162D01*
X68205941Y-83903090D01*
X68350931Y-83690890D01*
X68401940Y-83439000D01*
X68401940Y-82931000D01*
X68357662Y-82695683D01*
X68263334Y-82549093D01*
X68350931Y-82420890D01*
X68401940Y-82169000D01*
X68401940Y-81661000D01*
X68357662Y-81425683D01*
X68344353Y-81405000D01*
X71186198Y-81405000D01*
X72379460Y-82598262D01*
X72265250Y-82873309D01*
X72264752Y-83444187D01*
X72482757Y-83971800D01*
X72886077Y-84375824D01*
X73413309Y-84594750D01*
X73984187Y-84595248D01*
X74511800Y-84377243D01*
X74915824Y-83973923D01*
X75134750Y-83446691D01*
X75135248Y-82875813D01*
X74917243Y-82348200D01*
X74513923Y-81944176D01*
X74383785Y-81890138D01*
X74511800Y-81837243D01*
X74915824Y-81433923D01*
X75134750Y-80906691D01*
X75135248Y-80335813D01*
X74917243Y-79808200D01*
X74513923Y-79404176D01*
X74383785Y-79350138D01*
X74511800Y-79297243D01*
X74915824Y-78893923D01*
X75134750Y-78366691D01*
X75135248Y-77795813D01*
X74917243Y-77268200D01*
X74513923Y-76864176D01*
X74383785Y-76810138D01*
X74511800Y-76757243D01*
X74915824Y-76353923D01*
X75134750Y-75826691D01*
X75135248Y-75255813D01*
X74917243Y-74728200D01*
X74513923Y-74324176D01*
X74383785Y-74270138D01*
X74511800Y-74217243D01*
X74915824Y-73813923D01*
X75134750Y-73286691D01*
X75135248Y-72715813D01*
X74917243Y-72188200D01*
X74513923Y-71784176D01*
X74383785Y-71730138D01*
X74511800Y-71677243D01*
X74915824Y-71273923D01*
X75134750Y-70746691D01*
X75135248Y-70175813D01*
X74917243Y-69648200D01*
X74513923Y-69244176D01*
X74383785Y-69190138D01*
X74511800Y-69137243D01*
X74915824Y-68733923D01*
X75134750Y-68206691D01*
X75135248Y-67635813D01*
X74917243Y-67108200D01*
X74513923Y-66704176D01*
X74383785Y-66650138D01*
X74511800Y-66597243D01*
X74915824Y-66193923D01*
X75134750Y-65666691D01*
X75135248Y-65095813D01*
X74917243Y-64568200D01*
X74513923Y-64164176D01*
X74383785Y-64110138D01*
X74511800Y-64057243D01*
X74592183Y-63977000D01*
X75473000Y-63977000D01*
X75473000Y-84659000D01*
X59196459Y-84659000D01*
X59210000Y-84626309D01*
X59210000Y-84285750D01*
X59051250Y-84127000D01*
X58077000Y-84127000D01*
X58077000Y-84147000D01*
X57823000Y-84147000D01*
X57823000Y-84127000D01*
X56848750Y-84127000D01*
X56690000Y-84285750D01*
X56690000Y-84626309D01*
X56703541Y-84659000D01*
X55797342Y-84659000D01*
X55797342Y-83050138D01*
X55753064Y-82814821D01*
X55613992Y-82598697D01*
X55401792Y-82453707D01*
X55149902Y-82402698D01*
X53849930Y-82402698D01*
X53614613Y-82446976D01*
X53398489Y-82586048D01*
X53253499Y-82798248D01*
X53202490Y-83050138D01*
X53202490Y-84659000D01*
X42147509Y-84659000D01*
X42147509Y-82149581D01*
X42103231Y-81914264D01*
X41964159Y-81698140D01*
X41751959Y-81553150D01*
X41500069Y-81502141D01*
X40500071Y-81502141D01*
X40264754Y-81546419D01*
X40048630Y-81685491D01*
X39903640Y-81897691D01*
X39852631Y-82149581D01*
X39852631Y-84659000D01*
X17741606Y-84659000D01*
X17754005Y-84653864D01*
X17828139Y-84407745D01*
X17000000Y-83579605D01*
X16171861Y-84407745D01*
X16245995Y-84653864D01*
X16260284Y-84659000D01*
X14401000Y-84659000D01*
X14401000Y-83183223D01*
X15553035Y-83183223D01*
X15580222Y-83753454D01*
X15746136Y-84154005D01*
X15992255Y-84228139D01*
X16820395Y-83400000D01*
X17179605Y-83400000D01*
X18007745Y-84228139D01*
X18253864Y-84154005D01*
X18446965Y-83616777D01*
X18419778Y-83046546D01*
X18253864Y-82645995D01*
X18007745Y-82571861D01*
X17179605Y-83400000D01*
X16820395Y-83400000D01*
X15992255Y-82571861D01*
X15746136Y-82645995D01*
X15553035Y-83183223D01*
X14401000Y-83183223D01*
X14401000Y-51285750D01*
X21840000Y-51285750D01*
X21840000Y-51626309D01*
X21936673Y-51859698D01*
X22115301Y-52038327D01*
X22348690Y-52135000D01*
X22814250Y-52135000D01*
X22973000Y-51976250D01*
X22973000Y-51127000D01*
X23227000Y-51127000D01*
X23227000Y-51976250D01*
X23385750Y-52135000D01*
X23851310Y-52135000D01*
X24084699Y-52038327D01*
X24263327Y-51859698D01*
X24360000Y-51626309D01*
X24360000Y-51285750D01*
X24201250Y-51127000D01*
X23227000Y-51127000D01*
X22973000Y-51127000D01*
X21998750Y-51127000D01*
X21840000Y-51285750D01*
X14401000Y-51285750D01*
X14401000Y-48807745D01*
X16171861Y-48807745D01*
X16245995Y-49053864D01*
X16783223Y-49246965D01*
X17353454Y-49219778D01*
X17754005Y-49053864D01*
X17828139Y-48807745D01*
X17000000Y-47979605D01*
X16171861Y-48807745D01*
X14401000Y-48807745D01*
X14401000Y-47583223D01*
X15553035Y-47583223D01*
X15580222Y-48153454D01*
X15746136Y-48554005D01*
X15992255Y-48628139D01*
X16820395Y-47800000D01*
X17179605Y-47800000D01*
X18007745Y-48628139D01*
X18253864Y-48554005D01*
X18446965Y-48016777D01*
X18419778Y-47446546D01*
X18253864Y-47045995D01*
X18007745Y-46971861D01*
X17179605Y-47800000D01*
X16820395Y-47800000D01*
X15992255Y-46971861D01*
X15746136Y-47045995D01*
X15553035Y-47583223D01*
X14401000Y-47583223D01*
X14401000Y-43004187D01*
X15564752Y-43004187D01*
X15782757Y-43531800D01*
X16186077Y-43935824D01*
X16316215Y-43989862D01*
X16188200Y-44042757D01*
X15784176Y-44446077D01*
X15565250Y-44973309D01*
X15564752Y-45544187D01*
X15782757Y-46071800D01*
X16186077Y-46475824D01*
X16300768Y-46523448D01*
X16245995Y-46546136D01*
X16171861Y-46792255D01*
X17000000Y-47620395D01*
X17828139Y-46792255D01*
X17754005Y-46546136D01*
X17695746Y-46525195D01*
X17811800Y-46477243D01*
X18215824Y-46073923D01*
X18238215Y-46020000D01*
X18545198Y-46020000D01*
X21827560Y-49302362D01*
X21827560Y-49500000D01*
X21871838Y-49735317D01*
X22010910Y-49951441D01*
X22079006Y-49997969D01*
X21936673Y-50140302D01*
X21840000Y-50373691D01*
X21840000Y-50714250D01*
X21998750Y-50873000D01*
X22973000Y-50873000D01*
X22973000Y-50853000D01*
X23227000Y-50853000D01*
X23227000Y-50873000D01*
X24201250Y-50873000D01*
X24360000Y-50714250D01*
X24360000Y-50373691D01*
X24263327Y-50140302D01*
X24122090Y-49999064D01*
X24176441Y-49964090D01*
X24321431Y-49751890D01*
X24372440Y-49500000D01*
X24372440Y-48500000D01*
X24328162Y-48264683D01*
X24189090Y-48048559D01*
X23976890Y-47903569D01*
X23725000Y-47852560D01*
X22527362Y-47852560D01*
X19397401Y-44722599D01*
X19150839Y-44557852D01*
X18860000Y-44500000D01*
X18238646Y-44500000D01*
X18217243Y-44448200D01*
X17813923Y-44044176D01*
X17683785Y-43990138D01*
X17772215Y-43953599D01*
X21984699Y-43953599D01*
X22248281Y-44591515D01*
X22735918Y-45080004D01*
X23373373Y-45344699D01*
X24063599Y-45345301D01*
X24701515Y-45081719D01*
X25190004Y-44594082D01*
X25454699Y-43956627D01*
X25455301Y-43266401D01*
X25191719Y-42628485D01*
X24704082Y-42139996D01*
X24066627Y-41875301D01*
X23376401Y-41874699D01*
X22738485Y-42138281D01*
X22249996Y-42625918D01*
X21985301Y-43263373D01*
X21984699Y-43953599D01*
X17772215Y-43953599D01*
X17811800Y-43937243D01*
X18215824Y-43533923D01*
X18434750Y-43006691D01*
X18435248Y-42435813D01*
X18217243Y-41908200D01*
X17813923Y-41504176D01*
X17699232Y-41456552D01*
X17754005Y-41433864D01*
X17828139Y-41187745D01*
X17000000Y-40359605D01*
X16171861Y-41187745D01*
X16245995Y-41433864D01*
X16304254Y-41454805D01*
X16188200Y-41502757D01*
X15784176Y-41906077D01*
X15565250Y-42433309D01*
X15564752Y-43004187D01*
X14401000Y-43004187D01*
X14401000Y-39963223D01*
X15553035Y-39963223D01*
X15580222Y-40533454D01*
X15746136Y-40934005D01*
X15992255Y-41008139D01*
X16820395Y-40180000D01*
X17179605Y-40180000D01*
X18007745Y-41008139D01*
X18253864Y-40934005D01*
X18446965Y-40396777D01*
X18419778Y-39826546D01*
X18402880Y-39785750D01*
X21840000Y-39785750D01*
X21840000Y-40126309D01*
X21936673Y-40359698D01*
X22115301Y-40538327D01*
X22348690Y-40635000D01*
X22814250Y-40635000D01*
X22973000Y-40476250D01*
X22973000Y-39627000D01*
X23227000Y-39627000D01*
X23227000Y-40476250D01*
X23385750Y-40635000D01*
X23851310Y-40635000D01*
X24084699Y-40538327D01*
X24263327Y-40359698D01*
X24360000Y-40126309D01*
X24360000Y-39785750D01*
X24201250Y-39627000D01*
X23227000Y-39627000D01*
X22973000Y-39627000D01*
X21998750Y-39627000D01*
X21840000Y-39785750D01*
X18402880Y-39785750D01*
X18253864Y-39425995D01*
X18007745Y-39351861D01*
X17179605Y-40180000D01*
X16820395Y-40180000D01*
X15992255Y-39351861D01*
X15746136Y-39425995D01*
X15553035Y-39963223D01*
X14401000Y-39963223D01*
X14401000Y-33705000D01*
X16618405Y-33705000D01*
X16188200Y-33882757D01*
G36*
X65590000Y-65064802D02*
X65590000Y-68500000D01*
X65647852Y-68790839D01*
X65664941Y-68816415D01*
X65664838Y-68935167D01*
X65806883Y-69278943D01*
X65840000Y-69312118D01*
X65840000Y-69750000D01*
X65897852Y-70040839D01*
X66062599Y-70287401D01*
X67053560Y-71278362D01*
X67053560Y-71858000D01*
X67097838Y-72093317D01*
X67236910Y-72309441D01*
X67312000Y-72360748D01*
X67312000Y-73091198D01*
X67009638Y-73393560D01*
X66611500Y-73393560D01*
X66376183Y-73437838D01*
X66160059Y-73576910D01*
X66015069Y-73789110D01*
X65964060Y-74041000D01*
X65964060Y-74549000D01*
X66008338Y-74784317D01*
X66102666Y-74930907D01*
X66015069Y-75059110D01*
X65964060Y-75311000D01*
X65964060Y-75819000D01*
X66008338Y-76054317D01*
X66102666Y-76200907D01*
X66015069Y-76329110D01*
X65964060Y-76581000D01*
X65964060Y-77089000D01*
X66008338Y-77324317D01*
X66021647Y-77345000D01*
X65834005Y-77345000D01*
X65718799Y-77297162D01*
X65360000Y-77296849D01*
X65360000Y-74100000D01*
X65302148Y-73809161D01*
X65137401Y-73562599D01*
X63935122Y-72360320D01*
X63935144Y-72335000D01*
X64201310Y-72335000D01*
X64434699Y-72238327D01*
X64613327Y-72059698D01*
X64710000Y-71826309D01*
X64710000Y-71485750D01*
X64551250Y-71327000D01*
X63577000Y-71327000D01*
X63577000Y-71347000D01*
X63323000Y-71347000D01*
X63323000Y-71327000D01*
X63303000Y-71327000D01*
X63303000Y-71073000D01*
X63323000Y-71073000D01*
X63323000Y-71053000D01*
X63577000Y-71053000D01*
X63577000Y-71073000D01*
X64551250Y-71073000D01*
X64710000Y-70914250D01*
X64710000Y-70573691D01*
X64613327Y-70340302D01*
X64472090Y-70199064D01*
X64526441Y-70164090D01*
X64671431Y-69951890D01*
X64722440Y-69700000D01*
X64722440Y-68700000D01*
X64678162Y-68464683D01*
X64539090Y-68248559D01*
X64326890Y-68103569D01*
X64075000Y-68052560D01*
X62825000Y-68052560D01*
X62727000Y-68071000D01*
X62727000Y-66135000D01*
X62814250Y-66135000D01*
X62973000Y-65976250D01*
X62973000Y-65127000D01*
X63227000Y-65127000D01*
X63227000Y-65976250D01*
X63385750Y-66135000D01*
X63851310Y-66135000D01*
X64084699Y-66038327D01*
X64263327Y-65859698D01*
X64360000Y-65626309D01*
X64360000Y-65285750D01*
X64201250Y-65127000D01*
X63227000Y-65127000D01*
X62973000Y-65127000D01*
X62953000Y-65127000D01*
X62953000Y-64873000D01*
X62973000Y-64873000D01*
X62973000Y-64853000D01*
X63227000Y-64853000D01*
X63227000Y-64873000D01*
X64201250Y-64873000D01*
X64360000Y-64714250D01*
X64360000Y-64373691D01*
X64263327Y-64140302D01*
X64122090Y-63999064D01*
X64176441Y-63964090D01*
X64303431Y-63778233D01*
X65590000Y-65064802D01*
X65590000Y-65064802D01*
G37*
X65590000Y-65064802D02*
X65590000Y-68500000D01*
X65647852Y-68790839D01*
X65664941Y-68816415D01*
X65664838Y-68935167D01*
X65806883Y-69278943D01*
X65840000Y-69312118D01*
X65840000Y-69750000D01*
X65897852Y-70040839D01*
X66062599Y-70287401D01*
X67053560Y-71278362D01*
X67053560Y-71858000D01*
X67097838Y-72093317D01*
X67236910Y-72309441D01*
X67312000Y-72360748D01*
X67312000Y-73091198D01*
X67009638Y-73393560D01*
X66611500Y-73393560D01*
X66376183Y-73437838D01*
X66160059Y-73576910D01*
X66015069Y-73789110D01*
X65964060Y-74041000D01*
X65964060Y-74549000D01*
X66008338Y-74784317D01*
X66102666Y-74930907D01*
X66015069Y-75059110D01*
X65964060Y-75311000D01*
X65964060Y-75819000D01*
X66008338Y-76054317D01*
X66102666Y-76200907D01*
X66015069Y-76329110D01*
X65964060Y-76581000D01*
X65964060Y-77089000D01*
X66008338Y-77324317D01*
X66021647Y-77345000D01*
X65834005Y-77345000D01*
X65718799Y-77297162D01*
X65360000Y-77296849D01*
X65360000Y-74100000D01*
X65302148Y-73809161D01*
X65137401Y-73562599D01*
X63935122Y-72360320D01*
X63935144Y-72335000D01*
X64201310Y-72335000D01*
X64434699Y-72238327D01*
X64613327Y-72059698D01*
X64710000Y-71826309D01*
X64710000Y-71485750D01*
X64551250Y-71327000D01*
X63577000Y-71327000D01*
X63577000Y-71347000D01*
X63323000Y-71347000D01*
X63323000Y-71327000D01*
X63303000Y-71327000D01*
X63303000Y-71073000D01*
X63323000Y-71073000D01*
X63323000Y-71053000D01*
X63577000Y-71053000D01*
X63577000Y-71073000D01*
X64551250Y-71073000D01*
X64710000Y-70914250D01*
X64710000Y-70573691D01*
X64613327Y-70340302D01*
X64472090Y-70199064D01*
X64526441Y-70164090D01*
X64671431Y-69951890D01*
X64722440Y-69700000D01*
X64722440Y-68700000D01*
X64678162Y-68464683D01*
X64539090Y-68248559D01*
X64326890Y-68103569D01*
X64075000Y-68052560D01*
X62825000Y-68052560D01*
X62727000Y-68071000D01*
X62727000Y-66135000D01*
X62814250Y-66135000D01*
X62973000Y-65976250D01*
X62973000Y-65127000D01*
X63227000Y-65127000D01*
X63227000Y-65976250D01*
X63385750Y-66135000D01*
X63851310Y-66135000D01*
X64084699Y-66038327D01*
X64263327Y-65859698D01*
X64360000Y-65626309D01*
X64360000Y-65285750D01*
X64201250Y-65127000D01*
X63227000Y-65127000D01*
X62973000Y-65127000D01*
X62953000Y-65127000D01*
X62953000Y-64873000D01*
X62973000Y-64873000D01*
X62973000Y-64853000D01*
X63227000Y-64853000D01*
X63227000Y-64873000D01*
X64201250Y-64873000D01*
X64360000Y-64714250D01*
X64360000Y-64373691D01*
X64263327Y-64140302D01*
X64122090Y-63999064D01*
X64176441Y-63964090D01*
X64303431Y-63778233D01*
X65590000Y-65064802D01*
G36*
X58905673Y-70896192D02*
X59249201Y-71038838D01*
X59621167Y-71039162D01*
X59964943Y-70897117D01*
X59998118Y-70864000D01*
X60723000Y-70864000D01*
X60723000Y-71250000D01*
X60733006Y-71299410D01*
X60761447Y-71341035D01*
X60803841Y-71368315D01*
X60850000Y-71377000D01*
X62298750Y-71377000D01*
X62190000Y-71485750D01*
X62190000Y-71808015D01*
X62086799Y-71765162D01*
X61714833Y-71764838D01*
X61371057Y-71906883D01*
X61107808Y-72169673D01*
X60965162Y-72513201D01*
X60964838Y-72885167D01*
X61106883Y-73228943D01*
X61271213Y-73393560D01*
X60261500Y-73393560D01*
X60026183Y-73437838D01*
X59810059Y-73576910D01*
X59665069Y-73789110D01*
X59614060Y-74041000D01*
X59614060Y-74549000D01*
X59658338Y-74784317D01*
X59752666Y-74930907D01*
X59665069Y-75059110D01*
X59614060Y-75311000D01*
X59614060Y-75819000D01*
X59658338Y-76054317D01*
X59671647Y-76075000D01*
X58672000Y-76075000D01*
X58672000Y-75919780D01*
X58760317Y-75903162D01*
X58976441Y-75764090D01*
X59121431Y-75551890D01*
X59172440Y-75300000D01*
X59172440Y-74300000D01*
X59128162Y-74064683D01*
X58989090Y-73848559D01*
X58920994Y-73802031D01*
X59063327Y-73659698D01*
X59160000Y-73426309D01*
X59160000Y-73085750D01*
X59001250Y-72927000D01*
X58027000Y-72927000D01*
X58027000Y-72947000D01*
X57773000Y-72947000D01*
X57773000Y-72927000D01*
X57753000Y-72927000D01*
X57753000Y-72673000D01*
X57773000Y-72673000D01*
X57773000Y-72653000D01*
X58027000Y-72653000D01*
X58027000Y-72673000D01*
X59001250Y-72673000D01*
X59160000Y-72514250D01*
X59160000Y-72173691D01*
X59063327Y-71940302D01*
X58884699Y-71761673D01*
X58651310Y-71665000D01*
X58185750Y-71665000D01*
X58027002Y-71823748D01*
X58027002Y-71665000D01*
X57909802Y-71665000D01*
X58792241Y-70782561D01*
X58905673Y-70896192D01*
X58905673Y-70896192D01*
G37*
X58905673Y-70896192D02*
X59249201Y-71038838D01*
X59621167Y-71039162D01*
X59964943Y-70897117D01*
X59998118Y-70864000D01*
X60723000Y-70864000D01*
X60723000Y-71250000D01*
X60733006Y-71299410D01*
X60761447Y-71341035D01*
X60803841Y-71368315D01*
X60850000Y-71377000D01*
X62298750Y-71377000D01*
X62190000Y-71485750D01*
X62190000Y-71808015D01*
X62086799Y-71765162D01*
X61714833Y-71764838D01*
X61371057Y-71906883D01*
X61107808Y-72169673D01*
X60965162Y-72513201D01*
X60964838Y-72885167D01*
X61106883Y-73228943D01*
X61271213Y-73393560D01*
X60261500Y-73393560D01*
X60026183Y-73437838D01*
X59810059Y-73576910D01*
X59665069Y-73789110D01*
X59614060Y-74041000D01*
X59614060Y-74549000D01*
X59658338Y-74784317D01*
X59752666Y-74930907D01*
X59665069Y-75059110D01*
X59614060Y-75311000D01*
X59614060Y-75819000D01*
X59658338Y-76054317D01*
X59671647Y-76075000D01*
X58672000Y-76075000D01*
X58672000Y-75919780D01*
X58760317Y-75903162D01*
X58976441Y-75764090D01*
X59121431Y-75551890D01*
X59172440Y-75300000D01*
X59172440Y-74300000D01*
X59128162Y-74064683D01*
X58989090Y-73848559D01*
X58920994Y-73802031D01*
X59063327Y-73659698D01*
X59160000Y-73426309D01*
X59160000Y-73085750D01*
X59001250Y-72927000D01*
X58027000Y-72927000D01*
X58027000Y-72947000D01*
X57773000Y-72947000D01*
X57773000Y-72927000D01*
X57753000Y-72927000D01*
X57753000Y-72673000D01*
X57773000Y-72673000D01*
X57773000Y-72653000D01*
X58027000Y-72653000D01*
X58027000Y-72673000D01*
X59001250Y-72673000D01*
X59160000Y-72514250D01*
X59160000Y-72173691D01*
X59063327Y-71940302D01*
X58884699Y-71761673D01*
X58651310Y-71665000D01*
X58185750Y-71665000D01*
X58027002Y-71823748D01*
X58027002Y-71665000D01*
X57909802Y-71665000D01*
X58792241Y-70782561D01*
X58905673Y-70896192D01*
G36*
X47639852Y-64564654D02*
X47639852Y-65467350D01*
X47630327Y-65457808D01*
X47286799Y-65315162D01*
X47239924Y-65315121D01*
X46937401Y-65012599D01*
X46740668Y-64881147D01*
X46728162Y-64814683D01*
X46589090Y-64598559D01*
X46520994Y-64552031D01*
X46663327Y-64409698D01*
X46760000Y-64176309D01*
X46760000Y-63835750D01*
X46601252Y-63677002D01*
X46752200Y-63677002D01*
X47639852Y-64564654D01*
X47639852Y-64564654D01*
G37*
X47639852Y-64564654D02*
X47639852Y-65467350D01*
X47630327Y-65457808D01*
X47286799Y-65315162D01*
X47239924Y-65315121D01*
X46937401Y-65012599D01*
X46740668Y-64881147D01*
X46728162Y-64814683D01*
X46589090Y-64598559D01*
X46520994Y-64552031D01*
X46663327Y-64409698D01*
X46760000Y-64176309D01*
X46760000Y-63835750D01*
X46601252Y-63677002D01*
X46752200Y-63677002D01*
X47639852Y-64564654D01*
G36*
X45627000Y-63423000D02*
X45647000Y-63423000D01*
X45647000Y-63677000D01*
X45627000Y-63677000D01*
X45627000Y-63697000D01*
X45373000Y-63697000D01*
X45373000Y-63677000D01*
X45353000Y-63677000D01*
X45353000Y-63423000D01*
X45373000Y-63423000D01*
X45373000Y-63403000D01*
X45627000Y-63403000D01*
X45627000Y-63423000D01*
X45627000Y-63423000D01*
G37*
X45627000Y-63423000D02*
X45647000Y-63423000D01*
X45647000Y-63677000D01*
X45627000Y-63677000D01*
X45627000Y-63697000D01*
X45373000Y-63697000D01*
X45373000Y-63677000D01*
X45353000Y-63677000D01*
X45353000Y-63423000D01*
X45373000Y-63423000D01*
X45373000Y-63403000D01*
X45627000Y-63403000D01*
X45627000Y-63423000D01*
G36*
X43640910Y-52881441D02*
X43771245Y-52970495D01*
X43796839Y-52996089D01*
X43665162Y-53313201D01*
X43664838Y-53685167D01*
X43806883Y-54028943D01*
X44069673Y-54292192D01*
X44413201Y-54434838D01*
X44785167Y-54435162D01*
X45128943Y-54293117D01*
X45392192Y-54030327D01*
X45534838Y-53686799D01*
X45534879Y-53639923D01*
X45717401Y-53457401D01*
X45882148Y-53210839D01*
X45908683Y-53077440D01*
X45982560Y-53077440D01*
X45982560Y-53355000D01*
X46006944Y-53484589D01*
X45982560Y-53605000D01*
X45982560Y-54155000D01*
X46006944Y-54284589D01*
X45982560Y-54405000D01*
X45982560Y-54955000D01*
X46006944Y-55084589D01*
X45982560Y-55205000D01*
X45982560Y-55755000D01*
X46006944Y-55884589D01*
X45982560Y-56005000D01*
X45982560Y-56555000D01*
X46006944Y-56684589D01*
X45982560Y-56805000D01*
X45982560Y-57355000D01*
X46006944Y-57484589D01*
X45982560Y-57605000D01*
X45982560Y-58155000D01*
X46006944Y-58284589D01*
X45982560Y-58405000D01*
X45982560Y-58682560D01*
X45705000Y-58682560D01*
X45575411Y-58706944D01*
X45455000Y-58682560D01*
X44905000Y-58682560D01*
X44775411Y-58706944D01*
X44655000Y-58682560D01*
X44105000Y-58682560D01*
X43975411Y-58706944D01*
X43855000Y-58682560D01*
X43305000Y-58682560D01*
X43175411Y-58706944D01*
X43055000Y-58682560D01*
X42505000Y-58682560D01*
X42375411Y-58706944D01*
X42255000Y-58682560D01*
X41705000Y-58682560D01*
X41599295Y-58702450D01*
X41581310Y-58695000D01*
X41465750Y-58695000D01*
X41369349Y-58791401D01*
X41253559Y-58865910D01*
X41180116Y-58973397D01*
X41119090Y-58878559D01*
X40988755Y-58789505D01*
X40894250Y-58695000D01*
X40778690Y-58695000D01*
X40758247Y-58703468D01*
X40655000Y-58682560D01*
X40377440Y-58682560D01*
X40377440Y-58405000D01*
X40353056Y-58275411D01*
X40377440Y-58155000D01*
X40377440Y-57605000D01*
X40353056Y-57475411D01*
X40377440Y-57355000D01*
X40377440Y-56805000D01*
X40353056Y-56675411D01*
X40377440Y-56555000D01*
X40377440Y-56005000D01*
X40353056Y-55875411D01*
X40377440Y-55755000D01*
X40377440Y-55205000D01*
X40353056Y-55075411D01*
X40377440Y-54955000D01*
X40377440Y-54405000D01*
X40353056Y-54275411D01*
X40377440Y-54155000D01*
X40377440Y-53605000D01*
X40353056Y-53475411D01*
X40377440Y-53355000D01*
X40377440Y-53077440D01*
X40655000Y-53077440D01*
X40784589Y-53053056D01*
X40905000Y-53077440D01*
X41455000Y-53077440D01*
X41584589Y-53053056D01*
X41705000Y-53077440D01*
X42255000Y-53077440D01*
X42384589Y-53053056D01*
X42505000Y-53077440D01*
X43055000Y-53077440D01*
X43160705Y-53057550D01*
X43178690Y-53065000D01*
X43294250Y-53065000D01*
X43390651Y-52968599D01*
X43506441Y-52894090D01*
X43579884Y-52786603D01*
X43640910Y-52881441D01*
X43640910Y-52881441D01*
G37*
X43640910Y-52881441D02*
X43771245Y-52970495D01*
X43796839Y-52996089D01*
X43665162Y-53313201D01*
X43664838Y-53685167D01*
X43806883Y-54028943D01*
X44069673Y-54292192D01*
X44413201Y-54434838D01*
X44785167Y-54435162D01*
X45128943Y-54293117D01*
X45392192Y-54030327D01*
X45534838Y-53686799D01*
X45534879Y-53639923D01*
X45717401Y-53457401D01*
X45882148Y-53210839D01*
X45908683Y-53077440D01*
X45982560Y-53077440D01*
X45982560Y-53355000D01*
X46006944Y-53484589D01*
X45982560Y-53605000D01*
X45982560Y-54155000D01*
X46006944Y-54284589D01*
X45982560Y-54405000D01*
X45982560Y-54955000D01*
X46006944Y-55084589D01*
X45982560Y-55205000D01*
X45982560Y-55755000D01*
X46006944Y-55884589D01*
X45982560Y-56005000D01*
X45982560Y-56555000D01*
X46006944Y-56684589D01*
X45982560Y-56805000D01*
X45982560Y-57355000D01*
X46006944Y-57484589D01*
X45982560Y-57605000D01*
X45982560Y-58155000D01*
X46006944Y-58284589D01*
X45982560Y-58405000D01*
X45982560Y-58682560D01*
X45705000Y-58682560D01*
X45575411Y-58706944D01*
X45455000Y-58682560D01*
X44905000Y-58682560D01*
X44775411Y-58706944D01*
X44655000Y-58682560D01*
X44105000Y-58682560D01*
X43975411Y-58706944D01*
X43855000Y-58682560D01*
X43305000Y-58682560D01*
X43175411Y-58706944D01*
X43055000Y-58682560D01*
X42505000Y-58682560D01*
X42375411Y-58706944D01*
X42255000Y-58682560D01*
X41705000Y-58682560D01*
X41599295Y-58702450D01*
X41581310Y-58695000D01*
X41465750Y-58695000D01*
X41369349Y-58791401D01*
X41253559Y-58865910D01*
X41180116Y-58973397D01*
X41119090Y-58878559D01*
X40988755Y-58789505D01*
X40894250Y-58695000D01*
X40778690Y-58695000D01*
X40758247Y-58703468D01*
X40655000Y-58682560D01*
X40377440Y-58682560D01*
X40377440Y-58405000D01*
X40353056Y-58275411D01*
X40377440Y-58155000D01*
X40377440Y-57605000D01*
X40353056Y-57475411D01*
X40377440Y-57355000D01*
X40377440Y-56805000D01*
X40353056Y-56675411D01*
X40377440Y-56555000D01*
X40377440Y-56005000D01*
X40353056Y-55875411D01*
X40377440Y-55755000D01*
X40377440Y-55205000D01*
X40353056Y-55075411D01*
X40377440Y-54955000D01*
X40377440Y-54405000D01*
X40353056Y-54275411D01*
X40377440Y-54155000D01*
X40377440Y-53605000D01*
X40353056Y-53475411D01*
X40377440Y-53355000D01*
X40377440Y-53077440D01*
X40655000Y-53077440D01*
X40784589Y-53053056D01*
X40905000Y-53077440D01*
X41455000Y-53077440D01*
X41584589Y-53053056D01*
X41705000Y-53077440D01*
X42255000Y-53077440D01*
X42384589Y-53053056D01*
X42505000Y-53077440D01*
X43055000Y-53077440D01*
X43160705Y-53057550D01*
X43178690Y-53065000D01*
X43294250Y-53065000D01*
X43390651Y-52968599D01*
X43506441Y-52894090D01*
X43579884Y-52786603D01*
X43640910Y-52881441D01*
G36*
X61821838Y-52865317D02*
X61960910Y-53081441D01*
X62136232Y-53201233D01*
X61973559Y-53305910D01*
X61828569Y-53518110D01*
X61824136Y-53540000D01*
X61400000Y-53540000D01*
X61109161Y-53597852D01*
X61008787Y-53664920D01*
X60914833Y-53664838D01*
X60571057Y-53806883D01*
X60307808Y-54069673D01*
X60165162Y-54413201D01*
X60164838Y-54785167D01*
X60306883Y-55128943D01*
X60569673Y-55392192D01*
X60597149Y-55403601D01*
X60477000Y-55523750D01*
X60477000Y-56373000D01*
X61451250Y-56373000D01*
X61610000Y-56214250D01*
X61610000Y-55873691D01*
X61513327Y-55640302D01*
X61372219Y-55499193D01*
X61628943Y-55393117D01*
X61874826Y-55147663D01*
X61960910Y-55281441D01*
X61990000Y-55301317D01*
X61990000Y-55550000D01*
X62047852Y-55840839D01*
X62212599Y-56087401D01*
X62217560Y-56092362D01*
X62217560Y-57000000D01*
X62261838Y-57235317D01*
X62400910Y-57451441D01*
X62469006Y-57497969D01*
X62326673Y-57640302D01*
X62230000Y-57873691D01*
X62230000Y-58214250D01*
X62388750Y-58373000D01*
X63363000Y-58373000D01*
X63363000Y-58353000D01*
X63617000Y-58353000D01*
X63617000Y-58373000D01*
X63637000Y-58373000D01*
X63637000Y-58627000D01*
X63617000Y-58627000D01*
X63617000Y-58647000D01*
X63363000Y-58647000D01*
X63363000Y-58627000D01*
X62388750Y-58627000D01*
X62230000Y-58785750D01*
X62230000Y-58955198D01*
X61622440Y-58347638D01*
X61622440Y-58000000D01*
X61578162Y-57764683D01*
X61439090Y-57548559D01*
X61370994Y-57502031D01*
X61513327Y-57359698D01*
X61610000Y-57126309D01*
X61610000Y-56785750D01*
X61451250Y-56627000D01*
X60477000Y-56627000D01*
X60477000Y-56647000D01*
X60223000Y-56647000D01*
X60223000Y-56627000D01*
X59248750Y-56627000D01*
X59150276Y-56725474D01*
X58298493Y-55873691D01*
X59090000Y-55873691D01*
X59090000Y-56214250D01*
X59248750Y-56373000D01*
X60223000Y-56373000D01*
X60223000Y-55523750D01*
X60064250Y-55365000D01*
X59598690Y-55365000D01*
X59365301Y-55461673D01*
X59186673Y-55640302D01*
X59090000Y-55873691D01*
X58298493Y-55873691D01*
X58137401Y-55712599D01*
X57980407Y-55607699D01*
X57894090Y-55473559D01*
X57681890Y-55328569D01*
X57430000Y-55277560D01*
X56370000Y-55277560D01*
X56134683Y-55321838D01*
X55918559Y-55460910D01*
X55798767Y-55636232D01*
X55694090Y-55473559D01*
X55481890Y-55328569D01*
X55460000Y-55324136D01*
X55460000Y-55142334D01*
X55535317Y-55128162D01*
X55751441Y-54989090D01*
X55797969Y-54920994D01*
X55940302Y-55063327D01*
X56173691Y-55160000D01*
X56514250Y-55160000D01*
X56673000Y-55001250D01*
X56673000Y-54027000D01*
X56927000Y-54027000D01*
X56927000Y-55001250D01*
X57085750Y-55160000D01*
X57426309Y-55160000D01*
X57659698Y-55063327D01*
X57838327Y-54884699D01*
X57935000Y-54651310D01*
X57935000Y-54185750D01*
X57776250Y-54027000D01*
X56927000Y-54027000D01*
X56673000Y-54027000D01*
X56653000Y-54027000D01*
X56653000Y-53773000D01*
X56673000Y-53773000D01*
X56673000Y-53753000D01*
X56927000Y-53753000D01*
X56927000Y-53773000D01*
X57776250Y-53773000D01*
X57935000Y-53614250D01*
X57935000Y-53148690D01*
X57838327Y-52915301D01*
X57783026Y-52860000D01*
X61820838Y-52860000D01*
X61821838Y-52865317D01*
X61821838Y-52865317D01*
G37*
X61821838Y-52865317D02*
X61960910Y-53081441D01*
X62136232Y-53201233D01*
X61973559Y-53305910D01*
X61828569Y-53518110D01*
X61824136Y-53540000D01*
X61400000Y-53540000D01*
X61109161Y-53597852D01*
X61008787Y-53664920D01*
X60914833Y-53664838D01*
X60571057Y-53806883D01*
X60307808Y-54069673D01*
X60165162Y-54413201D01*
X60164838Y-54785167D01*
X60306883Y-55128943D01*
X60569673Y-55392192D01*
X60597149Y-55403601D01*
X60477000Y-55523750D01*
X60477000Y-56373000D01*
X61451250Y-56373000D01*
X61610000Y-56214250D01*
X61610000Y-55873691D01*
X61513327Y-55640302D01*
X61372219Y-55499193D01*
X61628943Y-55393117D01*
X61874826Y-55147663D01*
X61960910Y-55281441D01*
X61990000Y-55301317D01*
X61990000Y-55550000D01*
X62047852Y-55840839D01*
X62212599Y-56087401D01*
X62217560Y-56092362D01*
X62217560Y-57000000D01*
X62261838Y-57235317D01*
X62400910Y-57451441D01*
X62469006Y-57497969D01*
X62326673Y-57640302D01*
X62230000Y-57873691D01*
X62230000Y-58214250D01*
X62388750Y-58373000D01*
X63363000Y-58373000D01*
X63363000Y-58353000D01*
X63617000Y-58353000D01*
X63617000Y-58373000D01*
X63637000Y-58373000D01*
X63637000Y-58627000D01*
X63617000Y-58627000D01*
X63617000Y-58647000D01*
X63363000Y-58647000D01*
X63363000Y-58627000D01*
X62388750Y-58627000D01*
X62230000Y-58785750D01*
X62230000Y-58955198D01*
X61622440Y-58347638D01*
X61622440Y-58000000D01*
X61578162Y-57764683D01*
X61439090Y-57548559D01*
X61370994Y-57502031D01*
X61513327Y-57359698D01*
X61610000Y-57126309D01*
X61610000Y-56785750D01*
X61451250Y-56627000D01*
X60477000Y-56627000D01*
X60477000Y-56647000D01*
X60223000Y-56647000D01*
X60223000Y-56627000D01*
X59248750Y-56627000D01*
X59150276Y-56725474D01*
X58298493Y-55873691D01*
X59090000Y-55873691D01*
X59090000Y-56214250D01*
X59248750Y-56373000D01*
X60223000Y-56373000D01*
X60223000Y-55523750D01*
X60064250Y-55365000D01*
X59598690Y-55365000D01*
X59365301Y-55461673D01*
X59186673Y-55640302D01*
X59090000Y-55873691D01*
X58298493Y-55873691D01*
X58137401Y-55712599D01*
X57980407Y-55607699D01*
X57894090Y-55473559D01*
X57681890Y-55328569D01*
X57430000Y-55277560D01*
X56370000Y-55277560D01*
X56134683Y-55321838D01*
X55918559Y-55460910D01*
X55798767Y-55636232D01*
X55694090Y-55473559D01*
X55481890Y-55328569D01*
X55460000Y-55324136D01*
X55460000Y-55142334D01*
X55535317Y-55128162D01*
X55751441Y-54989090D01*
X55797969Y-54920994D01*
X55940302Y-55063327D01*
X56173691Y-55160000D01*
X56514250Y-55160000D01*
X56673000Y-55001250D01*
X56673000Y-54027000D01*
X56927000Y-54027000D01*
X56927000Y-55001250D01*
X57085750Y-55160000D01*
X57426309Y-55160000D01*
X57659698Y-55063327D01*
X57838327Y-54884699D01*
X57935000Y-54651310D01*
X57935000Y-54185750D01*
X57776250Y-54027000D01*
X56927000Y-54027000D01*
X56673000Y-54027000D01*
X56653000Y-54027000D01*
X56653000Y-53773000D01*
X56673000Y-53773000D01*
X56673000Y-53753000D01*
X56927000Y-53753000D01*
X56927000Y-53773000D01*
X57776250Y-53773000D01*
X57935000Y-53614250D01*
X57935000Y-53148690D01*
X57838327Y-52915301D01*
X57783026Y-52860000D01*
X61820838Y-52860000D01*
X61821838Y-52865317D01*
G36*
X55893750Y-57073000D02*
X55974051Y-57073000D01*
X56118110Y-57171431D01*
X56255120Y-57199176D01*
X56134683Y-57221838D01*
X55971257Y-57327000D01*
X55893750Y-57327000D01*
X55800000Y-57420750D01*
X55706250Y-57327000D01*
X55625949Y-57327000D01*
X55481890Y-57228569D01*
X55344880Y-57200824D01*
X55465317Y-57178162D01*
X55628743Y-57073000D01*
X55706250Y-57073000D01*
X55800000Y-56979250D01*
X55893750Y-57073000D01*
X55893750Y-57073000D01*
G37*
X55893750Y-57073000D02*
X55974051Y-57073000D01*
X56118110Y-57171431D01*
X56255120Y-57199176D01*
X56134683Y-57221838D01*
X55971257Y-57327000D01*
X55893750Y-57327000D01*
X55800000Y-57420750D01*
X55706250Y-57327000D01*
X55625949Y-57327000D01*
X55481890Y-57228569D01*
X55344880Y-57200824D01*
X55465317Y-57178162D01*
X55628743Y-57073000D01*
X55706250Y-57073000D01*
X55800000Y-56979250D01*
X55893750Y-57073000D01*
G36*
X43935910Y-45051441D02*
X44148110Y-45196431D01*
X44400000Y-45247440D01*
X45700000Y-45247440D01*
X45935317Y-45203162D01*
X46151441Y-45064090D01*
X46188399Y-45010000D01*
X46535198Y-45010000D01*
X50031877Y-48506679D01*
X50003569Y-48548110D01*
X49952560Y-48800000D01*
X49952560Y-49500000D01*
X49996838Y-49735317D01*
X50135910Y-49951441D01*
X50348110Y-50096431D01*
X50361197Y-50099081D01*
X50148559Y-50235910D01*
X50003569Y-50448110D01*
X49952560Y-50700000D01*
X49952560Y-50872638D01*
X49710320Y-51114878D01*
X49664833Y-51114838D01*
X49321057Y-51256883D01*
X49057808Y-51519673D01*
X48915162Y-51863201D01*
X48914838Y-52235167D01*
X48949890Y-52320000D01*
X48644975Y-52320000D01*
X48481890Y-52208569D01*
X48466789Y-52205511D01*
X48592192Y-52080327D01*
X48734838Y-51736799D01*
X48735162Y-51364833D01*
X48593117Y-51021057D01*
X48330327Y-50757808D01*
X47986799Y-50615162D01*
X47614833Y-50614838D01*
X47271057Y-50756883D01*
X47157742Y-50870000D01*
X46902440Y-50870000D01*
X46902440Y-50830000D01*
X46858162Y-50594683D01*
X46719090Y-50378559D01*
X46506890Y-50233569D01*
X46255000Y-50182560D01*
X45834842Y-50182560D01*
X45835162Y-49814833D01*
X45805076Y-49742019D01*
X45934699Y-49688327D01*
X46113327Y-49509698D01*
X46210000Y-49276309D01*
X46210000Y-48935750D01*
X46051250Y-48777000D01*
X45077000Y-48777000D01*
X45077000Y-48797000D01*
X44823000Y-48797000D01*
X44823000Y-48777000D01*
X44803000Y-48777000D01*
X44803000Y-48523000D01*
X44823000Y-48523000D01*
X44823000Y-48503000D01*
X45077000Y-48503000D01*
X45077000Y-48523000D01*
X46051250Y-48523000D01*
X46210000Y-48364250D01*
X46210000Y-48023691D01*
X46113327Y-47790302D01*
X45972090Y-47649064D01*
X46026441Y-47614090D01*
X46171431Y-47401890D01*
X46222440Y-47150000D01*
X46222440Y-46150000D01*
X46178162Y-45914683D01*
X46039090Y-45698559D01*
X45826890Y-45553569D01*
X45575000Y-45502560D01*
X44325000Y-45502560D01*
X44089683Y-45546838D01*
X43873559Y-45685910D01*
X43728569Y-45898110D01*
X43677560Y-46150000D01*
X43677560Y-46647638D01*
X43170000Y-47155198D01*
X43170000Y-46910750D01*
X43011250Y-46752000D01*
X42037000Y-46752000D01*
X42037000Y-46772000D01*
X41783000Y-46772000D01*
X41783000Y-46752000D01*
X41763000Y-46752000D01*
X41763000Y-46498000D01*
X41783000Y-46498000D01*
X41783000Y-45648750D01*
X42037000Y-45648750D01*
X42037000Y-46498000D01*
X43011250Y-46498000D01*
X43170000Y-46339250D01*
X43170000Y-45998691D01*
X43073327Y-45765302D01*
X42894699Y-45586673D01*
X42661310Y-45490000D01*
X42195750Y-45490000D01*
X42037000Y-45648750D01*
X41783000Y-45648750D01*
X41624250Y-45490000D01*
X41234802Y-45490000D01*
X41714802Y-45010000D01*
X43909243Y-45010000D01*
X43935910Y-45051441D01*
X43935910Y-45051441D01*
G37*
X43935910Y-45051441D02*
X44148110Y-45196431D01*
X44400000Y-45247440D01*
X45700000Y-45247440D01*
X45935317Y-45203162D01*
X46151441Y-45064090D01*
X46188399Y-45010000D01*
X46535198Y-45010000D01*
X50031877Y-48506679D01*
X50003569Y-48548110D01*
X49952560Y-48800000D01*
X49952560Y-49500000D01*
X49996838Y-49735317D01*
X50135910Y-49951441D01*
X50348110Y-50096431D01*
X50361197Y-50099081D01*
X50148559Y-50235910D01*
X50003569Y-50448110D01*
X49952560Y-50700000D01*
X49952560Y-50872638D01*
X49710320Y-51114878D01*
X49664833Y-51114838D01*
X49321057Y-51256883D01*
X49057808Y-51519673D01*
X48915162Y-51863201D01*
X48914838Y-52235167D01*
X48949890Y-52320000D01*
X48644975Y-52320000D01*
X48481890Y-52208569D01*
X48466789Y-52205511D01*
X48592192Y-52080327D01*
X48734838Y-51736799D01*
X48735162Y-51364833D01*
X48593117Y-51021057D01*
X48330327Y-50757808D01*
X47986799Y-50615162D01*
X47614833Y-50614838D01*
X47271057Y-50756883D01*
X47157742Y-50870000D01*
X46902440Y-50870000D01*
X46902440Y-50830000D01*
X46858162Y-50594683D01*
X46719090Y-50378559D01*
X46506890Y-50233569D01*
X46255000Y-50182560D01*
X45834842Y-50182560D01*
X45835162Y-49814833D01*
X45805076Y-49742019D01*
X45934699Y-49688327D01*
X46113327Y-49509698D01*
X46210000Y-49276309D01*
X46210000Y-48935750D01*
X46051250Y-48777000D01*
X45077000Y-48777000D01*
X45077000Y-48797000D01*
X44823000Y-48797000D01*
X44823000Y-48777000D01*
X44803000Y-48777000D01*
X44803000Y-48523000D01*
X44823000Y-48523000D01*
X44823000Y-48503000D01*
X45077000Y-48503000D01*
X45077000Y-48523000D01*
X46051250Y-48523000D01*
X46210000Y-48364250D01*
X46210000Y-48023691D01*
X46113327Y-47790302D01*
X45972090Y-47649064D01*
X46026441Y-47614090D01*
X46171431Y-47401890D01*
X46222440Y-47150000D01*
X46222440Y-46150000D01*
X46178162Y-45914683D01*
X46039090Y-45698559D01*
X45826890Y-45553569D01*
X45575000Y-45502560D01*
X44325000Y-45502560D01*
X44089683Y-45546838D01*
X43873559Y-45685910D01*
X43728569Y-45898110D01*
X43677560Y-46150000D01*
X43677560Y-46647638D01*
X43170000Y-47155198D01*
X43170000Y-46910750D01*
X43011250Y-46752000D01*
X42037000Y-46752000D01*
X42037000Y-46772000D01*
X41783000Y-46772000D01*
X41783000Y-46752000D01*
X41763000Y-46752000D01*
X41763000Y-46498000D01*
X41783000Y-46498000D01*
X41783000Y-45648750D01*
X42037000Y-45648750D01*
X42037000Y-46498000D01*
X43011250Y-46498000D01*
X43170000Y-46339250D01*
X43170000Y-45998691D01*
X43073327Y-45765302D01*
X42894699Y-45586673D01*
X42661310Y-45490000D01*
X42195750Y-45490000D01*
X42037000Y-45648750D01*
X41783000Y-45648750D01*
X41624250Y-45490000D01*
X41234802Y-45490000D01*
X41714802Y-45010000D01*
X43909243Y-45010000D01*
X43935910Y-45051441D01*
G36*
X40250198Y-44325000D02*
X39862599Y-44712599D01*
X39697852Y-44959161D01*
X39640000Y-45250000D01*
X39640000Y-45553661D01*
X39486310Y-45490000D01*
X39020750Y-45490000D01*
X38862000Y-45648750D01*
X38862000Y-46498000D01*
X38882000Y-46498000D01*
X38882000Y-46752000D01*
X38862000Y-46752000D01*
X38862000Y-46772000D01*
X38608000Y-46772000D01*
X38608000Y-46752000D01*
X37633750Y-46752000D01*
X37475000Y-46910750D01*
X37475000Y-47251309D01*
X37571673Y-47484698D01*
X37712910Y-47625936D01*
X37658559Y-47660910D01*
X37519110Y-47865000D01*
X36490854Y-47865000D01*
X36453162Y-47664683D01*
X36377579Y-47547223D01*
X36489680Y-47435122D01*
X36535167Y-47435162D01*
X36878943Y-47293117D01*
X37142192Y-47030327D01*
X37284838Y-46686799D01*
X37285162Y-46314833D01*
X37154536Y-45998691D01*
X37475000Y-45998691D01*
X37475000Y-46339250D01*
X37633750Y-46498000D01*
X38608000Y-46498000D01*
X38608000Y-45648750D01*
X38449250Y-45490000D01*
X37983690Y-45490000D01*
X37750301Y-45586673D01*
X37571673Y-45765302D01*
X37475000Y-45998691D01*
X37154536Y-45998691D01*
X37143117Y-45971057D01*
X36880327Y-45707808D01*
X36536799Y-45565162D01*
X36164833Y-45564838D01*
X35821057Y-45706883D01*
X35557808Y-45969673D01*
X35415162Y-46313201D01*
X35415121Y-46360077D01*
X34662599Y-47112599D01*
X34569080Y-47252560D01*
X34550000Y-47252560D01*
X34314683Y-47296838D01*
X34098559Y-47435910D01*
X34027437Y-47540000D01*
X33217440Y-47540000D01*
X33217440Y-47100000D01*
X33173162Y-46864683D01*
X33034090Y-46648559D01*
X32821890Y-46503569D01*
X32570000Y-46452560D01*
X31830000Y-46452560D01*
X31594683Y-46496838D01*
X31558846Y-46519899D01*
X31426309Y-46465000D01*
X31215750Y-46465000D01*
X31057000Y-46623750D01*
X31057000Y-48173000D01*
X31077000Y-48173000D01*
X31077000Y-48427000D01*
X31057000Y-48427000D01*
X31057000Y-48447000D01*
X30803000Y-48447000D01*
X30803000Y-48427000D01*
X29787000Y-48427000D01*
X29787000Y-49976250D01*
X29945750Y-50135000D01*
X30156309Y-50135000D01*
X30295000Y-50077552D01*
X30433691Y-50135000D01*
X30540198Y-50135000D01*
X30392599Y-50282599D01*
X30309919Y-50406338D01*
X30297572Y-50414284D01*
X30281890Y-50403569D01*
X30030000Y-50352560D01*
X29290000Y-50352560D01*
X29054683Y-50396838D01*
X29027572Y-50414284D01*
X29011890Y-50403569D01*
X28760000Y-50352560D01*
X28020000Y-50352560D01*
X27784683Y-50396838D01*
X27757572Y-50414284D01*
X27741890Y-50403569D01*
X27490000Y-50352560D01*
X26750000Y-50352560D01*
X26562620Y-50387818D01*
X26360000Y-50185198D01*
X26360000Y-50002065D01*
X26498110Y-50096431D01*
X26750000Y-50147440D01*
X27490000Y-50147440D01*
X27725317Y-50103162D01*
X27752428Y-50085716D01*
X27768110Y-50096431D01*
X28020000Y-50147440D01*
X28760000Y-50147440D01*
X28995317Y-50103162D01*
X29031154Y-50080101D01*
X29163691Y-50135000D01*
X29374250Y-50135000D01*
X29533000Y-49976250D01*
X29533000Y-48427000D01*
X29513000Y-48427000D01*
X29513000Y-48173000D01*
X29533000Y-48173000D01*
X29533000Y-46623750D01*
X29787000Y-46623750D01*
X29787000Y-48173000D01*
X30803000Y-48173000D01*
X30803000Y-46623750D01*
X30644250Y-46465000D01*
X30433691Y-46465000D01*
X30295000Y-46522448D01*
X30156309Y-46465000D01*
X29945750Y-46465000D01*
X29787000Y-46623750D01*
X29533000Y-46623750D01*
X29374250Y-46465000D01*
X29163691Y-46465000D01*
X29034040Y-46518703D01*
X29011890Y-46503569D01*
X28760000Y-46452560D01*
X28020000Y-46452560D01*
X27784683Y-46496838D01*
X27757572Y-46514284D01*
X27741890Y-46503569D01*
X27490000Y-46452560D01*
X26972242Y-46452560D01*
X27764855Y-45659947D01*
X27950000Y-45697440D01*
X29250000Y-45697440D01*
X29485317Y-45653162D01*
X29701441Y-45514090D01*
X29738084Y-45460461D01*
X29819673Y-45542192D01*
X30163201Y-45684838D01*
X30535167Y-45685162D01*
X30878943Y-45543117D01*
X31142192Y-45280327D01*
X31284838Y-44936799D01*
X31285162Y-44564833D01*
X31143117Y-44221057D01*
X30880327Y-43957808D01*
X30536799Y-43815162D01*
X30164833Y-43814838D01*
X29861917Y-43940000D01*
X29740757Y-43940000D01*
X29714090Y-43898559D01*
X29501890Y-43753569D01*
X29488803Y-43750919D01*
X29701441Y-43614090D01*
X29738399Y-43560000D01*
X39485198Y-43560000D01*
X40250198Y-44325000D01*
X40250198Y-44325000D01*
G37*
X40250198Y-44325000D02*
X39862599Y-44712599D01*
X39697852Y-44959161D01*
X39640000Y-45250000D01*
X39640000Y-45553661D01*
X39486310Y-45490000D01*
X39020750Y-45490000D01*
X38862000Y-45648750D01*
X38862000Y-46498000D01*
X38882000Y-46498000D01*
X38882000Y-46752000D01*
X38862000Y-46752000D01*
X38862000Y-46772000D01*
X38608000Y-46772000D01*
X38608000Y-46752000D01*
X37633750Y-46752000D01*
X37475000Y-46910750D01*
X37475000Y-47251309D01*
X37571673Y-47484698D01*
X37712910Y-47625936D01*
X37658559Y-47660910D01*
X37519110Y-47865000D01*
X36490854Y-47865000D01*
X36453162Y-47664683D01*
X36377579Y-47547223D01*
X36489680Y-47435122D01*
X36535167Y-47435162D01*
X36878943Y-47293117D01*
X37142192Y-47030327D01*
X37284838Y-46686799D01*
X37285162Y-46314833D01*
X37154536Y-45998691D01*
X37475000Y-45998691D01*
X37475000Y-46339250D01*
X37633750Y-46498000D01*
X38608000Y-46498000D01*
X38608000Y-45648750D01*
X38449250Y-45490000D01*
X37983690Y-45490000D01*
X37750301Y-45586673D01*
X37571673Y-45765302D01*
X37475000Y-45998691D01*
X37154536Y-45998691D01*
X37143117Y-45971057D01*
X36880327Y-45707808D01*
X36536799Y-45565162D01*
X36164833Y-45564838D01*
X35821057Y-45706883D01*
X35557808Y-45969673D01*
X35415162Y-46313201D01*
X35415121Y-46360077D01*
X34662599Y-47112599D01*
X34569080Y-47252560D01*
X34550000Y-47252560D01*
X34314683Y-47296838D01*
X34098559Y-47435910D01*
X34027437Y-47540000D01*
X33217440Y-47540000D01*
X33217440Y-47100000D01*
X33173162Y-46864683D01*
X33034090Y-46648559D01*
X32821890Y-46503569D01*
X32570000Y-46452560D01*
X31830000Y-46452560D01*
X31594683Y-46496838D01*
X31558846Y-46519899D01*
X31426309Y-46465000D01*
X31215750Y-46465000D01*
X31057000Y-46623750D01*
X31057000Y-48173000D01*
X31077000Y-48173000D01*
X31077000Y-48427000D01*
X31057000Y-48427000D01*
X31057000Y-48447000D01*
X30803000Y-48447000D01*
X30803000Y-48427000D01*
X29787000Y-48427000D01*
X29787000Y-49976250D01*
X29945750Y-50135000D01*
X30156309Y-50135000D01*
X30295000Y-50077552D01*
X30433691Y-50135000D01*
X30540198Y-50135000D01*
X30392599Y-50282599D01*
X30309919Y-50406338D01*
X30297572Y-50414284D01*
X30281890Y-50403569D01*
X30030000Y-50352560D01*
X29290000Y-50352560D01*
X29054683Y-50396838D01*
X29027572Y-50414284D01*
X29011890Y-50403569D01*
X28760000Y-50352560D01*
X28020000Y-50352560D01*
X27784683Y-50396838D01*
X27757572Y-50414284D01*
X27741890Y-50403569D01*
X27490000Y-50352560D01*
X26750000Y-50352560D01*
X26562620Y-50387818D01*
X26360000Y-50185198D01*
X26360000Y-50002065D01*
X26498110Y-50096431D01*
X26750000Y-50147440D01*
X27490000Y-50147440D01*
X27725317Y-50103162D01*
X27752428Y-50085716D01*
X27768110Y-50096431D01*
X28020000Y-50147440D01*
X28760000Y-50147440D01*
X28995317Y-50103162D01*
X29031154Y-50080101D01*
X29163691Y-50135000D01*
X29374250Y-50135000D01*
X29533000Y-49976250D01*
X29533000Y-48427000D01*
X29513000Y-48427000D01*
X29513000Y-48173000D01*
X29533000Y-48173000D01*
X29533000Y-46623750D01*
X29787000Y-46623750D01*
X29787000Y-48173000D01*
X30803000Y-48173000D01*
X30803000Y-46623750D01*
X30644250Y-46465000D01*
X30433691Y-46465000D01*
X30295000Y-46522448D01*
X30156309Y-46465000D01*
X29945750Y-46465000D01*
X29787000Y-46623750D01*
X29533000Y-46623750D01*
X29374250Y-46465000D01*
X29163691Y-46465000D01*
X29034040Y-46518703D01*
X29011890Y-46503569D01*
X28760000Y-46452560D01*
X28020000Y-46452560D01*
X27784683Y-46496838D01*
X27757572Y-46514284D01*
X27741890Y-46503569D01*
X27490000Y-46452560D01*
X26972242Y-46452560D01*
X27764855Y-45659947D01*
X27950000Y-45697440D01*
X29250000Y-45697440D01*
X29485317Y-45653162D01*
X29701441Y-45514090D01*
X29738084Y-45460461D01*
X29819673Y-45542192D01*
X30163201Y-45684838D01*
X30535167Y-45685162D01*
X30878943Y-45543117D01*
X31142192Y-45280327D01*
X31284838Y-44936799D01*
X31285162Y-44564833D01*
X31143117Y-44221057D01*
X30880327Y-43957808D01*
X30536799Y-43815162D01*
X30164833Y-43814838D01*
X29861917Y-43940000D01*
X29740757Y-43940000D01*
X29714090Y-43898559D01*
X29501890Y-43753569D01*
X29488803Y-43750919D01*
X29701441Y-43614090D01*
X29738399Y-43560000D01*
X39485198Y-43560000D01*
X40250198Y-44325000D01*
G36*
X62177560Y-36002362D02*
X62177560Y-36700000D01*
X62221838Y-36935317D01*
X62360910Y-37151441D01*
X62429006Y-37197969D01*
X62286673Y-37340302D01*
X62190000Y-37573691D01*
X62190000Y-37914250D01*
X62348750Y-38073000D01*
X63323000Y-38073000D01*
X63323000Y-38053000D01*
X63577000Y-38053000D01*
X63577000Y-38073000D01*
X63597000Y-38073000D01*
X63597000Y-38327000D01*
X63577000Y-38327000D01*
X63577000Y-39176250D01*
X63735750Y-39335000D01*
X64201310Y-39335000D01*
X64240000Y-39318974D01*
X64240000Y-42385198D01*
X63372638Y-43252560D01*
X62800000Y-43252560D01*
X62564683Y-43296838D01*
X62348559Y-43435910D01*
X62203569Y-43648110D01*
X62152560Y-43900000D01*
X62152560Y-44600000D01*
X62196838Y-44835317D01*
X62296374Y-44990000D01*
X60990558Y-44990000D01*
X60948162Y-44764683D01*
X60809090Y-44548559D01*
X60596890Y-44403569D01*
X60345000Y-44352560D01*
X59745000Y-44352560D01*
X59509683Y-44396838D01*
X59410472Y-44460678D01*
X59326890Y-44403569D01*
X59075000Y-44352560D01*
X58475000Y-44352560D01*
X58239683Y-44396838D01*
X58140472Y-44460678D01*
X58056890Y-44403569D01*
X57805000Y-44352560D01*
X57205000Y-44352560D01*
X56969683Y-44396838D01*
X56879020Y-44455178D01*
X56661310Y-44365000D01*
X56520750Y-44365000D01*
X56362000Y-44523750D01*
X56362000Y-45623000D01*
X56382000Y-45623000D01*
X56382000Y-45877000D01*
X56362000Y-45877000D01*
X56362000Y-45897000D01*
X56108000Y-45897000D01*
X56108000Y-45877000D01*
X55092000Y-45877000D01*
X55092000Y-46976250D01*
X55250750Y-47135000D01*
X55391310Y-47135000D01*
X55600000Y-47048558D01*
X55808690Y-47135000D01*
X55949250Y-47135000D01*
X56017496Y-47066754D01*
X55915162Y-47313201D01*
X55914838Y-47685167D01*
X56056883Y-48028943D01*
X56319673Y-48292192D01*
X56663201Y-48434838D01*
X57035167Y-48435162D01*
X57378943Y-48293117D01*
X57642192Y-48030327D01*
X57784838Y-47686799D01*
X57784879Y-47639923D01*
X58015000Y-47409802D01*
X58015000Y-49510198D01*
X57685198Y-49840000D01*
X52436228Y-49840000D01*
X52496431Y-49751890D01*
X52547440Y-49500000D01*
X52547440Y-48800000D01*
X52503162Y-48564683D01*
X52364090Y-48348559D01*
X52151890Y-48203569D01*
X51900000Y-48152560D01*
X51814102Y-48152560D01*
X51787401Y-48112599D01*
X50809802Y-47135000D01*
X50869250Y-47135000D01*
X51028000Y-46976250D01*
X51028000Y-45877000D01*
X51282000Y-45877000D01*
X51282000Y-46976250D01*
X51440750Y-47135000D01*
X51581310Y-47135000D01*
X51790000Y-47048558D01*
X51998690Y-47135000D01*
X52139250Y-47135000D01*
X52298000Y-46976250D01*
X52298000Y-45877000D01*
X52552000Y-45877000D01*
X52552000Y-46976250D01*
X52710750Y-47135000D01*
X52851310Y-47135000D01*
X53060000Y-47048558D01*
X53268690Y-47135000D01*
X53409250Y-47135000D01*
X53568000Y-46976250D01*
X53568000Y-45877000D01*
X53822000Y-45877000D01*
X53822000Y-46976250D01*
X53980750Y-47135000D01*
X54121310Y-47135000D01*
X54330000Y-47048558D01*
X54538690Y-47135000D01*
X54679250Y-47135000D01*
X54838000Y-46976250D01*
X54838000Y-45877000D01*
X53822000Y-45877000D01*
X53568000Y-45877000D01*
X52552000Y-45877000D01*
X52298000Y-45877000D01*
X51282000Y-45877000D01*
X51028000Y-45877000D01*
X50378750Y-45877000D01*
X50220000Y-46035750D01*
X50220000Y-46545198D01*
X48548493Y-44873691D01*
X50220000Y-44873691D01*
X50220000Y-45464250D01*
X50378750Y-45623000D01*
X51028000Y-45623000D01*
X51028000Y-44523750D01*
X51282000Y-44523750D01*
X51282000Y-45623000D01*
X52298000Y-45623000D01*
X52298000Y-44523750D01*
X52552000Y-44523750D01*
X52552000Y-45623000D01*
X53568000Y-45623000D01*
X53568000Y-44523750D01*
X53822000Y-44523750D01*
X53822000Y-45623000D01*
X54838000Y-45623000D01*
X54838000Y-44523750D01*
X55092000Y-44523750D01*
X55092000Y-45623000D01*
X56108000Y-45623000D01*
X56108000Y-44523750D01*
X55949250Y-44365000D01*
X55808690Y-44365000D01*
X55600000Y-44451442D01*
X55391310Y-44365000D01*
X55250750Y-44365000D01*
X55092000Y-44523750D01*
X54838000Y-44523750D01*
X54679250Y-44365000D01*
X54538690Y-44365000D01*
X54330000Y-44451442D01*
X54121310Y-44365000D01*
X53980750Y-44365000D01*
X53822000Y-44523750D01*
X53568000Y-44523750D01*
X53409250Y-44365000D01*
X53268690Y-44365000D01*
X53060000Y-44451442D01*
X52851310Y-44365000D01*
X52710750Y-44365000D01*
X52552000Y-44523750D01*
X52298000Y-44523750D01*
X52139250Y-44365000D01*
X51998690Y-44365000D01*
X51790000Y-44451442D01*
X51581310Y-44365000D01*
X51440750Y-44365000D01*
X51282000Y-44523750D01*
X51028000Y-44523750D01*
X50869250Y-44365000D01*
X50728690Y-44365000D01*
X50495301Y-44461673D01*
X50316673Y-44640302D01*
X50220000Y-44873691D01*
X48548493Y-44873691D01*
X47387401Y-43712599D01*
X47140839Y-43547852D01*
X46850000Y-43490000D01*
X46190757Y-43490000D01*
X46164090Y-43448559D01*
X45951890Y-43303569D01*
X45938803Y-43300919D01*
X46084626Y-43207084D01*
X46119673Y-43242192D01*
X46463201Y-43384838D01*
X46835167Y-43385162D01*
X47178943Y-43243117D01*
X47442192Y-42980327D01*
X47584838Y-42636799D01*
X47585162Y-42264833D01*
X47443117Y-41921057D01*
X47180327Y-41657808D01*
X46923598Y-41551204D01*
X47387401Y-41087401D01*
X47552148Y-40840840D01*
X47570927Y-40746431D01*
X47610000Y-40550000D01*
X47610000Y-38814802D01*
X47939052Y-38485750D01*
X62190000Y-38485750D01*
X62190000Y-38826309D01*
X62286673Y-39059698D01*
X62465301Y-39238327D01*
X62698690Y-39335000D01*
X63164250Y-39335000D01*
X63323000Y-39176250D01*
X63323000Y-38327000D01*
X62348750Y-38327000D01*
X62190000Y-38485750D01*
X47939052Y-38485750D01*
X49689052Y-36735750D01*
X50220000Y-36735750D01*
X50220000Y-37326309D01*
X50316673Y-37559698D01*
X50495301Y-37738327D01*
X50728690Y-37835000D01*
X50869250Y-37835000D01*
X51028000Y-37676250D01*
X51028000Y-36577000D01*
X51282000Y-36577000D01*
X51282000Y-37676250D01*
X51440750Y-37835000D01*
X51581310Y-37835000D01*
X51790000Y-37748558D01*
X51998690Y-37835000D01*
X52139250Y-37835000D01*
X52298000Y-37676250D01*
X52298000Y-36577000D01*
X52552000Y-36577000D01*
X52552000Y-37676250D01*
X52710750Y-37835000D01*
X52851310Y-37835000D01*
X53060000Y-37748558D01*
X53268690Y-37835000D01*
X53409250Y-37835000D01*
X53568000Y-37676250D01*
X53568000Y-36577000D01*
X53822000Y-36577000D01*
X53822000Y-37676250D01*
X53980750Y-37835000D01*
X54121310Y-37835000D01*
X54330000Y-37748558D01*
X54538690Y-37835000D01*
X54679250Y-37835000D01*
X54838000Y-37676250D01*
X54838000Y-36577000D01*
X53822000Y-36577000D01*
X53568000Y-36577000D01*
X52552000Y-36577000D01*
X52298000Y-36577000D01*
X51282000Y-36577000D01*
X51028000Y-36577000D01*
X50378750Y-36577000D01*
X50220000Y-36735750D01*
X49689052Y-36735750D01*
X50240276Y-36184526D01*
X50378750Y-36323000D01*
X51028000Y-36323000D01*
X51028000Y-36303000D01*
X51282000Y-36303000D01*
X51282000Y-36323000D01*
X52298000Y-36323000D01*
X52298000Y-36303000D01*
X52552000Y-36303000D01*
X52552000Y-36323000D01*
X53568000Y-36323000D01*
X53568000Y-36303000D01*
X53822000Y-36303000D01*
X53822000Y-36323000D01*
X54838000Y-36323000D01*
X54838000Y-36303000D01*
X55092000Y-36303000D01*
X55092000Y-36323000D01*
X55112000Y-36323000D01*
X55112000Y-36577000D01*
X55092000Y-36577000D01*
X55092000Y-37676250D01*
X55250750Y-37835000D01*
X55391310Y-37835000D01*
X55608122Y-37745194D01*
X55683110Y-37796431D01*
X55935000Y-37847440D01*
X56535000Y-37847440D01*
X56770317Y-37803162D01*
X56869528Y-37739322D01*
X56953110Y-37796431D01*
X57205000Y-37847440D01*
X57805000Y-37847440D01*
X58040317Y-37803162D01*
X58139528Y-37739322D01*
X58223110Y-37796431D01*
X58475000Y-37847440D01*
X59075000Y-37847440D01*
X59310317Y-37803162D01*
X59409528Y-37739322D01*
X59493110Y-37796431D01*
X59745000Y-37847440D01*
X60345000Y-37847440D01*
X60580317Y-37803162D01*
X60796441Y-37664090D01*
X60941431Y-37451890D01*
X60992440Y-37200000D01*
X60992440Y-35760000D01*
X61935198Y-35760000D01*
X62177560Y-36002362D01*
X62177560Y-36002362D01*
G37*
X62177560Y-36002362D02*
X62177560Y-36700000D01*
X62221838Y-36935317D01*
X62360910Y-37151441D01*
X62429006Y-37197969D01*
X62286673Y-37340302D01*
X62190000Y-37573691D01*
X62190000Y-37914250D01*
X62348750Y-38073000D01*
X63323000Y-38073000D01*
X63323000Y-38053000D01*
X63577000Y-38053000D01*
X63577000Y-38073000D01*
X63597000Y-38073000D01*
X63597000Y-38327000D01*
X63577000Y-38327000D01*
X63577000Y-39176250D01*
X63735750Y-39335000D01*
X64201310Y-39335000D01*
X64240000Y-39318974D01*
X64240000Y-42385198D01*
X63372638Y-43252560D01*
X62800000Y-43252560D01*
X62564683Y-43296838D01*
X62348559Y-43435910D01*
X62203569Y-43648110D01*
X62152560Y-43900000D01*
X62152560Y-44600000D01*
X62196838Y-44835317D01*
X62296374Y-44990000D01*
X60990558Y-44990000D01*
X60948162Y-44764683D01*
X60809090Y-44548559D01*
X60596890Y-44403569D01*
X60345000Y-44352560D01*
X59745000Y-44352560D01*
X59509683Y-44396838D01*
X59410472Y-44460678D01*
X59326890Y-44403569D01*
X59075000Y-44352560D01*
X58475000Y-44352560D01*
X58239683Y-44396838D01*
X58140472Y-44460678D01*
X58056890Y-44403569D01*
X57805000Y-44352560D01*
X57205000Y-44352560D01*
X56969683Y-44396838D01*
X56879020Y-44455178D01*
X56661310Y-44365000D01*
X56520750Y-44365000D01*
X56362000Y-44523750D01*
X56362000Y-45623000D01*
X56382000Y-45623000D01*
X56382000Y-45877000D01*
X56362000Y-45877000D01*
X56362000Y-45897000D01*
X56108000Y-45897000D01*
X56108000Y-45877000D01*
X55092000Y-45877000D01*
X55092000Y-46976250D01*
X55250750Y-47135000D01*
X55391310Y-47135000D01*
X55600000Y-47048558D01*
X55808690Y-47135000D01*
X55949250Y-47135000D01*
X56017496Y-47066754D01*
X55915162Y-47313201D01*
X55914838Y-47685167D01*
X56056883Y-48028943D01*
X56319673Y-48292192D01*
X56663201Y-48434838D01*
X57035167Y-48435162D01*
X57378943Y-48293117D01*
X57642192Y-48030327D01*
X57784838Y-47686799D01*
X57784879Y-47639923D01*
X58015000Y-47409802D01*
X58015000Y-49510198D01*
X57685198Y-49840000D01*
X52436228Y-49840000D01*
X52496431Y-49751890D01*
X52547440Y-49500000D01*
X52547440Y-48800000D01*
X52503162Y-48564683D01*
X52364090Y-48348559D01*
X52151890Y-48203569D01*
X51900000Y-48152560D01*
X51814102Y-48152560D01*
X51787401Y-48112599D01*
X50809802Y-47135000D01*
X50869250Y-47135000D01*
X51028000Y-46976250D01*
X51028000Y-45877000D01*
X51282000Y-45877000D01*
X51282000Y-46976250D01*
X51440750Y-47135000D01*
X51581310Y-47135000D01*
X51790000Y-47048558D01*
X51998690Y-47135000D01*
X52139250Y-47135000D01*
X52298000Y-46976250D01*
X52298000Y-45877000D01*
X52552000Y-45877000D01*
X52552000Y-46976250D01*
X52710750Y-47135000D01*
X52851310Y-47135000D01*
X53060000Y-47048558D01*
X53268690Y-47135000D01*
X53409250Y-47135000D01*
X53568000Y-46976250D01*
X53568000Y-45877000D01*
X53822000Y-45877000D01*
X53822000Y-46976250D01*
X53980750Y-47135000D01*
X54121310Y-47135000D01*
X54330000Y-47048558D01*
X54538690Y-47135000D01*
X54679250Y-47135000D01*
X54838000Y-46976250D01*
X54838000Y-45877000D01*
X53822000Y-45877000D01*
X53568000Y-45877000D01*
X52552000Y-45877000D01*
X52298000Y-45877000D01*
X51282000Y-45877000D01*
X51028000Y-45877000D01*
X50378750Y-45877000D01*
X50220000Y-46035750D01*
X50220000Y-46545198D01*
X48548493Y-44873691D01*
X50220000Y-44873691D01*
X50220000Y-45464250D01*
X50378750Y-45623000D01*
X51028000Y-45623000D01*
X51028000Y-44523750D01*
X51282000Y-44523750D01*
X51282000Y-45623000D01*
X52298000Y-45623000D01*
X52298000Y-44523750D01*
X52552000Y-44523750D01*
X52552000Y-45623000D01*
X53568000Y-45623000D01*
X53568000Y-44523750D01*
X53822000Y-44523750D01*
X53822000Y-45623000D01*
X54838000Y-45623000D01*
X54838000Y-44523750D01*
X55092000Y-44523750D01*
X55092000Y-45623000D01*
X56108000Y-45623000D01*
X56108000Y-44523750D01*
X55949250Y-44365000D01*
X55808690Y-44365000D01*
X55600000Y-44451442D01*
X55391310Y-44365000D01*
X55250750Y-44365000D01*
X55092000Y-44523750D01*
X54838000Y-44523750D01*
X54679250Y-44365000D01*
X54538690Y-44365000D01*
X54330000Y-44451442D01*
X54121310Y-44365000D01*
X53980750Y-44365000D01*
X53822000Y-44523750D01*
X53568000Y-44523750D01*
X53409250Y-44365000D01*
X53268690Y-44365000D01*
X53060000Y-44451442D01*
X52851310Y-44365000D01*
X52710750Y-44365000D01*
X52552000Y-44523750D01*
X52298000Y-44523750D01*
X52139250Y-44365000D01*
X51998690Y-44365000D01*
X51790000Y-44451442D01*
X51581310Y-44365000D01*
X51440750Y-44365000D01*
X51282000Y-44523750D01*
X51028000Y-44523750D01*
X50869250Y-44365000D01*
X50728690Y-44365000D01*
X50495301Y-44461673D01*
X50316673Y-44640302D01*
X50220000Y-44873691D01*
X48548493Y-44873691D01*
X47387401Y-43712599D01*
X47140839Y-43547852D01*
X46850000Y-43490000D01*
X46190757Y-43490000D01*
X46164090Y-43448559D01*
X45951890Y-43303569D01*
X45938803Y-43300919D01*
X46084626Y-43207084D01*
X46119673Y-43242192D01*
X46463201Y-43384838D01*
X46835167Y-43385162D01*
X47178943Y-43243117D01*
X47442192Y-42980327D01*
X47584838Y-42636799D01*
X47585162Y-42264833D01*
X47443117Y-41921057D01*
X47180327Y-41657808D01*
X46923598Y-41551204D01*
X47387401Y-41087401D01*
X47552148Y-40840840D01*
X47570927Y-40746431D01*
X47610000Y-40550000D01*
X47610000Y-38814802D01*
X47939052Y-38485750D01*
X62190000Y-38485750D01*
X62190000Y-38826309D01*
X62286673Y-39059698D01*
X62465301Y-39238327D01*
X62698690Y-39335000D01*
X63164250Y-39335000D01*
X63323000Y-39176250D01*
X63323000Y-38327000D01*
X62348750Y-38327000D01*
X62190000Y-38485750D01*
X47939052Y-38485750D01*
X49689052Y-36735750D01*
X50220000Y-36735750D01*
X50220000Y-37326309D01*
X50316673Y-37559698D01*
X50495301Y-37738327D01*
X50728690Y-37835000D01*
X50869250Y-37835000D01*
X51028000Y-37676250D01*
X51028000Y-36577000D01*
X51282000Y-36577000D01*
X51282000Y-37676250D01*
X51440750Y-37835000D01*
X51581310Y-37835000D01*
X51790000Y-37748558D01*
X51998690Y-37835000D01*
X52139250Y-37835000D01*
X52298000Y-37676250D01*
X52298000Y-36577000D01*
X52552000Y-36577000D01*
X52552000Y-37676250D01*
X52710750Y-37835000D01*
X52851310Y-37835000D01*
X53060000Y-37748558D01*
X53268690Y-37835000D01*
X53409250Y-37835000D01*
X53568000Y-37676250D01*
X53568000Y-36577000D01*
X53822000Y-36577000D01*
X53822000Y-37676250D01*
X53980750Y-37835000D01*
X54121310Y-37835000D01*
X54330000Y-37748558D01*
X54538690Y-37835000D01*
X54679250Y-37835000D01*
X54838000Y-37676250D01*
X54838000Y-36577000D01*
X53822000Y-36577000D01*
X53568000Y-36577000D01*
X52552000Y-36577000D01*
X52298000Y-36577000D01*
X51282000Y-36577000D01*
X51028000Y-36577000D01*
X50378750Y-36577000D01*
X50220000Y-36735750D01*
X49689052Y-36735750D01*
X50240276Y-36184526D01*
X50378750Y-36323000D01*
X51028000Y-36323000D01*
X51028000Y-36303000D01*
X51282000Y-36303000D01*
X51282000Y-36323000D01*
X52298000Y-36323000D01*
X52298000Y-36303000D01*
X52552000Y-36303000D01*
X52552000Y-36323000D01*
X53568000Y-36323000D01*
X53568000Y-36303000D01*
X53822000Y-36303000D01*
X53822000Y-36323000D01*
X54838000Y-36323000D01*
X54838000Y-36303000D01*
X55092000Y-36303000D01*
X55092000Y-36323000D01*
X55112000Y-36323000D01*
X55112000Y-36577000D01*
X55092000Y-36577000D01*
X55092000Y-37676250D01*
X55250750Y-37835000D01*
X55391310Y-37835000D01*
X55608122Y-37745194D01*
X55683110Y-37796431D01*
X55935000Y-37847440D01*
X56535000Y-37847440D01*
X56770317Y-37803162D01*
X56869528Y-37739322D01*
X56953110Y-37796431D01*
X57205000Y-37847440D01*
X57805000Y-37847440D01*
X58040317Y-37803162D01*
X58139528Y-37739322D01*
X58223110Y-37796431D01*
X58475000Y-37847440D01*
X59075000Y-37847440D01*
X59310317Y-37803162D01*
X59409528Y-37739322D01*
X59493110Y-37796431D01*
X59745000Y-37847440D01*
X60345000Y-37847440D01*
X60580317Y-37803162D01*
X60796441Y-37664090D01*
X60941431Y-37451890D01*
X60992440Y-37200000D01*
X60992440Y-35760000D01*
X61935198Y-35760000D01*
X62177560Y-36002362D01*
G36*
X75473000Y-61523000D02*
X74463302Y-61523000D01*
X74528139Y-61307745D01*
X73700000Y-60479605D01*
X72871861Y-61307745D01*
X72936698Y-61523000D01*
X71877000Y-61523000D01*
X71877000Y-60083223D01*
X72253035Y-60083223D01*
X72280222Y-60653454D01*
X72446136Y-61054005D01*
X72692255Y-61128139D01*
X73520395Y-60300000D01*
X73879605Y-60300000D01*
X74707745Y-61128139D01*
X74953864Y-61054005D01*
X75146965Y-60516777D01*
X75119778Y-59946546D01*
X74953864Y-59545995D01*
X74707745Y-59471861D01*
X73879605Y-60300000D01*
X73520395Y-60300000D01*
X72692255Y-59471861D01*
X72446136Y-59545995D01*
X72253035Y-60083223D01*
X71877000Y-60083223D01*
X71877000Y-59292255D01*
X72871861Y-59292255D01*
X73700000Y-60120395D01*
X74528139Y-59292255D01*
X74454005Y-59046136D01*
X73916777Y-58853035D01*
X73346546Y-58880222D01*
X72945995Y-59046136D01*
X72871861Y-59292255D01*
X71877000Y-59292255D01*
X71877000Y-54003528D01*
X72073690Y-54085000D01*
X72314250Y-54085000D01*
X72473000Y-53926250D01*
X72473000Y-53127000D01*
X72727000Y-53127000D01*
X72727000Y-53926250D01*
X72885750Y-54085000D01*
X73126310Y-54085000D01*
X73359699Y-53988327D01*
X73538327Y-53809698D01*
X73635000Y-53576309D01*
X73635000Y-53285750D01*
X73476250Y-53127000D01*
X72727000Y-53127000D01*
X72473000Y-53127000D01*
X72453000Y-53127000D01*
X72453000Y-52873000D01*
X72473000Y-52873000D01*
X72473000Y-52853000D01*
X72727000Y-52853000D01*
X72727000Y-52873000D01*
X73476250Y-52873000D01*
X73572250Y-52777000D01*
X75473000Y-52777000D01*
X75473000Y-61523000D01*
X75473000Y-61523000D01*
G37*
X75473000Y-61523000D02*
X74463302Y-61523000D01*
X74528139Y-61307745D01*
X73700000Y-60479605D01*
X72871861Y-61307745D01*
X72936698Y-61523000D01*
X71877000Y-61523000D01*
X71877000Y-60083223D01*
X72253035Y-60083223D01*
X72280222Y-60653454D01*
X72446136Y-61054005D01*
X72692255Y-61128139D01*
X73520395Y-60300000D01*
X73879605Y-60300000D01*
X74707745Y-61128139D01*
X74953864Y-61054005D01*
X75146965Y-60516777D01*
X75119778Y-59946546D01*
X74953864Y-59545995D01*
X74707745Y-59471861D01*
X73879605Y-60300000D01*
X73520395Y-60300000D01*
X72692255Y-59471861D01*
X72446136Y-59545995D01*
X72253035Y-60083223D01*
X71877000Y-60083223D01*
X71877000Y-59292255D01*
X72871861Y-59292255D01*
X73700000Y-60120395D01*
X74528139Y-59292255D01*
X74454005Y-59046136D01*
X73916777Y-58853035D01*
X73346546Y-58880222D01*
X72945995Y-59046136D01*
X72871861Y-59292255D01*
X71877000Y-59292255D01*
X71877000Y-54003528D01*
X72073690Y-54085000D01*
X72314250Y-54085000D01*
X72473000Y-53926250D01*
X72473000Y-53127000D01*
X72727000Y-53127000D01*
X72727000Y-53926250D01*
X72885750Y-54085000D01*
X73126310Y-54085000D01*
X73359699Y-53988327D01*
X73538327Y-53809698D01*
X73635000Y-53576309D01*
X73635000Y-53285750D01*
X73476250Y-53127000D01*
X72727000Y-53127000D01*
X72473000Y-53127000D01*
X72453000Y-53127000D01*
X72453000Y-52873000D01*
X72473000Y-52873000D01*
X72473000Y-52853000D01*
X72727000Y-52853000D01*
X72727000Y-52873000D01*
X73476250Y-52873000D01*
X73572250Y-52777000D01*
X75473000Y-52777000D01*
X75473000Y-61523000D01*
M02*
