G04 #@! TF.FileFunction,Copper,L3,Inr,Plane*
%FSLAX46Y46*%
G04 Gerber Fmt 4.6, Leading zero omitted, Abs format (unit mm)*
G04 Created by KiCad (PCBNEW 4.0.2-stable) date 3/8/2017 2:36:32 PM*
%MOMM*%
G01*
G04 APERTURE LIST*
%ADD10C,0.100000*%
%ADD11C,1.600000*%
%ADD12C,2.000000*%
%ADD13C,0.600000*%
%ADD14C,0.254000*%
G04 APERTURE END LIST*
D10*
D11*
X37000000Y-81800000D03*
X34460000Y-81800000D03*
X31920000Y-81800000D03*
X29380000Y-81800000D03*
X26840000Y-81800000D03*
X24300000Y-81800000D03*
X17000000Y-47800000D03*
X17000000Y-45260000D03*
X17000000Y-42720000D03*
X17000000Y-40180000D03*
X17000000Y-37640000D03*
X17000000Y-35100000D03*
X17000000Y-66100000D03*
X17000000Y-63560000D03*
X17000000Y-61020000D03*
X17000000Y-58480000D03*
X17000000Y-55940000D03*
X17000000Y-53400000D03*
X17000000Y-83400000D03*
X17000000Y-80860000D03*
X17000000Y-78320000D03*
X17000000Y-75780000D03*
X17000000Y-73240000D03*
X17000000Y-70700000D03*
X73700000Y-78080000D03*
X73700000Y-80620000D03*
X73700000Y-83160000D03*
X73700000Y-60300000D03*
X73700000Y-62840000D03*
X73700000Y-65380000D03*
X73700000Y-67920000D03*
X73700000Y-70460000D03*
X73700000Y-73000000D03*
X73700000Y-75540000D03*
D12*
X72136000Y-46132000D03*
X67436000Y-43132000D03*
X72136000Y-40132000D03*
D13*
X56850000Y-47500000D03*
X46000000Y-40050000D03*
X60150000Y-71250000D03*
X54600000Y-71250000D03*
X58750000Y-53700000D03*
X39850000Y-44250000D03*
X40600000Y-62000000D03*
X43600000Y-54500000D03*
X63100000Y-66750000D03*
X51650000Y-47650000D03*
X47250000Y-64550000D03*
X36350000Y-46500000D03*
X65750000Y-45850000D03*
X66500000Y-51550000D03*
X36600000Y-66800000D03*
X66600000Y-68750000D03*
X59436000Y-70104000D03*
X53300000Y-54500000D03*
X47100000Y-66250000D03*
X61100000Y-54600000D03*
X44600000Y-53500000D03*
X30350000Y-44750000D03*
X43350000Y-63950000D03*
X45750000Y-66900000D03*
X42150000Y-61850000D03*
X49500000Y-67050000D03*
X40750000Y-67500000D03*
X38500000Y-60450000D03*
X36050000Y-55350000D03*
X36650000Y-53950000D03*
X71120000Y-76708000D03*
X68580000Y-75692000D03*
X62484000Y-74168000D03*
X62350000Y-79250000D03*
X71850000Y-73500000D03*
X62484000Y-75184000D03*
X62484000Y-77724000D03*
X47800000Y-51550000D03*
X73800000Y-49850000D03*
X48050000Y-60250000D03*
X63000000Y-72500000D03*
X61900000Y-72700000D03*
X47650000Y-61650000D03*
X49200000Y-55400000D03*
X49850000Y-52050000D03*
X54150000Y-51400000D03*
X50500000Y-54650000D03*
X44900000Y-50000000D03*
X46650000Y-42450000D03*
X65532000Y-78232000D03*
X58928000Y-80772000D03*
D14*
G36*
X16188200Y-33882757D02*
X15784176Y-34286077D01*
X15565250Y-34813309D01*
X15564752Y-35384187D01*
X15782757Y-35911800D01*
X16186077Y-36315824D01*
X16316215Y-36369862D01*
X16188200Y-36422757D01*
X15784176Y-36826077D01*
X15565250Y-37353309D01*
X15564752Y-37924187D01*
X15782757Y-38451800D01*
X16186077Y-38855824D01*
X16300768Y-38903448D01*
X16245995Y-38926136D01*
X16171861Y-39172255D01*
X17000000Y-40000395D01*
X17828139Y-39172255D01*
X17754005Y-38926136D01*
X17695746Y-38905195D01*
X17811800Y-38857243D01*
X18215824Y-38453923D01*
X18434750Y-37926691D01*
X18435248Y-37355813D01*
X18217243Y-36828200D01*
X17813923Y-36424176D01*
X17683785Y-36370138D01*
X17811800Y-36317243D01*
X18215824Y-35913923D01*
X18434750Y-35386691D01*
X18435248Y-34815813D01*
X18217243Y-34288200D01*
X17813923Y-33884176D01*
X17382420Y-33705000D01*
X37723000Y-33705000D01*
X37723000Y-59904507D01*
X37707808Y-59919673D01*
X37565162Y-60263201D01*
X37564838Y-60635167D01*
X37706883Y-60978943D01*
X37969673Y-61242192D01*
X38313201Y-61384838D01*
X38685167Y-61385162D01*
X39028943Y-61243117D01*
X39292192Y-60980327D01*
X39434838Y-60636799D01*
X39435162Y-60264833D01*
X39378211Y-60127000D01*
X43973000Y-60127000D01*
X43973000Y-63250643D01*
X43880327Y-63157808D01*
X43536799Y-63015162D01*
X43164833Y-63014838D01*
X42821057Y-63156883D01*
X42557808Y-63419673D01*
X42415162Y-63763201D01*
X42414838Y-64135167D01*
X42556883Y-64478943D01*
X42819673Y-64742192D01*
X43163201Y-64884838D01*
X43535167Y-64885162D01*
X43878943Y-64743117D01*
X43973000Y-64649224D01*
X43973000Y-67975000D01*
X43983006Y-68024410D01*
X44011447Y-68066035D01*
X44053841Y-68093315D01*
X44100000Y-68102000D01*
X45350000Y-68102000D01*
X45399410Y-68091994D01*
X45441035Y-68063553D01*
X45468315Y-68021159D01*
X45477000Y-67975000D01*
X45477000Y-67799044D01*
X45563201Y-67834838D01*
X45935167Y-67835162D01*
X46278943Y-67693117D01*
X46542192Y-67430327D01*
X46623230Y-67235167D01*
X48564838Y-67235167D01*
X48706883Y-67578943D01*
X48969673Y-67842192D01*
X49313201Y-67984838D01*
X49685167Y-67985162D01*
X50028943Y-67843117D01*
X50292192Y-67580327D01*
X50434838Y-67236799D01*
X50435162Y-66864833D01*
X50293117Y-66521057D01*
X50030327Y-66257808D01*
X49686799Y-66115162D01*
X49314833Y-66114838D01*
X48971057Y-66256883D01*
X48707808Y-66519673D01*
X48565162Y-66863201D01*
X48564838Y-67235167D01*
X46623230Y-67235167D01*
X46683700Y-67089540D01*
X46913201Y-67184838D01*
X47285167Y-67185162D01*
X47628943Y-67043117D01*
X47892192Y-66780327D01*
X48034838Y-66436799D01*
X48035162Y-66064833D01*
X47893117Y-65721057D01*
X47630327Y-65457808D01*
X47286799Y-65315162D01*
X46914833Y-65314838D01*
X46571057Y-65456883D01*
X46307808Y-65719673D01*
X46166300Y-66060460D01*
X45936799Y-65965162D01*
X45564833Y-65964838D01*
X45477000Y-66001130D01*
X45477000Y-61835167D01*
X46714838Y-61835167D01*
X46856883Y-62178943D01*
X47119673Y-62442192D01*
X47463201Y-62584838D01*
X47835167Y-62585162D01*
X48178943Y-62443117D01*
X48442192Y-62180327D01*
X48584838Y-61836799D01*
X48584980Y-61673599D01*
X65744699Y-61673599D01*
X66008281Y-62311515D01*
X66495918Y-62800004D01*
X67133373Y-63064699D01*
X67823599Y-63065301D01*
X68461515Y-62801719D01*
X68950004Y-62314082D01*
X69214699Y-61676627D01*
X69215301Y-60986401D01*
X68951719Y-60348485D01*
X68464082Y-59859996D01*
X67826627Y-59595301D01*
X67136401Y-59594699D01*
X66498485Y-59858281D01*
X66009996Y-60345918D01*
X65745301Y-60983373D01*
X65744699Y-61673599D01*
X48584980Y-61673599D01*
X48585162Y-61464833D01*
X48443117Y-61121057D01*
X48427697Y-61105610D01*
X48578943Y-61043117D01*
X48842192Y-60780327D01*
X48984838Y-60436799D01*
X48985162Y-60064833D01*
X48843117Y-59721057D01*
X48580327Y-59457808D01*
X48236799Y-59315162D01*
X47864833Y-59314838D01*
X47521057Y-59456883D01*
X47257808Y-59719673D01*
X47115162Y-60063201D01*
X47114838Y-60435167D01*
X47256883Y-60778943D01*
X47272303Y-60794390D01*
X47121057Y-60856883D01*
X46857808Y-61119673D01*
X46715162Y-61463201D01*
X46714838Y-61835167D01*
X45477000Y-61835167D01*
X45477000Y-58750000D01*
X45466994Y-58700590D01*
X45438553Y-58658965D01*
X45396159Y-58631685D01*
X45350000Y-58623000D01*
X38977000Y-58623000D01*
X38977000Y-55585167D01*
X48264838Y-55585167D01*
X48406883Y-55928943D01*
X48669673Y-56192192D01*
X49013201Y-56334838D01*
X49385167Y-56335162D01*
X49728943Y-56193117D01*
X49992192Y-55930327D01*
X50134838Y-55586799D01*
X50134904Y-55510802D01*
X50313201Y-55584838D01*
X50685167Y-55585162D01*
X51028943Y-55443117D01*
X51292192Y-55180327D01*
X51434838Y-54836799D01*
X51434970Y-54685167D01*
X52364838Y-54685167D01*
X52506883Y-55028943D01*
X52769673Y-55292192D01*
X53113201Y-55434838D01*
X53485167Y-55435162D01*
X53828943Y-55293117D01*
X54092192Y-55030327D01*
X54193991Y-54785167D01*
X60164838Y-54785167D01*
X60306883Y-55128943D01*
X60569673Y-55392192D01*
X60913201Y-55534838D01*
X61285167Y-55535162D01*
X61628943Y-55393117D01*
X61892192Y-55130327D01*
X62034838Y-54786799D01*
X62035162Y-54414833D01*
X61893117Y-54071057D01*
X61630327Y-53807808D01*
X61286799Y-53665162D01*
X60914833Y-53664838D01*
X60571057Y-53806883D01*
X60307808Y-54069673D01*
X60165162Y-54413201D01*
X60164838Y-54785167D01*
X54193991Y-54785167D01*
X54234838Y-54686799D01*
X54235162Y-54314833D01*
X54093117Y-53971057D01*
X53830327Y-53707808D01*
X53486799Y-53565162D01*
X53114833Y-53564838D01*
X52771057Y-53706883D01*
X52507808Y-53969673D01*
X52365162Y-54313201D01*
X52364838Y-54685167D01*
X51434970Y-54685167D01*
X51435162Y-54464833D01*
X51293117Y-54121057D01*
X51030327Y-53857808D01*
X50686799Y-53715162D01*
X50314833Y-53714838D01*
X49971057Y-53856883D01*
X49707808Y-54119673D01*
X49565162Y-54463201D01*
X49565096Y-54539198D01*
X49386799Y-54465162D01*
X49014833Y-54464838D01*
X48671057Y-54606883D01*
X48407808Y-54869673D01*
X48265162Y-55213201D01*
X48264838Y-55585167D01*
X38977000Y-55585167D01*
X38977000Y-53685167D01*
X43664838Y-53685167D01*
X43806883Y-54028943D01*
X44069673Y-54292192D01*
X44413201Y-54434838D01*
X44785167Y-54435162D01*
X45128943Y-54293117D01*
X45392192Y-54030327D01*
X45534838Y-53686799D01*
X45535162Y-53314833D01*
X45393117Y-52971057D01*
X45130327Y-52707808D01*
X44786799Y-52565162D01*
X44414833Y-52564838D01*
X44071057Y-52706883D01*
X43807808Y-52969673D01*
X43665162Y-53313201D01*
X43664838Y-53685167D01*
X38977000Y-53685167D01*
X38977000Y-51735167D01*
X46864838Y-51735167D01*
X47006883Y-52078943D01*
X47269673Y-52342192D01*
X47613201Y-52484838D01*
X47985167Y-52485162D01*
X48328943Y-52343117D01*
X48437081Y-52235167D01*
X48914838Y-52235167D01*
X49056883Y-52578943D01*
X49319673Y-52842192D01*
X49663201Y-52984838D01*
X50035167Y-52985162D01*
X50378943Y-52843117D01*
X50642192Y-52580327D01*
X50784838Y-52236799D01*
X50785162Y-51864833D01*
X50669607Y-51585167D01*
X53214838Y-51585167D01*
X53356883Y-51928943D01*
X53619673Y-52192192D01*
X53963201Y-52334838D01*
X54335167Y-52335162D01*
X54678943Y-52193117D01*
X54942192Y-51930327D01*
X55023229Y-51735167D01*
X65564838Y-51735167D01*
X65706883Y-52078943D01*
X65969673Y-52342192D01*
X66313201Y-52484838D01*
X66685167Y-52485162D01*
X67028943Y-52343117D01*
X67292192Y-52080327D01*
X67434838Y-51736799D01*
X67435162Y-51364833D01*
X67293117Y-51021057D01*
X67030327Y-50757808D01*
X66686799Y-50615162D01*
X66314833Y-50614838D01*
X65971057Y-50756883D01*
X65707808Y-51019673D01*
X65565162Y-51363201D01*
X65564838Y-51735167D01*
X55023229Y-51735167D01*
X55084838Y-51586799D01*
X55085162Y-51214833D01*
X54943117Y-50871057D01*
X54680327Y-50607808D01*
X54336799Y-50465162D01*
X53964833Y-50464838D01*
X53621057Y-50606883D01*
X53357808Y-50869673D01*
X53215162Y-51213201D01*
X53214838Y-51585167D01*
X50669607Y-51585167D01*
X50643117Y-51521057D01*
X50380327Y-51257808D01*
X50036799Y-51115162D01*
X49664833Y-51114838D01*
X49321057Y-51256883D01*
X49057808Y-51519673D01*
X48915162Y-51863201D01*
X48914838Y-52235167D01*
X48437081Y-52235167D01*
X48592192Y-52080327D01*
X48734838Y-51736799D01*
X48735162Y-51364833D01*
X48593117Y-51021057D01*
X48330327Y-50757808D01*
X47986799Y-50615162D01*
X47614833Y-50614838D01*
X47271057Y-50756883D01*
X47007808Y-51019673D01*
X46865162Y-51363201D01*
X46864838Y-51735167D01*
X38977000Y-51735167D01*
X38977000Y-50185167D01*
X43964838Y-50185167D01*
X44106883Y-50528943D01*
X44369673Y-50792192D01*
X44713201Y-50934838D01*
X45085167Y-50935162D01*
X45428943Y-50793117D01*
X45692192Y-50530327D01*
X45834838Y-50186799D01*
X45834970Y-50035167D01*
X72864838Y-50035167D01*
X73006883Y-50378943D01*
X73269673Y-50642192D01*
X73613201Y-50784838D01*
X73985167Y-50785162D01*
X74328943Y-50643117D01*
X74592192Y-50380327D01*
X74734838Y-50036799D01*
X74735162Y-49664833D01*
X74593117Y-49321057D01*
X74330327Y-49057808D01*
X73986799Y-48915162D01*
X73614833Y-48914838D01*
X73271057Y-49056883D01*
X73007808Y-49319673D01*
X72865162Y-49663201D01*
X72864838Y-50035167D01*
X45834970Y-50035167D01*
X45835162Y-49814833D01*
X45693117Y-49471057D01*
X45430327Y-49207808D01*
X45086799Y-49065162D01*
X44714833Y-49064838D01*
X44371057Y-49206883D01*
X44107808Y-49469673D01*
X43965162Y-49813201D01*
X43964838Y-50185167D01*
X38977000Y-50185167D01*
X38977000Y-47685167D01*
X55914838Y-47685167D01*
X56056883Y-48028943D01*
X56319673Y-48292192D01*
X56663201Y-48434838D01*
X57035167Y-48435162D01*
X57378943Y-48293117D01*
X57642192Y-48030327D01*
X57784838Y-47686799D01*
X57785162Y-47314833D01*
X57643117Y-46971057D01*
X57380327Y-46707808D01*
X57036799Y-46565162D01*
X56664833Y-46564838D01*
X56321057Y-46706883D01*
X56057808Y-46969673D01*
X55915162Y-47313201D01*
X55914838Y-47685167D01*
X38977000Y-47685167D01*
X38977000Y-46035167D01*
X64814838Y-46035167D01*
X64956883Y-46378943D01*
X65219673Y-46642192D01*
X65563201Y-46784838D01*
X65935167Y-46785162D01*
X66278943Y-46643117D01*
X66466592Y-46455795D01*
X70500716Y-46455795D01*
X70749106Y-47056943D01*
X71208637Y-47517278D01*
X71809352Y-47766716D01*
X72459795Y-47767284D01*
X73060943Y-47518894D01*
X73521278Y-47059363D01*
X73770716Y-46458648D01*
X73771284Y-45808205D01*
X73522894Y-45207057D01*
X73063363Y-44746722D01*
X72462648Y-44497284D01*
X71812205Y-44496716D01*
X71211057Y-44745106D01*
X70750722Y-45204637D01*
X70501284Y-45805352D01*
X70500716Y-46455795D01*
X66466592Y-46455795D01*
X66542192Y-46380327D01*
X66684838Y-46036799D01*
X66685162Y-45664833D01*
X66543117Y-45321057D01*
X66280327Y-45057808D01*
X65936799Y-44915162D01*
X65564833Y-44914838D01*
X65221057Y-45056883D01*
X64957808Y-45319673D01*
X64815162Y-45663201D01*
X64814838Y-46035167D01*
X38977000Y-46035167D01*
X38977000Y-43455795D01*
X65800716Y-43455795D01*
X66049106Y-44056943D01*
X66508637Y-44517278D01*
X67109352Y-44766716D01*
X67759795Y-44767284D01*
X68360943Y-44518894D01*
X68821278Y-44059363D01*
X69070716Y-43458648D01*
X69071284Y-42808205D01*
X68822894Y-42207057D01*
X68363363Y-41746722D01*
X67762648Y-41497284D01*
X67112205Y-41496716D01*
X66511057Y-41745106D01*
X66050722Y-42204637D01*
X65801284Y-42805352D01*
X65800716Y-43455795D01*
X38977000Y-43455795D01*
X38977000Y-42635167D01*
X45714838Y-42635167D01*
X45856883Y-42978943D01*
X46119673Y-43242192D01*
X46463201Y-43384838D01*
X46835167Y-43385162D01*
X47178943Y-43243117D01*
X47442192Y-42980327D01*
X47584838Y-42636799D01*
X47585162Y-42264833D01*
X47443117Y-41921057D01*
X47180327Y-41657808D01*
X46836799Y-41515162D01*
X46464833Y-41514838D01*
X46121057Y-41656883D01*
X45857808Y-41919673D01*
X45715162Y-42263201D01*
X45714838Y-42635167D01*
X38977000Y-42635167D01*
X38977000Y-41284532D01*
X71163073Y-41284532D01*
X71261736Y-41551387D01*
X71871461Y-41777908D01*
X72521460Y-41753856D01*
X73010264Y-41551387D01*
X73108927Y-41284532D01*
X72136000Y-40311605D01*
X71163073Y-41284532D01*
X38977000Y-41284532D01*
X38977000Y-40235167D01*
X45064838Y-40235167D01*
X45206883Y-40578943D01*
X45469673Y-40842192D01*
X45813201Y-40984838D01*
X46185167Y-40985162D01*
X46528943Y-40843117D01*
X46792192Y-40580327D01*
X46934838Y-40236799D01*
X46935159Y-39867461D01*
X70490092Y-39867461D01*
X70514144Y-40517460D01*
X70716613Y-41006264D01*
X70983468Y-41104927D01*
X71956395Y-40132000D01*
X72315605Y-40132000D01*
X73288532Y-41104927D01*
X73555387Y-41006264D01*
X73781908Y-40396539D01*
X73757856Y-39746540D01*
X73555387Y-39257736D01*
X73288532Y-39159073D01*
X72315605Y-40132000D01*
X71956395Y-40132000D01*
X70983468Y-39159073D01*
X70716613Y-39257736D01*
X70490092Y-39867461D01*
X46935159Y-39867461D01*
X46935162Y-39864833D01*
X46793117Y-39521057D01*
X46530327Y-39257808D01*
X46186799Y-39115162D01*
X45814833Y-39114838D01*
X45471057Y-39256883D01*
X45207808Y-39519673D01*
X45065162Y-39863201D01*
X45064838Y-40235167D01*
X38977000Y-40235167D01*
X38977000Y-38979468D01*
X71163073Y-38979468D01*
X72136000Y-39952395D01*
X73108927Y-38979468D01*
X73010264Y-38712613D01*
X72400539Y-38486092D01*
X71750540Y-38510144D01*
X71261736Y-38712613D01*
X71163073Y-38979468D01*
X38977000Y-38979468D01*
X38977000Y-33705000D01*
X75473000Y-33705000D01*
X75473000Y-84659000D01*
X17741606Y-84659000D01*
X17754005Y-84653864D01*
X17828139Y-84407745D01*
X17000000Y-83579605D01*
X16171861Y-84407745D01*
X16245995Y-84653864D01*
X16260284Y-84659000D01*
X14401000Y-84659000D01*
X14401000Y-83183223D01*
X15553035Y-83183223D01*
X15580222Y-83753454D01*
X15746136Y-84154005D01*
X15992255Y-84228139D01*
X16820395Y-83400000D01*
X17179605Y-83400000D01*
X18007745Y-84228139D01*
X18253864Y-84154005D01*
X18446965Y-83616777D01*
X18419778Y-83046546D01*
X18253864Y-82645995D01*
X18007745Y-82571861D01*
X17179605Y-83400000D01*
X16820395Y-83400000D01*
X15992255Y-82571861D01*
X15746136Y-82645995D01*
X15553035Y-83183223D01*
X14401000Y-83183223D01*
X14401000Y-78604187D01*
X15564752Y-78604187D01*
X15782757Y-79131800D01*
X16186077Y-79535824D01*
X16316215Y-79589862D01*
X16188200Y-79642757D01*
X15784176Y-80046077D01*
X15565250Y-80573309D01*
X15564752Y-81144187D01*
X15782757Y-81671800D01*
X16186077Y-82075824D01*
X16300768Y-82123448D01*
X16245995Y-82146136D01*
X16171861Y-82392255D01*
X17000000Y-83220395D01*
X17828139Y-82392255D01*
X17754005Y-82146136D01*
X17695746Y-82125195D01*
X17794994Y-82084187D01*
X22864752Y-82084187D01*
X23082757Y-82611800D01*
X23486077Y-83015824D01*
X24013309Y-83234750D01*
X24584187Y-83235248D01*
X25111800Y-83017243D01*
X25515824Y-82613923D01*
X25569862Y-82483785D01*
X25622757Y-82611800D01*
X26026077Y-83015824D01*
X26553309Y-83234750D01*
X27124187Y-83235248D01*
X27651800Y-83017243D01*
X27861663Y-82807745D01*
X28551861Y-82807745D01*
X28625995Y-83053864D01*
X29163223Y-83246965D01*
X29733454Y-83219778D01*
X30134005Y-83053864D01*
X30208139Y-82807745D01*
X29380000Y-81979605D01*
X28551861Y-82807745D01*
X27861663Y-82807745D01*
X28055824Y-82613923D01*
X28103448Y-82499232D01*
X28126136Y-82554005D01*
X28372255Y-82628139D01*
X29200395Y-81800000D01*
X29559605Y-81800000D01*
X30387745Y-82628139D01*
X30633864Y-82554005D01*
X30654805Y-82495746D01*
X30702757Y-82611800D01*
X31106077Y-83015824D01*
X31633309Y-83234750D01*
X32204187Y-83235248D01*
X32731800Y-83017243D01*
X33135824Y-82613923D01*
X33189862Y-82483785D01*
X33242757Y-82611800D01*
X33646077Y-83015824D01*
X34173309Y-83234750D01*
X34744187Y-83235248D01*
X35271800Y-83017243D01*
X35481663Y-82807745D01*
X36171861Y-82807745D01*
X36245995Y-83053864D01*
X36783223Y-83246965D01*
X37353454Y-83219778D01*
X37754005Y-83053864D01*
X37828139Y-82807745D01*
X37000000Y-81979605D01*
X36171861Y-82807745D01*
X35481663Y-82807745D01*
X35675824Y-82613923D01*
X35723448Y-82499232D01*
X35746136Y-82554005D01*
X35992255Y-82628139D01*
X36820395Y-81800000D01*
X37179605Y-81800000D01*
X38007745Y-82628139D01*
X38253864Y-82554005D01*
X38446965Y-82016777D01*
X38419778Y-81446546D01*
X38253864Y-81045995D01*
X38007745Y-80971861D01*
X37179605Y-81800000D01*
X36820395Y-81800000D01*
X35992255Y-80971861D01*
X35746136Y-81045995D01*
X35725195Y-81104254D01*
X35677243Y-80988200D01*
X35481640Y-80792255D01*
X36171861Y-80792255D01*
X37000000Y-81620395D01*
X37663227Y-80957167D01*
X57992838Y-80957167D01*
X58134883Y-81300943D01*
X58397673Y-81564192D01*
X58741201Y-81706838D01*
X59113167Y-81707162D01*
X59456943Y-81565117D01*
X59720192Y-81302327D01*
X59862838Y-80958799D01*
X59863162Y-80586833D01*
X59721117Y-80243057D01*
X59458327Y-79979808D01*
X59114799Y-79837162D01*
X58742833Y-79836838D01*
X58399057Y-79978883D01*
X58135808Y-80241673D01*
X57993162Y-80585201D01*
X57992838Y-80957167D01*
X37663227Y-80957167D01*
X37828139Y-80792255D01*
X37754005Y-80546136D01*
X37216777Y-80353035D01*
X36646546Y-80380222D01*
X36245995Y-80546136D01*
X36171861Y-80792255D01*
X35481640Y-80792255D01*
X35273923Y-80584176D01*
X34746691Y-80365250D01*
X34175813Y-80364752D01*
X33648200Y-80582757D01*
X33244176Y-80986077D01*
X33190138Y-81116215D01*
X33137243Y-80988200D01*
X32733923Y-80584176D01*
X32206691Y-80365250D01*
X31635813Y-80364752D01*
X31108200Y-80582757D01*
X30704176Y-80986077D01*
X30656552Y-81100768D01*
X30633864Y-81045995D01*
X30387745Y-80971861D01*
X29559605Y-81800000D01*
X29200395Y-81800000D01*
X28372255Y-80971861D01*
X28126136Y-81045995D01*
X28105195Y-81104254D01*
X28057243Y-80988200D01*
X27861640Y-80792255D01*
X28551861Y-80792255D01*
X29380000Y-81620395D01*
X30208139Y-80792255D01*
X30134005Y-80546136D01*
X29596777Y-80353035D01*
X29026546Y-80380222D01*
X28625995Y-80546136D01*
X28551861Y-80792255D01*
X27861640Y-80792255D01*
X27653923Y-80584176D01*
X27126691Y-80365250D01*
X26555813Y-80364752D01*
X26028200Y-80582757D01*
X25624176Y-80986077D01*
X25570138Y-81116215D01*
X25517243Y-80988200D01*
X25113923Y-80584176D01*
X24586691Y-80365250D01*
X24015813Y-80364752D01*
X23488200Y-80582757D01*
X23084176Y-80986077D01*
X22865250Y-81513309D01*
X22864752Y-82084187D01*
X17794994Y-82084187D01*
X17811800Y-82077243D01*
X18215824Y-81673923D01*
X18434750Y-81146691D01*
X18435248Y-80575813D01*
X18217243Y-80048200D01*
X17813923Y-79644176D01*
X17683785Y-79590138D01*
X17811800Y-79537243D01*
X17914054Y-79435167D01*
X61414838Y-79435167D01*
X61556883Y-79778943D01*
X61819673Y-80042192D01*
X62163201Y-80184838D01*
X62535167Y-80185162D01*
X62878943Y-80043117D01*
X63142192Y-79780327D01*
X63284838Y-79436799D01*
X63285162Y-79064833D01*
X63143117Y-78721057D01*
X62960970Y-78538592D01*
X63012943Y-78517117D01*
X63113067Y-78417167D01*
X64596838Y-78417167D01*
X64738883Y-78760943D01*
X65001673Y-79024192D01*
X65345201Y-79166838D01*
X65717167Y-79167162D01*
X66060943Y-79025117D01*
X66324192Y-78762327D01*
X66466838Y-78418799D01*
X66467162Y-78046833D01*
X66325117Y-77703057D01*
X66062327Y-77439808D01*
X65718799Y-77297162D01*
X65346833Y-77296838D01*
X65003057Y-77438883D01*
X64739808Y-77701673D01*
X64597162Y-78045201D01*
X64596838Y-78417167D01*
X63113067Y-78417167D01*
X63276192Y-78254327D01*
X63418838Y-77910799D01*
X63419162Y-77538833D01*
X63277117Y-77195057D01*
X63014327Y-76931808D01*
X62921270Y-76893167D01*
X70184838Y-76893167D01*
X70326883Y-77236943D01*
X70589673Y-77500192D01*
X70933201Y-77642838D01*
X71305167Y-77643162D01*
X71648943Y-77501117D01*
X71912192Y-77238327D01*
X72054838Y-76894799D01*
X72055162Y-76522833D01*
X71913117Y-76179057D01*
X71650327Y-75915808D01*
X71306799Y-75773162D01*
X70934833Y-75772838D01*
X70591057Y-75914883D01*
X70327808Y-76177673D01*
X70185162Y-76521201D01*
X70184838Y-76893167D01*
X62921270Y-76893167D01*
X62670799Y-76789162D01*
X62298833Y-76788838D01*
X61955057Y-76930883D01*
X61691808Y-77193673D01*
X61549162Y-77537201D01*
X61548838Y-77909167D01*
X61690883Y-78252943D01*
X61873030Y-78435408D01*
X61821057Y-78456883D01*
X61557808Y-78719673D01*
X61415162Y-79063201D01*
X61414838Y-79435167D01*
X17914054Y-79435167D01*
X18215824Y-79133923D01*
X18434750Y-78606691D01*
X18435248Y-78035813D01*
X18217243Y-77508200D01*
X17813923Y-77104176D01*
X17699232Y-77056552D01*
X17754005Y-77033864D01*
X17828139Y-76787745D01*
X17000000Y-75959605D01*
X16171861Y-76787745D01*
X16245995Y-77033864D01*
X16304254Y-77054805D01*
X16188200Y-77102757D01*
X15784176Y-77506077D01*
X15565250Y-78033309D01*
X15564752Y-78604187D01*
X14401000Y-78604187D01*
X14401000Y-75563223D01*
X15553035Y-75563223D01*
X15580222Y-76133454D01*
X15746136Y-76534005D01*
X15992255Y-76608139D01*
X16820395Y-75780000D01*
X17179605Y-75780000D01*
X18007745Y-76608139D01*
X18253864Y-76534005D01*
X18446965Y-75996777D01*
X18419778Y-75426546D01*
X18253864Y-75025995D01*
X18007745Y-74951861D01*
X17179605Y-75780000D01*
X16820395Y-75780000D01*
X15992255Y-74951861D01*
X15746136Y-75025995D01*
X15553035Y-75563223D01*
X14401000Y-75563223D01*
X14401000Y-70984187D01*
X15564752Y-70984187D01*
X15782757Y-71511800D01*
X16186077Y-71915824D01*
X16316215Y-71969862D01*
X16188200Y-72022757D01*
X15784176Y-72426077D01*
X15565250Y-72953309D01*
X15564752Y-73524187D01*
X15782757Y-74051800D01*
X16186077Y-74455824D01*
X16300768Y-74503448D01*
X16245995Y-74526136D01*
X16171861Y-74772255D01*
X17000000Y-75600395D01*
X17828139Y-74772255D01*
X17754005Y-74526136D01*
X17695746Y-74505195D01*
X17811800Y-74457243D01*
X18215824Y-74053923D01*
X18434750Y-73526691D01*
X18435248Y-72955813D01*
X18388883Y-72843599D01*
X22114699Y-72843599D01*
X22378281Y-73481515D01*
X22865918Y-73970004D01*
X23503373Y-74234699D01*
X24193599Y-74235301D01*
X24831515Y-73971719D01*
X25320004Y-73484082D01*
X25568695Y-72885167D01*
X60964838Y-72885167D01*
X61106883Y-73228943D01*
X61369673Y-73492192D01*
X61700098Y-73629397D01*
X61691808Y-73637673D01*
X61549162Y-73981201D01*
X61548838Y-74353167D01*
X61682383Y-74676371D01*
X61549162Y-74997201D01*
X61548838Y-75369167D01*
X61690883Y-75712943D01*
X61953673Y-75976192D01*
X62297201Y-76118838D01*
X62669167Y-76119162D01*
X63012943Y-75977117D01*
X63113067Y-75877167D01*
X67644838Y-75877167D01*
X67786883Y-76220943D01*
X68049673Y-76484192D01*
X68393201Y-76626838D01*
X68765167Y-76627162D01*
X69108943Y-76485117D01*
X69372192Y-76222327D01*
X69514838Y-75878799D01*
X69515162Y-75506833D01*
X69373117Y-75163057D01*
X69110327Y-74899808D01*
X68766799Y-74757162D01*
X68394833Y-74756838D01*
X68051057Y-74898883D01*
X67787808Y-75161673D01*
X67645162Y-75505201D01*
X67644838Y-75877167D01*
X63113067Y-75877167D01*
X63276192Y-75714327D01*
X63418838Y-75370799D01*
X63419162Y-74998833D01*
X63285617Y-74675629D01*
X63418838Y-74354799D01*
X63419162Y-73982833D01*
X63296170Y-73685167D01*
X70914838Y-73685167D01*
X71056883Y-74028943D01*
X71319673Y-74292192D01*
X71663201Y-74434838D01*
X72035167Y-74435162D01*
X72378943Y-74293117D01*
X72642192Y-74030327D01*
X72659439Y-73988791D01*
X72886077Y-74215824D01*
X73016215Y-74269862D01*
X72888200Y-74322757D01*
X72484176Y-74726077D01*
X72265250Y-75253309D01*
X72264752Y-75824187D01*
X72482757Y-76351800D01*
X72886077Y-76755824D01*
X73016215Y-76809862D01*
X72888200Y-76862757D01*
X72484176Y-77266077D01*
X72265250Y-77793309D01*
X72264752Y-78364187D01*
X72482757Y-78891800D01*
X72886077Y-79295824D01*
X73016215Y-79349862D01*
X72888200Y-79402757D01*
X72484176Y-79806077D01*
X72265250Y-80333309D01*
X72264752Y-80904187D01*
X72482757Y-81431800D01*
X72886077Y-81835824D01*
X73016215Y-81889862D01*
X72888200Y-81942757D01*
X72484176Y-82346077D01*
X72265250Y-82873309D01*
X72264752Y-83444187D01*
X72482757Y-83971800D01*
X72886077Y-84375824D01*
X73413309Y-84594750D01*
X73984187Y-84595248D01*
X74511800Y-84377243D01*
X74915824Y-83973923D01*
X75134750Y-83446691D01*
X75135248Y-82875813D01*
X74917243Y-82348200D01*
X74513923Y-81944176D01*
X74383785Y-81890138D01*
X74511800Y-81837243D01*
X74915824Y-81433923D01*
X75134750Y-80906691D01*
X75135248Y-80335813D01*
X74917243Y-79808200D01*
X74513923Y-79404176D01*
X74383785Y-79350138D01*
X74511800Y-79297243D01*
X74915824Y-78893923D01*
X75134750Y-78366691D01*
X75135248Y-77795813D01*
X74917243Y-77268200D01*
X74513923Y-76864176D01*
X74383785Y-76810138D01*
X74511800Y-76757243D01*
X74915824Y-76353923D01*
X75134750Y-75826691D01*
X75135248Y-75255813D01*
X74917243Y-74728200D01*
X74513923Y-74324176D01*
X74383785Y-74270138D01*
X74511800Y-74217243D01*
X74915824Y-73813923D01*
X75134750Y-73286691D01*
X75135248Y-72715813D01*
X74917243Y-72188200D01*
X74513923Y-71784176D01*
X74383785Y-71730138D01*
X74511800Y-71677243D01*
X74915824Y-71273923D01*
X75134750Y-70746691D01*
X75135248Y-70175813D01*
X74917243Y-69648200D01*
X74513923Y-69244176D01*
X74383785Y-69190138D01*
X74511800Y-69137243D01*
X74915824Y-68733923D01*
X75134750Y-68206691D01*
X75135248Y-67635813D01*
X74917243Y-67108200D01*
X74513923Y-66704176D01*
X74383785Y-66650138D01*
X74511800Y-66597243D01*
X74915824Y-66193923D01*
X75134750Y-65666691D01*
X75135248Y-65095813D01*
X74917243Y-64568200D01*
X74513923Y-64164176D01*
X74383785Y-64110138D01*
X74511800Y-64057243D01*
X74915824Y-63653923D01*
X75134750Y-63126691D01*
X75135248Y-62555813D01*
X74917243Y-62028200D01*
X74513923Y-61624176D01*
X74383785Y-61570138D01*
X74511800Y-61517243D01*
X74915824Y-61113923D01*
X75134750Y-60586691D01*
X75135248Y-60015813D01*
X74917243Y-59488200D01*
X74513923Y-59084176D01*
X73986691Y-58865250D01*
X73415813Y-58864752D01*
X72888200Y-59082757D01*
X72484176Y-59486077D01*
X72265250Y-60013309D01*
X72264752Y-60584187D01*
X72482757Y-61111800D01*
X72886077Y-61515824D01*
X73016215Y-61569862D01*
X72888200Y-61622757D01*
X72484176Y-62026077D01*
X72265250Y-62553309D01*
X72264752Y-63124187D01*
X72482757Y-63651800D01*
X72886077Y-64055824D01*
X73016215Y-64109862D01*
X72888200Y-64162757D01*
X72484176Y-64566077D01*
X72265250Y-65093309D01*
X72264752Y-65664187D01*
X72482757Y-66191800D01*
X72886077Y-66595824D01*
X73016215Y-66649862D01*
X72888200Y-66702757D01*
X72484176Y-67106077D01*
X72265250Y-67633309D01*
X72264752Y-68204187D01*
X72482757Y-68731800D01*
X72886077Y-69135824D01*
X73016215Y-69189862D01*
X72888200Y-69242757D01*
X72484176Y-69646077D01*
X72265250Y-70173309D01*
X72264752Y-70744187D01*
X72482757Y-71271800D01*
X72886077Y-71675824D01*
X73016215Y-71729862D01*
X72888200Y-71782757D01*
X72484176Y-72186077D01*
X72284122Y-72667860D01*
X72036799Y-72565162D01*
X71664833Y-72564838D01*
X71321057Y-72706883D01*
X71057808Y-72969673D01*
X70915162Y-73313201D01*
X70914838Y-73685167D01*
X63296170Y-73685167D01*
X63277117Y-73639057D01*
X63073480Y-73435065D01*
X63185167Y-73435162D01*
X63528943Y-73293117D01*
X63792192Y-73030327D01*
X63934838Y-72686799D01*
X63935162Y-72314833D01*
X63793117Y-71971057D01*
X63530327Y-71707808D01*
X63186799Y-71565162D01*
X62814833Y-71564838D01*
X62471057Y-71706883D01*
X62316944Y-71860727D01*
X62086799Y-71765162D01*
X61714833Y-71764838D01*
X61371057Y-71906883D01*
X61107808Y-72169673D01*
X60965162Y-72513201D01*
X60964838Y-72885167D01*
X25568695Y-72885167D01*
X25584699Y-72846627D01*
X25585301Y-72156401D01*
X25321719Y-71518485D01*
X24834082Y-71029996D01*
X24196627Y-70765301D01*
X23506401Y-70764699D01*
X22868485Y-71028281D01*
X22379996Y-71515918D01*
X22115301Y-72153373D01*
X22114699Y-72843599D01*
X18388883Y-72843599D01*
X18217243Y-72428200D01*
X17813923Y-72024176D01*
X17683785Y-71970138D01*
X17811800Y-71917243D01*
X18215824Y-71513923D01*
X18434750Y-70986691D01*
X18435248Y-70415813D01*
X18382919Y-70289167D01*
X58500838Y-70289167D01*
X58642883Y-70632943D01*
X58905673Y-70896192D01*
X59249201Y-71038838D01*
X59621167Y-71039162D01*
X59964943Y-70897117D01*
X60228192Y-70634327D01*
X60370838Y-70290799D01*
X60371162Y-69918833D01*
X60229117Y-69575057D01*
X59966327Y-69311808D01*
X59622799Y-69169162D01*
X59250833Y-69168838D01*
X58907057Y-69310883D01*
X58643808Y-69573673D01*
X58501162Y-69917201D01*
X58500838Y-70289167D01*
X18382919Y-70289167D01*
X18217243Y-69888200D01*
X17813923Y-69484176D01*
X17286691Y-69265250D01*
X16715813Y-69264752D01*
X16188200Y-69482757D01*
X15784176Y-69886077D01*
X15565250Y-70413309D01*
X15564752Y-70984187D01*
X14401000Y-70984187D01*
X14401000Y-68935167D01*
X65664838Y-68935167D01*
X65806883Y-69278943D01*
X66069673Y-69542192D01*
X66413201Y-69684838D01*
X66785167Y-69685162D01*
X67128943Y-69543117D01*
X67392192Y-69280327D01*
X67534838Y-68936799D01*
X67535162Y-68564833D01*
X67393117Y-68221057D01*
X67130327Y-67957808D01*
X66786799Y-67815162D01*
X66414833Y-67814838D01*
X66071057Y-67956883D01*
X65807808Y-68219673D01*
X65665162Y-68563201D01*
X65664838Y-68935167D01*
X14401000Y-68935167D01*
X14401000Y-67107745D01*
X16171861Y-67107745D01*
X16245995Y-67353864D01*
X16783223Y-67546965D01*
X17353454Y-67519778D01*
X17754005Y-67353864D01*
X17828139Y-67107745D01*
X17705562Y-66985167D01*
X35664838Y-66985167D01*
X35806883Y-67328943D01*
X36069673Y-67592192D01*
X36413201Y-67734838D01*
X36785167Y-67735162D01*
X36906164Y-67685167D01*
X39814838Y-67685167D01*
X39956883Y-68028943D01*
X40219673Y-68292192D01*
X40563201Y-68434838D01*
X40935167Y-68435162D01*
X41278943Y-68293117D01*
X41542192Y-68030327D01*
X41684838Y-67686799D01*
X41685162Y-67314833D01*
X41543117Y-66971057D01*
X41280327Y-66707808D01*
X40936799Y-66565162D01*
X40564833Y-66564838D01*
X40221057Y-66706883D01*
X39957808Y-66969673D01*
X39815162Y-67313201D01*
X39814838Y-67685167D01*
X36906164Y-67685167D01*
X37128943Y-67593117D01*
X37392192Y-67330327D01*
X37534838Y-66986799D01*
X37535162Y-66614833D01*
X37393117Y-66271057D01*
X37130327Y-66007808D01*
X36786799Y-65865162D01*
X36414833Y-65864838D01*
X36071057Y-66006883D01*
X35807808Y-66269673D01*
X35665162Y-66613201D01*
X35664838Y-66985167D01*
X17705562Y-66985167D01*
X17000000Y-66279605D01*
X16171861Y-67107745D01*
X14401000Y-67107745D01*
X14401000Y-65883223D01*
X15553035Y-65883223D01*
X15580222Y-66453454D01*
X15746136Y-66854005D01*
X15992255Y-66928139D01*
X16820395Y-66100000D01*
X17179605Y-66100000D01*
X18007745Y-66928139D01*
X18253864Y-66854005D01*
X18446965Y-66316777D01*
X18419778Y-65746546D01*
X18253864Y-65345995D01*
X18007745Y-65271861D01*
X17179605Y-66100000D01*
X16820395Y-66100000D01*
X15992255Y-65271861D01*
X15746136Y-65345995D01*
X15553035Y-65883223D01*
X14401000Y-65883223D01*
X14401000Y-61304187D01*
X15564752Y-61304187D01*
X15782757Y-61831800D01*
X16186077Y-62235824D01*
X16316215Y-62289862D01*
X16188200Y-62342757D01*
X15784176Y-62746077D01*
X15565250Y-63273309D01*
X15564752Y-63844187D01*
X15782757Y-64371800D01*
X16186077Y-64775824D01*
X16300768Y-64823448D01*
X16245995Y-64846136D01*
X16171861Y-65092255D01*
X17000000Y-65920395D01*
X17828139Y-65092255D01*
X17754005Y-64846136D01*
X17695746Y-64825195D01*
X17811800Y-64777243D01*
X18215824Y-64373923D01*
X18434750Y-63846691D01*
X18435248Y-63275813D01*
X18217243Y-62748200D01*
X17813923Y-62344176D01*
X17683785Y-62290138D01*
X17811800Y-62237243D01*
X18014228Y-62035167D01*
X41214838Y-62035167D01*
X41356883Y-62378943D01*
X41619673Y-62642192D01*
X41963201Y-62784838D01*
X42335167Y-62785162D01*
X42678943Y-62643117D01*
X42942192Y-62380327D01*
X43084838Y-62036799D01*
X43085162Y-61664833D01*
X42943117Y-61321057D01*
X42680327Y-61057808D01*
X42336799Y-60915162D01*
X41964833Y-60914838D01*
X41621057Y-61056883D01*
X41357808Y-61319673D01*
X41215162Y-61663201D01*
X41214838Y-62035167D01*
X18014228Y-62035167D01*
X18215824Y-61833923D01*
X18434750Y-61306691D01*
X18435248Y-60735813D01*
X18217243Y-60208200D01*
X17813923Y-59804176D01*
X17699232Y-59756552D01*
X17754005Y-59733864D01*
X17828139Y-59487745D01*
X17000000Y-58659605D01*
X16171861Y-59487745D01*
X16245995Y-59733864D01*
X16304254Y-59754805D01*
X16188200Y-59802757D01*
X15784176Y-60206077D01*
X15565250Y-60733309D01*
X15564752Y-61304187D01*
X14401000Y-61304187D01*
X14401000Y-58263223D01*
X15553035Y-58263223D01*
X15580222Y-58833454D01*
X15746136Y-59234005D01*
X15992255Y-59308139D01*
X16820395Y-58480000D01*
X17179605Y-58480000D01*
X18007745Y-59308139D01*
X18253864Y-59234005D01*
X18446965Y-58696777D01*
X18419778Y-58126546D01*
X18253864Y-57725995D01*
X18007745Y-57651861D01*
X17179605Y-58480000D01*
X16820395Y-58480000D01*
X15992255Y-57651861D01*
X15746136Y-57725995D01*
X15553035Y-58263223D01*
X14401000Y-58263223D01*
X14401000Y-53684187D01*
X15564752Y-53684187D01*
X15782757Y-54211800D01*
X16186077Y-54615824D01*
X16316215Y-54669862D01*
X16188200Y-54722757D01*
X15784176Y-55126077D01*
X15565250Y-55653309D01*
X15564752Y-56224187D01*
X15782757Y-56751800D01*
X16186077Y-57155824D01*
X16300768Y-57203448D01*
X16245995Y-57226136D01*
X16171861Y-57472255D01*
X17000000Y-58300395D01*
X17828139Y-57472255D01*
X17754005Y-57226136D01*
X17695746Y-57205195D01*
X17811800Y-57157243D01*
X18215824Y-56753923D01*
X18434750Y-56226691D01*
X18435248Y-55655813D01*
X18385399Y-55535167D01*
X35114838Y-55535167D01*
X35256883Y-55878943D01*
X35519673Y-56142192D01*
X35863201Y-56284838D01*
X36235167Y-56285162D01*
X36578943Y-56143117D01*
X36842192Y-55880327D01*
X36984838Y-55536799D01*
X36985162Y-55164833D01*
X36864583Y-54873008D01*
X37178943Y-54743117D01*
X37442192Y-54480327D01*
X37584838Y-54136799D01*
X37585162Y-53764833D01*
X37443117Y-53421057D01*
X37180327Y-53157808D01*
X36836799Y-53015162D01*
X36464833Y-53014838D01*
X36121057Y-53156883D01*
X35857808Y-53419673D01*
X35715162Y-53763201D01*
X35714838Y-54135167D01*
X35835417Y-54426992D01*
X35521057Y-54556883D01*
X35257808Y-54819673D01*
X35115162Y-55163201D01*
X35114838Y-55535167D01*
X18385399Y-55535167D01*
X18217243Y-55128200D01*
X17813923Y-54724176D01*
X17683785Y-54670138D01*
X17811800Y-54617243D01*
X18215824Y-54213923D01*
X18434750Y-53686691D01*
X18435248Y-53115813D01*
X18217243Y-52588200D01*
X17813923Y-52184176D01*
X17286691Y-51965250D01*
X16715813Y-51964752D01*
X16188200Y-52182757D01*
X15784176Y-52586077D01*
X15565250Y-53113309D01*
X15564752Y-53684187D01*
X14401000Y-53684187D01*
X14401000Y-48807745D01*
X16171861Y-48807745D01*
X16245995Y-49053864D01*
X16783223Y-49246965D01*
X17353454Y-49219778D01*
X17754005Y-49053864D01*
X17828139Y-48807745D01*
X17000000Y-47979605D01*
X16171861Y-48807745D01*
X14401000Y-48807745D01*
X14401000Y-47583223D01*
X15553035Y-47583223D01*
X15580222Y-48153454D01*
X15746136Y-48554005D01*
X15992255Y-48628139D01*
X16820395Y-47800000D01*
X17179605Y-47800000D01*
X18007745Y-48628139D01*
X18253864Y-48554005D01*
X18446965Y-48016777D01*
X18419778Y-47446546D01*
X18253864Y-47045995D01*
X18007745Y-46971861D01*
X17179605Y-47800000D01*
X16820395Y-47800000D01*
X15992255Y-46971861D01*
X15746136Y-47045995D01*
X15553035Y-47583223D01*
X14401000Y-47583223D01*
X14401000Y-43004187D01*
X15564752Y-43004187D01*
X15782757Y-43531800D01*
X16186077Y-43935824D01*
X16316215Y-43989862D01*
X16188200Y-44042757D01*
X15784176Y-44446077D01*
X15565250Y-44973309D01*
X15564752Y-45544187D01*
X15782757Y-46071800D01*
X16186077Y-46475824D01*
X16300768Y-46523448D01*
X16245995Y-46546136D01*
X16171861Y-46792255D01*
X17000000Y-47620395D01*
X17828139Y-46792255D01*
X17795883Y-46685167D01*
X35414838Y-46685167D01*
X35556883Y-47028943D01*
X35819673Y-47292192D01*
X36163201Y-47434838D01*
X36535167Y-47435162D01*
X36878943Y-47293117D01*
X37142192Y-47030327D01*
X37284838Y-46686799D01*
X37285162Y-46314833D01*
X37143117Y-45971057D01*
X36880327Y-45707808D01*
X36536799Y-45565162D01*
X36164833Y-45564838D01*
X35821057Y-45706883D01*
X35557808Y-45969673D01*
X35415162Y-46313201D01*
X35414838Y-46685167D01*
X17795883Y-46685167D01*
X17754005Y-46546136D01*
X17695746Y-46525195D01*
X17811800Y-46477243D01*
X18215824Y-46073923D01*
X18434750Y-45546691D01*
X18435248Y-44975813D01*
X18217243Y-44448200D01*
X17813923Y-44044176D01*
X17683785Y-43990138D01*
X17772215Y-43953599D01*
X21984699Y-43953599D01*
X22248281Y-44591515D01*
X22735918Y-45080004D01*
X23373373Y-45344699D01*
X24063599Y-45345301D01*
X24701515Y-45081719D01*
X24848323Y-44935167D01*
X29414838Y-44935167D01*
X29556883Y-45278943D01*
X29819673Y-45542192D01*
X30163201Y-45684838D01*
X30535167Y-45685162D01*
X30878943Y-45543117D01*
X31142192Y-45280327D01*
X31284838Y-44936799D01*
X31285162Y-44564833D01*
X31143117Y-44221057D01*
X30880327Y-43957808D01*
X30536799Y-43815162D01*
X30164833Y-43814838D01*
X29821057Y-43956883D01*
X29557808Y-44219673D01*
X29415162Y-44563201D01*
X29414838Y-44935167D01*
X24848323Y-44935167D01*
X25190004Y-44594082D01*
X25454699Y-43956627D01*
X25455301Y-43266401D01*
X25191719Y-42628485D01*
X24704082Y-42139996D01*
X24066627Y-41875301D01*
X23376401Y-41874699D01*
X22738485Y-42138281D01*
X22249996Y-42625918D01*
X21985301Y-43263373D01*
X21984699Y-43953599D01*
X17772215Y-43953599D01*
X17811800Y-43937243D01*
X18215824Y-43533923D01*
X18434750Y-43006691D01*
X18435248Y-42435813D01*
X18217243Y-41908200D01*
X17813923Y-41504176D01*
X17699232Y-41456552D01*
X17754005Y-41433864D01*
X17828139Y-41187745D01*
X17000000Y-40359605D01*
X16171861Y-41187745D01*
X16245995Y-41433864D01*
X16304254Y-41454805D01*
X16188200Y-41502757D01*
X15784176Y-41906077D01*
X15565250Y-42433309D01*
X15564752Y-43004187D01*
X14401000Y-43004187D01*
X14401000Y-39963223D01*
X15553035Y-39963223D01*
X15580222Y-40533454D01*
X15746136Y-40934005D01*
X15992255Y-41008139D01*
X16820395Y-40180000D01*
X17179605Y-40180000D01*
X18007745Y-41008139D01*
X18253864Y-40934005D01*
X18446965Y-40396777D01*
X18419778Y-39826546D01*
X18253864Y-39425995D01*
X18007745Y-39351861D01*
X17179605Y-40180000D01*
X16820395Y-40180000D01*
X15992255Y-39351861D01*
X15746136Y-39425995D01*
X15553035Y-39963223D01*
X14401000Y-39963223D01*
X14401000Y-33705000D01*
X16618405Y-33705000D01*
X16188200Y-33882757D01*
X16188200Y-33882757D01*
G37*
X16188200Y-33882757D02*
X15784176Y-34286077D01*
X15565250Y-34813309D01*
X15564752Y-35384187D01*
X15782757Y-35911800D01*
X16186077Y-36315824D01*
X16316215Y-36369862D01*
X16188200Y-36422757D01*
X15784176Y-36826077D01*
X15565250Y-37353309D01*
X15564752Y-37924187D01*
X15782757Y-38451800D01*
X16186077Y-38855824D01*
X16300768Y-38903448D01*
X16245995Y-38926136D01*
X16171861Y-39172255D01*
X17000000Y-40000395D01*
X17828139Y-39172255D01*
X17754005Y-38926136D01*
X17695746Y-38905195D01*
X17811800Y-38857243D01*
X18215824Y-38453923D01*
X18434750Y-37926691D01*
X18435248Y-37355813D01*
X18217243Y-36828200D01*
X17813923Y-36424176D01*
X17683785Y-36370138D01*
X17811800Y-36317243D01*
X18215824Y-35913923D01*
X18434750Y-35386691D01*
X18435248Y-34815813D01*
X18217243Y-34288200D01*
X17813923Y-33884176D01*
X17382420Y-33705000D01*
X37723000Y-33705000D01*
X37723000Y-59904507D01*
X37707808Y-59919673D01*
X37565162Y-60263201D01*
X37564838Y-60635167D01*
X37706883Y-60978943D01*
X37969673Y-61242192D01*
X38313201Y-61384838D01*
X38685167Y-61385162D01*
X39028943Y-61243117D01*
X39292192Y-60980327D01*
X39434838Y-60636799D01*
X39435162Y-60264833D01*
X39378211Y-60127000D01*
X43973000Y-60127000D01*
X43973000Y-63250643D01*
X43880327Y-63157808D01*
X43536799Y-63015162D01*
X43164833Y-63014838D01*
X42821057Y-63156883D01*
X42557808Y-63419673D01*
X42415162Y-63763201D01*
X42414838Y-64135167D01*
X42556883Y-64478943D01*
X42819673Y-64742192D01*
X43163201Y-64884838D01*
X43535167Y-64885162D01*
X43878943Y-64743117D01*
X43973000Y-64649224D01*
X43973000Y-67975000D01*
X43983006Y-68024410D01*
X44011447Y-68066035D01*
X44053841Y-68093315D01*
X44100000Y-68102000D01*
X45350000Y-68102000D01*
X45399410Y-68091994D01*
X45441035Y-68063553D01*
X45468315Y-68021159D01*
X45477000Y-67975000D01*
X45477000Y-67799044D01*
X45563201Y-67834838D01*
X45935167Y-67835162D01*
X46278943Y-67693117D01*
X46542192Y-67430327D01*
X46623230Y-67235167D01*
X48564838Y-67235167D01*
X48706883Y-67578943D01*
X48969673Y-67842192D01*
X49313201Y-67984838D01*
X49685167Y-67985162D01*
X50028943Y-67843117D01*
X50292192Y-67580327D01*
X50434838Y-67236799D01*
X50435162Y-66864833D01*
X50293117Y-66521057D01*
X50030327Y-66257808D01*
X49686799Y-66115162D01*
X49314833Y-66114838D01*
X48971057Y-66256883D01*
X48707808Y-66519673D01*
X48565162Y-66863201D01*
X48564838Y-67235167D01*
X46623230Y-67235167D01*
X46683700Y-67089540D01*
X46913201Y-67184838D01*
X47285167Y-67185162D01*
X47628943Y-67043117D01*
X47892192Y-66780327D01*
X48034838Y-66436799D01*
X48035162Y-66064833D01*
X47893117Y-65721057D01*
X47630327Y-65457808D01*
X47286799Y-65315162D01*
X46914833Y-65314838D01*
X46571057Y-65456883D01*
X46307808Y-65719673D01*
X46166300Y-66060460D01*
X45936799Y-65965162D01*
X45564833Y-65964838D01*
X45477000Y-66001130D01*
X45477000Y-61835167D01*
X46714838Y-61835167D01*
X46856883Y-62178943D01*
X47119673Y-62442192D01*
X47463201Y-62584838D01*
X47835167Y-62585162D01*
X48178943Y-62443117D01*
X48442192Y-62180327D01*
X48584838Y-61836799D01*
X48584980Y-61673599D01*
X65744699Y-61673599D01*
X66008281Y-62311515D01*
X66495918Y-62800004D01*
X67133373Y-63064699D01*
X67823599Y-63065301D01*
X68461515Y-62801719D01*
X68950004Y-62314082D01*
X69214699Y-61676627D01*
X69215301Y-60986401D01*
X68951719Y-60348485D01*
X68464082Y-59859996D01*
X67826627Y-59595301D01*
X67136401Y-59594699D01*
X66498485Y-59858281D01*
X66009996Y-60345918D01*
X65745301Y-60983373D01*
X65744699Y-61673599D01*
X48584980Y-61673599D01*
X48585162Y-61464833D01*
X48443117Y-61121057D01*
X48427697Y-61105610D01*
X48578943Y-61043117D01*
X48842192Y-60780327D01*
X48984838Y-60436799D01*
X48985162Y-60064833D01*
X48843117Y-59721057D01*
X48580327Y-59457808D01*
X48236799Y-59315162D01*
X47864833Y-59314838D01*
X47521057Y-59456883D01*
X47257808Y-59719673D01*
X47115162Y-60063201D01*
X47114838Y-60435167D01*
X47256883Y-60778943D01*
X47272303Y-60794390D01*
X47121057Y-60856883D01*
X46857808Y-61119673D01*
X46715162Y-61463201D01*
X46714838Y-61835167D01*
X45477000Y-61835167D01*
X45477000Y-58750000D01*
X45466994Y-58700590D01*
X45438553Y-58658965D01*
X45396159Y-58631685D01*
X45350000Y-58623000D01*
X38977000Y-58623000D01*
X38977000Y-55585167D01*
X48264838Y-55585167D01*
X48406883Y-55928943D01*
X48669673Y-56192192D01*
X49013201Y-56334838D01*
X49385167Y-56335162D01*
X49728943Y-56193117D01*
X49992192Y-55930327D01*
X50134838Y-55586799D01*
X50134904Y-55510802D01*
X50313201Y-55584838D01*
X50685167Y-55585162D01*
X51028943Y-55443117D01*
X51292192Y-55180327D01*
X51434838Y-54836799D01*
X51434970Y-54685167D01*
X52364838Y-54685167D01*
X52506883Y-55028943D01*
X52769673Y-55292192D01*
X53113201Y-55434838D01*
X53485167Y-55435162D01*
X53828943Y-55293117D01*
X54092192Y-55030327D01*
X54193991Y-54785167D01*
X60164838Y-54785167D01*
X60306883Y-55128943D01*
X60569673Y-55392192D01*
X60913201Y-55534838D01*
X61285167Y-55535162D01*
X61628943Y-55393117D01*
X61892192Y-55130327D01*
X62034838Y-54786799D01*
X62035162Y-54414833D01*
X61893117Y-54071057D01*
X61630327Y-53807808D01*
X61286799Y-53665162D01*
X60914833Y-53664838D01*
X60571057Y-53806883D01*
X60307808Y-54069673D01*
X60165162Y-54413201D01*
X60164838Y-54785167D01*
X54193991Y-54785167D01*
X54234838Y-54686799D01*
X54235162Y-54314833D01*
X54093117Y-53971057D01*
X53830327Y-53707808D01*
X53486799Y-53565162D01*
X53114833Y-53564838D01*
X52771057Y-53706883D01*
X52507808Y-53969673D01*
X52365162Y-54313201D01*
X52364838Y-54685167D01*
X51434970Y-54685167D01*
X51435162Y-54464833D01*
X51293117Y-54121057D01*
X51030327Y-53857808D01*
X50686799Y-53715162D01*
X50314833Y-53714838D01*
X49971057Y-53856883D01*
X49707808Y-54119673D01*
X49565162Y-54463201D01*
X49565096Y-54539198D01*
X49386799Y-54465162D01*
X49014833Y-54464838D01*
X48671057Y-54606883D01*
X48407808Y-54869673D01*
X48265162Y-55213201D01*
X48264838Y-55585167D01*
X38977000Y-55585167D01*
X38977000Y-53685167D01*
X43664838Y-53685167D01*
X43806883Y-54028943D01*
X44069673Y-54292192D01*
X44413201Y-54434838D01*
X44785167Y-54435162D01*
X45128943Y-54293117D01*
X45392192Y-54030327D01*
X45534838Y-53686799D01*
X45535162Y-53314833D01*
X45393117Y-52971057D01*
X45130327Y-52707808D01*
X44786799Y-52565162D01*
X44414833Y-52564838D01*
X44071057Y-52706883D01*
X43807808Y-52969673D01*
X43665162Y-53313201D01*
X43664838Y-53685167D01*
X38977000Y-53685167D01*
X38977000Y-51735167D01*
X46864838Y-51735167D01*
X47006883Y-52078943D01*
X47269673Y-52342192D01*
X47613201Y-52484838D01*
X47985167Y-52485162D01*
X48328943Y-52343117D01*
X48437081Y-52235167D01*
X48914838Y-52235167D01*
X49056883Y-52578943D01*
X49319673Y-52842192D01*
X49663201Y-52984838D01*
X50035167Y-52985162D01*
X50378943Y-52843117D01*
X50642192Y-52580327D01*
X50784838Y-52236799D01*
X50785162Y-51864833D01*
X50669607Y-51585167D01*
X53214838Y-51585167D01*
X53356883Y-51928943D01*
X53619673Y-52192192D01*
X53963201Y-52334838D01*
X54335167Y-52335162D01*
X54678943Y-52193117D01*
X54942192Y-51930327D01*
X55023229Y-51735167D01*
X65564838Y-51735167D01*
X65706883Y-52078943D01*
X65969673Y-52342192D01*
X66313201Y-52484838D01*
X66685167Y-52485162D01*
X67028943Y-52343117D01*
X67292192Y-52080327D01*
X67434838Y-51736799D01*
X67435162Y-51364833D01*
X67293117Y-51021057D01*
X67030327Y-50757808D01*
X66686799Y-50615162D01*
X66314833Y-50614838D01*
X65971057Y-50756883D01*
X65707808Y-51019673D01*
X65565162Y-51363201D01*
X65564838Y-51735167D01*
X55023229Y-51735167D01*
X55084838Y-51586799D01*
X55085162Y-51214833D01*
X54943117Y-50871057D01*
X54680327Y-50607808D01*
X54336799Y-50465162D01*
X53964833Y-50464838D01*
X53621057Y-50606883D01*
X53357808Y-50869673D01*
X53215162Y-51213201D01*
X53214838Y-51585167D01*
X50669607Y-51585167D01*
X50643117Y-51521057D01*
X50380327Y-51257808D01*
X50036799Y-51115162D01*
X49664833Y-51114838D01*
X49321057Y-51256883D01*
X49057808Y-51519673D01*
X48915162Y-51863201D01*
X48914838Y-52235167D01*
X48437081Y-52235167D01*
X48592192Y-52080327D01*
X48734838Y-51736799D01*
X48735162Y-51364833D01*
X48593117Y-51021057D01*
X48330327Y-50757808D01*
X47986799Y-50615162D01*
X47614833Y-50614838D01*
X47271057Y-50756883D01*
X47007808Y-51019673D01*
X46865162Y-51363201D01*
X46864838Y-51735167D01*
X38977000Y-51735167D01*
X38977000Y-50185167D01*
X43964838Y-50185167D01*
X44106883Y-50528943D01*
X44369673Y-50792192D01*
X44713201Y-50934838D01*
X45085167Y-50935162D01*
X45428943Y-50793117D01*
X45692192Y-50530327D01*
X45834838Y-50186799D01*
X45834970Y-50035167D01*
X72864838Y-50035167D01*
X73006883Y-50378943D01*
X73269673Y-50642192D01*
X73613201Y-50784838D01*
X73985167Y-50785162D01*
X74328943Y-50643117D01*
X74592192Y-50380327D01*
X74734838Y-50036799D01*
X74735162Y-49664833D01*
X74593117Y-49321057D01*
X74330327Y-49057808D01*
X73986799Y-48915162D01*
X73614833Y-48914838D01*
X73271057Y-49056883D01*
X73007808Y-49319673D01*
X72865162Y-49663201D01*
X72864838Y-50035167D01*
X45834970Y-50035167D01*
X45835162Y-49814833D01*
X45693117Y-49471057D01*
X45430327Y-49207808D01*
X45086799Y-49065162D01*
X44714833Y-49064838D01*
X44371057Y-49206883D01*
X44107808Y-49469673D01*
X43965162Y-49813201D01*
X43964838Y-50185167D01*
X38977000Y-50185167D01*
X38977000Y-47685167D01*
X55914838Y-47685167D01*
X56056883Y-48028943D01*
X56319673Y-48292192D01*
X56663201Y-48434838D01*
X57035167Y-48435162D01*
X57378943Y-48293117D01*
X57642192Y-48030327D01*
X57784838Y-47686799D01*
X57785162Y-47314833D01*
X57643117Y-46971057D01*
X57380327Y-46707808D01*
X57036799Y-46565162D01*
X56664833Y-46564838D01*
X56321057Y-46706883D01*
X56057808Y-46969673D01*
X55915162Y-47313201D01*
X55914838Y-47685167D01*
X38977000Y-47685167D01*
X38977000Y-46035167D01*
X64814838Y-46035167D01*
X64956883Y-46378943D01*
X65219673Y-46642192D01*
X65563201Y-46784838D01*
X65935167Y-46785162D01*
X66278943Y-46643117D01*
X66466592Y-46455795D01*
X70500716Y-46455795D01*
X70749106Y-47056943D01*
X71208637Y-47517278D01*
X71809352Y-47766716D01*
X72459795Y-47767284D01*
X73060943Y-47518894D01*
X73521278Y-47059363D01*
X73770716Y-46458648D01*
X73771284Y-45808205D01*
X73522894Y-45207057D01*
X73063363Y-44746722D01*
X72462648Y-44497284D01*
X71812205Y-44496716D01*
X71211057Y-44745106D01*
X70750722Y-45204637D01*
X70501284Y-45805352D01*
X70500716Y-46455795D01*
X66466592Y-46455795D01*
X66542192Y-46380327D01*
X66684838Y-46036799D01*
X66685162Y-45664833D01*
X66543117Y-45321057D01*
X66280327Y-45057808D01*
X65936799Y-44915162D01*
X65564833Y-44914838D01*
X65221057Y-45056883D01*
X64957808Y-45319673D01*
X64815162Y-45663201D01*
X64814838Y-46035167D01*
X38977000Y-46035167D01*
X38977000Y-43455795D01*
X65800716Y-43455795D01*
X66049106Y-44056943D01*
X66508637Y-44517278D01*
X67109352Y-44766716D01*
X67759795Y-44767284D01*
X68360943Y-44518894D01*
X68821278Y-44059363D01*
X69070716Y-43458648D01*
X69071284Y-42808205D01*
X68822894Y-42207057D01*
X68363363Y-41746722D01*
X67762648Y-41497284D01*
X67112205Y-41496716D01*
X66511057Y-41745106D01*
X66050722Y-42204637D01*
X65801284Y-42805352D01*
X65800716Y-43455795D01*
X38977000Y-43455795D01*
X38977000Y-42635167D01*
X45714838Y-42635167D01*
X45856883Y-42978943D01*
X46119673Y-43242192D01*
X46463201Y-43384838D01*
X46835167Y-43385162D01*
X47178943Y-43243117D01*
X47442192Y-42980327D01*
X47584838Y-42636799D01*
X47585162Y-42264833D01*
X47443117Y-41921057D01*
X47180327Y-41657808D01*
X46836799Y-41515162D01*
X46464833Y-41514838D01*
X46121057Y-41656883D01*
X45857808Y-41919673D01*
X45715162Y-42263201D01*
X45714838Y-42635167D01*
X38977000Y-42635167D01*
X38977000Y-41284532D01*
X71163073Y-41284532D01*
X71261736Y-41551387D01*
X71871461Y-41777908D01*
X72521460Y-41753856D01*
X73010264Y-41551387D01*
X73108927Y-41284532D01*
X72136000Y-40311605D01*
X71163073Y-41284532D01*
X38977000Y-41284532D01*
X38977000Y-40235167D01*
X45064838Y-40235167D01*
X45206883Y-40578943D01*
X45469673Y-40842192D01*
X45813201Y-40984838D01*
X46185167Y-40985162D01*
X46528943Y-40843117D01*
X46792192Y-40580327D01*
X46934838Y-40236799D01*
X46935159Y-39867461D01*
X70490092Y-39867461D01*
X70514144Y-40517460D01*
X70716613Y-41006264D01*
X70983468Y-41104927D01*
X71956395Y-40132000D01*
X72315605Y-40132000D01*
X73288532Y-41104927D01*
X73555387Y-41006264D01*
X73781908Y-40396539D01*
X73757856Y-39746540D01*
X73555387Y-39257736D01*
X73288532Y-39159073D01*
X72315605Y-40132000D01*
X71956395Y-40132000D01*
X70983468Y-39159073D01*
X70716613Y-39257736D01*
X70490092Y-39867461D01*
X46935159Y-39867461D01*
X46935162Y-39864833D01*
X46793117Y-39521057D01*
X46530327Y-39257808D01*
X46186799Y-39115162D01*
X45814833Y-39114838D01*
X45471057Y-39256883D01*
X45207808Y-39519673D01*
X45065162Y-39863201D01*
X45064838Y-40235167D01*
X38977000Y-40235167D01*
X38977000Y-38979468D01*
X71163073Y-38979468D01*
X72136000Y-39952395D01*
X73108927Y-38979468D01*
X73010264Y-38712613D01*
X72400539Y-38486092D01*
X71750540Y-38510144D01*
X71261736Y-38712613D01*
X71163073Y-38979468D01*
X38977000Y-38979468D01*
X38977000Y-33705000D01*
X75473000Y-33705000D01*
X75473000Y-84659000D01*
X17741606Y-84659000D01*
X17754005Y-84653864D01*
X17828139Y-84407745D01*
X17000000Y-83579605D01*
X16171861Y-84407745D01*
X16245995Y-84653864D01*
X16260284Y-84659000D01*
X14401000Y-84659000D01*
X14401000Y-83183223D01*
X15553035Y-83183223D01*
X15580222Y-83753454D01*
X15746136Y-84154005D01*
X15992255Y-84228139D01*
X16820395Y-83400000D01*
X17179605Y-83400000D01*
X18007745Y-84228139D01*
X18253864Y-84154005D01*
X18446965Y-83616777D01*
X18419778Y-83046546D01*
X18253864Y-82645995D01*
X18007745Y-82571861D01*
X17179605Y-83400000D01*
X16820395Y-83400000D01*
X15992255Y-82571861D01*
X15746136Y-82645995D01*
X15553035Y-83183223D01*
X14401000Y-83183223D01*
X14401000Y-78604187D01*
X15564752Y-78604187D01*
X15782757Y-79131800D01*
X16186077Y-79535824D01*
X16316215Y-79589862D01*
X16188200Y-79642757D01*
X15784176Y-80046077D01*
X15565250Y-80573309D01*
X15564752Y-81144187D01*
X15782757Y-81671800D01*
X16186077Y-82075824D01*
X16300768Y-82123448D01*
X16245995Y-82146136D01*
X16171861Y-82392255D01*
X17000000Y-83220395D01*
X17828139Y-82392255D01*
X17754005Y-82146136D01*
X17695746Y-82125195D01*
X17794994Y-82084187D01*
X22864752Y-82084187D01*
X23082757Y-82611800D01*
X23486077Y-83015824D01*
X24013309Y-83234750D01*
X24584187Y-83235248D01*
X25111800Y-83017243D01*
X25515824Y-82613923D01*
X25569862Y-82483785D01*
X25622757Y-82611800D01*
X26026077Y-83015824D01*
X26553309Y-83234750D01*
X27124187Y-83235248D01*
X27651800Y-83017243D01*
X27861663Y-82807745D01*
X28551861Y-82807745D01*
X28625995Y-83053864D01*
X29163223Y-83246965D01*
X29733454Y-83219778D01*
X30134005Y-83053864D01*
X30208139Y-82807745D01*
X29380000Y-81979605D01*
X28551861Y-82807745D01*
X27861663Y-82807745D01*
X28055824Y-82613923D01*
X28103448Y-82499232D01*
X28126136Y-82554005D01*
X28372255Y-82628139D01*
X29200395Y-81800000D01*
X29559605Y-81800000D01*
X30387745Y-82628139D01*
X30633864Y-82554005D01*
X30654805Y-82495746D01*
X30702757Y-82611800D01*
X31106077Y-83015824D01*
X31633309Y-83234750D01*
X32204187Y-83235248D01*
X32731800Y-83017243D01*
X33135824Y-82613923D01*
X33189862Y-82483785D01*
X33242757Y-82611800D01*
X33646077Y-83015824D01*
X34173309Y-83234750D01*
X34744187Y-83235248D01*
X35271800Y-83017243D01*
X35481663Y-82807745D01*
X36171861Y-82807745D01*
X36245995Y-83053864D01*
X36783223Y-83246965D01*
X37353454Y-83219778D01*
X37754005Y-83053864D01*
X37828139Y-82807745D01*
X37000000Y-81979605D01*
X36171861Y-82807745D01*
X35481663Y-82807745D01*
X35675824Y-82613923D01*
X35723448Y-82499232D01*
X35746136Y-82554005D01*
X35992255Y-82628139D01*
X36820395Y-81800000D01*
X37179605Y-81800000D01*
X38007745Y-82628139D01*
X38253864Y-82554005D01*
X38446965Y-82016777D01*
X38419778Y-81446546D01*
X38253864Y-81045995D01*
X38007745Y-80971861D01*
X37179605Y-81800000D01*
X36820395Y-81800000D01*
X35992255Y-80971861D01*
X35746136Y-81045995D01*
X35725195Y-81104254D01*
X35677243Y-80988200D01*
X35481640Y-80792255D01*
X36171861Y-80792255D01*
X37000000Y-81620395D01*
X37663227Y-80957167D01*
X57992838Y-80957167D01*
X58134883Y-81300943D01*
X58397673Y-81564192D01*
X58741201Y-81706838D01*
X59113167Y-81707162D01*
X59456943Y-81565117D01*
X59720192Y-81302327D01*
X59862838Y-80958799D01*
X59863162Y-80586833D01*
X59721117Y-80243057D01*
X59458327Y-79979808D01*
X59114799Y-79837162D01*
X58742833Y-79836838D01*
X58399057Y-79978883D01*
X58135808Y-80241673D01*
X57993162Y-80585201D01*
X57992838Y-80957167D01*
X37663227Y-80957167D01*
X37828139Y-80792255D01*
X37754005Y-80546136D01*
X37216777Y-80353035D01*
X36646546Y-80380222D01*
X36245995Y-80546136D01*
X36171861Y-80792255D01*
X35481640Y-80792255D01*
X35273923Y-80584176D01*
X34746691Y-80365250D01*
X34175813Y-80364752D01*
X33648200Y-80582757D01*
X33244176Y-80986077D01*
X33190138Y-81116215D01*
X33137243Y-80988200D01*
X32733923Y-80584176D01*
X32206691Y-80365250D01*
X31635813Y-80364752D01*
X31108200Y-80582757D01*
X30704176Y-80986077D01*
X30656552Y-81100768D01*
X30633864Y-81045995D01*
X30387745Y-80971861D01*
X29559605Y-81800000D01*
X29200395Y-81800000D01*
X28372255Y-80971861D01*
X28126136Y-81045995D01*
X28105195Y-81104254D01*
X28057243Y-80988200D01*
X27861640Y-80792255D01*
X28551861Y-80792255D01*
X29380000Y-81620395D01*
X30208139Y-80792255D01*
X30134005Y-80546136D01*
X29596777Y-80353035D01*
X29026546Y-80380222D01*
X28625995Y-80546136D01*
X28551861Y-80792255D01*
X27861640Y-80792255D01*
X27653923Y-80584176D01*
X27126691Y-80365250D01*
X26555813Y-80364752D01*
X26028200Y-80582757D01*
X25624176Y-80986077D01*
X25570138Y-81116215D01*
X25517243Y-80988200D01*
X25113923Y-80584176D01*
X24586691Y-80365250D01*
X24015813Y-80364752D01*
X23488200Y-80582757D01*
X23084176Y-80986077D01*
X22865250Y-81513309D01*
X22864752Y-82084187D01*
X17794994Y-82084187D01*
X17811800Y-82077243D01*
X18215824Y-81673923D01*
X18434750Y-81146691D01*
X18435248Y-80575813D01*
X18217243Y-80048200D01*
X17813923Y-79644176D01*
X17683785Y-79590138D01*
X17811800Y-79537243D01*
X17914054Y-79435167D01*
X61414838Y-79435167D01*
X61556883Y-79778943D01*
X61819673Y-80042192D01*
X62163201Y-80184838D01*
X62535167Y-80185162D01*
X62878943Y-80043117D01*
X63142192Y-79780327D01*
X63284838Y-79436799D01*
X63285162Y-79064833D01*
X63143117Y-78721057D01*
X62960970Y-78538592D01*
X63012943Y-78517117D01*
X63113067Y-78417167D01*
X64596838Y-78417167D01*
X64738883Y-78760943D01*
X65001673Y-79024192D01*
X65345201Y-79166838D01*
X65717167Y-79167162D01*
X66060943Y-79025117D01*
X66324192Y-78762327D01*
X66466838Y-78418799D01*
X66467162Y-78046833D01*
X66325117Y-77703057D01*
X66062327Y-77439808D01*
X65718799Y-77297162D01*
X65346833Y-77296838D01*
X65003057Y-77438883D01*
X64739808Y-77701673D01*
X64597162Y-78045201D01*
X64596838Y-78417167D01*
X63113067Y-78417167D01*
X63276192Y-78254327D01*
X63418838Y-77910799D01*
X63419162Y-77538833D01*
X63277117Y-77195057D01*
X63014327Y-76931808D01*
X62921270Y-76893167D01*
X70184838Y-76893167D01*
X70326883Y-77236943D01*
X70589673Y-77500192D01*
X70933201Y-77642838D01*
X71305167Y-77643162D01*
X71648943Y-77501117D01*
X71912192Y-77238327D01*
X72054838Y-76894799D01*
X72055162Y-76522833D01*
X71913117Y-76179057D01*
X71650327Y-75915808D01*
X71306799Y-75773162D01*
X70934833Y-75772838D01*
X70591057Y-75914883D01*
X70327808Y-76177673D01*
X70185162Y-76521201D01*
X70184838Y-76893167D01*
X62921270Y-76893167D01*
X62670799Y-76789162D01*
X62298833Y-76788838D01*
X61955057Y-76930883D01*
X61691808Y-77193673D01*
X61549162Y-77537201D01*
X61548838Y-77909167D01*
X61690883Y-78252943D01*
X61873030Y-78435408D01*
X61821057Y-78456883D01*
X61557808Y-78719673D01*
X61415162Y-79063201D01*
X61414838Y-79435167D01*
X17914054Y-79435167D01*
X18215824Y-79133923D01*
X18434750Y-78606691D01*
X18435248Y-78035813D01*
X18217243Y-77508200D01*
X17813923Y-77104176D01*
X17699232Y-77056552D01*
X17754005Y-77033864D01*
X17828139Y-76787745D01*
X17000000Y-75959605D01*
X16171861Y-76787745D01*
X16245995Y-77033864D01*
X16304254Y-77054805D01*
X16188200Y-77102757D01*
X15784176Y-77506077D01*
X15565250Y-78033309D01*
X15564752Y-78604187D01*
X14401000Y-78604187D01*
X14401000Y-75563223D01*
X15553035Y-75563223D01*
X15580222Y-76133454D01*
X15746136Y-76534005D01*
X15992255Y-76608139D01*
X16820395Y-75780000D01*
X17179605Y-75780000D01*
X18007745Y-76608139D01*
X18253864Y-76534005D01*
X18446965Y-75996777D01*
X18419778Y-75426546D01*
X18253864Y-75025995D01*
X18007745Y-74951861D01*
X17179605Y-75780000D01*
X16820395Y-75780000D01*
X15992255Y-74951861D01*
X15746136Y-75025995D01*
X15553035Y-75563223D01*
X14401000Y-75563223D01*
X14401000Y-70984187D01*
X15564752Y-70984187D01*
X15782757Y-71511800D01*
X16186077Y-71915824D01*
X16316215Y-71969862D01*
X16188200Y-72022757D01*
X15784176Y-72426077D01*
X15565250Y-72953309D01*
X15564752Y-73524187D01*
X15782757Y-74051800D01*
X16186077Y-74455824D01*
X16300768Y-74503448D01*
X16245995Y-74526136D01*
X16171861Y-74772255D01*
X17000000Y-75600395D01*
X17828139Y-74772255D01*
X17754005Y-74526136D01*
X17695746Y-74505195D01*
X17811800Y-74457243D01*
X18215824Y-74053923D01*
X18434750Y-73526691D01*
X18435248Y-72955813D01*
X18388883Y-72843599D01*
X22114699Y-72843599D01*
X22378281Y-73481515D01*
X22865918Y-73970004D01*
X23503373Y-74234699D01*
X24193599Y-74235301D01*
X24831515Y-73971719D01*
X25320004Y-73484082D01*
X25568695Y-72885167D01*
X60964838Y-72885167D01*
X61106883Y-73228943D01*
X61369673Y-73492192D01*
X61700098Y-73629397D01*
X61691808Y-73637673D01*
X61549162Y-73981201D01*
X61548838Y-74353167D01*
X61682383Y-74676371D01*
X61549162Y-74997201D01*
X61548838Y-75369167D01*
X61690883Y-75712943D01*
X61953673Y-75976192D01*
X62297201Y-76118838D01*
X62669167Y-76119162D01*
X63012943Y-75977117D01*
X63113067Y-75877167D01*
X67644838Y-75877167D01*
X67786883Y-76220943D01*
X68049673Y-76484192D01*
X68393201Y-76626838D01*
X68765167Y-76627162D01*
X69108943Y-76485117D01*
X69372192Y-76222327D01*
X69514838Y-75878799D01*
X69515162Y-75506833D01*
X69373117Y-75163057D01*
X69110327Y-74899808D01*
X68766799Y-74757162D01*
X68394833Y-74756838D01*
X68051057Y-74898883D01*
X67787808Y-75161673D01*
X67645162Y-75505201D01*
X67644838Y-75877167D01*
X63113067Y-75877167D01*
X63276192Y-75714327D01*
X63418838Y-75370799D01*
X63419162Y-74998833D01*
X63285617Y-74675629D01*
X63418838Y-74354799D01*
X63419162Y-73982833D01*
X63296170Y-73685167D01*
X70914838Y-73685167D01*
X71056883Y-74028943D01*
X71319673Y-74292192D01*
X71663201Y-74434838D01*
X72035167Y-74435162D01*
X72378943Y-74293117D01*
X72642192Y-74030327D01*
X72659439Y-73988791D01*
X72886077Y-74215824D01*
X73016215Y-74269862D01*
X72888200Y-74322757D01*
X72484176Y-74726077D01*
X72265250Y-75253309D01*
X72264752Y-75824187D01*
X72482757Y-76351800D01*
X72886077Y-76755824D01*
X73016215Y-76809862D01*
X72888200Y-76862757D01*
X72484176Y-77266077D01*
X72265250Y-77793309D01*
X72264752Y-78364187D01*
X72482757Y-78891800D01*
X72886077Y-79295824D01*
X73016215Y-79349862D01*
X72888200Y-79402757D01*
X72484176Y-79806077D01*
X72265250Y-80333309D01*
X72264752Y-80904187D01*
X72482757Y-81431800D01*
X72886077Y-81835824D01*
X73016215Y-81889862D01*
X72888200Y-81942757D01*
X72484176Y-82346077D01*
X72265250Y-82873309D01*
X72264752Y-83444187D01*
X72482757Y-83971800D01*
X72886077Y-84375824D01*
X73413309Y-84594750D01*
X73984187Y-84595248D01*
X74511800Y-84377243D01*
X74915824Y-83973923D01*
X75134750Y-83446691D01*
X75135248Y-82875813D01*
X74917243Y-82348200D01*
X74513923Y-81944176D01*
X74383785Y-81890138D01*
X74511800Y-81837243D01*
X74915824Y-81433923D01*
X75134750Y-80906691D01*
X75135248Y-80335813D01*
X74917243Y-79808200D01*
X74513923Y-79404176D01*
X74383785Y-79350138D01*
X74511800Y-79297243D01*
X74915824Y-78893923D01*
X75134750Y-78366691D01*
X75135248Y-77795813D01*
X74917243Y-77268200D01*
X74513923Y-76864176D01*
X74383785Y-76810138D01*
X74511800Y-76757243D01*
X74915824Y-76353923D01*
X75134750Y-75826691D01*
X75135248Y-75255813D01*
X74917243Y-74728200D01*
X74513923Y-74324176D01*
X74383785Y-74270138D01*
X74511800Y-74217243D01*
X74915824Y-73813923D01*
X75134750Y-73286691D01*
X75135248Y-72715813D01*
X74917243Y-72188200D01*
X74513923Y-71784176D01*
X74383785Y-71730138D01*
X74511800Y-71677243D01*
X74915824Y-71273923D01*
X75134750Y-70746691D01*
X75135248Y-70175813D01*
X74917243Y-69648200D01*
X74513923Y-69244176D01*
X74383785Y-69190138D01*
X74511800Y-69137243D01*
X74915824Y-68733923D01*
X75134750Y-68206691D01*
X75135248Y-67635813D01*
X74917243Y-67108200D01*
X74513923Y-66704176D01*
X74383785Y-66650138D01*
X74511800Y-66597243D01*
X74915824Y-66193923D01*
X75134750Y-65666691D01*
X75135248Y-65095813D01*
X74917243Y-64568200D01*
X74513923Y-64164176D01*
X74383785Y-64110138D01*
X74511800Y-64057243D01*
X74915824Y-63653923D01*
X75134750Y-63126691D01*
X75135248Y-62555813D01*
X74917243Y-62028200D01*
X74513923Y-61624176D01*
X74383785Y-61570138D01*
X74511800Y-61517243D01*
X74915824Y-61113923D01*
X75134750Y-60586691D01*
X75135248Y-60015813D01*
X74917243Y-59488200D01*
X74513923Y-59084176D01*
X73986691Y-58865250D01*
X73415813Y-58864752D01*
X72888200Y-59082757D01*
X72484176Y-59486077D01*
X72265250Y-60013309D01*
X72264752Y-60584187D01*
X72482757Y-61111800D01*
X72886077Y-61515824D01*
X73016215Y-61569862D01*
X72888200Y-61622757D01*
X72484176Y-62026077D01*
X72265250Y-62553309D01*
X72264752Y-63124187D01*
X72482757Y-63651800D01*
X72886077Y-64055824D01*
X73016215Y-64109862D01*
X72888200Y-64162757D01*
X72484176Y-64566077D01*
X72265250Y-65093309D01*
X72264752Y-65664187D01*
X72482757Y-66191800D01*
X72886077Y-66595824D01*
X73016215Y-66649862D01*
X72888200Y-66702757D01*
X72484176Y-67106077D01*
X72265250Y-67633309D01*
X72264752Y-68204187D01*
X72482757Y-68731800D01*
X72886077Y-69135824D01*
X73016215Y-69189862D01*
X72888200Y-69242757D01*
X72484176Y-69646077D01*
X72265250Y-70173309D01*
X72264752Y-70744187D01*
X72482757Y-71271800D01*
X72886077Y-71675824D01*
X73016215Y-71729862D01*
X72888200Y-71782757D01*
X72484176Y-72186077D01*
X72284122Y-72667860D01*
X72036799Y-72565162D01*
X71664833Y-72564838D01*
X71321057Y-72706883D01*
X71057808Y-72969673D01*
X70915162Y-73313201D01*
X70914838Y-73685167D01*
X63296170Y-73685167D01*
X63277117Y-73639057D01*
X63073480Y-73435065D01*
X63185167Y-73435162D01*
X63528943Y-73293117D01*
X63792192Y-73030327D01*
X63934838Y-72686799D01*
X63935162Y-72314833D01*
X63793117Y-71971057D01*
X63530327Y-71707808D01*
X63186799Y-71565162D01*
X62814833Y-71564838D01*
X62471057Y-71706883D01*
X62316944Y-71860727D01*
X62086799Y-71765162D01*
X61714833Y-71764838D01*
X61371057Y-71906883D01*
X61107808Y-72169673D01*
X60965162Y-72513201D01*
X60964838Y-72885167D01*
X25568695Y-72885167D01*
X25584699Y-72846627D01*
X25585301Y-72156401D01*
X25321719Y-71518485D01*
X24834082Y-71029996D01*
X24196627Y-70765301D01*
X23506401Y-70764699D01*
X22868485Y-71028281D01*
X22379996Y-71515918D01*
X22115301Y-72153373D01*
X22114699Y-72843599D01*
X18388883Y-72843599D01*
X18217243Y-72428200D01*
X17813923Y-72024176D01*
X17683785Y-71970138D01*
X17811800Y-71917243D01*
X18215824Y-71513923D01*
X18434750Y-70986691D01*
X18435248Y-70415813D01*
X18382919Y-70289167D01*
X58500838Y-70289167D01*
X58642883Y-70632943D01*
X58905673Y-70896192D01*
X59249201Y-71038838D01*
X59621167Y-71039162D01*
X59964943Y-70897117D01*
X60228192Y-70634327D01*
X60370838Y-70290799D01*
X60371162Y-69918833D01*
X60229117Y-69575057D01*
X59966327Y-69311808D01*
X59622799Y-69169162D01*
X59250833Y-69168838D01*
X58907057Y-69310883D01*
X58643808Y-69573673D01*
X58501162Y-69917201D01*
X58500838Y-70289167D01*
X18382919Y-70289167D01*
X18217243Y-69888200D01*
X17813923Y-69484176D01*
X17286691Y-69265250D01*
X16715813Y-69264752D01*
X16188200Y-69482757D01*
X15784176Y-69886077D01*
X15565250Y-70413309D01*
X15564752Y-70984187D01*
X14401000Y-70984187D01*
X14401000Y-68935167D01*
X65664838Y-68935167D01*
X65806883Y-69278943D01*
X66069673Y-69542192D01*
X66413201Y-69684838D01*
X66785167Y-69685162D01*
X67128943Y-69543117D01*
X67392192Y-69280327D01*
X67534838Y-68936799D01*
X67535162Y-68564833D01*
X67393117Y-68221057D01*
X67130327Y-67957808D01*
X66786799Y-67815162D01*
X66414833Y-67814838D01*
X66071057Y-67956883D01*
X65807808Y-68219673D01*
X65665162Y-68563201D01*
X65664838Y-68935167D01*
X14401000Y-68935167D01*
X14401000Y-67107745D01*
X16171861Y-67107745D01*
X16245995Y-67353864D01*
X16783223Y-67546965D01*
X17353454Y-67519778D01*
X17754005Y-67353864D01*
X17828139Y-67107745D01*
X17705562Y-66985167D01*
X35664838Y-66985167D01*
X35806883Y-67328943D01*
X36069673Y-67592192D01*
X36413201Y-67734838D01*
X36785167Y-67735162D01*
X36906164Y-67685167D01*
X39814838Y-67685167D01*
X39956883Y-68028943D01*
X40219673Y-68292192D01*
X40563201Y-68434838D01*
X40935167Y-68435162D01*
X41278943Y-68293117D01*
X41542192Y-68030327D01*
X41684838Y-67686799D01*
X41685162Y-67314833D01*
X41543117Y-66971057D01*
X41280327Y-66707808D01*
X40936799Y-66565162D01*
X40564833Y-66564838D01*
X40221057Y-66706883D01*
X39957808Y-66969673D01*
X39815162Y-67313201D01*
X39814838Y-67685167D01*
X36906164Y-67685167D01*
X37128943Y-67593117D01*
X37392192Y-67330327D01*
X37534838Y-66986799D01*
X37535162Y-66614833D01*
X37393117Y-66271057D01*
X37130327Y-66007808D01*
X36786799Y-65865162D01*
X36414833Y-65864838D01*
X36071057Y-66006883D01*
X35807808Y-66269673D01*
X35665162Y-66613201D01*
X35664838Y-66985167D01*
X17705562Y-66985167D01*
X17000000Y-66279605D01*
X16171861Y-67107745D01*
X14401000Y-67107745D01*
X14401000Y-65883223D01*
X15553035Y-65883223D01*
X15580222Y-66453454D01*
X15746136Y-66854005D01*
X15992255Y-66928139D01*
X16820395Y-66100000D01*
X17179605Y-66100000D01*
X18007745Y-66928139D01*
X18253864Y-66854005D01*
X18446965Y-66316777D01*
X18419778Y-65746546D01*
X18253864Y-65345995D01*
X18007745Y-65271861D01*
X17179605Y-66100000D01*
X16820395Y-66100000D01*
X15992255Y-65271861D01*
X15746136Y-65345995D01*
X15553035Y-65883223D01*
X14401000Y-65883223D01*
X14401000Y-61304187D01*
X15564752Y-61304187D01*
X15782757Y-61831800D01*
X16186077Y-62235824D01*
X16316215Y-62289862D01*
X16188200Y-62342757D01*
X15784176Y-62746077D01*
X15565250Y-63273309D01*
X15564752Y-63844187D01*
X15782757Y-64371800D01*
X16186077Y-64775824D01*
X16300768Y-64823448D01*
X16245995Y-64846136D01*
X16171861Y-65092255D01*
X17000000Y-65920395D01*
X17828139Y-65092255D01*
X17754005Y-64846136D01*
X17695746Y-64825195D01*
X17811800Y-64777243D01*
X18215824Y-64373923D01*
X18434750Y-63846691D01*
X18435248Y-63275813D01*
X18217243Y-62748200D01*
X17813923Y-62344176D01*
X17683785Y-62290138D01*
X17811800Y-62237243D01*
X18014228Y-62035167D01*
X41214838Y-62035167D01*
X41356883Y-62378943D01*
X41619673Y-62642192D01*
X41963201Y-62784838D01*
X42335167Y-62785162D01*
X42678943Y-62643117D01*
X42942192Y-62380327D01*
X43084838Y-62036799D01*
X43085162Y-61664833D01*
X42943117Y-61321057D01*
X42680327Y-61057808D01*
X42336799Y-60915162D01*
X41964833Y-60914838D01*
X41621057Y-61056883D01*
X41357808Y-61319673D01*
X41215162Y-61663201D01*
X41214838Y-62035167D01*
X18014228Y-62035167D01*
X18215824Y-61833923D01*
X18434750Y-61306691D01*
X18435248Y-60735813D01*
X18217243Y-60208200D01*
X17813923Y-59804176D01*
X17699232Y-59756552D01*
X17754005Y-59733864D01*
X17828139Y-59487745D01*
X17000000Y-58659605D01*
X16171861Y-59487745D01*
X16245995Y-59733864D01*
X16304254Y-59754805D01*
X16188200Y-59802757D01*
X15784176Y-60206077D01*
X15565250Y-60733309D01*
X15564752Y-61304187D01*
X14401000Y-61304187D01*
X14401000Y-58263223D01*
X15553035Y-58263223D01*
X15580222Y-58833454D01*
X15746136Y-59234005D01*
X15992255Y-59308139D01*
X16820395Y-58480000D01*
X17179605Y-58480000D01*
X18007745Y-59308139D01*
X18253864Y-59234005D01*
X18446965Y-58696777D01*
X18419778Y-58126546D01*
X18253864Y-57725995D01*
X18007745Y-57651861D01*
X17179605Y-58480000D01*
X16820395Y-58480000D01*
X15992255Y-57651861D01*
X15746136Y-57725995D01*
X15553035Y-58263223D01*
X14401000Y-58263223D01*
X14401000Y-53684187D01*
X15564752Y-53684187D01*
X15782757Y-54211800D01*
X16186077Y-54615824D01*
X16316215Y-54669862D01*
X16188200Y-54722757D01*
X15784176Y-55126077D01*
X15565250Y-55653309D01*
X15564752Y-56224187D01*
X15782757Y-56751800D01*
X16186077Y-57155824D01*
X16300768Y-57203448D01*
X16245995Y-57226136D01*
X16171861Y-57472255D01*
X17000000Y-58300395D01*
X17828139Y-57472255D01*
X17754005Y-57226136D01*
X17695746Y-57205195D01*
X17811800Y-57157243D01*
X18215824Y-56753923D01*
X18434750Y-56226691D01*
X18435248Y-55655813D01*
X18385399Y-55535167D01*
X35114838Y-55535167D01*
X35256883Y-55878943D01*
X35519673Y-56142192D01*
X35863201Y-56284838D01*
X36235167Y-56285162D01*
X36578943Y-56143117D01*
X36842192Y-55880327D01*
X36984838Y-55536799D01*
X36985162Y-55164833D01*
X36864583Y-54873008D01*
X37178943Y-54743117D01*
X37442192Y-54480327D01*
X37584838Y-54136799D01*
X37585162Y-53764833D01*
X37443117Y-53421057D01*
X37180327Y-53157808D01*
X36836799Y-53015162D01*
X36464833Y-53014838D01*
X36121057Y-53156883D01*
X35857808Y-53419673D01*
X35715162Y-53763201D01*
X35714838Y-54135167D01*
X35835417Y-54426992D01*
X35521057Y-54556883D01*
X35257808Y-54819673D01*
X35115162Y-55163201D01*
X35114838Y-55535167D01*
X18385399Y-55535167D01*
X18217243Y-55128200D01*
X17813923Y-54724176D01*
X17683785Y-54670138D01*
X17811800Y-54617243D01*
X18215824Y-54213923D01*
X18434750Y-53686691D01*
X18435248Y-53115813D01*
X18217243Y-52588200D01*
X17813923Y-52184176D01*
X17286691Y-51965250D01*
X16715813Y-51964752D01*
X16188200Y-52182757D01*
X15784176Y-52586077D01*
X15565250Y-53113309D01*
X15564752Y-53684187D01*
X14401000Y-53684187D01*
X14401000Y-48807745D01*
X16171861Y-48807745D01*
X16245995Y-49053864D01*
X16783223Y-49246965D01*
X17353454Y-49219778D01*
X17754005Y-49053864D01*
X17828139Y-48807745D01*
X17000000Y-47979605D01*
X16171861Y-48807745D01*
X14401000Y-48807745D01*
X14401000Y-47583223D01*
X15553035Y-47583223D01*
X15580222Y-48153454D01*
X15746136Y-48554005D01*
X15992255Y-48628139D01*
X16820395Y-47800000D01*
X17179605Y-47800000D01*
X18007745Y-48628139D01*
X18253864Y-48554005D01*
X18446965Y-48016777D01*
X18419778Y-47446546D01*
X18253864Y-47045995D01*
X18007745Y-46971861D01*
X17179605Y-47800000D01*
X16820395Y-47800000D01*
X15992255Y-46971861D01*
X15746136Y-47045995D01*
X15553035Y-47583223D01*
X14401000Y-47583223D01*
X14401000Y-43004187D01*
X15564752Y-43004187D01*
X15782757Y-43531800D01*
X16186077Y-43935824D01*
X16316215Y-43989862D01*
X16188200Y-44042757D01*
X15784176Y-44446077D01*
X15565250Y-44973309D01*
X15564752Y-45544187D01*
X15782757Y-46071800D01*
X16186077Y-46475824D01*
X16300768Y-46523448D01*
X16245995Y-46546136D01*
X16171861Y-46792255D01*
X17000000Y-47620395D01*
X17828139Y-46792255D01*
X17795883Y-46685167D01*
X35414838Y-46685167D01*
X35556883Y-47028943D01*
X35819673Y-47292192D01*
X36163201Y-47434838D01*
X36535167Y-47435162D01*
X36878943Y-47293117D01*
X37142192Y-47030327D01*
X37284838Y-46686799D01*
X37285162Y-46314833D01*
X37143117Y-45971057D01*
X36880327Y-45707808D01*
X36536799Y-45565162D01*
X36164833Y-45564838D01*
X35821057Y-45706883D01*
X35557808Y-45969673D01*
X35415162Y-46313201D01*
X35414838Y-46685167D01*
X17795883Y-46685167D01*
X17754005Y-46546136D01*
X17695746Y-46525195D01*
X17811800Y-46477243D01*
X18215824Y-46073923D01*
X18434750Y-45546691D01*
X18435248Y-44975813D01*
X18217243Y-44448200D01*
X17813923Y-44044176D01*
X17683785Y-43990138D01*
X17772215Y-43953599D01*
X21984699Y-43953599D01*
X22248281Y-44591515D01*
X22735918Y-45080004D01*
X23373373Y-45344699D01*
X24063599Y-45345301D01*
X24701515Y-45081719D01*
X24848323Y-44935167D01*
X29414838Y-44935167D01*
X29556883Y-45278943D01*
X29819673Y-45542192D01*
X30163201Y-45684838D01*
X30535167Y-45685162D01*
X30878943Y-45543117D01*
X31142192Y-45280327D01*
X31284838Y-44936799D01*
X31285162Y-44564833D01*
X31143117Y-44221057D01*
X30880327Y-43957808D01*
X30536799Y-43815162D01*
X30164833Y-43814838D01*
X29821057Y-43956883D01*
X29557808Y-44219673D01*
X29415162Y-44563201D01*
X29414838Y-44935167D01*
X24848323Y-44935167D01*
X25190004Y-44594082D01*
X25454699Y-43956627D01*
X25455301Y-43266401D01*
X25191719Y-42628485D01*
X24704082Y-42139996D01*
X24066627Y-41875301D01*
X23376401Y-41874699D01*
X22738485Y-42138281D01*
X22249996Y-42625918D01*
X21985301Y-43263373D01*
X21984699Y-43953599D01*
X17772215Y-43953599D01*
X17811800Y-43937243D01*
X18215824Y-43533923D01*
X18434750Y-43006691D01*
X18435248Y-42435813D01*
X18217243Y-41908200D01*
X17813923Y-41504176D01*
X17699232Y-41456552D01*
X17754005Y-41433864D01*
X17828139Y-41187745D01*
X17000000Y-40359605D01*
X16171861Y-41187745D01*
X16245995Y-41433864D01*
X16304254Y-41454805D01*
X16188200Y-41502757D01*
X15784176Y-41906077D01*
X15565250Y-42433309D01*
X15564752Y-43004187D01*
X14401000Y-43004187D01*
X14401000Y-39963223D01*
X15553035Y-39963223D01*
X15580222Y-40533454D01*
X15746136Y-40934005D01*
X15992255Y-41008139D01*
X16820395Y-40180000D01*
X17179605Y-40180000D01*
X18007745Y-41008139D01*
X18253864Y-40934005D01*
X18446965Y-40396777D01*
X18419778Y-39826546D01*
X18253864Y-39425995D01*
X18007745Y-39351861D01*
X17179605Y-40180000D01*
X16820395Y-40180000D01*
X15992255Y-39351861D01*
X15746136Y-39425995D01*
X15553035Y-39963223D01*
X14401000Y-39963223D01*
X14401000Y-33705000D01*
X16618405Y-33705000D01*
X16188200Y-33882757D01*
M02*
