M48
INCH,TZ
T1C0.016
T2C0.047
T3C0.051
%
G90
G05
T1
X11949Y-17618
X14193Y-21791
X14311Y-18307
X14409Y-26299
X14429Y-21240
X15157Y-23799
X15689Y-17421
X15984Y-24409
X16043Y-26575
X16594Y-24350
X17067Y-25177
X17165Y-21457
X17559Y-21063
X17677Y-19685
X18012Y-26339
X18110Y-15768
X18366Y-16713
X18543Y-26083
X18602Y-25413
X18760Y-24272
X18819Y-20295
X18917Y-23720
X19370Y-21811
X19488Y-26398
X19626Y-20492
X19882Y-21516
X20335Y-18760
X20984Y-21457
X21319Y-20236
X21496Y-28051
X22382Y-18701
X23130Y-21142
X23200Y-31800
X23400Y-27600
X23681Y-28051
X24055Y-21496
X24370Y-28622
X24547Y-31201
X24600Y-29200
X24600Y-29600
X24600Y-30600
X24803Y-28543
X24843Y-26280
X25800Y-30800
X25886Y-18051
X26181Y-20295
X26220Y-27067
X27000Y-29800
X28000Y-30200
X28287Y-28937
X29055Y-19626
T2
X26550Y-16981
X28400Y-15800
X28400Y-18162
T3
X6693Y-13819
X6693Y-14819
X6693Y-15819
X6693Y-16819
X6693Y-17819
X6693Y-18819
X6693Y-21024
X6693Y-22024
X6693Y-23024
X6693Y-24024
X6693Y-25024
X6693Y-26024
X6693Y-27835
X6693Y-28835
X6693Y-29835
X6693Y-30835
X6693Y-31835
X6693Y-32835
X9567Y-32205
X10567Y-32205
X11567Y-32205
X12567Y-32205
X13567Y-32205
X14567Y-32205
X29016Y-23740
X29016Y-24740
X29016Y-25740
X29016Y-26740
X29016Y-27740
X29016Y-28740
X29016Y-29740
X29016Y-30740
X29016Y-31740
X29016Y-32740
T0
M30
